<svg width="17" height="17" viewBox="0 0 17 17" fill="none" xmlns="http://www.w3.org/2000/svg">
<g id="Time Circle">
<path id="Time Circle_2" fill-rule="evenodd" clip-rule="evenodd" d="M8.5026 16.4193C4.1326 16.4193 0.585938 12.8805 0.585938 8.5026C0.585938 4.1326 4.1326 0.585938 8.5026 0.585938C12.8805 0.585938 16.4193 4.1326 16.4193 8.5026C16.4193 12.8805 12.8805 16.4193 8.5026 16.4193ZM11.028 11.4397C11.123 11.4951 11.2259 11.5268 11.3368 11.5268C11.5347 11.5268 11.7326 11.4239 11.8434 11.2339C12.0097 10.9568 11.9226 10.5926 11.6376 10.4184L8.81927 8.7401V5.0826C8.81927 4.7501 8.5501 4.48885 8.22552 4.48885C7.90094 4.48885 7.63177 4.7501 7.63177 5.0826V9.08052C7.63177 9.28635 7.7426 9.47635 7.92469 9.58719L11.028 11.4397Z" fill="#3D444F"/>
</g>
</svg>
