<svg width="428" height="1085" viewBox="0 0 428 1085" fill="none" xmlns="http://www.w3.org/2000/svg">
<g clip-path="url(#clip0_1_38578)">
<rect width="428" height="1085" fill="#00A6E3"/>
<mask id="mask0_1_38578" style="mask-type:luminance" maskUnits="userSpaceOnUse" x="-114" y="-2" width="662" height="454">
<path d="M-52.157 -1.38477C-86.3126 -1.38477 -114 7.88269 -114 19.3095V431.288C-114 442.715 -86.3126 451.983 -52.157 451.983H486.157C520.313 451.983 548 442.715 548 431.288V19.3095C548 7.88269 520.313 -1.38477 486.157 -1.38477H-52.157V-1.38477Z" fill="white"/>
</mask>
<g mask="url(#mask0_1_38578)">
<path d="M217.008 -21C247.031 -21 260.812 2.33959 260.812 25.6612C260.812 48.9828 287.583 61.0395 299.747 61.0395V102.068C287.583 102.068 260.812 90.0115 260.812 66.6899C260.812 43.3683 247.013 20.0287 217.008 20.0287V-21Z" fill="#0DD180"/>
</g>
<mask id="mask1_1_38578" style="mask-type:luminance" maskUnits="userSpaceOnUse" x="-114" y="-2" width="662" height="454">
<path d="M-52.157 -1.38477C-86.3126 -1.38477 -114 7.88269 -114 19.3095V431.288C-114 442.715 -86.3126 451.983 -52.157 451.983H486.157C520.313 451.983 548 442.715 548 431.288V19.3095C548 7.88269 520.313 -1.38477 486.157 -1.38477H-52.157V-1.38477Z" fill="white"/>
</mask>
<g mask="url(#mask1_1_38578)">
<path d="M382.504 -21C412.527 -21 426.308 2.33959 426.308 25.6612C426.308 48.9828 453.079 61.0395 465.243 61.0395V102.068C453.079 102.068 426.308 90.0115 426.308 66.6899C426.308 43.3683 412.509 20.0287 382.504 20.0287V-21Z" fill="#0DD180"/>
</g>
<mask id="mask2_1_38578" style="mask-type:luminance" maskUnits="userSpaceOnUse" x="-114" y="-2" width="662" height="454">
<path d="M-52.157 -1.38477C-86.3126 -1.38477 -114 7.88269 -114 19.3095V431.288C-114 442.715 -86.3126 451.983 -52.157 451.983H486.157C520.313 451.983 548 442.715 548 431.288V19.3095C548 7.88269 520.313 -1.38477 486.157 -1.38477H-52.157V-1.38477Z" fill="white"/>
</mask>
<g mask="url(#mask2_1_38578)">
<path d="M51.4961 -21C81.5192 -21 95.3 2.33959 95.3 25.6612C95.3 48.9828 122.071 61.0395 134.235 61.0395V102.068C122.071 102.068 95.3 90.0115 95.3 66.6899C95.3 43.3683 81.5192 20.0287 51.4961 20.0287V-21Z" fill="#0DD180"/>
</g>
<mask id="mask3_1_38578" style="mask-type:luminance" maskUnits="userSpaceOnUse" x="-114" y="-2" width="662" height="454">
<path d="M-52.157 -1.38477C-86.3126 -1.38477 -114 7.88269 -114 19.3095V431.288C-114 442.715 -86.3126 451.983 -52.157 451.983H486.157C520.313 451.983 548 442.715 548 431.288V19.3095C548 7.88269 520.313 -1.38477 486.157 -1.38477H-52.157V-1.38477Z" fill="white"/>
</mask>
<g mask="url(#mask3_1_38578)">
<path d="M382.504 -21C352.481 -21 338.7 2.33959 338.7 25.6612C338.7 48.9828 311.929 61.0395 299.766 61.0395V102.068C311.929 102.068 338.7 90.0115 338.7 66.6899C338.7 43.3683 352.499 20.0287 382.504 20.0287V-21Z" fill="#0DD180"/>
</g>
<mask id="mask4_1_38578" style="mask-type:luminance" maskUnits="userSpaceOnUse" x="-114" y="-2" width="662" height="454">
<path d="M-52.157 -1.38477C-86.3126 -1.38477 -114 7.88269 -114 19.3095V431.288C-114 442.715 -86.3126 451.983 -52.157 451.983H486.157C520.313 451.983 548 442.715 548 431.288V19.3095C548 7.88269 520.313 -1.38477 486.157 -1.38477H-52.157V-1.38477Z" fill="white"/>
</mask>
<g mask="url(#mask4_1_38578)">
<path d="M51.4966 -21C21.4914 -21 7.69265 2.33959 7.69265 25.6612C7.69265 48.9828 -19.0784 61.0395 -31.2422 61.0395V102.068C-19.0784 102.068 7.69265 90.0115 7.69265 66.6899C7.69265 43.3683 21.4914 20.0287 51.4966 20.0287V-21Z" fill="#0DD180"/>
</g>
<mask id="mask5_1_38578" style="mask-type:luminance" maskUnits="userSpaceOnUse" x="-114" y="-2" width="662" height="454">
<path d="M-52.157 -1.38477C-86.3126 -1.38477 -114 7.88269 -114 19.3095V431.288C-114 442.715 -86.3126 451.983 -52.157 451.983H486.157C520.313 451.983 548 442.715 548 431.288V19.3095C548 7.88269 520.313 -1.38477 486.157 -1.38477H-52.157V-1.38477Z" fill="white"/>
</mask>
<g mask="url(#mask5_1_38578)">
<path d="M217.008 -21C186.985 -21 173.204 2.33959 173.204 25.6612C173.204 48.9828 146.433 61.0395 134.27 61.0395V102.068C146.433 102.068 173.204 90.0115 173.204 66.6899C173.204 43.3683 187.003 20.0287 217.008 20.0287V-21Z" fill="#0DD180"/>
</g>
<mask id="mask6_1_38578" style="mask-type:luminance" maskUnits="userSpaceOnUse" x="-114" y="-2" width="662" height="454">
<path d="M-52.157 -1.38477C-86.3126 -1.38477 -114 7.88269 -114 19.3095V431.288C-114 442.715 -86.3126 451.983 -52.157 451.983H486.157C520.313 451.983 548 442.715 548 431.288V19.3095C548 7.88269 520.313 -1.38477 486.157 -1.38477H-52.157V-1.38477Z" fill="white"/>
</mask>
<g mask="url(#mask6_1_38578)">
<path d="M217.008 66.0977C247.031 66.0977 260.812 89.4372 260.812 112.759C260.812 136.08 287.583 148.155 299.747 148.155V189.184C287.583 189.184 260.812 177.127 260.812 153.806C260.812 130.484 247.013 107.144 217.008 107.144V66.0977Z" fill="#0DD180"/>
</g>
<mask id="mask7_1_38578" style="mask-type:luminance" maskUnits="userSpaceOnUse" x="-114" y="-2" width="662" height="454">
<path d="M-52.157 -1.38477C-86.3126 -1.38477 -114 7.88269 -114 19.3095V431.288C-114 442.715 -86.3126 451.983 -52.157 451.983H486.157C520.313 451.983 548 442.715 548 431.288V19.3095C548 7.88269 520.313 -1.38477 486.157 -1.38477H-52.157V-1.38477Z" fill="white"/>
</mask>
<g mask="url(#mask7_1_38578)">
<path d="M382.504 66.0977C412.527 66.0977 426.308 89.4372 426.308 112.759C426.308 136.08 453.079 148.155 465.261 148.155V189.184C453.097 189.184 426.326 177.127 426.326 153.806C426.326 130.484 412.527 107.144 382.522 107.144V66.0977H382.504Z" fill="#0DD180"/>
</g>
<mask id="mask8_1_38578" style="mask-type:luminance" maskUnits="userSpaceOnUse" x="-114" y="-2" width="662" height="454">
<path d="M-52.157 -1.38477C-86.3126 -1.38477 -114 7.88269 -114 19.3095V431.288C-114 442.715 -86.3126 451.983 -52.157 451.983H486.157C520.313 451.983 548 442.715 548 431.288V19.3095C548 7.88269 520.313 -1.38477 486.157 -1.38477H-52.157V-1.38477Z" fill="white"/>
</mask>
<g mask="url(#mask8_1_38578)">
<path d="M51.4961 66.0977C81.5192 66.0977 95.3 89.4372 95.3 112.759C95.3 136.08 122.089 148.155 134.253 148.155V189.184C122.089 189.184 95.318 177.127 95.318 153.806C95.318 130.484 81.5192 107.126 51.4961 107.126V66.0977Z" fill="#0DD180"/>
</g>
<mask id="mask9_1_38578" style="mask-type:luminance" maskUnits="userSpaceOnUse" x="-114" y="-2" width="662" height="454">
<path d="M-52.157 -1.38477C-86.3126 -1.38477 -114 7.88269 -114 19.3095V431.288C-114 442.715 -86.3126 451.983 -52.157 451.983H486.157C520.313 451.983 548 442.715 548 431.288V19.3095C548 7.88269 520.313 -1.38477 486.157 -1.38477H-52.157V-1.38477Z" fill="white"/>
</mask>
<g mask="url(#mask9_1_38578)">
<path d="M382.503 66.0977C352.48 66.0977 338.699 89.4372 338.699 112.759C338.699 136.08 311.928 148.155 299.746 148.155V189.184C311.91 189.184 338.681 177.127 338.681 153.806C338.681 130.484 352.48 107.144 382.485 107.144V66.0977H382.503Z" fill="#0DD180"/>
</g>
<mask id="mask10_1_38578" style="mask-type:luminance" maskUnits="userSpaceOnUse" x="-114" y="-2" width="662" height="454">
<path d="M-52.157 -1.38477C-86.3126 -1.38477 -114 7.88269 -114 19.3095V431.288C-114 442.715 -86.3126 451.983 -52.157 451.983H486.157C520.313 451.983 548 442.715 548 431.288V19.3095C548 7.88269 520.313 -1.38477 486.157 -1.38477H-52.157V-1.38477Z" fill="white"/>
</mask>
<g mask="url(#mask10_1_38578)">
<path d="M51.4966 66.0977C21.4735 66.0977 7.69265 89.4372 7.69265 112.759C7.69265 136.08 -19.0784 148.155 -31.2422 148.155V189.184C-19.0784 189.184 7.69265 177.127 7.69265 153.806C7.69265 130.484 21.4914 107.126 51.4966 107.126V66.0977Z" fill="#0DD180"/>
</g>
<mask id="mask11_1_38578" style="mask-type:luminance" maskUnits="userSpaceOnUse" x="-114" y="-2" width="662" height="454">
<path d="M-52.157 -1.38477C-86.3126 -1.38477 -114 7.88269 -114 19.3095V431.288C-114 442.715 -86.3126 451.983 -52.157 451.983H486.157C520.313 451.983 548 442.715 548 431.288V19.3095C548 7.88269 520.313 -1.38477 486.157 -1.38477H-52.157V-1.38477Z" fill="white"/>
</mask>
<g mask="url(#mask11_1_38578)">
<path d="M217.011 66.0977C186.988 66.0977 173.207 89.4372 173.207 112.759C173.207 136.08 146.418 148.155 134.254 148.155V189.184C146.418 189.184 173.189 177.127 173.189 153.806C173.189 130.484 186.988 107.144 216.993 107.144V66.0977H217.011Z" fill="#0DD180"/>
</g>
<mask id="mask12_1_38578" style="mask-type:luminance" maskUnits="userSpaceOnUse" x="-114" y="-2" width="662" height="454">
<path d="M-52.157 -1.38477C-86.3126 -1.38477 -114 7.88269 -114 19.3095V431.288C-114 442.715 -86.3126 451.983 -52.157 451.983H486.157C520.313 451.983 548 442.715 548 431.288V19.3095C548 7.88269 520.313 -1.38477 486.157 -1.38477H-52.157V-1.38477Z" fill="white"/>
</mask>
<g mask="url(#mask12_1_38578)">
<path d="M217.008 153.193C247.031 153.193 260.812 176.533 260.812 199.855C260.812 223.176 287.583 235.233 299.747 235.233V276.262C287.583 276.262 260.812 264.205 260.812 240.883C260.812 217.562 247.013 194.222 217.008 194.222V153.193Z" fill="#0DD180"/>
</g>
<mask id="mask13_1_38578" style="mask-type:luminance" maskUnits="userSpaceOnUse" x="-114" y="-2" width="662" height="454">
<path d="M-52.157 -1.38477C-86.3126 -1.38477 -114 7.88269 -114 19.3095V431.288C-114 442.715 -86.3126 451.983 -52.157 451.983H486.157C520.313 451.983 548 442.715 548 431.288V19.3095C548 7.88269 520.313 -1.38477 486.157 -1.38477H-52.157V-1.38477Z" fill="white"/>
</mask>
<g mask="url(#mask13_1_38578)">
<path d="M382.504 153.193C412.527 153.193 426.308 176.533 426.308 199.855C426.308 223.176 453.079 235.233 465.243 235.233V276.262C453.079 276.262 426.308 264.205 426.308 240.883C426.308 217.562 412.509 194.222 382.504 194.222V153.193Z" fill="#0DD180"/>
</g>
<mask id="mask14_1_38578" style="mask-type:luminance" maskUnits="userSpaceOnUse" x="-114" y="-2" width="662" height="454">
<path d="M-52.157 -1.38477C-86.3126 -1.38477 -114 7.88269 -114 19.3095V431.288C-114 442.715 -86.3126 451.983 -52.157 451.983H486.157C520.313 451.983 548 442.715 548 431.288V19.3095C548 7.88269 520.313 -1.38477 486.157 -1.38477H-52.157V-1.38477Z" fill="white"/>
</mask>
<g mask="url(#mask14_1_38578)">
<path d="M51.4961 153.193C81.5192 153.193 95.3 176.533 95.3 199.855C95.3 223.176 122.071 235.233 134.235 235.233V276.262C122.071 276.262 95.3 264.205 95.3 240.883C95.3 217.562 81.5013 194.222 51.4961 194.222V153.193Z" fill="#0DD180"/>
</g>
<mask id="mask15_1_38578" style="mask-type:luminance" maskUnits="userSpaceOnUse" x="-114" y="-2" width="662" height="454">
<path d="M-52.157 -1.38477C-86.3126 -1.38477 -114 7.88269 -114 19.3095V431.288C-114 442.715 -86.3126 451.983 -52.157 451.983H486.157C520.313 451.983 548 442.715 548 431.288V19.3095C548 7.88269 520.313 -1.38477 486.157 -1.38477H-52.157V-1.38477Z" fill="white"/>
</mask>
<g mask="url(#mask15_1_38578)">
<path d="M382.504 153.193C352.481 153.193 338.7 176.533 338.7 199.855C338.7 223.176 311.929 235.233 299.766 235.233V276.262C311.929 276.262 338.7 264.205 338.7 240.883C338.7 217.562 352.499 194.222 382.504 194.222V153.193Z" fill="#0DD180"/>
</g>
<mask id="mask16_1_38578" style="mask-type:luminance" maskUnits="userSpaceOnUse" x="-114" y="-2" width="662" height="454">
<path d="M-52.157 -1.38477C-86.3126 -1.38477 -114 7.88269 -114 19.3095V431.288C-114 442.715 -86.3126 451.983 -52.157 451.983H486.157C520.313 451.983 548 442.715 548 431.288V19.3095C548 7.88269 520.313 -1.38477 486.157 -1.38477H-52.157V-1.38477Z" fill="white"/>
</mask>
<g mask="url(#mask16_1_38578)">
<path d="M51.4966 153.193C21.4735 153.193 7.69265 176.533 7.69265 199.855C7.69265 223.176 -19.0784 235.233 -31.2422 235.233V276.262C-19.0784 276.262 7.69265 264.205 7.69265 240.883C7.69265 217.562 21.4914 194.222 51.4966 194.222V153.193Z" fill="#0DD180"/>
</g>
<mask id="mask17_1_38578" style="mask-type:luminance" maskUnits="userSpaceOnUse" x="-114" y="-2" width="662" height="454">
<path d="M-52.157 -1.38477C-86.3126 -1.38477 -114 7.88269 -114 19.3095V431.288C-114 442.715 -86.3126 451.983 -52.157 451.983H486.157C520.313 451.983 548 442.715 548 431.288V19.3095C548 7.88269 520.313 -1.38477 486.157 -1.38477H-52.157V-1.38477Z" fill="white"/>
</mask>
<g mask="url(#mask17_1_38578)">
<path d="M217.008 153.193C186.985 153.193 173.204 176.533 173.204 199.855C173.204 223.176 146.433 235.233 134.27 235.233V276.262C146.433 276.262 173.204 264.205 173.204 240.883C173.204 217.562 187.003 194.222 217.008 194.222V153.193Z" fill="#0DD180"/>
</g>
<mask id="mask18_1_38578" style="mask-type:luminance" maskUnits="userSpaceOnUse" x="-114" y="-2" width="662" height="454">
<path d="M-52.157 -1.38477C-86.3126 -1.38477 -114 7.88269 -114 19.3095V431.288C-114 442.715 -86.3126 451.983 -52.157 451.983H486.157C520.313 451.983 548 442.715 548 431.288V19.3095C548 7.88269 520.313 -1.38477 486.157 -1.38477H-52.157V-1.38477Z" fill="white"/>
</mask>
<g mask="url(#mask18_1_38578)">
<path d="M217.008 240.307C247.031 240.307 260.812 263.646 260.812 286.968C260.812 310.289 287.583 322.346 299.747 322.346V363.375C287.583 363.375 260.812 351.318 260.812 327.997C260.812 304.675 247.013 281.317 217.008 281.317V240.307Z" fill="#0DD180"/>
</g>
<mask id="mask19_1_38578" style="mask-type:luminance" maskUnits="userSpaceOnUse" x="-114" y="-2" width="662" height="454">
<path d="M-52.157 -1.38477C-86.3126 -1.38477 -114 7.88269 -114 19.3095V431.288C-114 442.715 -86.3126 451.983 -52.157 451.983H486.157C520.313 451.983 548 442.715 548 431.288V19.3095C548 7.88269 520.313 -1.38477 486.157 -1.38477H-52.157V-1.38477Z" fill="white"/>
</mask>
<g mask="url(#mask19_1_38578)">
<path d="M382.504 240.307C412.527 240.307 426.308 263.646 426.308 286.968C426.308 310.289 453.079 322.346 465.243 322.346V363.375C453.079 363.375 426.308 351.318 426.308 327.997C426.308 304.675 412.527 281.317 382.504 281.317V240.307Z" fill="#0DD180"/>
</g>
<mask id="mask20_1_38578" style="mask-type:luminance" maskUnits="userSpaceOnUse" x="-114" y="-2" width="662" height="454">
<path d="M-52.157 -1.38477C-86.3126 -1.38477 -114 7.88269 -114 19.3095V431.288C-114 442.715 -86.3126 451.983 -52.157 451.983H486.157C520.313 451.983 548 442.715 548 431.288V19.3095C548 7.88269 520.313 -1.38477 486.157 -1.38477H-52.157V-1.38477Z" fill="white"/>
</mask>
<g mask="url(#mask20_1_38578)">
<path d="M51.4961 240.307C81.5192 240.307 95.3 263.646 95.3 286.968C95.3 310.289 122.071 322.346 134.235 322.346V363.375C122.071 363.375 95.3 351.318 95.3 327.997C95.3 304.675 81.5192 281.317 51.4961 281.317V240.307Z" fill="#0DD180"/>
</g>
<mask id="mask21_1_38578" style="mask-type:luminance" maskUnits="userSpaceOnUse" x="-114" y="-2" width="662" height="454">
<path d="M-52.157 -1.38477C-86.3126 -1.38477 -114 7.88269 -114 19.3095V431.288C-114 442.715 -86.3126 451.983 -52.157 451.983H486.157C520.313 451.983 548 442.715 548 431.288V19.3095C548 7.88269 520.313 -1.38477 486.157 -1.38477H-52.157V-1.38477Z" fill="white"/>
</mask>
<g mask="url(#mask21_1_38578)">
<path d="M382.504 240.307C352.481 240.307 338.7 263.646 338.7 286.968C338.7 310.29 311.929 322.346 299.766 322.346V363.375C311.929 363.375 338.7 351.318 338.7 327.997C338.7 304.675 352.481 281.318 382.504 281.318V240.307Z" fill="#0DD180"/>
</g>
<mask id="mask22_1_38578" style="mask-type:luminance" maskUnits="userSpaceOnUse" x="-114" y="-2" width="662" height="454">
<path d="M-52.157 -1.38477C-86.3126 -1.38477 -114 7.88269 -114 19.3095V431.288C-114 442.715 -86.3126 451.983 -52.157 451.983H486.157C520.313 451.983 548 442.715 548 431.288V19.3095C548 7.88269 520.313 -1.38477 486.157 -1.38477H-52.157V-1.38477Z" fill="white"/>
</mask>
<g mask="url(#mask22_1_38578)">
<path d="M51.4966 240.307C21.4735 240.307 7.69265 263.646 7.69265 286.968C7.69265 310.289 -19.0784 322.346 -31.2422 322.346V363.375C-19.0784 363.375 7.69265 351.318 7.69265 327.997C7.69265 304.675 21.4914 281.317 51.4966 281.317V240.307Z" fill="#0DD180"/>
</g>
<mask id="mask23_1_38578" style="mask-type:luminance" maskUnits="userSpaceOnUse" x="-114" y="-2" width="662" height="454">
<path d="M-52.157 -1.38477C-86.3126 -1.38477 -114 7.88269 -114 19.3095V431.288C-114 442.715 -86.3126 451.983 -52.157 451.983H486.157C520.313 451.983 548 442.715 548 431.288V19.3095C548 7.88269 520.313 -1.38477 486.157 -1.38477H-52.157V-1.38477Z" fill="white"/>
</mask>
<g mask="url(#mask23_1_38578)">
<path d="M217.008 240.307C186.985 240.307 173.204 263.646 173.204 286.968C173.204 310.289 146.433 322.346 134.27 322.346V363.375C146.433 363.375 173.204 351.318 173.204 327.997C173.204 304.675 186.985 281.317 217.008 281.317V240.307Z" fill="#0DD180"/>
</g>
<mask id="mask24_1_38578" style="mask-type:luminance" maskUnits="userSpaceOnUse" x="-114" y="-2" width="662" height="454">
<path d="M-52.157 -1.38477C-86.3126 -1.38477 -114 7.88269 -114 19.3095V431.288C-114 442.715 -86.3126 451.983 -52.157 451.983H486.157C520.313 451.983 548 442.715 548 431.288V19.3095C548 7.88269 520.313 -1.38477 486.157 -1.38477H-52.157V-1.38477Z" fill="white"/>
</mask>
<g mask="url(#mask24_1_38578)">
<path d="M217.008 327.402C247.031 327.402 260.812 350.742 260.812 374.064C260.812 397.385 287.583 409.442 299.747 409.442V450.471C287.583 450.471 260.812 438.414 260.812 415.092C260.812 391.771 247.013 368.431 217.008 368.431V327.402Z" fill="#0DD180"/>
</g>
<mask id="mask25_1_38578" style="mask-type:luminance" maskUnits="userSpaceOnUse" x="-114" y="-2" width="662" height="454">
<path d="M-52.157 -1.38477C-86.3126 -1.38477 -114 7.88269 -114 19.3095V431.288C-114 442.715 -86.3126 451.983 -52.157 451.983H486.157C520.313 451.983 548 442.715 548 431.288V19.3095C548 7.88269 520.313 -1.38477 486.157 -1.38477H-52.157V-1.38477Z" fill="white"/>
</mask>
<g mask="url(#mask25_1_38578)">
<path d="M382.504 327.402C412.527 327.402 426.308 350.742 426.308 374.064C426.308 397.385 453.079 409.442 465.243 409.442V450.471C453.079 450.471 426.308 438.414 426.308 415.092C426.308 391.771 412.509 368.431 382.504 368.431V327.402Z" fill="#0DD180"/>
</g>
<mask id="mask26_1_38578" style="mask-type:luminance" maskUnits="userSpaceOnUse" x="-114" y="-2" width="662" height="454">
<path d="M-52.157 -1.38477C-86.3126 -1.38477 -114 7.88269 -114 19.3095V431.288C-114 442.715 -86.3126 451.983 -52.157 451.983H486.157C520.313 451.983 548 442.715 548 431.288V19.3095C548 7.88269 520.313 -1.38477 486.157 -1.38477H-52.157V-1.38477Z" fill="white"/>
</mask>
<g mask="url(#mask26_1_38578)">
<path d="M51.4961 327.402C81.5192 327.402 95.3 350.742 95.3 374.064C95.3 397.385 122.071 409.442 134.235 409.442V450.471C122.071 450.471 95.3 438.414 95.3 415.092C95.3 391.771 81.5013 368.431 51.4961 368.431V327.402Z" fill="#0DD180"/>
</g>
<mask id="mask27_1_38578" style="mask-type:luminance" maskUnits="userSpaceOnUse" x="-114" y="-2" width="662" height="454">
<path d="M-52.157 -1.38477C-86.3126 -1.38477 -114 7.88269 -114 19.3095V431.288C-114 442.715 -86.3126 451.983 -52.157 451.983H486.157C520.313 451.983 548 442.715 548 431.288V19.3095C548 7.88269 520.313 -1.38477 486.157 -1.38477H-52.157V-1.38477Z" fill="white"/>
</mask>
<g mask="url(#mask27_1_38578)">
<path d="M382.504 327.402C352.481 327.402 338.7 350.742 338.7 374.064C338.7 397.385 311.929 409.442 299.766 409.442V450.471C311.929 450.471 338.7 438.414 338.7 415.092C338.7 391.771 352.499 368.431 382.504 368.431V327.402Z" fill="#0DD180"/>
</g>
<mask id="mask28_1_38578" style="mask-type:luminance" maskUnits="userSpaceOnUse" x="-114" y="-2" width="662" height="454">
<path d="M-52.157 -1.38477C-86.3126 -1.38477 -114 7.88269 -114 19.3095V431.288C-114 442.715 -86.3126 451.983 -52.157 451.983H486.157C520.313 451.983 548 442.715 548 431.288V19.3095C548 7.88269 520.313 -1.38477 486.157 -1.38477H-52.157V-1.38477Z" fill="white"/>
</mask>
<g mask="url(#mask28_1_38578)">
<path d="M51.4966 327.402C21.4735 327.402 7.69265 350.742 7.69265 374.064C7.69265 397.385 -19.0784 409.442 -31.2422 409.442V450.471C-19.0784 450.471 7.69265 438.414 7.69265 415.092C7.69265 391.771 21.4914 368.431 51.4966 368.431V327.402Z" fill="#0DD180"/>
</g>
<mask id="mask29_1_38578" style="mask-type:luminance" maskUnits="userSpaceOnUse" x="-114" y="-2" width="662" height="454">
<path d="M-52.157 -1.38477C-86.3126 -1.38477 -114 7.88269 -114 19.3095V431.288C-114 442.715 -86.3126 451.983 -52.157 451.983H486.157C520.313 451.983 548 442.715 548 431.288V19.3095C548 7.88269 520.313 -1.38477 486.157 -1.38477H-52.157Z" fill="white"/>
</mask>
<g mask="url(#mask29_1_38578)">
<path d="M217.008 327.402C186.985 327.402 173.204 350.742 173.204 374.064C173.204 397.385 146.433 409.442 134.27 409.442V450.471C146.433 450.471 173.204 438.414 173.204 415.092C173.204 391.771 187.003 368.431 217.008 368.431V327.402Z" fill="#0DD180"/>
</g>
<mask id="mask30_1_38578" style="mask-type:luminance" maskUnits="userSpaceOnUse" x="-114" y="349" width="662" height="454">
<path d="M-52.157 349.615C-86.3126 349.615 -114 358.883 -114 370.31V782.288C-114 793.715 -86.3126 802.983 -52.157 802.983H486.157C520.313 802.983 548 793.715 548 782.288V370.31C548 358.883 520.313 349.615 486.157 349.615H-52.157Z" fill="white"/>
</mask>
<g mask="url(#mask30_1_38578)">
<path d="M217.008 330C247.031 330 260.812 353.34 260.812 376.661C260.812 399.983 287.583 412.039 299.747 412.039V453.068C287.583 453.068 260.812 441.011 260.812 417.69C260.812 394.368 247.013 371.029 217.008 371.029V330Z" fill="#0DD180"/>
</g>
<mask id="mask31_1_38578" style="mask-type:luminance" maskUnits="userSpaceOnUse" x="-114" y="349" width="662" height="454">
<path d="M-52.157 349.615C-86.3126 349.615 -114 358.883 -114 370.31V782.288C-114 793.715 -86.3126 802.983 -52.157 802.983H486.157C520.313 802.983 548 793.715 548 782.288V370.31C548 358.883 520.313 349.615 486.157 349.615H-52.157Z" fill="white"/>
</mask>
<g mask="url(#mask31_1_38578)">
<path d="M382.504 330C412.527 330 426.308 353.34 426.308 376.661C426.308 399.983 453.079 412.039 465.243 412.039V453.068C453.079 453.068 426.308 441.011 426.308 417.69C426.308 394.368 412.509 371.029 382.504 371.029V330Z" fill="#0DD180"/>
</g>
<mask id="mask32_1_38578" style="mask-type:luminance" maskUnits="userSpaceOnUse" x="-114" y="349" width="662" height="454">
<path d="M-52.157 349.615C-86.3126 349.615 -114 358.883 -114 370.31V782.288C-114 793.715 -86.3126 802.983 -52.157 802.983H486.157C520.313 802.983 548 793.715 548 782.288V370.31C548 358.883 520.313 349.615 486.157 349.615H-52.157Z" fill="white"/>
</mask>
<g mask="url(#mask32_1_38578)">
<path d="M51.4961 330C81.5192 330 95.3 353.34 95.3 376.661C95.3 399.983 122.071 412.039 134.235 412.039V453.068C122.071 453.068 95.3 441.011 95.3 417.69C95.3 394.368 81.5192 371.029 51.4961 371.029V330Z" fill="#0DD180"/>
</g>
<mask id="mask33_1_38578" style="mask-type:luminance" maskUnits="userSpaceOnUse" x="-114" y="349" width="662" height="454">
<path d="M-52.157 349.615C-86.3126 349.615 -114 358.883 -114 370.31V782.288C-114 793.715 -86.3126 802.983 -52.157 802.983H486.157C520.313 802.983 548 793.715 548 782.288V370.31C548 358.883 520.313 349.615 486.157 349.615H-52.157Z" fill="white"/>
</mask>
<g mask="url(#mask33_1_38578)">
<path d="M382.504 330C352.481 330 338.7 353.34 338.7 376.661C338.7 399.983 311.929 412.039 299.766 412.039V453.068C311.929 453.068 338.7 441.011 338.7 417.69C338.7 394.368 352.499 371.029 382.504 371.029V330Z" fill="#0DD180"/>
</g>
<mask id="mask34_1_38578" style="mask-type:luminance" maskUnits="userSpaceOnUse" x="-114" y="349" width="662" height="454">
<path d="M-52.157 349.615C-86.3126 349.615 -114 358.883 -114 370.31V782.288C-114 793.715 -86.3126 802.983 -52.157 802.983H486.157C520.313 802.983 548 793.715 548 782.288V370.31C548 358.883 520.313 349.615 486.157 349.615H-52.157Z" fill="white"/>
</mask>
<g mask="url(#mask34_1_38578)">
<path d="M51.4966 330C21.4914 330 7.69265 353.34 7.69265 376.661C7.69265 399.983 -19.0784 412.039 -31.2422 412.039V453.068C-19.0784 453.068 7.69265 441.011 7.69265 417.69C7.69265 394.368 21.4914 371.029 51.4966 371.029V330Z" fill="#0DD180"/>
</g>
<mask id="mask35_1_38578" style="mask-type:luminance" maskUnits="userSpaceOnUse" x="-114" y="349" width="662" height="454">
<path d="M-52.157 349.615C-86.3126 349.615 -114 358.883 -114 370.31V782.288C-114 793.715 -86.3126 802.983 -52.157 802.983H486.157C520.313 802.983 548 793.715 548 782.288V370.31C548 358.883 520.313 349.615 486.157 349.615H-52.157Z" fill="white"/>
</mask>
<g mask="url(#mask35_1_38578)">
<path d="M217.008 330C186.985 330 173.204 353.34 173.204 376.661C173.204 399.983 146.433 412.039 134.27 412.039V453.068C146.433 453.068 173.204 441.011 173.204 417.69C173.204 394.368 187.003 371.029 217.008 371.029V330Z" fill="#0DD180"/>
</g>
<mask id="mask36_1_38578" style="mask-type:luminance" maskUnits="userSpaceOnUse" x="-114" y="349" width="662" height="454">
<path d="M-52.157 349.615C-86.3126 349.615 -114 358.883 -114 370.31V782.288C-114 793.715 -86.3126 802.983 -52.157 802.983H486.157C520.313 802.983 548 793.715 548 782.288V370.31C548 358.883 520.313 349.615 486.157 349.615H-52.157Z" fill="white"/>
</mask>
<g mask="url(#mask36_1_38578)">
<path d="M217.008 417.098C247.031 417.098 260.812 440.437 260.812 463.759C260.812 487.08 287.583 499.155 299.747 499.155V540.184C287.583 540.184 260.812 528.127 260.812 504.806C260.812 481.484 247.013 458.144 217.008 458.144V417.098Z" fill="#0DD180"/>
</g>
<mask id="mask37_1_38578" style="mask-type:luminance" maskUnits="userSpaceOnUse" x="-114" y="349" width="662" height="454">
<path d="M-52.157 349.615C-86.3126 349.615 -114 358.883 -114 370.31V782.288C-114 793.715 -86.3126 802.983 -52.157 802.983H486.157C520.313 802.983 548 793.715 548 782.288V370.31C548 358.883 520.313 349.615 486.157 349.615H-52.157Z" fill="white"/>
</mask>
<g mask="url(#mask37_1_38578)">
<path d="M382.504 417.098C412.527 417.098 426.308 440.437 426.308 463.759C426.308 487.08 453.079 499.155 465.261 499.155V540.184C453.097 540.184 426.326 528.127 426.326 504.806C426.326 481.484 412.527 458.144 382.522 458.144V417.098H382.504Z" fill="#0DD180"/>
</g>
<mask id="mask38_1_38578" style="mask-type:luminance" maskUnits="userSpaceOnUse" x="-114" y="349" width="662" height="454">
<path d="M-52.157 349.615C-86.3126 349.615 -114 358.883 -114 370.31V782.288C-114 793.715 -86.3126 802.983 -52.157 802.983H486.157C520.313 802.983 548 793.715 548 782.288V370.31C548 358.883 520.313 349.615 486.157 349.615H-52.157Z" fill="white"/>
</mask>
<g mask="url(#mask38_1_38578)">
<path d="M51.4961 417.098C81.5192 417.098 95.3 440.437 95.3 463.759C95.3 487.08 122.089 499.155 134.253 499.155V540.184C122.089 540.184 95.318 528.127 95.318 504.806C95.318 481.484 81.5192 458.126 51.4961 458.126V417.098Z" fill="#0DD180"/>
</g>
<mask id="mask39_1_38578" style="mask-type:luminance" maskUnits="userSpaceOnUse" x="-114" y="349" width="662" height="454">
<path d="M-52.157 349.615C-86.3126 349.615 -114 358.883 -114 370.31V782.288C-114 793.715 -86.3126 802.983 -52.157 802.983H486.157C520.313 802.983 548 793.715 548 782.288V370.31C548 358.883 520.313 349.615 486.157 349.615H-52.157Z" fill="white"/>
</mask>
<g mask="url(#mask39_1_38578)">
<path d="M382.503 417.098C352.48 417.098 338.699 440.437 338.699 463.759C338.699 487.08 311.928 499.155 299.746 499.155V540.184C311.91 540.184 338.681 528.127 338.681 504.806C338.681 481.484 352.48 458.144 382.485 458.144V417.098H382.503Z" fill="#0DD180"/>
</g>
<mask id="mask40_1_38578" style="mask-type:luminance" maskUnits="userSpaceOnUse" x="-114" y="349" width="662" height="454">
<path d="M-52.157 349.615C-86.3126 349.615 -114 358.883 -114 370.31V782.288C-114 793.715 -86.3126 802.983 -52.157 802.983H486.157C520.313 802.983 548 793.715 548 782.288V370.31C548 358.883 520.313 349.615 486.157 349.615H-52.157Z" fill="white"/>
</mask>
<g mask="url(#mask40_1_38578)">
<path d="M51.4966 417.098C21.4735 417.098 7.69265 440.437 7.69265 463.759C7.69265 487.08 -19.0784 499.155 -31.2422 499.155V540.184C-19.0784 540.184 7.69265 528.127 7.69265 504.806C7.69265 481.484 21.4914 458.126 51.4966 458.126V417.098Z" fill="#0DD180"/>
</g>
<mask id="mask41_1_38578" style="mask-type:luminance" maskUnits="userSpaceOnUse" x="-114" y="349" width="662" height="454">
<path d="M-52.157 349.615C-86.3126 349.615 -114 358.883 -114 370.31V782.288C-114 793.715 -86.3126 802.983 -52.157 802.983H486.157C520.313 802.983 548 793.715 548 782.288V370.31C548 358.883 520.313 349.615 486.157 349.615H-52.157Z" fill="white"/>
</mask>
<g mask="url(#mask41_1_38578)">
<path d="M217.011 417.098C186.988 417.098 173.207 440.437 173.207 463.759C173.207 487.08 146.418 499.155 134.254 499.155V540.184C146.418 540.184 173.189 528.127 173.189 504.806C173.189 481.484 186.988 458.144 216.993 458.144V417.098H217.011Z" fill="#0DD180"/>
</g>
<mask id="mask42_1_38578" style="mask-type:luminance" maskUnits="userSpaceOnUse" x="-114" y="349" width="662" height="454">
<path d="M-52.157 349.615C-86.3126 349.615 -114 358.883 -114 370.31V782.288C-114 793.715 -86.3126 802.983 -52.157 802.983H486.157C520.313 802.983 548 793.715 548 782.288V370.31C548 358.883 520.313 349.615 486.157 349.615H-52.157Z" fill="white"/>
</mask>
<g mask="url(#mask42_1_38578)">
<path d="M217.008 504.193C247.031 504.193 260.812 527.533 260.812 550.855C260.812 574.176 287.583 586.233 299.747 586.233V627.262C287.583 627.262 260.812 615.205 260.812 591.883C260.812 568.562 247.013 545.222 217.008 545.222V504.193Z" fill="#0DD180"/>
</g>
<mask id="mask43_1_38578" style="mask-type:luminance" maskUnits="userSpaceOnUse" x="-114" y="349" width="662" height="454">
<path d="M-52.157 349.615C-86.3126 349.615 -114 358.883 -114 370.31V782.288C-114 793.715 -86.3126 802.983 -52.157 802.983H486.157C520.313 802.983 548 793.715 548 782.288V370.31C548 358.883 520.313 349.615 486.157 349.615H-52.157Z" fill="white"/>
</mask>
<g mask="url(#mask43_1_38578)">
<path d="M382.504 504.193C412.527 504.193 426.308 527.533 426.308 550.855C426.308 574.176 453.079 586.233 465.243 586.233V627.262C453.079 627.262 426.308 615.205 426.308 591.883C426.308 568.562 412.509 545.222 382.504 545.222V504.193Z" fill="#0DD180"/>
</g>
<mask id="mask44_1_38578" style="mask-type:luminance" maskUnits="userSpaceOnUse" x="-114" y="349" width="662" height="454">
<path d="M-52.157 349.615C-86.3126 349.615 -114 358.883 -114 370.31V782.288C-114 793.715 -86.3126 802.983 -52.157 802.983H486.157C520.313 802.983 548 793.715 548 782.288V370.31C548 358.883 520.313 349.615 486.157 349.615H-52.157Z" fill="white"/>
</mask>
<g mask="url(#mask44_1_38578)">
<path d="M51.4961 504.193C81.5192 504.193 95.3 527.533 95.3 550.855C95.3 574.176 122.071 586.233 134.235 586.233V627.262C122.071 627.262 95.3 615.205 95.3 591.883C95.3 568.562 81.5013 545.222 51.4961 545.222V504.193Z" fill="#0DD180"/>
</g>
<mask id="mask45_1_38578" style="mask-type:luminance" maskUnits="userSpaceOnUse" x="-114" y="349" width="662" height="454">
<path d="M-52.157 349.615C-86.3126 349.615 -114 358.883 -114 370.31V782.288C-114 793.715 -86.3126 802.983 -52.157 802.983H486.157C520.313 802.983 548 793.715 548 782.288V370.31C548 358.883 520.313 349.615 486.157 349.615H-52.157Z" fill="white"/>
</mask>
<g mask="url(#mask45_1_38578)">
<path d="M382.504 504.193C352.481 504.193 338.7 527.533 338.7 550.855C338.7 574.176 311.929 586.233 299.766 586.233V627.262C311.929 627.262 338.7 615.205 338.7 591.883C338.7 568.562 352.499 545.222 382.504 545.222V504.193Z" fill="#0DD180"/>
</g>
<mask id="mask46_1_38578" style="mask-type:luminance" maskUnits="userSpaceOnUse" x="-114" y="349" width="662" height="454">
<path d="M-52.157 349.615C-86.3126 349.615 -114 358.883 -114 370.31V782.288C-114 793.715 -86.3126 802.983 -52.157 802.983H486.157C520.313 802.983 548 793.715 548 782.288V370.31C548 358.883 520.313 349.615 486.157 349.615H-52.157Z" fill="white"/>
</mask>
<g mask="url(#mask46_1_38578)">
<path d="M51.4966 504.193C21.4735 504.193 7.69265 527.533 7.69265 550.855C7.69265 574.176 -19.0784 586.233 -31.2422 586.233V627.262C-19.0784 627.262 7.69265 615.205 7.69265 591.883C7.69265 568.562 21.4914 545.222 51.4966 545.222V504.193Z" fill="#0DD180"/>
</g>
<mask id="mask47_1_38578" style="mask-type:luminance" maskUnits="userSpaceOnUse" x="-114" y="349" width="662" height="454">
<path d="M-52.157 349.615C-86.3126 349.615 -114 358.883 -114 370.31V782.288C-114 793.715 -86.3126 802.983 -52.157 802.983H486.157C520.313 802.983 548 793.715 548 782.288V370.31C548 358.883 520.313 349.615 486.157 349.615H-52.157Z" fill="white"/>
</mask>
<g mask="url(#mask47_1_38578)">
<path d="M217.008 504.193C186.985 504.193 173.204 527.533 173.204 550.855C173.204 574.176 146.433 586.233 134.27 586.233V627.262C146.433 627.262 173.204 615.205 173.204 591.883C173.204 568.562 187.003 545.222 217.008 545.222V504.193Z" fill="#0DD180"/>
</g>
<mask id="mask48_1_38578" style="mask-type:luminance" maskUnits="userSpaceOnUse" x="-114" y="349" width="662" height="454">
<path d="M-52.157 349.615C-86.3126 349.615 -114 358.883 -114 370.31V782.288C-114 793.715 -86.3126 802.983 -52.157 802.983H486.157C520.313 802.983 548 793.715 548 782.288V370.31C548 358.883 520.313 349.615 486.157 349.615H-52.157Z" fill="white"/>
</mask>
<g mask="url(#mask48_1_38578)">
<path d="M217.008 591.307C247.031 591.307 260.812 614.646 260.812 637.968C260.812 661.289 287.583 673.346 299.747 673.346V714.375C287.583 714.375 260.812 702.318 260.812 678.997C260.812 655.675 247.013 632.317 217.008 632.317V591.307Z" fill="#0DD180"/>
</g>
<mask id="mask49_1_38578" style="mask-type:luminance" maskUnits="userSpaceOnUse" x="-114" y="349" width="662" height="454">
<path d="M-52.157 349.615C-86.3126 349.615 -114 358.883 -114 370.31V782.288C-114 793.715 -86.3126 802.983 -52.157 802.983H486.157C520.313 802.983 548 793.715 548 782.288V370.31C548 358.883 520.313 349.615 486.157 349.615H-52.157Z" fill="white"/>
</mask>
<g mask="url(#mask49_1_38578)">
<path d="M382.504 591.307C412.527 591.307 426.308 614.646 426.308 637.968C426.308 661.289 453.079 673.346 465.243 673.346V714.375C453.079 714.375 426.308 702.318 426.308 678.997C426.308 655.675 412.527 632.317 382.504 632.317V591.307Z" fill="#0DD180"/>
</g>
<mask id="mask50_1_38578" style="mask-type:luminance" maskUnits="userSpaceOnUse" x="-114" y="349" width="662" height="454">
<path d="M-52.157 349.615C-86.3126 349.615 -114 358.883 -114 370.31V782.288C-114 793.715 -86.3126 802.983 -52.157 802.983H486.157C520.313 802.983 548 793.715 548 782.288V370.31C548 358.883 520.313 349.615 486.157 349.615H-52.157Z" fill="white"/>
</mask>
<g mask="url(#mask50_1_38578)">
<path d="M51.4961 591.307C81.5192 591.307 95.3 614.646 95.3 637.968C95.3 661.289 122.071 673.346 134.235 673.346V714.375C122.071 714.375 95.3 702.318 95.3 678.997C95.3 655.675 81.5192 632.317 51.4961 632.317V591.307Z" fill="#0DD180"/>
</g>
<mask id="mask51_1_38578" style="mask-type:luminance" maskUnits="userSpaceOnUse" x="-114" y="349" width="662" height="454">
<path d="M-52.157 349.615C-86.3126 349.615 -114 358.883 -114 370.31V782.288C-114 793.715 -86.3126 802.983 -52.157 802.983H486.157C520.313 802.983 548 793.715 548 782.288V370.31C548 358.883 520.313 349.615 486.157 349.615H-52.157Z" fill="white"/>
</mask>
<g mask="url(#mask51_1_38578)">
<path d="M382.504 591.307C352.481 591.307 338.7 614.646 338.7 637.968C338.7 661.29 311.929 673.346 299.766 673.346V714.375C311.929 714.375 338.7 702.318 338.7 678.997C338.7 655.675 352.481 632.318 382.504 632.318V591.307Z" fill="#0DD180"/>
</g>
<mask id="mask52_1_38578" style="mask-type:luminance" maskUnits="userSpaceOnUse" x="-114" y="349" width="662" height="454">
<path d="M-52.157 349.615C-86.3126 349.615 -114 358.883 -114 370.31V782.288C-114 793.715 -86.3126 802.983 -52.157 802.983H486.157C520.313 802.983 548 793.715 548 782.288V370.31C548 358.883 520.313 349.615 486.157 349.615H-52.157Z" fill="white"/>
</mask>
<g mask="url(#mask52_1_38578)">
<path d="M51.4966 591.307C21.4735 591.307 7.69265 614.646 7.69265 637.968C7.69265 661.289 -19.0784 673.346 -31.2422 673.346V714.375C-19.0784 714.375 7.69265 702.318 7.69265 678.997C7.69265 655.675 21.4914 632.317 51.4966 632.317V591.307Z" fill="#0DD180"/>
</g>
<mask id="mask53_1_38578" style="mask-type:luminance" maskUnits="userSpaceOnUse" x="-114" y="349" width="662" height="454">
<path d="M-52.157 349.615C-86.3126 349.615 -114 358.883 -114 370.31V782.288C-114 793.715 -86.3126 802.983 -52.157 802.983H486.157C520.313 802.983 548 793.715 548 782.288V370.31C548 358.883 520.313 349.615 486.157 349.615H-52.157Z" fill="white"/>
</mask>
<g mask="url(#mask53_1_38578)">
<path d="M217.008 591.307C186.985 591.307 173.204 614.646 173.204 637.968C173.204 661.289 146.433 673.346 134.27 673.346V714.375C146.433 714.375 173.204 702.318 173.204 678.997C173.204 655.675 186.985 632.317 217.008 632.317V591.307Z" fill="#0DD180"/>
</g>
<mask id="mask54_1_38578" style="mask-type:luminance" maskUnits="userSpaceOnUse" x="-114" y="349" width="662" height="454">
<path d="M-52.157 349.615C-86.3126 349.615 -114 358.883 -114 370.31V782.288C-114 793.715 -86.3126 802.983 -52.157 802.983H486.157C520.313 802.983 548 793.715 548 782.288V370.31C548 358.883 520.313 349.615 486.157 349.615H-52.157Z" fill="white"/>
</mask>
<g mask="url(#mask54_1_38578)">
<path d="M217.008 678.402C247.031 678.402 260.812 701.742 260.812 725.064C260.812 748.385 287.583 760.442 299.747 760.442V801.471C287.583 801.471 260.812 789.414 260.812 766.092C260.812 742.771 247.013 719.431 217.008 719.431V678.402Z" fill="#0DD180"/>
</g>
<mask id="mask55_1_38578" style="mask-type:luminance" maskUnits="userSpaceOnUse" x="-114" y="349" width="662" height="454">
<path d="M-52.157 349.615C-86.3126 349.615 -114 358.883 -114 370.31V782.288C-114 793.715 -86.3126 802.983 -52.157 802.983H486.157C520.313 802.983 548 793.715 548 782.288V370.31C548 358.883 520.313 349.615 486.157 349.615H-52.157Z" fill="white"/>
</mask>
<g mask="url(#mask55_1_38578)">
<path d="M382.504 678.402C412.527 678.402 426.308 701.742 426.308 725.064C426.308 748.385 453.079 760.442 465.243 760.442V801.471C453.079 801.471 426.308 789.414 426.308 766.092C426.308 742.771 412.509 719.431 382.504 719.431V678.402Z" fill="#0DD180"/>
</g>
<mask id="mask56_1_38578" style="mask-type:luminance" maskUnits="userSpaceOnUse" x="-114" y="349" width="662" height="454">
<path d="M-52.157 349.615C-86.3126 349.615 -114 358.883 -114 370.31V782.288C-114 793.715 -86.3126 802.983 -52.157 802.983H486.157C520.313 802.983 548 793.715 548 782.288V370.31C548 358.883 520.313 349.615 486.157 349.615H-52.157Z" fill="white"/>
</mask>
<g mask="url(#mask56_1_38578)">
<path d="M51.4961 678.402C81.5192 678.402 95.3 701.742 95.3 725.064C95.3 748.385 122.071 760.442 134.235 760.442V801.471C122.071 801.471 95.3 789.414 95.3 766.092C95.3 742.771 81.5013 719.431 51.4961 719.431V678.402Z" fill="#0DD180"/>
</g>
<mask id="mask57_1_38578" style="mask-type:luminance" maskUnits="userSpaceOnUse" x="-114" y="349" width="662" height="454">
<path d="M-52.157 349.615C-86.3126 349.615 -114 358.883 -114 370.31V782.288C-114 793.715 -86.3126 802.983 -52.157 802.983H486.157C520.313 802.983 548 793.715 548 782.288V370.31C548 358.883 520.313 349.615 486.157 349.615H-52.157Z" fill="white"/>
</mask>
<g mask="url(#mask57_1_38578)">
<path d="M382.504 678.402C352.481 678.402 338.7 701.742 338.7 725.064C338.7 748.385 311.929 760.442 299.766 760.442V801.471C311.929 801.471 338.7 789.414 338.7 766.092C338.7 742.771 352.499 719.431 382.504 719.431V678.402Z" fill="#0DD180"/>
</g>
<mask id="mask58_1_38578" style="mask-type:luminance" maskUnits="userSpaceOnUse" x="-114" y="349" width="662" height="454">
<path d="M-52.157 349.615C-86.3126 349.615 -114 358.883 -114 370.31V782.288C-114 793.715 -86.3126 802.983 -52.157 802.983H486.157C520.313 802.983 548 793.715 548 782.288V370.31C548 358.883 520.313 349.615 486.157 349.615H-52.157Z" fill="white"/>
</mask>
<g mask="url(#mask58_1_38578)">
<path d="M51.4966 678.402C21.4735 678.402 7.69265 701.742 7.69265 725.064C7.69265 748.385 -19.0784 760.442 -31.2422 760.442V801.471C-19.0784 801.471 7.69265 789.414 7.69265 766.092C7.69265 742.771 21.4914 719.431 51.4966 719.431V678.402Z" fill="#0DD180"/>
</g>
<mask id="mask59_1_38578" style="mask-type:luminance" maskUnits="userSpaceOnUse" x="-114" y="349" width="662" height="454">
<path d="M-52.157 349.615C-86.3126 349.615 -114 358.883 -114 370.31V782.288C-114 793.715 -86.3126 802.983 -52.157 802.983H486.157C520.313 802.983 548 793.715 548 782.288V370.31C548 358.883 520.313 349.615 486.157 349.615H-52.157Z" fill="white"/>
</mask>
<g mask="url(#mask59_1_38578)">
<path d="M217.008 678.402C186.985 678.402 173.204 701.742 173.204 725.064C173.204 748.385 146.433 760.442 134.27 760.442V801.471C146.433 801.471 173.204 789.414 173.204 766.092C173.204 742.771 187.003 719.431 217.008 719.431V678.402Z" fill="#0DD180"/>
</g>
<mask id="mask60_1_38578" style="mask-type:luminance" maskUnits="userSpaceOnUse" x="-114" y="700" width="662" height="454">
<path d="M-52.157 700.615C-86.3126 700.615 -114 709.883 -114 721.31V1133.29C-114 1144.72 -86.3126 1153.98 -52.157 1153.98H486.157C520.313 1153.98 548 1144.72 548 1133.29V721.31C548 709.883 520.313 700.615 486.157 700.615H-52.157Z" fill="white"/>
</mask>
<g mask="url(#mask60_1_38578)">
<path d="M217.008 681C247.031 681 260.812 704.34 260.812 727.661C260.812 750.983 287.583 763.039 299.747 763.039V804.068C287.583 804.068 260.812 792.011 260.812 768.69C260.812 745.368 247.013 722.029 217.008 722.029V681Z" fill="#0DD180"/>
</g>
<mask id="mask61_1_38578" style="mask-type:luminance" maskUnits="userSpaceOnUse" x="-114" y="700" width="662" height="454">
<path d="M-52.157 700.615C-86.3126 700.615 -114 709.883 -114 721.31V1133.29C-114 1144.72 -86.3126 1153.98 -52.157 1153.98H486.157C520.313 1153.98 548 1144.72 548 1133.29V721.31C548 709.883 520.313 700.615 486.157 700.615H-52.157Z" fill="white"/>
</mask>
<g mask="url(#mask61_1_38578)">
<path d="M382.504 681C412.527 681 426.308 704.34 426.308 727.661C426.308 750.983 453.079 763.039 465.243 763.039V804.068C453.079 804.068 426.308 792.011 426.308 768.69C426.308 745.368 412.509 722.029 382.504 722.029V681Z" fill="#0DD180"/>
</g>
<mask id="mask62_1_38578" style="mask-type:luminance" maskUnits="userSpaceOnUse" x="-114" y="700" width="662" height="454">
<path d="M-52.157 700.615C-86.3126 700.615 -114 709.883 -114 721.31V1133.29C-114 1144.72 -86.3126 1153.98 -52.157 1153.98H486.157C520.313 1153.98 548 1144.72 548 1133.29V721.31C548 709.883 520.313 700.615 486.157 700.615H-52.157Z" fill="white"/>
</mask>
<g mask="url(#mask62_1_38578)">
<path d="M51.4961 681C81.5192 681 95.3 704.34 95.3 727.661C95.3 750.983 122.071 763.039 134.235 763.039V804.068C122.071 804.068 95.3 792.011 95.3 768.69C95.3 745.368 81.5192 722.029 51.4961 722.029V681Z" fill="#0DD180"/>
</g>
<mask id="mask63_1_38578" style="mask-type:luminance" maskUnits="userSpaceOnUse" x="-114" y="700" width="662" height="454">
<path d="M-52.157 700.615C-86.3126 700.615 -114 709.883 -114 721.31V1133.29C-114 1144.72 -86.3126 1153.98 -52.157 1153.98H486.157C520.313 1153.98 548 1144.72 548 1133.29V721.31C548 709.883 520.313 700.615 486.157 700.615H-52.157Z" fill="white"/>
</mask>
<g mask="url(#mask63_1_38578)">
<path d="M382.504 681C352.481 681 338.7 704.34 338.7 727.661C338.7 750.983 311.929 763.039 299.766 763.039V804.068C311.929 804.068 338.7 792.011 338.7 768.69C338.7 745.368 352.499 722.029 382.504 722.029V681Z" fill="#0DD180"/>
</g>
<mask id="mask64_1_38578" style="mask-type:luminance" maskUnits="userSpaceOnUse" x="-114" y="700" width="662" height="454">
<path d="M-52.157 700.615C-86.3126 700.615 -114 709.883 -114 721.31V1133.29C-114 1144.72 -86.3126 1153.98 -52.157 1153.98H486.157C520.313 1153.98 548 1144.72 548 1133.29V721.31C548 709.883 520.313 700.615 486.157 700.615H-52.157Z" fill="white"/>
</mask>
<g mask="url(#mask64_1_38578)">
<path d="M51.4966 681C21.4914 681 7.69265 704.34 7.69265 727.661C7.69265 750.983 -19.0784 763.039 -31.2422 763.039V804.068C-19.0784 804.068 7.69265 792.011 7.69265 768.69C7.69265 745.368 21.4914 722.029 51.4966 722.029V681Z" fill="#0DD180"/>
</g>
<mask id="mask65_1_38578" style="mask-type:luminance" maskUnits="userSpaceOnUse" x="-114" y="700" width="662" height="454">
<path d="M-52.157 700.615C-86.3126 700.615 -114 709.883 -114 721.31V1133.29C-114 1144.72 -86.3126 1153.98 -52.157 1153.98H486.157C520.313 1153.98 548 1144.72 548 1133.29V721.31C548 709.883 520.313 700.615 486.157 700.615H-52.157Z" fill="white"/>
</mask>
<g mask="url(#mask65_1_38578)">
<path d="M217.008 681C186.985 681 173.204 704.34 173.204 727.661C173.204 750.983 146.433 763.039 134.27 763.039V804.068C146.433 804.068 173.204 792.011 173.204 768.69C173.204 745.368 187.003 722.029 217.008 722.029V681Z" fill="#0DD180"/>
</g>
<mask id="mask66_1_38578" style="mask-type:luminance" maskUnits="userSpaceOnUse" x="-114" y="700" width="662" height="454">
<path d="M-52.157 700.615C-86.3126 700.615 -114 709.883 -114 721.31V1133.29C-114 1144.72 -86.3126 1153.98 -52.157 1153.98H486.157C520.313 1153.98 548 1144.72 548 1133.29V721.31C548 709.883 520.313 700.615 486.157 700.615H-52.157Z" fill="white"/>
</mask>
<g mask="url(#mask66_1_38578)">
<path d="M217.008 768.098C247.031 768.098 260.812 791.437 260.812 814.759C260.812 838.08 287.583 850.155 299.747 850.155V891.184C287.583 891.184 260.812 879.127 260.812 855.806C260.812 832.484 247.013 809.144 217.008 809.144V768.098Z" fill="#0DD180"/>
</g>
<mask id="mask67_1_38578" style="mask-type:luminance" maskUnits="userSpaceOnUse" x="-114" y="700" width="662" height="454">
<path d="M-52.157 700.615C-86.3126 700.615 -114 709.883 -114 721.31V1133.29C-114 1144.72 -86.3126 1153.98 -52.157 1153.98H486.157C520.313 1153.98 548 1144.72 548 1133.29V721.31C548 709.883 520.313 700.615 486.157 700.615H-52.157Z" fill="white"/>
</mask>
<g mask="url(#mask67_1_38578)">
<path d="M382.504 768.098C412.527 768.098 426.308 791.437 426.308 814.759C426.308 838.08 453.079 850.155 465.261 850.155V891.184C453.097 891.184 426.326 879.127 426.326 855.806C426.326 832.484 412.527 809.144 382.522 809.144V768.098H382.504Z" fill="#0DD180"/>
</g>
<mask id="mask68_1_38578" style="mask-type:luminance" maskUnits="userSpaceOnUse" x="-114" y="700" width="662" height="454">
<path d="M-52.157 700.615C-86.3126 700.615 -114 709.883 -114 721.31V1133.29C-114 1144.72 -86.3126 1153.98 -52.157 1153.98H486.157C520.313 1153.98 548 1144.72 548 1133.29V721.31C548 709.883 520.313 700.615 486.157 700.615H-52.157Z" fill="white"/>
</mask>
<g mask="url(#mask68_1_38578)">
<path d="M51.4961 768.098C81.5192 768.098 95.3 791.437 95.3 814.759C95.3 838.08 122.089 850.155 134.253 850.155V891.184C122.089 891.184 95.318 879.127 95.318 855.806C95.318 832.484 81.5192 809.126 51.4961 809.126V768.098Z" fill="#0DD180"/>
</g>
<mask id="mask69_1_38578" style="mask-type:luminance" maskUnits="userSpaceOnUse" x="-114" y="700" width="662" height="454">
<path d="M-52.157 700.615C-86.3126 700.615 -114 709.883 -114 721.31V1133.29C-114 1144.72 -86.3126 1153.98 -52.157 1153.98H486.157C520.313 1153.98 548 1144.72 548 1133.29V721.31C548 709.883 520.313 700.615 486.157 700.615H-52.157Z" fill="white"/>
</mask>
<g mask="url(#mask69_1_38578)">
<path d="M382.503 768.098C352.48 768.098 338.699 791.437 338.699 814.759C338.699 838.08 311.928 850.155 299.746 850.155V891.184C311.91 891.184 338.681 879.127 338.681 855.806C338.681 832.484 352.48 809.144 382.485 809.144V768.098H382.503Z" fill="#0DD180"/>
</g>
<mask id="mask70_1_38578" style="mask-type:luminance" maskUnits="userSpaceOnUse" x="-114" y="700" width="662" height="454">
<path d="M-52.157 700.615C-86.3126 700.615 -114 709.883 -114 721.31V1133.29C-114 1144.72 -86.3126 1153.98 -52.157 1153.98H486.157C520.313 1153.98 548 1144.72 548 1133.29V721.31C548 709.883 520.313 700.615 486.157 700.615H-52.157Z" fill="white"/>
</mask>
<g mask="url(#mask70_1_38578)">
<path d="M51.4966 768.098C21.4735 768.098 7.69265 791.437 7.69265 814.759C7.69265 838.08 -19.0784 850.155 -31.2422 850.155V891.184C-19.0784 891.184 7.69265 879.127 7.69265 855.806C7.69265 832.484 21.4914 809.126 51.4966 809.126V768.098Z" fill="#0DD180"/>
</g>
<mask id="mask71_1_38578" style="mask-type:luminance" maskUnits="userSpaceOnUse" x="-114" y="700" width="662" height="454">
<path d="M-52.157 700.615C-86.3126 700.615 -114 709.883 -114 721.31V1133.29C-114 1144.72 -86.3126 1153.98 -52.157 1153.98H486.157C520.313 1153.98 548 1144.72 548 1133.29V721.31C548 709.883 520.313 700.615 486.157 700.615H-52.157Z" fill="white"/>
</mask>
<g mask="url(#mask71_1_38578)">
<path d="M217.011 768.098C186.988 768.098 173.207 791.437 173.207 814.759C173.207 838.08 146.418 850.155 134.254 850.155V891.184C146.418 891.184 173.189 879.127 173.189 855.806C173.189 832.484 186.988 809.144 216.993 809.144V768.098H217.011Z" fill="#0DD180"/>
</g>
<mask id="mask72_1_38578" style="mask-type:luminance" maskUnits="userSpaceOnUse" x="-114" y="700" width="662" height="454">
<path d="M-52.157 700.615C-86.3126 700.615 -114 709.883 -114 721.31V1133.29C-114 1144.72 -86.3126 1153.98 -52.157 1153.98H486.157C520.313 1153.98 548 1144.72 548 1133.29V721.31C548 709.883 520.313 700.615 486.157 700.615H-52.157Z" fill="white"/>
</mask>
<g mask="url(#mask72_1_38578)">
<path d="M217.008 855.193C247.031 855.193 260.812 878.533 260.812 901.855C260.812 925.176 287.583 937.233 299.747 937.233V978.262C287.583 978.262 260.812 966.205 260.812 942.883C260.812 919.562 247.013 896.222 217.008 896.222V855.193Z" fill="#0DD180"/>
</g>
<mask id="mask73_1_38578" style="mask-type:luminance" maskUnits="userSpaceOnUse" x="-114" y="700" width="662" height="454">
<path d="M-52.157 700.615C-86.3126 700.615 -114 709.883 -114 721.31V1133.29C-114 1144.72 -86.3126 1153.98 -52.157 1153.98H486.157C520.313 1153.98 548 1144.72 548 1133.29V721.31C548 709.883 520.313 700.615 486.157 700.615H-52.157Z" fill="white"/>
</mask>
<g mask="url(#mask73_1_38578)">
<path d="M382.504 855.193C412.527 855.193 426.308 878.533 426.308 901.855C426.308 925.176 453.079 937.233 465.243 937.233V978.262C453.079 978.262 426.308 966.205 426.308 942.883C426.308 919.562 412.509 896.222 382.504 896.222V855.193Z" fill="#0DD180"/>
</g>
<mask id="mask74_1_38578" style="mask-type:luminance" maskUnits="userSpaceOnUse" x="-114" y="700" width="662" height="454">
<path d="M-52.157 700.615C-86.3126 700.615 -114 709.883 -114 721.31V1133.29C-114 1144.72 -86.3126 1153.98 -52.157 1153.98H486.157C520.313 1153.98 548 1144.72 548 1133.29V721.31C548 709.883 520.313 700.615 486.157 700.615H-52.157Z" fill="white"/>
</mask>
<g mask="url(#mask74_1_38578)">
<path d="M51.4961 855.193C81.5192 855.193 95.3 878.533 95.3 901.855C95.3 925.176 122.071 937.233 134.235 937.233V978.262C122.071 978.262 95.3 966.205 95.3 942.883C95.3 919.562 81.5013 896.222 51.4961 896.222V855.193Z" fill="#0DD180"/>
</g>
<mask id="mask75_1_38578" style="mask-type:luminance" maskUnits="userSpaceOnUse" x="-114" y="700" width="662" height="454">
<path d="M-52.157 700.615C-86.3126 700.615 -114 709.883 -114 721.31V1133.29C-114 1144.72 -86.3126 1153.98 -52.157 1153.98H486.157C520.313 1153.98 548 1144.72 548 1133.29V721.31C548 709.883 520.313 700.615 486.157 700.615H-52.157Z" fill="white"/>
</mask>
<g mask="url(#mask75_1_38578)">
<path d="M382.504 855.193C352.481 855.193 338.7 878.533 338.7 901.855C338.7 925.176 311.929 937.233 299.766 937.233V978.262C311.929 978.262 338.7 966.205 338.7 942.883C338.7 919.562 352.499 896.222 382.504 896.222V855.193Z" fill="#0DD180"/>
</g>
<mask id="mask76_1_38578" style="mask-type:luminance" maskUnits="userSpaceOnUse" x="-114" y="700" width="662" height="454">
<path d="M-52.157 700.615C-86.3126 700.615 -114 709.883 -114 721.31V1133.29C-114 1144.72 -86.3126 1153.98 -52.157 1153.98H486.157C520.313 1153.98 548 1144.72 548 1133.29V721.31C548 709.883 520.313 700.615 486.157 700.615H-52.157Z" fill="white"/>
</mask>
<g mask="url(#mask76_1_38578)">
<path d="M51.4966 855.193C21.4735 855.193 7.69265 878.533 7.69265 901.855C7.69265 925.176 -19.0784 937.233 -31.2422 937.233V978.262C-19.0784 978.262 7.69265 966.205 7.69265 942.883C7.69265 919.562 21.4914 896.222 51.4966 896.222V855.193Z" fill="#0DD180"/>
</g>
<mask id="mask77_1_38578" style="mask-type:luminance" maskUnits="userSpaceOnUse" x="-114" y="700" width="662" height="454">
<path d="M-52.157 700.615C-86.3126 700.615 -114 709.883 -114 721.31V1133.29C-114 1144.72 -86.3126 1153.98 -52.157 1153.98H486.157C520.313 1153.98 548 1144.72 548 1133.29V721.31C548 709.883 520.313 700.615 486.157 700.615H-52.157Z" fill="white"/>
</mask>
<g mask="url(#mask77_1_38578)">
<path d="M217.008 855.193C186.985 855.193 173.204 878.533 173.204 901.855C173.204 925.176 146.433 937.233 134.27 937.233V978.262C146.433 978.262 173.204 966.205 173.204 942.883C173.204 919.562 187.003 896.222 217.008 896.222V855.193Z" fill="#0DD180"/>
</g>
<mask id="mask78_1_38578" style="mask-type:luminance" maskUnits="userSpaceOnUse" x="-114" y="700" width="662" height="454">
<path d="M-52.157 700.615C-86.3126 700.615 -114 709.883 -114 721.31V1133.29C-114 1144.72 -86.3126 1153.98 -52.157 1153.98H486.157C520.313 1153.98 548 1144.72 548 1133.29V721.31C548 709.883 520.313 700.615 486.157 700.615H-52.157Z" fill="white"/>
</mask>
<g mask="url(#mask78_1_38578)">
<path d="M217.008 942.307C247.031 942.307 260.812 965.646 260.812 988.968C260.812 1012.29 287.583 1024.35 299.747 1024.35V1065.37C287.583 1065.37 260.812 1053.32 260.812 1030C260.812 1006.67 247.013 983.317 217.008 983.317V942.307Z" fill="#0DD180"/>
</g>
<mask id="mask79_1_38578" style="mask-type:luminance" maskUnits="userSpaceOnUse" x="-114" y="700" width="662" height="454">
<path d="M-52.157 700.615C-86.3126 700.615 -114 709.883 -114 721.31V1133.29C-114 1144.72 -86.3126 1153.98 -52.157 1153.98H486.157C520.313 1153.98 548 1144.72 548 1133.29V721.31C548 709.883 520.313 700.615 486.157 700.615H-52.157Z" fill="white"/>
</mask>
<g mask="url(#mask79_1_38578)">
<path d="M382.504 942.307C412.527 942.307 426.308 965.646 426.308 988.968C426.308 1012.29 453.079 1024.35 465.243 1024.35V1065.37C453.079 1065.37 426.308 1053.32 426.308 1030C426.308 1006.67 412.527 983.317 382.504 983.317V942.307Z" fill="#0DD180"/>
</g>
<mask id="mask80_1_38578" style="mask-type:luminance" maskUnits="userSpaceOnUse" x="-114" y="700" width="662" height="454">
<path d="M-52.157 700.615C-86.3126 700.615 -114 709.883 -114 721.31V1133.29C-114 1144.72 -86.3126 1153.98 -52.157 1153.98H486.157C520.313 1153.98 548 1144.72 548 1133.29V721.31C548 709.883 520.313 700.615 486.157 700.615H-52.157Z" fill="white"/>
</mask>
<g mask="url(#mask80_1_38578)">
<path d="M51.4961 942.307C81.5192 942.307 95.3 965.646 95.3 988.968C95.3 1012.29 122.071 1024.35 134.235 1024.35V1065.37C122.071 1065.37 95.3 1053.32 95.3 1030C95.3 1006.67 81.5192 983.317 51.4961 983.317V942.307Z" fill="#0DD180"/>
</g>
<mask id="mask81_1_38578" style="mask-type:luminance" maskUnits="userSpaceOnUse" x="-114" y="700" width="662" height="454">
<path d="M-52.157 700.615C-86.3126 700.615 -114 709.883 -114 721.31V1133.29C-114 1144.72 -86.3126 1153.98 -52.157 1153.98H486.157C520.313 1153.98 548 1144.72 548 1133.29V721.31C548 709.883 520.313 700.615 486.157 700.615H-52.157Z" fill="white"/>
</mask>
<g mask="url(#mask81_1_38578)">
<path d="M382.504 942.307C352.481 942.307 338.7 965.646 338.7 988.968C338.7 1012.29 311.929 1024.35 299.766 1024.35V1065.38C311.929 1065.38 338.7 1053.32 338.7 1030C338.7 1006.68 352.481 983.318 382.504 983.318V942.307Z" fill="#0DD180"/>
</g>
<mask id="mask82_1_38578" style="mask-type:luminance" maskUnits="userSpaceOnUse" x="-114" y="700" width="662" height="454">
<path d="M-52.157 700.615C-86.3126 700.615 -114 709.883 -114 721.31V1133.29C-114 1144.72 -86.3126 1153.98 -52.157 1153.98H486.157C520.313 1153.98 548 1144.72 548 1133.29V721.31C548 709.883 520.313 700.615 486.157 700.615H-52.157Z" fill="white"/>
</mask>
<g mask="url(#mask82_1_38578)">
<path d="M51.4966 942.307C21.4735 942.307 7.69265 965.646 7.69265 988.968C7.69265 1012.29 -19.0784 1024.35 -31.2422 1024.35V1065.37C-19.0784 1065.37 7.69265 1053.32 7.69265 1030C7.69265 1006.67 21.4914 983.317 51.4966 983.317V942.307Z" fill="#0DD180"/>
</g>
<mask id="mask83_1_38578" style="mask-type:luminance" maskUnits="userSpaceOnUse" x="-114" y="700" width="662" height="454">
<path d="M-52.157 700.615C-86.3126 700.615 -114 709.883 -114 721.31V1133.29C-114 1144.72 -86.3126 1153.98 -52.157 1153.98H486.157C520.313 1153.98 548 1144.72 548 1133.29V721.31C548 709.883 520.313 700.615 486.157 700.615H-52.157Z" fill="white"/>
</mask>
<g mask="url(#mask83_1_38578)">
<path d="M217.008 942.307C186.985 942.307 173.204 965.646 173.204 988.968C173.204 1012.29 146.433 1024.35 134.27 1024.35V1065.37C146.433 1065.37 173.204 1053.32 173.204 1030C173.204 1006.67 186.985 983.317 217.008 983.317V942.307Z" fill="#0DD180"/>
</g>
<mask id="mask84_1_38578" style="mask-type:luminance" maskUnits="userSpaceOnUse" x="-114" y="700" width="662" height="454">
<path d="M-52.157 700.615C-86.3126 700.615 -114 709.883 -114 721.31V1133.29C-114 1144.72 -86.3126 1153.98 -52.157 1153.98H486.157C520.313 1153.98 548 1144.72 548 1133.29V721.31C548 709.883 520.313 700.615 486.157 700.615H-52.157Z" fill="white"/>
</mask>
<g mask="url(#mask84_1_38578)">
<path d="M217.008 1029.4C247.031 1029.4 260.812 1052.74 260.812 1076.06C260.812 1099.39 287.583 1111.44 299.747 1111.44V1152.47C287.583 1152.47 260.812 1140.41 260.812 1117.09C260.812 1093.77 247.013 1070.43 217.008 1070.43V1029.4Z" fill="#0DD180"/>
</g>
<mask id="mask85_1_38578" style="mask-type:luminance" maskUnits="userSpaceOnUse" x="-114" y="700" width="662" height="454">
<path d="M-52.157 700.615C-86.3126 700.615 -114 709.883 -114 721.31V1133.29C-114 1144.72 -86.3126 1153.98 -52.157 1153.98H486.157C520.313 1153.98 548 1144.72 548 1133.29V721.31C548 709.883 520.313 700.615 486.157 700.615H-52.157Z" fill="white"/>
</mask>
<g mask="url(#mask85_1_38578)">
<path d="M382.504 1029.4C412.527 1029.4 426.308 1052.74 426.308 1076.06C426.308 1099.39 453.079 1111.44 465.243 1111.44V1152.47C453.079 1152.47 426.308 1140.41 426.308 1117.09C426.308 1093.77 412.509 1070.43 382.504 1070.43V1029.4Z" fill="#0DD180"/>
</g>
<mask id="mask86_1_38578" style="mask-type:luminance" maskUnits="userSpaceOnUse" x="-114" y="700" width="662" height="454">
<path d="M-52.157 700.615C-86.3126 700.615 -114 709.883 -114 721.31V1133.29C-114 1144.72 -86.3126 1153.98 -52.157 1153.98H486.157C520.313 1153.98 548 1144.72 548 1133.29V721.31C548 709.883 520.313 700.615 486.157 700.615H-52.157Z" fill="white"/>
</mask>
<g mask="url(#mask86_1_38578)">
<path d="M51.4961 1029.4C81.5192 1029.4 95.3 1052.74 95.3 1076.06C95.3 1099.39 122.071 1111.44 134.235 1111.44V1152.47C122.071 1152.47 95.3 1140.41 95.3 1117.09C95.3 1093.77 81.5013 1070.43 51.4961 1070.43V1029.4Z" fill="#0DD180"/>
</g>
<mask id="mask87_1_38578" style="mask-type:luminance" maskUnits="userSpaceOnUse" x="-114" y="700" width="662" height="454">
<path d="M-52.157 700.615C-86.3126 700.615 -114 709.883 -114 721.31V1133.29C-114 1144.72 -86.3126 1153.98 -52.157 1153.98H486.157C520.313 1153.98 548 1144.72 548 1133.29V721.31C548 709.883 520.313 700.615 486.157 700.615H-52.157Z" fill="white"/>
</mask>
<g mask="url(#mask87_1_38578)">
<path d="M382.504 1029.4C352.481 1029.4 338.7 1052.74 338.7 1076.06C338.7 1099.39 311.929 1111.44 299.766 1111.44V1152.47C311.929 1152.47 338.7 1140.41 338.7 1117.09C338.7 1093.77 352.499 1070.43 382.504 1070.43V1029.4Z" fill="#0DD180"/>
</g>
<mask id="mask88_1_38578" style="mask-type:luminance" maskUnits="userSpaceOnUse" x="-114" y="700" width="662" height="454">
<path d="M-52.157 700.615C-86.3126 700.615 -114 709.883 -114 721.31V1133.29C-114 1144.72 -86.3126 1153.98 -52.157 1153.98H486.157C520.313 1153.98 548 1144.72 548 1133.29V721.31C548 709.883 520.313 700.615 486.157 700.615H-52.157Z" fill="white"/>
</mask>
<g mask="url(#mask88_1_38578)">
<path d="M51.4966 1029.4C21.4735 1029.4 7.69265 1052.74 7.69265 1076.06C7.69265 1099.39 -19.0784 1111.44 -31.2422 1111.44V1152.47C-19.0784 1152.47 7.69265 1140.41 7.69265 1117.09C7.69265 1093.77 21.4914 1070.43 51.4966 1070.43V1029.4Z" fill="#0DD180"/>
</g>
<mask id="mask89_1_38578" style="mask-type:luminance" maskUnits="userSpaceOnUse" x="-114" y="700" width="662" height="454">
<path d="M-52.157 700.615C-86.3126 700.615 -114 709.883 -114 721.31V1133.29C-114 1144.72 -86.3126 1153.98 -52.157 1153.98H486.157C520.313 1153.98 548 1144.72 548 1133.29V721.31C548 709.883 520.313 700.615 486.157 700.615H-52.157Z" fill="white"/>
</mask>
<g mask="url(#mask89_1_38578)">
<path d="M217.008 1029.4C186.985 1029.4 173.204 1052.74 173.204 1076.06C173.204 1099.39 146.433 1111.44 134.27 1111.44V1152.47C146.433 1152.47 173.204 1140.41 173.204 1117.09C173.204 1093.77 187.003 1070.43 217.008 1070.43V1029.4Z" fill="#0DD180"/>
</g>
</g>
<defs>
<clipPath id="clip0_1_38578">
<rect width="428" height="1085" fill="white"/>
</clipPath>
</defs>
</svg>
