<svg width="24" height="24" viewBox="0 0 24 24" fill="none" xmlns="http://www.w3.org/2000/svg">
<path d="M20.9404 10.8004L19.2004 9.06159V4.80039C19.2004 4.14039 18.6604 3.60039 18.0004 3.60039H16.8004C16.1404 3.60039 15.6004 4.14039 15.6004 4.80039V5.46399L13.2004 3.06639C12.8728 2.75679 12.5728 2.40039 12.0004 2.40039C11.428 2.40039 11.128 2.75679 10.8004 3.06639L3.06039 10.8004C2.68599 11.1904 2.40039 11.4748 2.40039 12.0004C2.40039 12.676 2.91879 13.2004 3.60039 13.2004H4.80039V20.4004C4.80039 21.0604 5.34039 21.6004 6.00039 21.6004H8.40039C9.06313 21.6004 9.60039 21.0631 9.60039 20.4004V15.6004C9.60039 14.9404 10.1404 14.4004 10.8004 14.4004H13.2004C13.8604 14.4004 14.4004 14.9404 14.4004 15.6004V20.4004C14.4004 21.0631 14.3376 21.6004 15.0004 21.6004H18.0004C18.6604 21.6004 19.2004 21.0604 19.2004 20.4004V13.2004H20.4004C21.082 13.2004 21.6004 12.676 21.6004 12.0004C21.6004 11.4748 21.3148 11.1904 20.9404 10.8004Z" stroke="#FDFDFF" stroke-width="2" stroke-linejoin="round"/>
</svg>
