<svg width="16" height="16" viewBox="0 0 16 16" fill="none" xmlns="http://www.w3.org/2000/svg">
<path d="M11.5597 3.64065C11.4014 3.64065 11.2468 3.68757 11.1152 3.77548C10.9837 3.86338 10.8811 3.98832 10.8206 4.1345C10.76 4.28069 10.7442 4.44154 10.775 4.59672C10.8059 4.75191 10.8821 4.89445 10.994 5.00634C11.1059 5.11822 11.2484 5.19441 11.4036 5.22528C11.5588 5.25615 11.7196 5.2403 11.8658 5.17975C12.012 5.1192 12.1369 5.01667 12.2249 4.88511C12.3128 4.75355 12.3597 4.59888 12.3597 4.44065C12.3597 4.22848 12.2754 4.02499 12.1254 3.87497C11.9753 3.72494 11.7718 3.64065 11.5597 3.64065V3.64065ZM14.6263 5.25398C14.6134 4.70085 14.5098 4.15359 14.3197 3.63398C14.1502 3.18941 13.8863 2.78684 13.5463 2.45398C13.2162 2.11227 12.8127 1.8501 12.3663 1.68732C11.8481 1.49142 11.3002 1.38546 10.7463 1.37398C10.0397 1.33398 9.81301 1.33398 7.99967 1.33398C6.18634 1.33398 5.95967 1.33398 5.25301 1.37398C4.69911 1.38546 4.15124 1.49142 3.63301 1.68732C3.18746 1.85175 2.7843 2.11369 2.45301 2.45398C2.11129 2.7841 1.84913 3.18761 1.68634 3.63398C1.49045 4.15221 1.38448 4.70009 1.37301 5.25398C1.33301 5.96065 1.33301 6.18732 1.33301 8.00065C1.33301 9.81398 1.33301 10.0407 1.37301 10.7473C1.38448 11.3012 1.49045 11.8491 1.68634 12.3673C1.84913 12.8137 2.11129 13.2172 2.45301 13.5473C2.7843 13.8876 3.18746 14.1496 3.63301 14.314C4.15124 14.5099 4.69911 14.6158 5.25301 14.6273C5.95967 14.6673 6.18634 14.6673 7.99967 14.6673C9.81301 14.6673 10.0397 14.6673 10.7463 14.6273C11.3002 14.6158 11.8481 14.5099 12.3663 14.314C12.8127 14.1512 13.2162 13.889 13.5463 13.5473C13.8878 13.2157 14.1519 12.8128 14.3197 12.3673C14.5098 11.8477 14.6134 11.3005 14.6263 10.7473C14.6263 10.0407 14.6663 9.81398 14.6663 8.00065C14.6663 6.18732 14.6663 5.96065 14.6263 5.25398V5.25398ZM13.4263 10.6673C13.4215 11.0905 13.3448 11.5098 13.1997 11.9073C13.0932 12.1974 12.9223 12.4596 12.6997 12.674C12.4834 12.8943 12.2218 13.0649 11.933 13.174C11.5355 13.3192 11.1162 13.3958 10.693 13.4007C10.0263 13.434 9.77967 13.4407 8.02634 13.4407C6.27301 13.4407 6.02634 13.4407 5.35967 13.4007C4.92027 13.4089 4.48274 13.3412 4.06634 13.2007C3.7902 13.086 3.54058 12.9158 3.33301 12.7007C3.11173 12.4865 2.9429 12.2241 2.83967 11.934C2.67691 11.5308 2.58664 11.1019 2.57301 10.6673C2.57301 10.0007 2.53301 9.75398 2.53301 8.00065C2.53301 6.24732 2.53301 6.00065 2.57301 5.33398C2.576 4.90135 2.65497 4.47261 2.80634 4.06732C2.92371 3.78593 3.10385 3.53509 3.33301 3.33398C3.53555 3.10476 3.78587 2.92271 4.06634 2.80065C4.47271 2.65401 4.90101 2.57737 5.33301 2.57398C5.99967 2.57398 6.24634 2.53398 7.99967 2.53398C9.75301 2.53398 9.99967 2.53398 10.6663 2.57398C11.0895 2.57884 11.5088 2.65548 11.9063 2.80065C12.2093 2.91309 12.4812 3.09588 12.6997 3.33398C12.9181 3.53877 13.0888 3.78914 13.1997 4.06732C13.3478 4.47327 13.4245 4.90184 13.4263 5.33398C13.4597 6.00065 13.4663 6.24732 13.4663 8.00065C13.4663 9.75398 13.4597 10.0007 13.4263 10.6673ZM7.99967 4.58065C7.32355 4.58197 6.66298 4.78367 6.10144 5.16026C5.53991 5.53686 5.10259 6.07145 4.84476 6.69649C4.58693 7.32153 4.52016 8.00896 4.65287 8.67194C4.78558 9.33491 5.11183 9.94367 5.59039 10.4213C6.06895 10.8989 6.67835 11.224 7.34158 11.3554C8.00481 11.4868 8.69212 11.4187 9.31665 11.1597C9.94119 10.9006 10.4749 10.4623 10.8504 9.90001C11.2259 9.33774 11.4263 8.67678 11.4263 8.00065C11.4272 7.55072 11.3391 7.10506 11.1672 6.68929C10.9952 6.27352 10.7427 5.89586 10.4243 5.57802C10.1058 5.26018 9.72764 5.00844 9.31154 4.83727C8.89544 4.6661 8.4496 4.57889 7.99967 4.58065V4.58065ZM7.99967 10.2207C7.5606 10.2207 7.13139 10.0905 6.76631 9.84651C6.40123 9.60258 6.11669 9.25586 5.94866 8.85021C5.78064 8.44456 5.73667 7.99819 5.82233 7.56755C5.90799 7.13691 6.11942 6.74135 6.4299 6.43087C6.74037 6.1204 7.13594 5.90897 7.56657 5.82331C7.99721 5.73765 8.44358 5.78161 8.84923 5.94964C9.25488 6.11767 9.6016 6.40221 9.84554 6.76729C10.0895 7.13236 10.2197 7.56158 10.2197 8.00065C10.2197 8.29219 10.1623 8.58087 10.0507 8.85021C9.93912 9.11955 9.7756 9.36428 9.56945 9.57043C9.36331 9.77657 9.11857 9.9401 8.84923 10.0517C8.57989 10.1632 8.29121 10.2207 7.99967 10.2207V10.2207Z" fill="#FDFDFF"/>
</svg>
