<svg width="24" height="24" viewBox="0 0 24 24" fill="none" xmlns="http://www.w3.org/2000/svg">
<path d="M16.0258 20.5713L16.0261 17.3576C16.0263 15.5824 14.5872 14.1432 12.812 14.1432H5.61481C3.83987 14.1432 2.40095 15.582 2.40075 17.3569L2.40039 20.5713M21.6001 20.5715L21.6004 17.3577C21.6005 15.5825 20.1615 14.1434 18.3863 14.1434M15.4067 4.06109C16.196 4.64673 16.7075 5.58559 16.7075 6.64392C16.7075 7.70225 16.196 8.6411 15.4067 9.22674M12.4942 6.64374C12.4942 8.41882 11.0552 9.8578 9.28013 9.8578C7.50506 9.8578 6.06608 8.41882 6.06608 6.64374C6.06608 4.86867 7.50506 3.42969 9.28013 3.42969C11.0552 3.42969 12.4942 4.86867 12.4942 6.64374Z" stroke="#FDFDFF" stroke-width="2" stroke-linecap="round" stroke-linejoin="round"/>
</svg>
