<svg width="23" height="22" viewBox="0 0 23 22" fill="none" xmlns="http://www.w3.org/2000/svg">
<g id="General">
<g id="Stroke 5">
<path fill-rule="evenodd" clip-rule="evenodd" d="M3.88152 3.01347L3.94802 2.94398C5.71482 1.17701 6.86539 0.708662 8.09301 1.4146C8.44614 1.61766 8.77719 1.90191 9.22736 2.35912L10.6082 3.79097C11.3709 4.62321 11.5443 5.42149 11.2959 6.35637L11.2617 6.48014L11.2237 6.6032L11.0391 7.14479C10.644 8.35935 10.809 9.04461 12.2147 10.45C13.6765 11.9114 14.3589 12.031 15.6671 11.5738L15.9003 11.4927L16.1822 11.4012L16.3056 11.3669C17.2993 11.1018 18.1387 11.3134 19.029 12.203L20.1415 13.2777L20.4691 13.5998C20.8322 13.9701 21.0721 14.2635 21.2494 14.5736C21.9509 15.8008 21.4821 16.9507 19.6643 18.7617L19.4914 18.9369C19.22 19.1985 18.9664 19.3859 18.5939 19.5627C17.9686 19.8596 17.2299 19.9715 16.3715 19.8522C14.2564 19.558 11.5737 17.8891 8.17442 14.4907C7.89771 14.2141 7.63269 13.9428 7.37909 13.6767L6.88705 13.1516C2.27635 8.14222 1.86959 5.065 3.75911 3.13507L3.88152 3.01347ZM8.11441 3.19046C7.81576 2.89603 7.59883 2.71655 7.40757 2.60657C6.9845 2.36329 6.52773 2.46613 5.68238 3.19371L5.41676 3.43101C5.37043 3.47377 5.32304 3.51817 5.27454 3.56424L4.96996 3.8609L4.94252 3.89519L4.73603 4.10264C4.23704 4.61231 4.00068 5.23436 4.20436 6.30414C4.53858 8.05958 6.06841 10.4409 9.14657 13.5183C12.3539 16.7248 14.7976 18.245 16.5609 18.4903C17.5889 18.6332 18.1132 18.3843 18.6479 17.8365L19.0557 17.425C19.2469 17.2249 19.4103 17.0435 19.5483 16.8778L19.7365 16.6407C20.2174 16.0001 20.2614 15.6158 20.0557 15.2559C19.9774 15.119 19.8636 14.9689 19.6978 14.7855L19.473 14.5481L19.34 14.4149L17.9364 13.0595C17.4673 12.627 17.1468 12.5656 16.6601 12.6955L16.5196 12.7359L15.9381 12.9333C14.2514 13.478 13.0345 13.2139 11.2426 11.4224C9.38663 9.5669 9.16897 8.32787 9.79082 6.54385L9.83071 6.42921L9.94102 6.09685L9.99524 5.885C10.0914 5.42395 9.98162 5.10249 9.486 4.60678C9.46559 4.58638 9.44278 4.56338 9.41796 4.53821L8.11441 3.19046Z" fill="#042C89"/>
<path d="M3.94802 2.94398L3.80656 2.80253L3.80352 2.8057L3.94802 2.94398ZM3.88152 3.01347L4.02251 3.15541L4.02602 3.15175L3.88152 3.01347ZM8.09301 1.4146L8.19271 1.24122V1.24122L8.09301 1.4146ZM9.22736 2.35912L9.37133 2.22028L9.36987 2.2188L9.22736 2.35912ZM10.6082 3.79097L10.7557 3.6558L10.7522 3.65214L10.6082 3.79097ZM11.2959 6.35637L11.4887 6.40967L11.4892 6.40772L11.2959 6.35637ZM11.2617 6.48014L11.4529 6.53914L11.4545 6.53343L11.2617 6.48014ZM11.2237 6.6032L11.4131 6.66775L11.4148 6.66217L11.2237 6.6032ZM11.0391 7.14479L10.8498 7.08026L10.849 7.08292L11.0391 7.14479ZM12.2147 10.45L12.0733 10.5914L12.2147 10.45ZM15.6671 11.5738L15.6015 11.3849L15.6011 11.385L15.6671 11.5738ZM15.9003 11.4927L15.8385 11.3025L15.8346 11.3038L15.9003 11.4927ZM16.1822 11.4012L16.1287 11.2083L16.1205 11.211L16.1822 11.4012ZM16.3056 11.3669L16.2541 11.1737L16.2521 11.1742L16.3056 11.3669ZM19.029 12.203L18.8876 12.3445L18.89 12.3469L19.029 12.203ZM20.1415 13.2777L20.2818 13.1351L20.2805 13.1338L20.1415 13.2777ZM20.4691 13.5998L20.6119 13.4598L20.6093 13.4572L20.4691 13.5998ZM21.2494 14.5736L21.423 14.4743H21.423L21.2494 14.5736ZM19.6643 18.7617L19.5232 18.62L19.522 18.6212L19.6643 18.7617ZM19.4914 18.9369L19.6302 19.081L19.6337 19.0774L19.4914 18.9369ZM18.5939 19.5627L18.5081 19.3821L18.5939 19.5627ZM16.3715 19.8522L16.344 20.0503L16.3715 19.8522ZM8.17442 14.4907L8.03301 14.6321L8.17442 14.4907ZM7.37909 13.6767L7.23314 13.8135L7.23432 13.8147L7.37909 13.6767ZM6.88705 13.1516L6.73989 13.287L6.7411 13.2883L6.88705 13.1516ZM3.75911 3.13507L3.61814 2.99316L3.6162 2.99515L3.75911 3.13507ZM7.40757 2.60657L7.30787 2.77995L7.40757 2.60657ZM8.11441 3.19046L8.25821 3.05137L8.25482 3.04803L8.11441 3.19046ZM5.68238 3.19371L5.55189 3.0421L5.54913 3.04456L5.68238 3.19371ZM5.41676 3.43101L5.2835 3.28184L5.28111 3.28405L5.41676 3.43101ZM5.27454 3.56424L5.13679 3.41922L5.135 3.42096L5.27454 3.56424ZM4.96996 3.8609L4.83042 3.71762L4.82155 3.72626L4.81381 3.73593L4.96996 3.8609ZM4.94252 3.89519L5.08427 4.03628L5.0919 4.02861L5.09867 4.02016L4.94252 3.89519ZM4.73603 4.10264L4.59427 3.96154L4.59312 3.96272L4.73603 4.10264ZM4.20436 6.30414L4.40083 6.26673L4.20436 6.30414ZM9.14657 13.5183L9.28797 13.3769L9.14657 13.5183ZM16.5609 18.4903L16.5334 18.6884L16.5609 18.4903ZM18.6479 17.8365L18.5059 17.6957L18.5048 17.6968L18.6479 17.8365ZM19.0557 17.425L19.1978 17.5658L19.2003 17.5631L19.0557 17.425ZM19.5483 16.8778L19.702 17.0058L19.705 17.0021L19.5483 16.8778ZM19.7365 16.6407L19.8932 16.7651L19.8964 16.7608L19.7365 16.6407ZM20.0557 15.2559L20.2293 15.1567L20.2293 15.1567L20.0557 15.2559ZM19.6978 14.7855L19.8463 14.6514L19.8431 14.648L19.6978 14.7855ZM19.473 14.5481L19.6183 14.4105L19.6145 14.4067L19.473 14.5481ZM19.34 14.4149L19.4815 14.2735L19.4789 14.271L19.34 14.4149ZM17.9364 13.0595L18.0753 12.9156L18.0719 12.9125L17.9364 13.0595ZM16.6601 12.6955L16.6085 12.5022L16.6048 12.5033L16.6601 12.6955ZM16.5196 12.7359L16.4642 12.5435L16.4553 12.5465L16.5196 12.7359ZM15.9381 12.9333L15.9996 13.1236L16.0024 13.1226L15.9381 12.9333ZM11.2426 11.4224L11.1011 11.5638L11.2426 11.4224ZM9.79082 6.54385L9.97967 6.60968L9.97971 6.60958L9.79082 6.54385ZM9.83071 6.42921L10.0196 6.49494L10.0205 6.49221L9.83071 6.42921ZM9.94102 6.09685L10.1313 6.16L10.1348 6.14644L9.94102 6.09685ZM9.99524 5.885L10.1892 5.93465L10.191 5.92584L9.99524 5.885ZM9.486 4.60678L9.62743 4.46537L9.6274 4.46534L9.486 4.60678ZM9.41796 4.53821L9.2742 4.67726L9.27554 4.67862L9.41796 4.53821ZM3.80352 2.8057L3.73702 2.8752L4.02602 3.15175L4.09252 3.08225L3.80352 2.8057ZM8.19271 1.24122C7.52944 0.859811 6.87256 0.793037 6.15211 1.06482C5.44864 1.33021 4.69442 1.91465 3.80659 2.80256L4.08945 3.08539C4.96842 2.20634 5.67289 1.67312 6.2933 1.43908C6.89674 1.21143 7.42895 1.26345 7.99331 1.58797L8.19271 1.24122ZM9.36987 2.2188C8.91572 1.75754 8.56955 1.45792 8.19271 1.24122L7.99331 1.58797C8.32273 1.77741 8.63866 2.04627 9.08484 2.49944L9.36987 2.2188ZM10.7522 3.65214L9.37132 2.22029L9.0834 2.49795L10.4642 3.92981L10.7522 3.65214ZM11.4892 6.40772C11.6202 5.91457 11.6428 5.44583 11.525 4.98558C11.4073 4.52599 11.1536 4.09004 10.7556 3.65585L10.4608 3.9261C10.8255 4.32415 11.0398 4.70346 11.1374 5.08478C11.2349 5.46545 11.22 5.8633 11.1026 6.30503L11.4892 6.40772ZM11.4545 6.53343L11.4887 6.40966L11.1032 6.30308L11.0689 6.42685L11.4545 6.53343ZM11.4148 6.66217L11.4528 6.53911L11.0706 6.42117L11.0326 6.54423L11.4148 6.66217ZM11.2285 7.20931L11.413 6.66772L11.0344 6.53868L10.8498 7.08027L11.2285 7.20931ZM12.3561 10.3085C11.6569 9.60951 11.2931 9.11439 11.1412 8.66214C10.9933 8.22177 11.0378 7.79547 11.2293 7.20666L10.849 7.08292C10.6454 7.70868 10.5748 8.23228 10.762 8.78952C10.9452 9.33488 11.3668 9.88507 12.0733 10.5914L12.3561 10.3085ZM15.6011 11.385C14.9601 11.609 14.5119 11.6769 14.0561 11.5398C13.5898 11.3996 13.0835 11.0357 12.3561 10.3085L12.0733 10.5914C12.8077 11.3256 13.3735 11.7522 13.9409 11.9229C14.5188 12.0967 15.0659 11.9957 15.7331 11.7626L15.6011 11.385ZM15.8346 11.3038L15.6015 11.3849L15.7328 11.7627L15.966 11.6817L15.8346 11.3038ZM16.1205 11.211L15.8385 11.3025L15.9621 11.683L16.244 11.5914L16.1205 11.211ZM16.2521 11.1742L16.1287 11.2085L16.2357 11.5939L16.3591 11.5597L16.2521 11.1742ZM19.1703 12.0615C18.7088 11.6004 18.2485 11.303 17.7625 11.1601C17.2749 11.0167 16.7785 11.0338 16.2541 11.1737L16.3572 11.5602C16.8264 11.435 17.2466 11.4253 17.6497 11.5438C18.0543 11.6628 18.4588 11.916 18.8876 12.3445L19.1703 12.0615ZM20.2805 13.1338L19.1679 12.0592L18.89 12.3469L20.0026 13.4215L20.2805 13.1338ZM20.6093 13.4572L20.2818 13.1351L20.0013 13.4203L20.3288 13.7424L20.6093 13.4572ZM21.423 14.4743C21.2337 14.1431 20.9805 13.8357 20.6119 13.4598L20.3263 13.7398C20.6838 14.1044 20.9106 14.3839 21.0758 14.6728L21.423 14.4743ZM19.8055 18.9034C20.7185 17.9938 21.3157 17.2289 21.5883 16.5206C21.8675 15.7948 21.8023 15.1378 21.423 14.4743L21.0758 14.6728C21.398 15.2366 21.4491 15.7682 21.2149 16.3769C20.974 17.003 20.4279 17.7186 19.5232 18.62L19.8055 18.9034ZM19.6337 19.0774L19.8067 18.9022L19.522 18.6212L19.349 18.7964L19.6337 19.0774ZM18.6797 19.7434C19.0741 19.5561 19.3452 19.3556 19.6302 19.0809L19.3526 18.7929C19.0948 19.0414 18.8588 19.2156 18.5081 19.3821L18.6797 19.7434ZM16.344 20.0503C17.236 20.1743 18.0148 20.0591 18.6797 19.7434L18.5081 19.3821C17.9225 19.6601 17.2239 19.7688 16.3991 19.6541L16.344 20.0503ZM8.03301 14.6321C11.4371 18.0354 14.1598 19.7465 16.344 20.0503L16.3991 19.6541C14.3529 19.3695 11.7102 17.7428 8.31582 14.3493L8.03301 14.6321ZM7.23432 13.8147C7.48908 14.082 7.75523 14.3544 8.03301 14.6321L8.31582 14.3493C8.04019 14.0737 7.77629 13.8036 7.52386 13.5387L7.23432 13.8147ZM6.7411 13.2883L7.23315 13.8135L7.52504 13.54L7.03299 13.0148L6.7411 13.2883ZM3.6162 2.99515C2.61839 4.0143 2.23345 5.34053 2.69241 7.04066C3.14677 8.72377 4.42691 10.7741 6.73989 13.287L7.0342 13.0161C4.73649 10.5198 3.5079 8.52675 3.07859 6.93641C2.65387 5.36312 3.01031 4.18577 3.90202 3.27499L3.6162 2.99515ZM3.74057 2.87158L3.61816 2.99318L3.90005 3.27696L4.02247 3.15537L3.74057 2.87158ZM7.30787 2.77995C7.47633 2.87682 7.67856 3.04162 7.974 3.33288L8.25482 3.04803C7.95296 2.75044 7.72132 2.55628 7.50727 2.43319L7.30787 2.77995ZM5.81285 3.3453C6.22992 2.98633 6.53046 2.80049 6.76363 2.72676C6.98132 2.65792 7.14337 2.68535 7.30787 2.77995L7.50727 2.43319C7.2487 2.28451 6.97083 2.24172 6.64303 2.34537C6.33072 2.44413 5.98019 2.67351 5.55191 3.04213L5.81285 3.3453ZM5.55001 3.58016L5.81563 3.34286L5.54913 3.04456L5.28352 3.28186L5.55001 3.58016ZM5.41228 3.70925C5.46013 3.6638 5.50683 3.62005 5.55242 3.57797L5.28111 3.28405C5.23403 3.3275 5.18595 3.37255 5.13681 3.41923L5.41228 3.70925ZM5.10951 4.00417L5.41409 3.70751L5.135 3.42096L4.83042 3.71762L5.10951 4.00417ZM5.09867 4.02016L5.12611 3.98586L4.81381 3.73593L4.78637 3.77022L5.09867 4.02016ZM4.87778 4.24373L5.08427 4.03628L4.80077 3.75409L4.59428 3.96154L4.87778 4.24373ZM4.40083 6.26673C4.30288 5.75229 4.31383 5.36146 4.39968 5.04584C4.48495 4.73236 4.6481 4.47834 4.87894 4.24255L4.59312 3.96272C4.32497 4.23661 4.12044 4.54845 4.01371 4.94086C3.90755 5.33113 3.90216 5.78621 4.00789 6.34155L4.40083 6.26673ZM9.28797 13.3769C6.21357 10.3032 4.72296 7.95865 4.40083 6.26673L4.00789 6.34155C4.3542 8.1605 5.92326 10.5786 9.00516 13.6597L9.28797 13.3769ZM16.5885 18.2922C15.7476 18.1752 14.7244 17.7506 13.5052 16.9477C12.2878 16.146 10.8856 14.9741 9.28797 13.3769L9.00516 13.6597C10.6149 15.269 12.0381 16.4605 13.2852 17.2818C14.5306 18.102 15.611 18.5601 16.5334 18.6884L16.5885 18.2922ZM18.5048 17.6968C18.2498 17.958 18.0106 18.1343 17.7241 18.2334C17.4367 18.3327 17.0827 18.3609 16.5885 18.2922L16.5334 18.6884C17.0672 18.7626 17.4892 18.7378 17.8548 18.6114C18.2211 18.4848 18.5114 18.2627 18.7911 17.9762L18.5048 17.6968ZM18.9136 17.2842L18.5059 17.6957L18.79 17.9772L19.1978 17.5657L18.9136 17.2842ZM19.3946 16.7498C19.2603 16.9111 19.1001 17.0891 18.9111 17.2868L19.2003 17.5631C19.3938 17.3607 19.5604 17.1758 19.702 17.0058L19.3946 16.7498ZM19.5798 16.5164L19.3916 16.7535L19.705 17.0021L19.8931 16.765L19.5798 16.5164ZM19.882 15.3552C19.9634 15.4976 19.9922 15.6344 19.9576 15.8028C19.9209 15.9818 19.8097 16.2101 19.5765 16.5206L19.8964 16.7608C20.1442 16.4307 20.2954 16.1465 20.3495 15.8832C20.4057 15.6094 20.3536 15.3741 20.2293 15.1567L19.882 15.3552ZM19.5494 14.9195C19.7101 15.0974 19.8136 15.2355 19.882 15.3552L20.2293 15.1567C20.1412 15.0025 20.0171 14.8405 19.8463 14.6514L19.5494 14.9195ZM19.3278 14.6856L19.5526 14.923L19.8431 14.648L19.6183 14.4105L19.3278 14.6856ZM19.1985 14.5563L19.3316 14.6894L19.6145 14.4067L19.4815 14.2736L19.1985 14.5563ZM17.7974 13.2034L19.2011 14.5588L19.4789 14.271L18.0753 12.9157L17.7974 13.2034ZM16.7116 12.8887C16.9371 12.8286 17.1005 12.8191 17.2533 12.8599C17.4087 12.9013 17.5779 13.001 17.8008 13.2066L18.0719 12.9125C17.8258 12.6855 17.6002 12.5383 17.3563 12.4733C17.11 12.4077 16.8697 12.4325 16.6085 12.5022L16.7116 12.8887ZM16.5749 12.9281L16.7154 12.8877L16.6048 12.5033L16.4643 12.5437L16.5749 12.9281ZM16.0024 13.1226L16.5839 12.9253L16.4553 12.5465L15.8739 12.7439L16.0024 13.1226ZM11.1011 11.5638C12.0072 12.4696 12.7874 13.0098 13.5723 13.2455C14.3631 13.4829 15.1327 13.4035 15.9996 13.1236L15.8767 12.7429C15.0568 13.0077 14.3747 13.0687 13.6873 12.8623C12.994 12.6542 12.2698 12.1666 11.384 11.2809L11.1011 11.5638ZM9.60196 6.47802C9.28391 7.39047 9.1712 8.19041 9.39458 9.00897C9.61655 9.8224 10.1628 10.6257 11.1011 11.5638L11.384 11.2809C10.4664 10.3636 9.97584 9.61962 9.78047 8.90366C9.58649 8.19283 9.67587 7.48125 9.97967 6.60968L9.60196 6.47802ZM9.64182 6.36348L9.60192 6.47812L9.97971 6.60958L10.0196 6.49494L9.64182 6.36348ZM9.7512 6.03385L9.64089 6.36621L10.0205 6.49221L10.1308 6.15985L9.7512 6.03385ZM9.80149 5.83541L9.74727 6.04726L10.1348 6.14644L10.189 5.9346L9.80149 5.83541ZM9.34456 4.74819C9.58476 4.98842 9.71341 5.16929 9.77602 5.33106C9.83591 5.48584 9.84195 5.64045 9.79946 5.84417L10.191 5.92584C10.2447 5.66851 10.2439 5.43185 10.1491 5.18671C10.0569 4.94856 9.88286 4.72084 9.62743 4.46537L9.34456 4.74819ZM9.27554 4.67862C9.3006 4.70404 9.32376 4.72739 9.34459 4.74822L9.6274 4.46534C9.60742 4.44536 9.58496 4.42272 9.56039 4.3978L9.27554 4.67862ZM7.97065 3.3295L9.2742 4.67726L9.56172 4.39917L8.25817 3.05141L7.97065 3.3295Z" fill="#042C89"/>
</g>
</g>
</svg>
