<svg width="1440" height="533" viewBox="0 0 1440 533" fill="none" xmlns="http://www.w3.org/2000/svg">
<g clip-path="url(#clip0_1_10611)">
<mask id="mask0_1_10611" style="mask-type:luminance" maskUnits="userSpaceOnUse" x="-18" y="-491" width="1502" height="1051">
<path d="M122.314 -490.584C44.8194 -490.584 -18 -469.118 -18 -442.651V511.6C-18 538.068 44.8194 559.534 122.314 559.534H1343.69C1421.18 559.534 1484 538.068 1484 511.6V-442.651C1484 -469.118 1421.18 -490.584 1343.69 -490.584H122.314V-490.584Z" fill="white"/>
</mask>
<g mask="url(#mask0_1_10611)">
<path d="M733.021 -132.543C801.139 -132.543 832.406 -78.4824 832.406 -24.4635C832.406 29.5554 893.147 57.4819 920.745 57.4819V152.515C893.147 152.515 832.406 124.589 832.406 70.5698C832.406 16.5509 801.099 -37.5097 733.021 -37.5097V-132.543Z" fill="#0DD180"/>
</g>
<mask id="mask1_1_10611" style="mask-type:luminance" maskUnits="userSpaceOnUse" x="-18" y="-491" width="1502" height="1051">
<path d="M122.314 -490.584C44.8194 -490.584 -18 -469.118 -18 -442.651V511.6C-18 538.068 44.8194 559.534 122.314 559.534H1343.69C1421.18 559.534 1484 538.068 1484 511.6V-442.651C1484 -469.118 1421.18 -490.584 1343.69 -490.584H122.314V-490.584Z" fill="white"/>
</mask>
<g mask="url(#mask1_1_10611)">
<path d="M-18 -132.543C50.1189 -132.543 81.386 -78.4824 81.386 -24.4635C81.386 29.5554 142.126 57.4819 169.725 57.4819V152.515C142.126 152.515 81.386 124.589 81.386 70.5698C81.386 16.5509 50.1189 -37.5097 -18 -37.5097V-132.543Z" fill="#0DD180"/>
</g>
<mask id="mask2_1_10611" style="mask-type:luminance" maskUnits="userSpaceOnUse" x="-18" y="-491" width="1502" height="1051">
<path d="M122.314 -490.584C44.8194 -490.584 -18 -469.118 -18 -442.651V511.6C-18 538.068 44.8194 559.534 122.314 559.534H1343.69C1421.18 559.534 1484 538.068 1484 511.6V-442.651C1484 -469.118 1421.18 -490.584 1343.69 -490.584H122.314V-490.584Z" fill="white"/>
</mask>
<g mask="url(#mask2_1_10611)">
<path d="M1108.51 -132.543C1176.63 -132.543 1207.9 -78.4824 1207.9 -24.4635C1207.9 29.5554 1268.64 57.4819 1296.23 57.4819V152.515C1268.64 152.515 1207.9 124.589 1207.9 70.5698C1207.9 16.5509 1176.59 -37.5097 1108.51 -37.5097V-132.543Z" fill="#0DD180"/>
</g>
<mask id="mask3_1_10611" style="mask-type:luminance" maskUnits="userSpaceOnUse" x="-18" y="-491" width="1502" height="1051">
<path d="M122.314 -490.584C44.8194 -490.584 -18 -469.118 -18 -442.651V511.6C-18 538.068 44.8194 559.534 122.314 559.534H1343.69C1421.18 559.534 1484 538.068 1484 511.6V-442.651C1484 -469.118 1421.18 -490.584 1343.69 -490.584H122.314V-490.584Z" fill="white"/>
</mask>
<g mask="url(#mask3_1_10611)">
<path d="M357.49 -132.543C425.609 -132.543 456.876 -78.4824 456.876 -24.4635C456.876 29.5554 517.617 57.4819 545.215 57.4819V152.515C517.617 152.515 456.876 124.589 456.876 70.5698C456.876 16.5509 425.568 -37.5097 357.49 -37.5097V-132.543Z" fill="#0DD180"/>
</g>
<mask id="mask4_1_10611" style="mask-type:luminance" maskUnits="userSpaceOnUse" x="-18" y="-491" width="1502" height="1051">
<path d="M122.314 -490.584C44.8194 -490.584 -18 -469.118 -18 -442.651V511.6C-18 538.068 44.8194 559.534 122.314 559.534H1343.69C1421.18 559.534 1484 538.068 1484 511.6V-442.651C1484 -469.118 1421.18 -490.584 1343.69 -490.584H122.314V-490.584Z" fill="white"/>
</mask>
<g mask="url(#mask4_1_10611)">
<path d="M1108.51 -132.543C1040.39 -132.543 1009.12 -78.4824 1009.12 -24.4635C1009.12 29.5554 948.383 57.4819 920.785 57.4819V152.515C948.383 152.515 1009.12 124.589 1009.12 70.5698C1009.12 16.5509 1040.43 -37.5097 1108.51 -37.5097V-132.543Z" fill="#0DD180"/>
</g>
<mask id="mask5_1_10611" style="mask-type:luminance" maskUnits="userSpaceOnUse" x="-18" y="-491" width="1502" height="1051">
<path d="M122.314 -490.584C44.8194 -490.584 -18 -469.118 -18 -442.651V511.6C-18 538.068 44.8194 559.534 122.314 559.534H1343.69C1421.18 559.534 1484 538.068 1484 511.6V-442.651C1484 -469.118 1421.18 -490.584 1343.69 -490.584H122.314V-490.584Z" fill="white"/>
</mask>
<g mask="url(#mask5_1_10611)">
<path d="M357.49 -132.543C289.371 -132.543 258.104 -78.4824 258.104 -24.4635C258.104 29.5554 197.364 57.4819 169.766 57.4819V152.515C197.364 152.515 258.104 124.589 258.104 70.5698C258.104 16.5509 289.412 -37.5097 357.49 -37.5097V-132.543Z" fill="#0DD180"/>
</g>
<mask id="mask6_1_10611" style="mask-type:luminance" maskUnits="userSpaceOnUse" x="-18" y="-491" width="1502" height="1051">
<path d="M122.314 -490.584C44.8194 -490.584 -18 -469.118 -18 -442.651V511.6C-18 538.068 44.8194 559.534 122.314 559.534H1343.69C1421.18 559.534 1484 538.068 1484 511.6V-442.651C1484 -469.118 1421.18 -490.584 1343.69 -490.584H122.314V-490.584Z" fill="white"/>
</mask>
<g mask="url(#mask6_1_10611)">
<path d="M1484 -132.543C1415.88 -132.543 1384.61 -78.4824 1384.61 -24.4635C1384.61 29.5554 1323.87 57.4819 1296.28 57.4819V152.515C1323.87 152.515 1384.61 124.589 1384.61 70.5698C1384.61 16.5509 1415.92 -37.5097 1484 -37.5097V-132.543Z" fill="#0DD180"/>
</g>
<mask id="mask7_1_10611" style="mask-type:luminance" maskUnits="userSpaceOnUse" x="-18" y="-491" width="1502" height="1051">
<path d="M122.314 -490.584C44.8194 -490.584 -18 -469.118 -18 -442.651V511.6C-18 538.068 44.8194 559.534 122.314 559.534H1343.69C1421.18 559.534 1484 538.068 1484 511.6V-442.651C1484 -469.118 1421.18 -490.584 1343.69 -490.584H122.314V-490.584Z" fill="white"/>
</mask>
<g mask="url(#mask7_1_10611)">
<path d="M733.02 -132.543C664.902 -132.543 633.635 -78.4824 633.635 -24.4635C633.635 29.5554 572.894 57.4819 545.296 57.4819V152.515C572.894 152.515 633.635 124.589 633.635 70.5698C633.635 16.5509 664.942 -37.5097 733.02 -37.5097V-132.543Z" fill="#0DD180"/>
</g>
<mask id="mask8_1_10611" style="mask-type:luminance" maskUnits="userSpaceOnUse" x="-18" y="-491" width="1502" height="1051">
<path d="M122.314 -490.584C44.8194 -490.584 -18 -469.118 -18 -442.651V511.6C-18 538.068 44.8194 559.534 122.314 559.534H1343.69C1421.18 559.534 1484 538.068 1484 511.6V-442.651C1484 -469.118 1421.18 -490.584 1343.69 -490.584H122.314V-490.584Z" fill="white"/>
</mask>
<g mask="url(#mask8_1_10611)">
<path d="M733.021 69.2363C801.139 69.2363 832.406 123.297 832.406 177.316C832.406 231.335 893.147 259.261 920.745 259.261V354.294C893.147 354.294 832.406 326.368 832.406 272.349C832.406 218.33 801.099 164.228 733.021 164.228V69.2363Z" fill="#0DD180"/>
</g>
<mask id="mask9_1_10611" style="mask-type:luminance" maskUnits="userSpaceOnUse" x="-18" y="-491" width="1502" height="1051">
<path d="M122.314 -490.584C44.8194 -490.584 -18 -469.118 -18 -442.651V511.6C-18 538.068 44.8194 559.534 122.314 559.534H1343.69C1421.18 559.534 1484 538.068 1484 511.6V-442.651C1484 -469.118 1421.18 -490.584 1343.69 -490.584H122.314V-490.584Z" fill="white"/>
</mask>
<g mask="url(#mask9_1_10611)">
<path d="M-18 69.2363C50.1189 69.2363 81.386 123.297 81.386 177.316C81.386 231.335 142.126 259.261 169.725 259.261V354.294C142.126 354.294 81.386 326.368 81.386 272.349C81.386 218.33 50.1189 164.228 -18 164.228V69.2363Z" fill="#0DD180"/>
</g>
<mask id="mask10_1_10611" style="mask-type:luminance" maskUnits="userSpaceOnUse" x="-18" y="-491" width="1502" height="1051">
<path d="M122.314 -490.584C44.8194 -490.584 -18 -469.118 -18 -442.651V511.6C-18 538.068 44.8194 559.534 122.314 559.534H1343.69C1421.18 559.534 1484 538.068 1484 511.6V-442.651C1484 -469.118 1421.18 -490.584 1343.69 -490.584H122.314V-490.584Z" fill="white"/>
</mask>
<g mask="url(#mask10_1_10611)">
<path d="M1108.51 69.2363C1176.63 69.2363 1207.9 123.297 1207.9 177.316C1207.9 231.335 1268.64 259.261 1296.23 259.261V354.294C1268.64 354.294 1207.9 326.368 1207.9 272.349C1207.9 218.33 1176.63 164.228 1108.51 164.228V69.2363Z" fill="#0DD180"/>
</g>
<mask id="mask11_1_10611" style="mask-type:luminance" maskUnits="userSpaceOnUse" x="-18" y="-491" width="1502" height="1051">
<path d="M122.314 -490.584C44.8194 -490.584 -18 -469.118 -18 -442.651V511.6C-18 538.068 44.8194 559.534 122.314 559.534H1343.69C1421.18 559.534 1484 538.068 1484 511.6V-442.651C1484 -469.118 1421.18 -490.584 1343.69 -490.584H122.314V-490.584Z" fill="white"/>
</mask>
<g mask="url(#mask11_1_10611)">
<path d="M357.49 69.2363C425.609 69.2363 456.876 123.297 456.876 177.316C456.876 231.335 517.617 259.261 545.215 259.261V354.294C517.617 354.294 456.876 326.368 456.876 272.349C456.876 218.33 425.609 164.228 357.49 164.228V69.2363Z" fill="#0DD180"/>
</g>
<mask id="mask12_1_10611" style="mask-type:luminance" maskUnits="userSpaceOnUse" x="-18" y="-491" width="1502" height="1051">
<path d="M122.314 -490.584C44.8194 -490.584 -18 -469.118 -18 -442.651V511.6C-18 538.068 44.8194 559.534 122.314 559.534H1343.69C1421.18 559.534 1484 538.068 1484 511.6V-442.651C1484 -469.118 1421.18 -490.584 1343.69 -490.584H122.314V-490.584Z" fill="white"/>
</mask>
<g mask="url(#mask12_1_10611)">
<path d="M1108.51 69.2363C1040.39 69.2363 1009.12 123.297 1009.12 177.316C1009.12 231.335 948.383 259.261 920.785 259.261V354.294C948.383 354.294 1009.12 326.368 1009.12 272.349C1009.12 218.33 1040.39 164.228 1108.51 164.228V69.2363Z" fill="#0DD180"/>
</g>
<mask id="mask13_1_10611" style="mask-type:luminance" maskUnits="userSpaceOnUse" x="-18" y="-491" width="1502" height="1051">
<path d="M122.314 -490.584C44.8194 -490.584 -18 -469.118 -18 -442.651V511.6C-18 538.068 44.8194 559.534 122.314 559.534H1343.69C1421.18 559.534 1484 538.068 1484 511.6V-442.651C1484 -469.118 1421.18 -490.584 1343.69 -490.584H122.314V-490.584Z" fill="white"/>
</mask>
<g mask="url(#mask13_1_10611)">
<path d="M357.49 69.2363C289.371 69.2363 258.104 123.297 258.104 177.316C258.104 231.335 197.364 259.261 169.766 259.261V354.294C197.364 354.294 258.104 326.368 258.104 272.349C258.104 218.33 289.412 164.228 357.49 164.228V69.2363Z" fill="#0DD180"/>
</g>
<mask id="mask14_1_10611" style="mask-type:luminance" maskUnits="userSpaceOnUse" x="-18" y="-491" width="1502" height="1051">
<path d="M122.314 -490.584C44.8194 -490.584 -18 -469.118 -18 -442.651V511.6C-18 538.068 44.8194 559.534 122.314 559.534H1343.69C1421.18 559.534 1484 538.068 1484 511.6V-442.651C1484 -469.118 1421.18 -490.584 1343.69 -490.584H122.314V-490.584Z" fill="white"/>
</mask>
<g mask="url(#mask14_1_10611)">
<path d="M1484 69.2363C1415.88 69.2363 1384.61 123.297 1384.61 177.316C1384.61 231.335 1323.87 259.261 1296.28 259.261V354.294C1323.87 354.294 1384.61 326.368 1384.61 272.349C1384.61 218.33 1415.92 164.228 1484 164.228V69.2363Z" fill="#0DD180"/>
</g>
<mask id="mask15_1_10611" style="mask-type:luminance" maskUnits="userSpaceOnUse" x="-18" y="-491" width="1502" height="1051">
<path d="M122.314 -490.584C44.8194 -490.584 -18 -469.118 -18 -442.651V511.6C-18 538.068 44.8194 559.534 122.314 559.534H1343.69C1421.18 559.534 1484 538.068 1484 511.6V-442.651C1484 -469.118 1421.18 -490.584 1343.69 -490.584H122.314V-490.584Z" fill="white"/>
</mask>
<g mask="url(#mask15_1_10611)">
<path d="M733.02 69.2363C664.902 69.2363 633.635 123.297 633.635 177.316C633.635 231.335 572.894 259.261 545.296 259.261V354.294C572.894 354.294 633.635 326.368 633.635 272.349C633.635 218.33 664.902 164.228 733.02 164.228V69.2363Z" fill="#0DD180"/>
</g>
<mask id="mask16_1_10611" style="mask-type:luminance" maskUnits="userSpaceOnUse" x="-18" y="-491" width="1502" height="1051">
<path d="M122.314 -490.584C44.8194 -490.584 -18 -469.118 -18 -442.651V511.6C-18 538.068 44.8194 559.534 122.314 559.534H1343.69C1421.18 559.534 1484 538.068 1484 511.6V-442.651C1484 -469.118 1421.18 -490.584 1343.69 -490.584H122.314V-490.584Z" fill="white"/>
</mask>
<g mask="url(#mask16_1_10611)">
<path d="M733.021 270.975C801.139 270.975 832.406 325.035 832.406 379.054C832.406 433.073 893.147 460.999 920.745 460.999V556.033C893.147 556.033 832.406 528.106 832.406 474.087C832.406 420.068 801.099 366.008 733.021 366.008V270.975Z" fill="#0DD180"/>
</g>
<mask id="mask17_1_10611" style="mask-type:luminance" maskUnits="userSpaceOnUse" x="-18" y="-491" width="1502" height="1051">
<path d="M122.314 -490.584C44.8194 -490.584 -18 -469.118 -18 -442.651V511.6C-18 538.068 44.8194 559.534 122.314 559.534H1343.69C1421.18 559.534 1484 538.068 1484 511.6V-442.651C1484 -469.118 1421.18 -490.584 1343.69 -490.584H122.314V-490.584Z" fill="white"/>
</mask>
<g mask="url(#mask17_1_10611)">
<path d="M-18 270.975C50.1189 270.975 81.386 325.035 81.386 379.054C81.386 433.073 142.126 460.999 169.725 460.999V556.033C142.126 556.033 81.386 528.106 81.386 474.087C81.386 420.068 50.1189 366.008 -18 366.008V270.975Z" fill="#0DD180"/>
</g>
<mask id="mask18_1_10611" style="mask-type:luminance" maskUnits="userSpaceOnUse" x="-18" y="-491" width="1502" height="1051">
<path d="M122.314 -490.584C44.8194 -490.584 -18 -469.118 -18 -442.651V511.6C-18 538.068 44.8194 559.534 122.314 559.534H1343.69C1421.18 559.534 1484 538.068 1484 511.6V-442.651C1484 -469.118 1421.18 -490.584 1343.69 -490.584H122.314V-490.584Z" fill="white"/>
</mask>
<g mask="url(#mask18_1_10611)">
<path d="M1108.51 270.975C1176.63 270.975 1207.9 325.035 1207.9 379.054C1207.9 433.073 1268.64 460.999 1296.23 460.999V556.033C1268.64 556.033 1207.9 528.106 1207.9 474.087C1207.9 420.068 1176.59 366.008 1108.51 366.008V270.975Z" fill="#0DD180"/>
</g>
<mask id="mask19_1_10611" style="mask-type:luminance" maskUnits="userSpaceOnUse" x="-18" y="-491" width="1502" height="1051">
<path d="M122.314 -490.584C44.8194 -490.584 -18 -469.118 -18 -442.651V511.6C-18 538.068 44.8194 559.534 122.314 559.534H1343.69C1421.18 559.534 1484 538.068 1484 511.6V-442.651C1484 -469.118 1421.18 -490.584 1343.69 -490.584H122.314V-490.584Z" fill="white"/>
</mask>
<g mask="url(#mask19_1_10611)">
<path d="M357.49 270.975C425.609 270.975 456.876 325.035 456.876 379.054C456.876 433.073 517.617 460.999 545.215 460.999V556.033C517.617 556.033 456.876 528.106 456.876 474.087C456.876 420.068 425.568 366.008 357.49 366.008V270.975Z" fill="#0DD180"/>
</g>
<mask id="mask20_1_10611" style="mask-type:luminance" maskUnits="userSpaceOnUse" x="-18" y="-491" width="1502" height="1051">
<path d="M122.314 -490.584C44.8194 -490.584 -18 -469.118 -18 -442.651V511.6C-18 538.068 44.8194 559.534 122.314 559.534H1343.69C1421.18 559.534 1484 538.068 1484 511.6V-442.651C1484 -469.118 1421.18 -490.584 1343.69 -490.584H122.314V-490.584Z" fill="white"/>
</mask>
<g mask="url(#mask20_1_10611)">
<path d="M1108.51 270.975C1040.39 270.975 1009.12 325.035 1009.12 379.054C1009.12 433.073 948.383 460.999 920.785 460.999V556.033C948.383 556.033 1009.12 528.106 1009.12 474.087C1009.12 420.068 1040.43 366.008 1108.51 366.008V270.975Z" fill="#0DD180"/>
</g>
<mask id="mask21_1_10611" style="mask-type:luminance" maskUnits="userSpaceOnUse" x="-18" y="-491" width="1502" height="1051">
<path d="M122.314 -490.584C44.8194 -490.584 -18 -469.118 -18 -442.651V511.6C-18 538.068 44.8194 559.534 122.314 559.534H1343.69C1421.18 559.534 1484 538.068 1484 511.6V-442.651C1484 -469.118 1421.18 -490.584 1343.69 -490.584H122.314V-490.584Z" fill="white"/>
</mask>
<g mask="url(#mask21_1_10611)">
<path d="M357.49 270.975C289.371 270.975 258.104 325.035 258.104 379.054C258.104 433.073 197.364 460.999 169.766 460.999V556.033C197.364 556.033 258.104 528.106 258.104 474.087C258.104 420.068 289.412 366.008 357.49 366.008V270.975Z" fill="#0DD180"/>
</g>
<mask id="mask22_1_10611" style="mask-type:luminance" maskUnits="userSpaceOnUse" x="-18" y="-491" width="1502" height="1051">
<path d="M122.314 -490.584C44.8194 -490.584 -18 -469.118 -18 -442.651V511.6C-18 538.068 44.8194 559.534 122.314 559.534H1343.69C1421.18 559.534 1484 538.068 1484 511.6V-442.651C1484 -469.118 1421.18 -490.584 1343.69 -490.584H122.314V-490.584Z" fill="white"/>
</mask>
<g mask="url(#mask22_1_10611)">
<path d="M1484 270.975C1415.88 270.975 1384.61 325.035 1384.61 379.054C1384.61 433.073 1323.87 460.999 1296.28 460.999V556.033C1323.87 556.033 1384.61 528.106 1384.61 474.087C1384.61 420.068 1415.92 366.008 1484 366.008V270.975Z" fill="#0DD180"/>
</g>
<mask id="mask23_1_10611" style="mask-type:luminance" maskUnits="userSpaceOnUse" x="-18" y="-491" width="1502" height="1051">
<path d="M122.314 -490.584C44.8194 -490.584 -18 -469.118 -18 -442.651V511.6C-18 538.068 44.8194 559.534 122.314 559.534H1343.69C1421.18 559.534 1484 538.068 1484 511.6V-442.651C1484 -469.118 1421.18 -490.584 1343.69 -490.584H122.314Z" fill="white"/>
</mask>
<g mask="url(#mask23_1_10611)">
<path d="M733.02 270.975C664.902 270.975 633.635 325.035 633.635 379.054C633.635 433.073 572.894 460.999 545.296 460.999V556.033C572.894 556.033 633.635 528.106 633.635 474.087C633.635 420.068 664.942 366.008 733.02 366.008V270.975Z" fill="#0DD180"/>
</g>
</g>
<defs>
<clipPath id="clip0_1_10611">
<rect width="1502" height="1094" fill="white" transform="translate(-18 -561)"/>
</clipPath>
</defs>
</svg>
