<svg width="248" height="21" viewBox="0 0 248 21" fill="none" xmlns="http://www.w3.org/2000/svg">
<path d="M213.752 11.8716C209.617 9.6762 204.964 9.34607 200.518 7.98703C184.954 4.58669 176.839 3.88072 163.554 2.88758C141.325 1.26719 124.612 1.79669 97.3746 5.04544C70.1374 8.29418 64.0705 8.88267 34.3093 11.8716C25.8316 13.1261 17.6122 13.5192 9.08272 14.5646C5.92566 14.9516 4.64838 19 7.89103 19C35.9089 15.4979 58.8506 13.5053 88.201 10.5565C122.6 7.10043 159.641 5.72037 193.363 13.5053C201.67 15.423 208.279 18.0391 212.098 17.9707C214.931 17.92 216.083 12.5208 213.752 11.8716Z" fill="#00A6E3"/>
</svg>
