<svg width="163" height="18" viewBox="0 0 163 18" fill="none" xmlns="http://www.w3.org/2000/svg">
<path d="M161.221 8.55863C158.032 6.62174 154.445 6.33047 151.017 5.13144C139.017 2.13144 132.76 1.50859 122.517 0.632372C105.379 -0.797239 93.5174 0.265234 72.5174 3.13164C50.5175 6.13453 40.5174 7.74831 21.5831 10.4206C15.0467 11.5274 8.51034 12.4498 1.93411 13.3721C-0.5 13.7135 0.000778437 17.5 2.50087 17.5C24.1028 14.4102 40.532 11.3131 65.0008 8.5C96.0008 4.5002 119.501 3.13164 145.501 10C151.906 11.6919 157.001 14 159.945 13.9397C162.129 13.895 163.017 9.13144 161.221 8.55863Z" fill="#00A6E3"/>
</svg>
