<svg width="265" height="237" viewBox="0 0 265 237" fill="none" xmlns="http://www.w3.org/2000/svg">
<g clip-path="url(#clip0_556_36187)">
<rect width="265" height="237" rx="20" fill="#F7D02A"/>
<path d="M651.473 524.343C393.461 535.099 267.108 352.676 259.296 165.31C251.485 -22.0554 17.3418 -109.266 -87.2652 -104.904L-101 -434.346C3.60705 -438.708 237.75 -351.497 245.562 -164.132C253.373 23.2339 379.726 205.657 637.738 194.901L651.473 524.343Z" fill="#0DD180"/>
<path d="M532.21 866.005C276.636 902.987 132.358 734.382 105.503 548.787C78.6472 363.191 -163.161 300.284 -266.78 315.278L-314 -11.0518C-210.381 -26.0454 31.4274 36.8617 58.283 222.457C85.1386 408.053 229.416 576.657 484.99 539.676L532.21 866.005Z" fill="#0DD180"/>
</g>
<defs>
<clipPath id="clip0_556_36187">
<rect width="265" height="237" rx="20" fill="white"/>
</clipPath>
</defs>
</svg>
