<svg width="1440" height="907" viewBox="0 0 1440 907" fill="none" xmlns="http://www.w3.org/2000/svg">
<mask id="mask0_1315_48483" style="mask-type:alpha" maskUnits="userSpaceOnUse" x="0" y="0" width="1440" height="907">
<rect width="1440" height="907" fill="white"/>
</mask>
<g mask="url(#mask0_1315_48483)">
<path d="M2038 221.608C1725.94 738.864 1292.5 649.182 1090.5 529.864C633.251 259.777 99.0001 556.365 -76.9289 892.868L-522 699.223C-385.379 479.739 72.4298 41.8916 433.406 221.608C887.11 447.491 1454.3 321.642 1725.94 -83.3475L2038 221.608Z" fill="#00A6E3"/>
<g clip-path="url(#clip0_1315_48483)">
<path d="M872.915 253.363C869.536 256.014 864.871 256.944 862.994 254.509C856.174 245.812 876.115 241.988 872.915 253.363Z" fill="#0DD180"/>
<path d="M865.468 341.137C870.84 347.816 857.825 353.288 855.538 346.399C854.14 342.103 861.843 336.608 865.468 341.137Z" fill="#0DD180"/>
<path d="M880.803 408.442C881.848 404.333 889.573 401.216 890.584 406.988C891.327 411.185 882.352 415.401 880.803 408.442Z" fill="#0DD180"/>
<path d="M865.96 390.56C868.038 384.177 876.948 388.264 874.334 394.227C870.765 397.973 866.312 395.411 865.96 390.56Z" fill="#0DD180"/>
<path d="M754.935 158.115C754.112 157.004 753.962 156.675 753.665 155.324C754.016 153.998 755.677 153.163 757.571 152.433C761.791 153.96 758.814 159.532 754.935 158.115Z" fill="#0DD180"/>
<path d="M857.143 385.979C855.89 387.185 854.552 387.158 853.152 387.052C849.917 382.796 857.805 380.851 857.143 385.979Z" fill="#0DD180"/>
<path d="M838.471 394.104C832.959 393.059 827.998 390.543 823.359 387.164C817.15 390.759 810.503 391.53 808.802 386.336C807.482 382.27 812.349 378.172 817.798 377.39C818.754 376.637 818.432 375.404 819.579 374.723C826.7 372.199 838.418 368.537 842.687 374.656C847.448 381.506 842.349 388.998 838.471 394.104Z" fill="#0DD180"/>
<path d="M779.134 236.687C783.824 242.508 772.675 245.673 771.74 239.309C771.206 235.574 776.716 233.703 779.134 236.687Z" fill="#0DD180"/>
<path d="M837.643 421.001C835.699 418.067 836.953 416.223 838.91 415.572C843.895 413.887 843.491 422.61 837.643 421.001Z" fill="#0DD180"/>
<path d="M829.49 398.192C827.974 400.394 823.868 401.387 822.973 397.79C823.56 394.712 829.797 393.332 829.49 398.192Z" fill="#0DD180"/>
<path d="M808.275 354.832C807.078 355.987 804.241 357.384 803.055 356.465C798.34 350.124 809.381 347.885 808.275 354.832Z" fill="#0DD180"/>
<path d="M821.827 437.905C825.251 437.275 827.8 434.258 831.513 434.611C832.931 432.719 833.293 430.777 836.078 429.908C843.46 427.609 845.359 442.79 835.217 441.12C834.371 441.823 834.429 442.884 833.295 443.48C833.464 447.46 834.403 451.621 831.679 454.664C825.242 461.836 813.178 455.419 816.337 446.343C819.633 442.987 820.529 441.519 821.827 437.905Z" fill="#0DD180"/>
<path d="M811.235 403.157L810.536 401.619C812.143 398.103 815.397 403.332 811.235 403.157Z" fill="#0DD180"/>
<path d="M656.778 115.399C657.513 109.443 667.754 106.904 670.297 111.501C673.914 118.05 658.71 126.401 656.778 115.399Z" fill="#0DD180"/>
<path d="M813.452 434.237C811.199 437.092 806.649 437.227 804.101 436.636C800.472 432.506 803.947 428.087 809.15 427.231C811.598 427.602 814.071 431.463 813.452 434.237Z" fill="#0DD180"/>
<path d="M764.647 342.597C770.431 348.318 758.483 354.737 755.706 350.033C753.225 345.805 760.842 338.838 764.647 342.597Z" fill="#0DD180"/>
<path d="M782.437 400.562C786.756 394.619 791.741 402.72 786.978 404.834C784.585 405.923 782.221 403.816 782.437 400.562Z" fill="#0DD180"/>
<path d="M719.308 264.283C721.364 266.821 721.515 271.871 719.564 273.873C716.668 276.887 710.727 277.867 707.479 276.03C702.825 273.375 701.897 265.92 706.735 262.923C710.855 260.385 717.395 261.944 719.308 264.283Z" fill="#0DD180"/>
<path d="M781.352 426.834C774.601 431.046 770.028 427.054 764.136 427.561C763.365 426.506 762.398 425.196 762.447 423.848C766.68 421.735 770.864 416.252 776.87 416.17C778.166 416.164 779.546 417.101 781.096 417.244C785.359 417.585 792.12 417.24 789.836 423.345C788.737 426.231 784.17 427.726 781.352 426.834Z" fill="#0DD180"/>
<path d="M600.277 14.1864C601.542 15.6263 602.472 17.6696 602.527 19.1297C602.585 20.482 601.466 24.2535 598.493 25.8182C593.308 28.5758 587.414 22.6125 590.161 16.5356C591.523 13.5291 596.804 10.2241 600.277 14.1864Z" fill="#0DD180"/>
<path d="M690.444 255.778C688.463 259.172 684.608 263.339 679.994 263.158C674.592 262.938 671.786 255.198 673.61 250.761C680.783 245.614 686.987 248.705 690.444 255.778Z" fill="#0DD180"/>
<path d="M699.969 307.055C701.451 304.896 706.488 306.82 707.327 309.303C708.311 312.223 703.667 315.821 700.672 316.813C690.595 320.179 689.279 303.831 699.969 307.055Z" fill="#0DD180"/>
<path d="M699.875 322.4C698.869 322.752 697.561 321.916 697.973 320.667C699.478 319.664 700.53 321.334 699.875 322.4Z" fill="#0DD180"/>
<path d="M627.297 165.413C628.784 167.282 628.257 171.95 626.071 174.192C617.572 182.833 602.637 168.943 617.933 163.707C620.961 162.673 625.428 163.054 627.297 165.413Z" fill="#0DD180"/>
<path d="M599.905 137.196C607.217 130.315 613.702 139.907 603.48 143.419C600.893 142.978 599.312 139.852 599.905 137.196Z" fill="#0DD180"/>
<path d="M625.593 208.381C618.337 198.9 639.247 192.78 637.146 204.238C636.244 209.13 629.846 211.378 625.593 208.381Z" fill="#0DD180"/>
<path d="M560.407 57.7361C564.979 61.1449 558.272 66.5575 555.764 63.9593C553.341 61.429 556.759 55.0203 560.407 57.7361Z" fill="#0DD180"/>
<path d="M555.721 52.3892C554.629 53.3103 553.863 53.3144 552.652 53.043C551.611 51.1037 551.985 49.7134 553.724 48.8161C555.151 48.7499 556.165 51.1527 555.721 52.3892Z" fill="#0DD180"/>
<path d="M542.12 38.0527C547.395 44.4036 539.314 52.8547 532.902 48.957C530.261 47.3475 527.289 42.0968 529.158 39.0981C530.384 37.1343 535.866 35.4353 537.194 35.4411C538.598 35.4388 540.609 36.2473 542.12 38.0527Z" fill="#0DD180"/>
<path d="M527.261 32.4826C529.865 36.2832 527.592 44.1598 520.999 41.6703C512.595 38.52 520.515 22.6104 527.261 32.4826Z" fill="#0DD180"/>
<path d="M598.565 216.199C597.735 217.637 595.206 218.602 593.624 218.447C587.568 213.061 599.6 208.806 598.565 216.199Z" fill="#0DD180"/>
<path d="M560.246 136.944C565.622 144.681 553.244 149.572 548.864 144.723C542.46 137.639 554.932 129.285 560.246 136.944Z" fill="#0DD180"/>
<path d="M573.538 185.024C567.35 179.697 578.641 172.358 579.969 179.471C580.394 181.744 577.056 185.358 573.538 185.024Z" fill="#0DD180"/>
<path d="M638.636 325.631L637.406 326.191C636.777 325.973 636.167 324.633 636.416 324.016C637.849 323.204 638.645 324.487 638.636 325.631Z" fill="#0DD180"/>
<path d="M618.618 287.349C614.865 294.652 600.517 292.536 600.684 283.178C600.74 280.155 604 275.145 608.596 274.353C613.583 273.489 619.466 281.234 618.618 287.349Z" fill="#0DD180"/>
<path d="M633.019 317.367C630.04 322.7 621.443 322.157 620.961 314.633C623.052 307.927 634.242 309.278 633.019 317.367Z" fill="#0DD180"/>
<path d="M493.797 37.633C496.307 40.7605 495.897 46.0919 492.963 48.09C487.339 51.9224 479.88 47.122 480.612 40.636C481.337 34.3657 490.43 33.437 493.797 37.633Z" fill="#0DD180"/>
<path d="M469.919 67.1689C468.373 66.0426 467.174 63.9895 466.177 61.3929C466.931 59.0877 467.522 56.4848 470.183 55.4595C478.899 52.1299 480.992 68.2033 469.919 67.1689Z" fill="#0DD180"/>
<path d="M560.65 242.787C560.322 244.395 557.11 246.016 555.877 244.588C553.485 241.486 560.06 237.646 560.65 242.787Z" fill="#0DD180"/>
<path d="M579.519 288.328C578.462 290.374 573.99 292.488 571.957 291.398C565.436 285.163 580.5 280.058 579.519 288.328Z" fill="#0DD180"/>
<path d="M570.231 309.739C572.771 312.641 572.708 317.045 571.884 318.322C569.104 322.637 563.652 321.723 562.226 320.861C554.05 315.883 564.125 302.785 570.231 309.739Z" fill="#0DD180"/>
<path d="M506.814 214.644C504.363 216.422 500.664 216.912 498.805 217.546C494.358 223.15 505.228 226.186 504.054 232.342C503.238 236.665 496.384 237.211 493.479 234.555C490.22 231.53 490.669 225.12 486.593 223.501C484.719 224.566 482.666 223.723 480.596 225.116C474.4 221.809 467.426 220.58 461.123 217.562C455.593 221.775 454.072 213.424 460.215 213.121C461.88 208.333 464.073 204.417 466.961 199.231C469.596 194.479 471.128 189.459 479.668 188.596C483.689 188.172 495.328 188.179 497.443 189.1C498.963 189.761 500.114 191.942 501.559 193.194C505.461 194.256 511.442 199.012 511.011 204.937C512.08 205.83 515.281 203.604 517.298 203.959C519.744 204.384 522.432 208.252 522.516 211.291C522.602 218.12 510.188 226.368 506.814 214.644Z" fill="#0DD180"/>
<path d="M560.657 296.912C559.745 297.936 557.639 298.842 556.499 298.432C552.347 294.434 561.657 290.781 560.657 296.912Z" fill="#0DD180"/>
<path d="M469.802 157.947C464.995 162.468 456.786 159.865 453.613 155.978C449.531 150.968 454.059 144.611 460.752 143.766C465.058 143.212 468.774 146.719 471.832 148.43C480.031 142.392 493.325 144.405 494.664 155.968C495.11 159.743 492.183 166.008 486.351 167.229C480.292 168.475 474.932 161.181 469.802 157.947Z" fill="#0DD180"/>
<path d="M578.838 369.656C585.134 374.986 579.15 387.813 571.925 383.993C562.985 379.257 570.32 362.818 578.838 369.656Z" fill="#0DD180"/>
<path d="M434.665 79.1007C432.604 76.6702 433.326 74.0614 434.476 72.1056C446.845 64.5145 444.517 83.1037 434.665 79.1007Z" fill="#0DD180"/>
<path d="M522.596 282.116C522.999 285.857 523.153 291.727 519.308 292.947C514.645 294.406 512.882 285.873 514.072 282.255C509.697 279.631 510.599 272.644 512.686 270.183C521.401 260.038 534.55 275.827 522.596 282.116Z" fill="#0DD180"/>
<path d="M603.327 448.866C606.95 453.449 602.918 460.721 597.345 458.668C588.043 455.291 597.176 441.057 603.327 448.866Z" fill="#0DD180"/>
<path d="M506.452 240.93C505.868 242.443 504.491 244.077 502.378 244.269C495.317 242.205 504.246 233.288 506.452 240.93Z" fill="#0DD180"/>
<path d="M501.577 321.197C502.724 319.057 500.302 315.598 500.959 313.257C507.448 306.724 519.486 305.277 524.43 311.54C527.084 312.189 529.593 312.054 531.814 313.033C537.393 315.506 544.92 323.776 542.296 330.301C540.66 334.334 535.257 335.626 531.222 337.94C529.269 339.066 526.288 341.776 523.632 341.764C522.197 341.755 517.808 338.925 515.855 338.594C512.776 338.059 508.547 338.26 504.787 338.035C500.941 337.796 496.396 337.769 494.378 335.664C488.99 330.054 492.547 323.078 501.577 321.197Z" fill="#0DD180"/>
<path d="M572.178 402.548C574.041 405.36 573.87 408.594 571.734 410.6C566.291 415.703 557.824 408.63 561.838 402.772C564.391 399.064 569.566 398.672 572.178 402.548Z" fill="#0DD180"/>
<path d="M387.354 5.42398C393.004 9.50966 382.685 19.5093 379.163 13.6334C376.982 10.0643 383.682 2.77208 387.354 5.42398Z" fill="#0DD180"/>
<path d="M464.423 180.55C471.775 189.483 455.098 195.295 451.537 187.528C448.178 180.146 460.153 175.359 464.423 180.55Z" fill="#0DD180"/>
<path d="M489.201 239.075L487.334 239.925C486.468 239.709 485.91 238.716 485.45 237.414C486.251 234.981 489.622 236.391 489.201 239.075Z" fill="#0DD180"/>
<path d="M448.907 180.875C445.52 179.897 443.384 175.087 446.45 173.029C451.374 169.754 456.16 178.874 448.907 180.875Z" fill="#0DD180"/>
<path d="M444.86 196.559C444.06 197.772 441.103 198.614 439.422 199.405C425.917 193.723 442.716 179.21 446.999 191.475C449.994 191.65 454.065 194.89 452.083 197.754C450.213 200.461 446.738 198.357 444.86 196.559Z" fill="#0DD180"/>
<path d="M443.039 237.698C447.977 234.046 449.076 241.528 445.316 241.886C443.507 242.047 442.655 239.65 443.039 237.698Z" fill="#0DD180"/>
<path d="M428.938 215.739L429.358 216.661C427.848 219.284 425.969 215.154 428.938 215.739Z" fill="#0DD180"/>
<path d="M397.161 241.019C395.408 238.741 392.42 242.832 389.821 242.131C389.705 241.76 389.506 241.612 389.234 241.656C388.377 237.617 389.493 234.245 387.514 230.479C386.826 229.2 385.069 230 385.322 228.108C385.014 228.248 385.25 228.591 385.294 228.863C380.299 223.711 384.184 215.764 391.358 212.658C393.069 213.099 394.332 217.563 391.936 217.248C394.375 218.472 396.309 221.093 399.248 221.028C399.766 219.546 398.024 220.259 397.486 219.602C395.814 214.529 397.87 210.835 399.617 207.043C399.265 206.62 398.531 207.219 398.442 206.093C399.655 201.245 397.832 195.259 398.256 190.133C403.403 186.067 412.47 183.452 416.366 189.742C418.283 192.847 419.49 197.363 418.076 200.897C414.933 203.309 414.594 207.282 409.913 208.352C411.984 211.971 409.727 217.904 406.403 221.14C407.215 223.158 406.812 224.72 406.506 226.318C407.715 228.101 406.932 227.954 407.766 229.086C406.555 231.493 403.507 230.387 402.31 228.572C400.989 229.279 400.808 230.396 398.879 230.876C398.032 233.674 396.356 237.328 397.161 241.019Z" fill="#0DD180"/>
<path d="M434.385 233.415L431.596 234.684C428.329 233.969 427.849 229.07 432.443 228.332C434.24 229.078 435.426 231.801 434.385 233.415Z" fill="#0DD180"/>
<path d="M525.607 458.455C523.681 457.661 521.842 453.618 522.507 451.644C524.817 447.226 531.861 447.388 533.268 452.343C534.291 455.989 529.666 459.048 525.607 458.455Z" fill="#0DD180"/>
<path d="M360.677 91.1293C358.028 92.4142 356.095 88.2818 358.4 86.941C360.149 86.9407 362.28 89.525 360.677 91.1293Z" fill="#0DD180"/>
<path d="M461.705 330.378C460.281 331.211 459.683 329.839 458.858 329.074C459.288 326.757 462.222 328.313 461.705 330.378Z" fill="#0DD180"/>
<path d="M393.032 183.547C388.751 192.894 378.551 178.866 388.089 177.576C390.291 177.29 393.282 180.251 393.032 183.547Z" fill="#0DD180"/>
<path d="M412.657 270.937C410.766 268.005 412.134 266.295 412.598 264.227C412.204 263.186 410.129 258.8 411.438 258.417C408.502 259.302 404.838 256.726 405.243 253.015C408.669 249.361 411.665 253.089 415.557 253.546C418.222 253.871 420.6 253.213 422.214 254.256C431.563 260.238 420.001 271.175 412.657 270.937Z" fill="#0DD180"/>
<path d="M489.296 420.481C487.496 419.205 486.402 416.043 487.241 414.335C488.097 413.362 489.944 412.76 491.427 412.059C498.114 411.959 496.144 422.191 489.296 420.481Z" fill="#0DD180"/>
<path d="M406.363 234.975C406.838 233.805 409.143 232.756 410.549 232.699C416.017 236.444 406.847 241.863 406.363 234.975Z" fill="#0DD180"/>
<path d="M456.974 339.611C455.342 340.566 453.962 340.796 453.178 339.482C452.24 336.196 458.368 336.033 456.974 339.611Z" fill="#0DD180"/>
<path d="M375.23 183.798C378.755 183.042 382.231 185.73 382.46 189.843C379.074 197.43 370.119 188.351 375.23 183.798Z" fill="#0DD180"/>
<path d="M397.35 240.562C398.465 241.089 398.239 240.476 398.915 239.108C398.527 238.488 398.28 239.927 397.545 239.36C400.755 235.697 407.663 243.189 402.203 245.461C399.77 246.462 398.046 244.886 396.708 241.597C397.373 241.427 397.644 241.091 397.35 240.562Z" fill="#0DD180"/>
<path d="M452.12 372.451C457.175 378.902 446.209 385.033 442.732 379.72C439.236 374.31 447.621 366.701 452.12 372.451Z" fill="#0DD180"/>
<path d="M436.03 342.804C440.048 348.428 436.893 355.3 430.116 355.201C419.897 355.052 421.107 336.626 432.356 339.622C433.832 340.012 434.408 340.519 436.03 342.804Z" fill="#0DD180"/>
<path d="M381.764 234.21C380.285 235.386 379.615 234.498 378.555 234.556C377.621 232.329 377.138 231.674 377.508 229.808C380.981 227.538 382.657 231.92 381.764 234.21Z" fill="#0DD180"/>
<path d="M378.796 249.006C377.731 248.588 376.793 246.761 376.799 245.433C380.848 239.188 385.936 248.621 378.796 249.006Z" fill="#0DD180"/>
<path d="M414.32 317.226C416.147 318.33 415.264 320.642 414.919 321.806C407.335 326.981 407.768 313.896 414.32 317.226Z" fill="#0DD180"/>
<path d="M305.201 107.782C302.352 104.783 303.894 100.659 306.717 99.6401C313.207 97.2437 313.269 110.369 305.201 107.782Z" fill="#0DD180"/>
<path d="M376.726 272.357C376.068 269.686 378.082 265.375 381.229 265.826C380.715 264.23 382.413 262.953 383.905 263.494C383.929 266.692 386.2 274.596 381.037 275.248C378.51 275.576 379.286 272.332 376.726 272.357Z" fill="#0DD180"/>
<path d="M371.026 249.173C365.159 253.169 368.759 241.453 371.026 249.173Z" fill="#0DD180"/>
<path d="M388.501 328.577C379.583 330.646 382.827 314.186 390.912 320.77C391.736 318.619 393.617 318.558 394.288 319.977C395.32 322.186 389.663 326.935 388.501 328.577Z" fill="#0DD180"/>
<path d="M369.686 290.491C369.246 289.816 368.673 289.546 368.389 288.456C368.51 288.082 369.143 287.9 369.031 287.421C371.133 286.332 372.607 290.037 369.686 290.491Z" fill="#0DD180"/>
<path d="M385.25 334.538C383.921 332.2 384.195 330.298 385.595 329.529C389.97 327.087 390.649 336.325 385.25 334.538Z" fill="#0DD180"/>
<path d="M312.506 170.546C321.306 171.129 318.114 185.55 310.085 182.467C305.326 180.629 304.711 171.706 312.506 170.546Z" fill="#0DD180"/>
<path d="M292.333 131.167C291.576 130.902 291.262 129.454 290.756 128.517C291.123 127.634 292.855 126.315 293.852 127.108C295.045 128.157 294.39 131.319 292.333 131.167Z" fill="#0DD180"/>
<path d="M347.71 297.123C346.388 293.402 345.975 291.097 342.437 291.302C343.496 296.309 335.088 299.499 333.338 295.071C331.648 297.59 328.348 298.667 326.011 300.288C324.981 300.995 324.421 302.152 323.335 302.619C318.938 304.488 315.88 300.098 312.227 298.711C309.829 299.616 307.994 299.019 305.967 298.934C304.85 297.586 303.53 296.781 302.628 294.858C300.703 294.063 298.084 295.122 296.445 293.56C298.033 287.322 301.775 281.508 296.996 274.269C298.41 272.193 302.294 271.407 303.888 272.989C308.916 267.73 315.09 268.077 320.281 269.64C323.079 270.488 322.718 270.626 325.039 272.699C327.287 274.726 330.333 276.177 331.962 278.883C333.897 282.087 335.776 286.217 334.287 289.759C335.55 290.67 337.471 289.185 338.893 288.406C339.614 283.702 334.466 276.816 336.582 272.67C345.887 266.792 358.395 266.961 359.346 277.613C359.477 279.065 358.648 281.67 357.912 283.49C357.603 284.267 356.424 285.228 356.141 286.179C355.529 288.155 356.418 291.331 355.574 293.147C354.48 295.634 350.961 297.977 347.71 297.123Z" fill="#0DD180"/>
<path d="M286.751 138.587C295.616 131.45 296.093 146.243 287.938 143.642C286.546 142.155 286.127 140.011 286.751 138.587Z" fill="#0DD180"/>
<path d="M292.249 146.534C296.585 147.558 299.983 152.695 298.101 156.946C296.549 160.41 289.232 163.899 286.213 161.984C283.427 160.229 282.381 154.261 283.839 151.873C285.504 149.126 289.309 147.528 292.249 146.534Z" fill="#0DD180"/>
<path d="M339.703 266.424C338.222 264.684 337.184 261.762 337.051 259.781C337.817 258.318 340.511 256.668 342.656 256.488C348.41 258.882 346.203 267.895 339.703 266.424Z" fill="#0DD180"/>
<path d="M325.83 230.172C322.197 237.156 312.31 229.641 317.791 225.609C320.774 223.429 326.135 225.074 325.83 230.172Z" fill="#0DD180"/>
<path d="M277.29 144.007C276.555 146.701 275.276 148.318 273.312 149.185C268.332 151.345 263.364 144.855 266.472 140.735C269.253 137.003 275.954 136.818 277.29 144.007Z" fill="#0DD180"/>
<path d="M306.948 255.949C307.566 250.842 315.345 248.018 318.668 251.359C325.751 258.478 309.911 268.577 306.948 255.949Z" fill="#0DD180"/>
<path d="M334.858 332.833C332.38 330.01 327.254 326.667 327.972 321.779C330.89 320.212 334.072 318.526 337.183 319.072C345.658 320.573 344.238 334.691 334.858 332.833Z" fill="#0DD180"/>
<path d="M329.076 316.051C325.699 314.512 326.175 309.151 327.357 309.01C331.363 307.506 335.471 314.786 329.076 316.051Z" fill="#0DD180"/>
<path d="M303.819 258.859C303.225 259.766 301.049 261.393 299.633 261.135C298.951 262.665 296.625 265.474 294.191 264.726C291.962 261.576 294.54 261.066 296.994 258.597C299.808 255.752 302.665 252.887 303.819 258.859Z" fill="#0DD180"/>
<path d="M294.823 250.621C293.991 251.53 292.036 252.419 290.804 252.449C292.507 260.267 280.453 265.115 276.933 258.019C274.981 254.08 278.136 251.345 277.459 247.702C278.773 247.21 279.155 246.187 280.108 246.125C280.724 242.53 280.394 238.543 281.864 235.249C287.129 234.471 292.765 233.868 294.314 239.661C294.801 241.428 293.548 243.801 293.797 245.863C294.036 247.902 295.816 248.843 294.823 250.621Z" fill="#0DD180"/>
<path d="M277.374 245.885C275.738 251.085 267.316 254.36 264.339 249.218C258.846 239.651 277.122 232.342 277.374 245.885Z" fill="#0DD180"/>
<path d="M309.555 326.447C301.756 332.197 297.085 318.729 305.784 317.343C310.14 316.607 311.486 322.651 309.555 326.447Z" fill="#0DD180"/>
<path d="M330.21 364.438C330.174 365.117 330.129 365.774 329.071 366.07C328.647 365.839 328.274 365.425 328.054 364.65C328.623 364.444 328.542 363.977 329.165 363.773C329.549 363.917 329.741 364.572 330.21 364.438Z" fill="#0DD180"/>
<path d="M301.625 314.727C301.1 316.08 298.675 316.865 297.132 317.143C295.376 316.43 293.986 313.376 294.602 311.585C297.567 308.14 302.245 310.732 301.625 314.727Z" fill="#0DD180"/>
<path d="M303.936 334.6C302.229 335.509 301.037 335.044 300.325 333.246C301.484 331.366 304.264 332.408 303.936 334.6Z" fill="#0DD180"/>
<path d="M266.299 253.524C268.668 257.272 267.069 264.709 261.279 266.257C255.326 267.852 249.495 257.484 254.029 252.769C257.856 248.773 263.461 249.034 266.299 253.524Z" fill="#0DD180"/>
<path d="M259.161 241.099C259.217 241.63 259.05 242.077 259.106 242.609C257.992 243.248 257.173 243.196 256.68 242.228C256.987 242.088 256.751 241.744 256.707 241.473C257.689 240.893 258.597 240.559 259.161 241.099Z" fill="#0DD180"/>
<path d="M228.828 185.102C231.201 188.743 230.183 195.358 224.311 196.492C217.395 197.836 213.913 184.941 221.051 181.931C223.377 180.926 226.558 181.626 228.828 185.102Z" fill="#0DD180"/>
<path d="M189.798 113.251C186.161 120.926 175.821 111.019 183.462 107.542C186.712 106.063 190.142 108.241 189.798 113.251Z" fill="#0DD180"/>
<path d="M231.55 223.059C227.915 221.478 227.123 216.534 230.792 214.811C236.24 212.28 240.84 221.165 231.55 223.059Z" fill="#0DD180"/>
<path d="M267.771 309.235C266.469 309.694 264.817 311.189 264.422 309.273C264.738 313.054 261.334 316.115 257.461 316.923C252.487 314.731 252.33 305.998 259.664 306.214C260.975 307.288 262.763 307.084 263.835 308.798C264.432 308.42 263.303 307.396 263.74 306.958C264.982 306.658 264.817 305.831 266.081 305.522C267.601 305.891 268.491 307.846 267.771 309.235Z" fill="#0DD180"/>
<path d="M172.972 111.573C169.458 115.268 163.88 113.377 164.44 108.375C167.544 103.489 175.171 106.33 172.972 111.573Z" fill="#0DD180"/>
<path d="M288.752 367.631C288.044 368.404 287.012 368.874 285.964 368.9C284.853 367.682 284.496 366.2 285.336 365.075C287.256 363.936 288.781 365.656 288.752 367.631Z" fill="#0DD180"/>
<path d="M175.755 135.686C174.562 134.054 176.139 133.443 175.575 132.029C179.922 129.467 179.853 137.295 175.755 135.686Z" fill="#0DD180"/>
<path d="M287.962 389.658C286.6 392.664 281.838 392.975 280.622 390.77C278.305 386.494 287.841 382.87 287.962 389.658Z" fill="#0DD180"/>
<path d="M273.458 365.998C272.302 366.604 271.174 367.037 270.222 367.1C268.969 366.211 268.364 365.346 267.917 363.666C269.802 359.945 275.678 362.548 273.458 365.998Z" fill="#0DD180"/>
<path d="M161.197 117.674C167.56 128.861 146.577 135.81 144.777 121.778C144.472 119.477 145.746 117.386 147.3 115.034C147.723 114.391 149.945 110.304 152.96 110.231C154.949 110.175 159.28 114.277 161.197 117.674Z" fill="#0DD180"/>
<path d="M243.415 306.502C242.324 306.202 242.236 305.367 242.425 304.327C244.524 302.708 246.024 306.004 243.415 306.502Z" fill="#0DD180"/>
<path d="M182.011 176.518C185.526 180.514 176.814 183.736 175.177 180.37C173.541 176.951 179.709 173.906 182.011 176.518Z" fill="#0DD180"/>
<path d="M241.317 313.423C236.825 318.464 232.88 315.618 228.969 314.189C226.273 313.215 222.392 313.655 221.797 310.717C223.671 309.068 233.513 307.109 236.938 307.937C239.251 308.476 241.6 310.085 241.317 313.423Z" fill="#0DD180"/>
<path d="M206.839 263.052C219.662 254.829 220.532 274.562 208.933 272.547C208.332 272.449 207.867 271.892 207.144 271.876C204.76 271.821 203.722 273.036 202.118 272.307C195.383 269.272 200.589 259.743 206.839 263.052Z" fill="#0DD180"/>
<path d="M172.639 171.474L170.466 172.463C168.93 171.942 168.02 169.943 168.636 168.443C171.079 166.297 173.293 169.533 172.639 171.474Z" fill="#0DD180"/>
<path d="M128.75 82.4227C127.894 83.3956 126.059 83.9653 124.564 84.6987C122.581 84.3016 120.719 83.531 119.693 80.5769C120.025 74.1409 131.371 75.369 128.75 82.4227Z" fill="#0DD180"/>
<path d="M274.223 428.37C271.787 424.996 274.131 422.285 277.641 421.961C281.834 424.243 278.148 430.588 274.223 428.37Z" fill="#0DD180"/>
<path d="M217.737 297.66C214.879 299.358 212.122 297.961 211.749 295.16C213.954 292.725 218.623 294.074 217.737 297.66Z" fill="#0DD180"/>
<path d="M178.908 241.047L179.468 242.277C178.6 243.282 176.634 244.204 176.119 242.316C176.405 241.603 178.183 240.794 178.908 241.047Z" fill="#0DD180"/>
<path d="M170.434 240.421C175.385 245.302 165.462 249.765 163.599 244.274C162.371 240.643 167.942 237.975 170.434 240.421Z" fill="#0DD180"/>
<path d="M120.915 139.002C117.569 142.54 112.376 140.448 112.82 135.949C115.527 130.713 122.83 133.542 120.915 139.002Z" fill="#0DD180"/>
<path d="M237.164 444.491C230.43 442.915 227.618 432.367 234.379 429.343C241.118 426.329 248.741 434.927 243.999 440.639C243.727 440.974 243.208 440.707 242.769 441.198C241.734 442.359 240.327 444.219 237.164 444.491Z" fill="#0DD180"/>
<path d="M92.9539 109.533C94.2048 111.059 92.5764 112.489 91.1725 112.2C89.9216 110.674 91.56 109.265 92.9539 109.533Z" fill="#0DD180"/>
<path d="M88.8785 146.473C94.8695 153.93 84.1563 162.014 78.4859 156.426C75.8386 153.812 75.7338 149.272 79.4323 147.032C78.4194 146.087 77.1214 145.856 76.1782 144.773C76.3281 141.841 72.8758 138.798 73.1613 135.698C75.4604 133.935 74.4465 131.532 75.6848 128.953C79.2458 127.227 81.8281 128.067 85.1759 126.862C87.4447 127.713 88.5712 128.208 90.7438 128.439C97.1612 134.562 94.2311 142.393 88.8785 146.473Z" fill="#0DD180"/>
<path d="M80.6341 109.543L81.194 110.773C80.31 111.626 78.9869 109.709 80.6341 109.543Z" fill="#0DD180"/>
<path d="M216.3 437.199C213.785 435.983 209.842 433.667 210.349 429.829C211.09 424.003 221.627 424.326 223.116 429.987C223.977 433.334 221.624 435.969 216.3 437.199Z" fill="#0DD180"/>
<path d="M88.6785 177.194C90.8145 173.384 96.4319 167.964 100.761 170.953C105.901 174.502 103.826 184.33 96.9159 184.637C94.6876 184.749 92.975 182.558 90.4807 181.97C89.645 180.308 88.9171 178.65 88.6785 177.194Z" fill="#0DD180"/>
<path d="M225.682 479.949C224.584 480.157 223.641 479.949 222.808 479.4C221.871 475.769 228.104 476.593 225.682 479.949Z" fill="#0DD180"/>
<path d="M59.5998 136.3C62.6124 132.436 69.0361 132.748 70.0258 137.893C71.2979 144.475 58.3731 144.496 59.5998 136.3Z" fill="#0DD180"/>
<path d="M69.895 158.108C68.4321 159.145 67.4319 159.335 65.7368 159.629C61.0297 155.168 72.0576 152.085 69.895 158.108Z" fill="#0DD180"/>
<path d="M210.486 488.376C207.902 484.911 207.464 479.753 212.662 478.422C215.634 478.661 219.823 481.926 218.496 485.474C217.481 488.137 212.965 489.396 210.486 488.376Z" fill="#0DD180"/>
<path d="M152.805 498.553C151.842 497.718 151.398 496.276 151.871 494.868C152.769 494.512 153.811 493.773 154.492 494.046C155.886 495.48 155.231 497.767 152.805 498.553Z" fill="#0DD180"/>
<path d="M551.713 296.128C547.648 302.805 536.892 302.873 536.224 295.698C535.981 293.183 539.065 288.836 543.186 288.048C546.48 287.424 551.588 291.253 551.713 296.128Z" fill="#0DD180"/>
<path d="M261.511 377.429C262.017 378.949 262.868 376.334 262.546 378.072C263.924 376.675 264.057 377.199 264.914 375.88C265.421 375.888 265.785 376.279 266.089 376.831C266.134 376.173 266.831 375.724 266.759 375.041C267.893 375.612 269.045 375.114 270.135 374.247C273.05 374.246 276.023 376.527 273.876 380.023C275.297 381.339 273.82 381.879 274.811 383.708C273.093 385.524 274.903 389.209 271.253 389.809C271.408 392.072 267.718 391.71 265.418 391.722C265.329 390.596 265.12 391.009 264.578 389.877C264.29 391.864 262.614 387.774 261.799 387.031C259.319 384.844 254.583 381.192 261.511 377.429Z" fill="#0DD180"/>
<path d="M192.468 482.387C192.098 482.449 191.968 481.871 191.573 482.051C191.016 482.517 192.53 483.048 193.223 482.414C193.856 483.691 197.794 487.335 194.382 488.225C194.734 488.648 195.469 488.049 195.557 489.175C191.679 493.99 187.088 491.358 182.608 494.326C181.625 493.447 181.661 493.351 180.231 493.18C180.624 492.179 178.402 490.909 179.996 491.032C177.775 487.084 185.667 485.614 185.783 482.432C186.448 482.845 187.42 482.244 187.817 481.135C189.915 481.612 190.06 480.008 192.468 482.387Z" fill="#0DD180"/>
<path d="M192.195 535.896C188.367 535.755 185.162 535.41 183.875 530.718C182.694 525.209 194.251 522.708 194.216 530.494C193.663 530.268 192.833 530.832 193.266 531.669C194.458 530.384 193.932 532.374 193.044 533.626C193 533.355 193.212 533.179 193.072 532.871C192.9 533.135 192.716 533.431 192.289 533.598C193.278 534.024 192.49 535.204 192.195 535.896Z" fill="#0DD180"/>
<path d="M564.786 192.002C557.503 201.973 545.346 195.412 544.789 185.8C544.686 184.176 545.423 180.844 546.698 179.336C550.511 174.842 559.705 174.08 563.316 178.112C567.33 182.623 565.946 188.027 564.786 192.002Z" fill="#0DD180"/>
<path d="M493.246 353.736C485.715 353.609 476.127 339.938 487.325 336.646C491.2 335.493 495.118 338.802 495.142 343.166C495.161 344.723 494.38 346.616 494.183 348.456C493.955 350.575 494.364 352.697 493.246 353.736Z" fill="#0DD180"/>
<path d="M447.663 252.752C445.931 253.488 444.471 253.542 443.745 251.539C444.03 251.409 443.816 251.055 443.772 250.783C444.481 250.01 445.513 249.541 446.561 249.514C447.408 250.269 448.226 251.833 447.663 252.752Z" fill="#0DD180"/>
<path d="M475.562 305.031C481.034 306.864 485.034 316.818 478.469 321.264C474.673 323.814 470.835 326.329 467.254 328.595C459.321 324.674 455.023 311.036 446.039 309.873C442.157 312.992 438.214 319.003 432.682 318.206C430.889 317.934 426.794 314.467 425.872 313.083C424.571 311.156 423.994 308.316 423.975 306.468C423.991 303.066 426.723 300.974 424.726 298.276C423.39 297.32 421.558 298.71 420.456 298.735C414.41 305.252 411.56 314.133 400.9 318.082C399.844 317.449 398.807 316.86 398.121 315.237C395.737 315.473 394.338 312.98 392.468 311.842C391.118 311.555 389.324 312.504 388.057 311.993C386.545 310.241 386.907 309.174 385.668 306.742C381.454 309.19 378.826 314.364 372.776 314.465C371.696 314.479 365.137 312.822 364.194 312.032C364.017 311.874 363.603 310.789 363.635 310.801C362.298 310.136 360.556 311.433 360.164 309.755C360.565 306.152 362.17 302.981 362.082 299.176C367.846 296.235 377.255 287.789 381.661 295.491C383.42 294.929 383.83 296.413 385.597 295.927C387.178 295.5 390.363 292.83 392.011 291.152C393.111 290.015 393.276 288.747 394.408 288.205C395.859 287.492 396.924 288.492 398.511 288.194C400.272 287.87 401.87 286.374 402.837 286.226C404.705 285.906 406.186 287.062 407.677 287.02C410.001 286.944 413.597 285.758 416.133 284.286C417.479 283.514 420.8 280.969 421.811 278.705C422.798 276.506 420.852 272.697 424.072 270.569C427.279 268.473 434.415 267.904 437.916 265.754C439.02 265.093 439.268 263.601 440.302 262.786C442.45 262.789 444.386 263.314 447.204 261.528C451.268 262.304 453.538 267.874 456.738 271.006C460.732 271.045 464.808 266.724 468.906 266.583C470.45 264.501 471.62 262.298 475.347 261.052C479.487 261.821 479.22 267.989 481.216 270.687C482.637 272.586 484.202 271.424 485.862 272.684C486.63 275.596 484.906 276.407 485.937 278.616C487.363 281.574 495.811 283.83 490.604 288.055C488.289 289.957 486.379 287.856 483.405 289.475C480.596 290.992 481.573 294.711 480.389 297.583C479.029 300.828 475.627 301.739 475.562 305.031Z" fill="#0DD180"/>
<path d="M350.806 116.148L352.343 115.449C352.139 115.117 351.652 115.445 351.281 115.561C353.543 109.175 360.728 113.781 359.488 119.676C356.822 124.708 350.494 121.17 350.806 116.148Z" fill="#0DD180"/>
<path d="M201.181 30.0497C205.465 31.3092 207.735 38.0463 205.495 41.1609C200.107 48.5986 189.794 40.3232 194.207 33.5947C195.497 31.6549 197.775 30.7775 201.181 30.0497Z" fill="#0DD180"/>
<path d="M188.25 218.126C188.869 218.03 188.268 218.515 188.222 218.881C190.556 218.826 192.58 219.603 195.047 219.143C194.793 218.118 196.127 217.671 195.744 216.598C194.468 216.357 193.752 214.667 192.301 214.797C191.674 215.109 188.785 217.67 188.25 218.126ZM208.658 204.728C207.832 206.934 210.963 207.233 211.942 210.315C211.583 210.69 211.415 211.138 211.44 211.657C209.262 212.754 207.413 212.535 207.001 212.563C210.195 216.785 210.584 222.707 208.919 226.621C210.88 229.706 210.095 235.553 212.899 238.627C222.125 234.614 230.333 237.509 234.88 244.297C235.156 244.728 235.414 245.354 235.58 245.835C238.703 254.969 222.7 262.437 215.529 258.327C213.488 257.161 213.158 253.466 210.311 250.996C204.781 256.085 199.044 260.658 191.969 257.46C190.695 256.873 183.168 252.156 182.642 250.884C181.948 249.184 184.104 245.71 183.963 243.944C183.712 240.479 181.769 238.366 182.618 235.221C183.715 233.847 185.09 232.558 186.849 231.413C186.945 228.771 186.087 227.119 185.598 224.53C186.454 223.266 187.834 223.619 187.945 222.348C185.464 221.382 185.438 223.887 183.199 223.394C181.729 221.385 183.783 220.715 183.516 219.139C180.931 216.895 177.77 216.238 174.505 215.762C172.589 216.793 171.885 219.499 169.062 219.352C166.871 216.053 171.711 215.389 171.278 212.748C168.618 209.583 165.422 207.801 161.756 207.375C161.05 205.415 162.706 205.908 162.163 204.193C165.241 202.103 167.45 199.268 168.09 195.9C168.568 193.455 167.678 191.791 170.586 189.911C177.408 185.507 187.345 187.191 190.331 194.743C191.991 195.128 192.885 197.559 194.307 198.529C194.638 198.325 194.886 198.345 195.062 198.557C199.532 197.08 200.078 192.747 203.953 191.885C203.74 189.437 207.26 186.456 210.227 186.802C214.023 189.319 211.966 194.816 209.001 195.582C209.968 196.892 209.296 197.569 209.209 198.484C212.228 198.595 216.214 197.338 219.382 198.708C220.537 202.584 217.792 206.804 213.008 206.833C211.494 206.302 210.544 204.215 208.658 204.728Z" fill="#0DD180"/>
<path d="M79.3895 114.962C81.1102 114.259 82.7711 113.715 83.4752 115.728C86.7953 114.987 89.0353 117.521 89.2407 120.185C89.5911 124.8 80.7462 125.748 79.1248 122.535C77.8133 120.002 80.3796 117.72 79.3895 114.962Z" fill="#0DD180"/>
<path d="M210.879 465.417C211.041 469.268 213.902 469.557 214.398 473.15C212.727 477.225 209.767 478.175 205.39 477.992C205.072 477.527 205.435 477.335 205.277 476.929C203.221 477.653 202.032 479.758 200.142 480.38C196.447 481.637 193.927 478.779 191.32 476.545C188.173 471.028 193.878 468.247 197.767 466.132C196.698 464.948 196.561 463.949 196.077 462.419C199.35 454.353 214.028 454.516 212.406 464.695C211.571 465.366 211.923 465.207 210.879 465.417Z" fill="#0DD180"/>
<path d="M213.997 513.272C211.461 513.524 206.781 511.57 204.9 508.076C204.394 507.14 205.401 507.663 205.375 507.489C205.135 506.087 203.778 502.116 204.26 500.146C204.788 498.103 207.247 496.692 209.106 496.059C211.046 489.898 220.364 490.803 222.917 496.881C224.269 500.084 222.048 504.755 220.994 508.205C220.161 510.918 223.134 516.46 219.125 518.019C216.694 518.966 213.124 516.188 213.997 513.272Z" fill="#0DD180"/>
</g>
<g clip-path="url(#clip1_1315_48483)">
<path d="M1434.35 109.424C1440 113.51 1429.68 123.509 1426.16 117.633C1423.98 114.064 1430.68 106.772 1434.35 109.424Z" fill="#0DD180"/>
<path d="M1444.16 345.019C1442.41 342.741 1439.42 346.832 1436.82 346.131C1436.71 345.76 1436.51 345.612 1436.23 345.656C1435.38 341.617 1436.49 338.245 1434.51 334.479C1433.83 333.2 1432.07 334 1432.32 332.108C1432.01 332.248 1432.25 332.591 1432.29 332.863C1427.3 327.711 1431.18 319.764 1438.36 316.658C1440.07 317.099 1441.33 321.563 1438.94 321.248C1441.37 322.472 1443.31 325.093 1446.25 325.028C1446.77 323.546 1445.02 324.259 1444.49 323.602C1442.81 318.529 1444.87 314.835 1446.62 311.043C1446.26 310.62 1445.53 311.219 1445.44 310.093C1446.65 305.245 1444.83 299.259 1445.26 294.133C1450.4 290.067 1459.47 287.452 1463.37 293.742C1465.28 296.847 1466.49 301.363 1465.08 304.897C1461.93 307.309 1461.59 311.282 1456.91 312.352C1458.98 315.971 1456.73 321.904 1453.4 325.14C1454.21 327.158 1453.81 328.72 1453.51 330.318C1454.72 332.101 1453.93 331.954 1454.77 333.086C1453.56 335.493 1450.51 334.387 1449.31 332.572C1447.99 333.279 1447.81 334.396 1445.88 334.876C1445.03 337.674 1443.36 341.328 1444.16 345.019Z" fill="#0DD180"/>
<path d="M1407.68 195.129C1405.03 196.414 1403.09 192.282 1405.4 190.941C1407.15 190.941 1409.28 193.525 1407.68 195.129Z" fill="#0DD180"/>
<path d="M1440.03 287.547C1435.75 296.894 1425.55 282.866 1435.09 281.576C1437.29 281.29 1440.28 284.251 1440.03 287.547Z" fill="#0DD180"/>
<path d="M1422.23 287.798C1425.76 287.042 1429.23 289.73 1429.46 293.843C1426.07 301.43 1417.12 292.351 1422.23 287.798Z" fill="#0DD180"/>
<path d="M1428.76 338.21C1427.28 339.386 1426.62 338.498 1425.56 338.556C1424.62 336.329 1424.14 335.674 1424.51 333.808C1427.98 331.538 1429.66 335.92 1428.76 338.21Z" fill="#0DD180"/>
<path d="M1425.8 353.006C1424.73 352.588 1423.79 350.761 1423.8 349.433C1427.85 343.188 1432.94 352.621 1425.8 353.006Z" fill="#0DD180"/>
<path d="M1352.2 211.782C1349.35 208.783 1350.89 204.659 1353.72 203.64C1360.21 201.244 1360.27 214.369 1352.2 211.782Z" fill="#0DD180"/>
<path d="M1423.73 376.357C1423.07 373.686 1425.08 369.375 1428.23 369.826C1427.71 368.23 1429.41 366.953 1430.9 367.494C1430.93 370.692 1433.2 378.596 1428.04 379.248C1425.51 379.576 1426.29 376.332 1423.73 376.357Z" fill="#0DD180"/>
<path d="M1418.03 353.173C1412.16 357.169 1415.76 345.453 1418.03 353.173Z" fill="#0DD180"/>
<path d="M1435.5 432.577C1426.58 434.646 1429.83 418.186 1437.91 424.77C1438.74 422.619 1440.62 422.558 1441.29 423.977C1442.32 426.186 1436.66 430.935 1435.5 432.577Z" fill="#0DD180"/>
<path d="M1416.69 394.491C1416.25 393.816 1415.67 393.546 1415.39 392.456C1415.51 392.082 1416.14 391.9 1416.03 391.421C1418.13 390.332 1419.61 394.037 1416.69 394.491Z" fill="#0DD180"/>
<path d="M1432.25 438.538C1430.92 436.2 1431.2 434.298 1432.59 433.529C1436.97 431.087 1437.65 440.325 1432.25 438.538Z" fill="#0DD180"/>
<path d="M1359.51 274.546C1368.31 275.129 1365.11 289.55 1357.09 286.467C1352.33 284.629 1351.71 275.706 1359.51 274.546Z" fill="#0DD180"/>
<path d="M1339.33 235.167C1338.58 234.902 1338.26 233.454 1337.76 232.517C1338.12 231.634 1339.86 230.315 1340.85 231.108C1342.04 232.157 1341.39 235.319 1339.33 235.167Z" fill="#0DD180"/>
<path d="M1394.71 401.123C1393.39 397.402 1392.97 395.097 1389.44 395.302C1390.5 400.309 1382.09 403.499 1380.34 399.071C1378.65 401.59 1375.35 402.667 1373.01 404.288C1371.98 404.995 1371.42 406.152 1370.34 406.619C1365.94 408.488 1362.88 404.098 1359.23 402.711C1356.83 403.616 1354.99 403.019 1352.97 402.934C1351.85 401.586 1350.53 400.781 1349.63 398.858C1347.7 398.063 1345.08 399.122 1343.45 397.56C1345.03 391.322 1348.77 385.508 1344 378.269C1345.41 376.193 1349.29 375.407 1350.89 376.989C1355.92 371.73 1362.09 372.077 1367.28 373.64C1370.08 374.488 1369.72 374.626 1372.04 376.699C1374.29 378.726 1377.33 380.177 1378.96 382.883C1380.9 386.087 1382.78 390.217 1381.29 393.759C1382.55 394.67 1384.47 393.185 1385.89 392.406C1386.61 387.702 1381.47 380.816 1383.58 376.67C1392.89 370.792 1405.39 370.961 1406.35 381.613C1406.48 383.065 1405.65 385.67 1404.91 387.49C1404.6 388.267 1403.42 389.228 1403.14 390.179C1402.53 392.155 1403.42 395.331 1402.57 397.147C1401.48 399.634 1397.96 401.977 1394.71 401.123Z" fill="#0DD180"/>
<path d="M1333.75 242.587C1342.62 235.45 1343.09 250.243 1334.94 247.642C1333.55 246.155 1333.13 244.011 1333.75 242.587Z" fill="#0DD180"/>
<path d="M1339.25 250.534C1343.58 251.558 1346.98 256.695 1345.1 260.946C1343.55 264.41 1336.23 267.899 1333.21 265.984C1330.43 264.229 1329.38 258.261 1330.84 255.873C1332.5 253.126 1336.31 251.528 1339.25 250.534Z" fill="#0DD180"/>
<path d="M1386.7 370.424C1385.22 368.684 1384.18 365.762 1384.05 363.781C1384.82 362.318 1387.51 360.668 1389.66 360.488C1395.41 362.882 1393.2 371.895 1386.7 370.424Z" fill="#0DD180"/>
<path d="M1372.83 334.172C1369.2 341.156 1359.31 333.641 1364.79 329.609C1367.77 327.429 1373.13 329.074 1372.83 334.172Z" fill="#0DD180"/>
<path d="M1324.29 248.007C1323.56 250.701 1322.28 252.318 1320.31 253.185C1315.33 255.345 1310.36 248.855 1313.47 244.735C1316.25 241.003 1322.95 240.818 1324.29 248.007Z" fill="#0DD180"/>
<path d="M1353.95 359.949C1354.57 354.842 1362.35 352.018 1365.67 355.359C1372.75 362.478 1356.91 372.577 1353.95 359.949Z" fill="#0DD180"/>
<path d="M1381.86 436.833C1379.38 434.01 1374.25 430.667 1374.97 425.779C1377.89 424.212 1381.07 422.526 1384.18 423.072C1392.66 424.573 1391.24 438.691 1381.86 436.833Z" fill="#0DD180"/>
<path d="M1376.08 420.051C1372.7 418.512 1373.17 413.151 1374.36 413.01C1378.36 411.506 1382.47 418.786 1376.08 420.051Z" fill="#0DD180"/>
<path d="M1350.82 362.859C1350.22 363.766 1348.05 365.393 1346.63 365.135C1345.95 366.665 1343.63 369.474 1341.19 368.726C1338.96 365.576 1341.54 365.066 1343.99 362.597C1346.81 359.752 1349.67 356.887 1350.82 362.859Z" fill="#0DD180"/>
<path d="M1341.82 354.621C1340.99 355.53 1339.04 356.419 1337.8 356.449C1339.51 364.267 1327.45 369.115 1323.93 362.019C1321.98 358.08 1325.14 355.345 1324.46 351.702C1325.77 351.21 1326.16 350.187 1327.11 350.125C1327.72 346.53 1327.39 342.543 1328.86 339.249C1334.13 338.471 1339.77 337.868 1341.31 343.661C1341.8 345.428 1340.55 347.801 1340.8 349.863C1341.04 351.902 1342.82 352.843 1341.82 354.621Z" fill="#0DD180"/>
<path d="M1324.37 349.885C1322.74 355.085 1314.32 358.36 1311.34 353.218C1305.85 343.651 1324.12 336.342 1324.37 349.885Z" fill="#0DD180"/>
<path d="M1356.56 430.447C1348.76 436.197 1344.08 422.729 1352.78 421.343C1357.14 420.607 1358.49 426.651 1356.56 430.447Z" fill="#0DD180"/>
<path d="M1377.21 468.438C1377.17 469.117 1377.13 469.774 1376.07 470.07C1375.65 469.839 1375.27 469.425 1375.05 468.65C1375.62 468.444 1375.54 467.977 1376.17 467.773C1376.55 467.917 1376.74 468.572 1377.21 468.438Z" fill="#0DD180"/>
<path d="M1348.62 418.727C1348.1 420.08 1345.67 420.865 1344.13 421.143C1342.38 420.43 1340.99 417.376 1341.6 415.585C1344.57 412.14 1349.25 414.732 1348.62 418.727Z" fill="#0DD180"/>
<path d="M1350.94 438.6C1349.23 439.509 1348.04 439.044 1347.32 437.246C1348.48 435.366 1351.26 436.408 1350.94 438.6Z" fill="#0DD180"/>
<path d="M1313.3 357.524C1315.67 361.272 1314.07 368.709 1308.28 370.257C1302.33 371.852 1296.5 361.484 1301.03 356.769C1304.86 352.773 1310.46 353.034 1313.3 357.524Z" fill="#0DD180"/>
<path d="M1306.16 345.099C1306.22 345.63 1306.05 346.077 1306.11 346.609C1304.99 347.248 1304.17 347.196 1303.68 346.228C1303.99 346.088 1303.75 345.744 1303.71 345.473C1304.69 344.893 1305.6 344.559 1306.16 345.099Z" fill="#0DD180"/>
<path d="M1275.83 289.102C1278.2 292.743 1277.18 299.358 1271.31 300.492C1264.4 301.836 1260.91 288.941 1268.05 285.931C1270.38 284.926 1273.56 285.626 1275.83 289.102Z" fill="#0DD180"/>
<path d="M1236.8 217.251C1233.16 224.926 1222.82 215.019 1230.46 211.542C1233.71 210.063 1237.14 212.241 1236.8 217.251Z" fill="#0DD180"/>
<path d="M1278.55 327.059C1274.92 325.478 1274.12 320.534 1277.79 318.811C1283.24 316.28 1287.84 325.165 1278.55 327.059Z" fill="#0DD180"/>
<path d="M1314.77 413.235C1313.47 413.694 1311.82 415.189 1311.42 413.273C1311.74 417.054 1308.33 420.115 1304.46 420.923C1299.49 418.731 1299.33 409.998 1306.66 410.214C1307.97 411.288 1309.76 411.084 1310.83 412.798C1311.43 412.42 1310.3 411.396 1310.74 410.958C1311.98 410.658 1311.82 409.831 1313.08 409.522C1314.6 409.891 1315.49 411.846 1314.77 413.235Z" fill="#0DD180"/>
<path d="M1219.97 215.573C1216.46 219.268 1210.88 217.377 1211.44 212.375C1214.54 207.489 1222.17 210.33 1219.97 215.573Z" fill="#0DD180"/>
<path d="M1335.75 471.631C1335.04 472.404 1334.01 472.874 1332.96 472.9C1331.85 471.682 1331.5 470.2 1332.34 469.075C1334.26 467.936 1335.78 469.656 1335.75 471.631Z" fill="#0DD180"/>
<path d="M1222.76 239.686C1221.56 238.054 1223.14 237.443 1222.57 236.029C1226.92 233.467 1226.85 241.295 1222.76 239.686Z" fill="#0DD180"/>
<path d="M1334.96 493.658C1333.6 496.664 1328.84 496.975 1327.62 494.77C1325.31 490.494 1334.84 486.87 1334.96 493.658Z" fill="#0DD180"/>
<path d="M1320.46 469.998C1319.3 470.604 1318.17 471.037 1317.22 471.1C1315.97 470.211 1315.36 469.346 1314.92 467.666C1316.8 463.945 1322.68 466.548 1320.46 469.998Z" fill="#0DD180"/>
<path d="M1208.2 221.674C1214.56 232.861 1193.58 239.81 1191.78 225.778C1191.47 223.477 1192.75 221.386 1194.3 219.034C1194.72 218.391 1196.95 214.304 1199.96 214.231C1201.95 214.175 1206.28 218.277 1208.2 221.674Z" fill="#0DD180"/>
<path d="M1290.41 410.502C1289.32 410.202 1289.24 409.367 1289.42 408.327C1291.52 406.708 1293.02 410.004 1290.41 410.502Z" fill="#0DD180"/>
<path d="M1229.01 280.518C1232.53 284.514 1223.81 287.736 1222.18 284.37C1220.54 280.951 1226.71 277.906 1229.01 280.518Z" fill="#0DD180"/>
<path d="M1288.32 417.423C1283.83 422.464 1279.88 419.618 1275.97 418.189C1273.27 417.215 1269.39 417.655 1268.8 414.717C1270.67 413.068 1280.51 411.109 1283.94 411.937C1286.25 412.476 1288.6 414.085 1288.32 417.423Z" fill="#0DD180"/>
<path d="M1253.84 367.052C1266.66 358.829 1267.53 378.562 1255.93 376.547C1255.33 376.449 1254.87 375.892 1254.14 375.876C1251.76 375.821 1250.72 377.036 1249.12 376.307C1242.38 373.272 1247.59 363.743 1253.84 367.052Z" fill="#0DD180"/>
<path d="M1219.64 275.474L1217.47 276.463C1215.93 275.942 1215.02 273.943 1215.64 272.443C1218.08 270.297 1220.29 273.533 1219.64 275.474Z" fill="#0DD180"/>
<path d="M1175.75 186.423C1174.89 187.396 1173.06 187.965 1171.56 188.699C1169.58 188.302 1167.72 187.531 1166.69 184.577C1167.02 178.141 1178.37 179.369 1175.75 186.423Z" fill="#0DD180"/>
<path d="M1321.22 532.37C1318.79 528.996 1321.13 526.285 1324.64 525.961C1328.83 528.243 1325.15 534.588 1321.22 532.37Z" fill="#0DD180"/>
<path d="M1264.74 401.66C1261.88 403.358 1259.12 401.961 1258.75 399.16C1260.95 396.725 1265.62 398.074 1264.74 401.66Z" fill="#0DD180"/>
<path d="M1225.91 345.047L1226.47 346.277C1225.6 347.282 1223.63 348.204 1223.12 346.316C1223.4 345.603 1225.18 344.794 1225.91 345.047Z" fill="#0DD180"/>
<path d="M1217.43 344.421C1222.38 349.302 1212.46 353.765 1210.6 348.274C1209.37 344.643 1214.94 341.975 1217.43 344.421Z" fill="#0DD180"/>
<path d="M1167.92 243.002C1164.57 246.54 1159.38 244.448 1159.82 239.949C1162.53 234.713 1169.83 237.542 1167.92 243.002Z" fill="#0DD180"/>
<path d="M1284.16 548.491C1277.43 546.915 1274.62 536.367 1281.38 533.343C1288.12 530.329 1295.74 538.927 1291 544.639C1290.73 544.974 1290.21 544.707 1289.77 545.198C1288.73 546.359 1287.33 548.219 1284.16 548.491Z" fill="#0DD180"/>
<path d="M1139.95 213.533C1141.2 215.059 1139.58 216.489 1138.17 216.2C1136.92 214.674 1138.56 213.265 1139.95 213.533Z" fill="#0DD180"/>
<path d="M1135.88 250.473C1141.87 257.93 1131.16 266.014 1125.49 260.426C1122.84 257.812 1122.73 253.272 1126.43 251.032C1125.42 250.087 1124.12 249.856 1123.18 248.773C1123.33 245.841 1119.88 242.798 1120.16 239.698C1122.46 237.935 1121.45 235.532 1122.68 232.953C1126.25 231.227 1128.83 232.067 1132.18 230.862C1134.44 231.713 1135.57 232.208 1137.74 232.439C1144.16 238.562 1141.23 246.393 1135.88 250.473Z" fill="#0DD180"/>
<path d="M1127.63 213.543L1128.19 214.773C1127.31 215.626 1125.99 213.709 1127.63 213.543Z" fill="#0DD180"/>
<path d="M1263.3 541.199C1260.79 539.983 1256.84 537.667 1257.35 533.829C1258.09 528.003 1268.63 528.326 1270.12 533.987C1270.98 537.334 1268.62 539.969 1263.3 541.199Z" fill="#0DD180"/>
<path d="M1135.68 281.194C1137.81 277.384 1143.43 271.964 1147.76 274.953C1152.9 278.502 1150.83 288.33 1143.92 288.637C1141.69 288.749 1139.98 286.558 1137.48 285.97C1136.65 284.308 1135.92 282.65 1135.68 281.194Z" fill="#0DD180"/>
<path d="M1272.68 583.949C1271.58 584.157 1270.64 583.949 1269.81 583.4C1268.87 579.769 1275.1 580.593 1272.68 583.949Z" fill="#0DD180"/>
<path d="M1106.6 240.3C1109.61 236.436 1116.04 236.748 1117.03 241.893C1118.3 248.475 1105.37 248.496 1106.6 240.3Z" fill="#0DD180"/>
<path d="M1116.9 262.108C1115.43 263.145 1114.43 263.335 1112.74 263.629C1108.03 259.168 1119.06 256.085 1116.9 262.108Z" fill="#0DD180"/>
<path d="M1257.49 592.376C1254.9 588.911 1254.46 583.753 1259.66 582.422C1262.63 582.661 1266.82 585.926 1265.5 589.474C1264.48 592.137 1259.97 593.396 1257.49 592.376Z" fill="#0DD180"/>
<path d="M1199.81 602.553C1198.84 601.718 1198.4 600.276 1198.87 598.868C1199.77 598.512 1200.81 597.773 1201.49 598.046C1202.89 599.48 1202.23 601.767 1199.81 602.553Z" fill="#0DD180"/>
<path d="M1308.51 481.429C1309.02 482.949 1309.87 480.334 1309.55 482.072C1310.92 480.675 1311.06 481.199 1311.91 479.88C1312.42 479.888 1312.79 480.279 1313.09 480.831C1313.13 480.173 1313.83 479.724 1313.76 479.041C1314.89 479.612 1316.05 479.114 1317.13 478.247C1320.05 478.246 1323.02 480.527 1320.88 484.023C1322.3 485.339 1320.82 485.879 1321.81 487.708C1320.09 489.524 1321.9 493.209 1318.25 493.809C1318.41 496.072 1314.72 495.71 1312.42 495.722C1312.33 494.596 1312.12 495.009 1311.58 493.877C1311.29 495.864 1309.61 491.774 1308.8 491.031C1306.32 488.844 1301.58 485.192 1308.51 481.429Z" fill="#0DD180"/>
<path d="M1239.47 586.387C1239.1 586.449 1238.97 585.871 1238.57 586.051C1238.02 586.517 1239.53 587.048 1240.22 586.414C1240.86 587.691 1244.79 591.335 1241.38 592.225C1241.73 592.648 1242.47 592.049 1242.56 593.175C1238.68 597.99 1234.09 595.358 1229.61 598.326C1228.62 597.447 1228.66 597.351 1227.23 597.18C1227.62 596.179 1225.4 594.909 1227 595.032C1224.77 591.084 1232.67 589.614 1232.78 586.432C1233.45 586.845 1234.42 586.244 1234.82 585.135C1236.92 585.612 1237.06 584.008 1239.47 586.387Z" fill="#0DD180"/>
<path d="M1239.19 639.896C1235.37 639.755 1232.16 639.41 1230.88 634.718C1229.69 629.209 1241.25 626.708 1241.22 634.494C1240.66 634.268 1239.83 634.832 1240.27 635.669C1241.46 634.384 1240.93 636.374 1240.04 637.626C1240 637.355 1240.21 637.179 1240.07 636.871C1239.9 637.135 1239.72 637.431 1239.29 637.598C1240.28 638.024 1239.49 639.204 1239.19 639.896Z" fill="#0DD180"/>
<path d="M1522.56 409.031C1528.03 410.864 1532.03 420.818 1525.47 425.264C1521.67 427.814 1517.84 430.329 1514.25 432.595C1506.32 428.674 1502.02 415.036 1493.04 413.873C1489.16 416.992 1485.21 423.003 1479.68 422.206C1477.89 421.934 1473.79 418.467 1472.87 417.083C1471.57 415.156 1470.99 412.316 1470.97 410.468C1470.99 407.066 1473.72 404.974 1471.73 402.276C1470.39 401.32 1468.56 402.71 1467.46 402.735C1461.41 409.252 1458.56 418.133 1447.9 422.082C1446.84 421.449 1445.81 420.86 1445.12 419.237C1442.74 419.473 1441.34 416.98 1439.47 415.842C1438.12 415.555 1436.32 416.504 1435.06 415.993C1433.54 414.241 1433.91 413.174 1432.67 410.742C1428.45 413.19 1425.83 418.364 1419.78 418.465C1418.7 418.479 1412.14 416.822 1411.19 416.032C1411.02 415.874 1410.6 414.789 1410.63 414.801C1409.3 414.136 1407.56 415.433 1407.16 413.755C1407.56 410.152 1409.17 406.981 1409.08 403.176C1414.85 400.235 1424.26 391.789 1428.66 399.491C1430.42 398.929 1430.83 400.413 1432.6 399.927C1434.18 399.5 1437.36 396.83 1439.01 395.152C1440.11 394.015 1440.28 392.747 1441.41 392.205C1442.86 391.492 1443.92 392.492 1445.51 392.194C1447.27 391.87 1448.87 390.374 1449.84 390.226C1451.71 389.906 1453.19 391.062 1454.68 391.02C1457 390.944 1460.6 389.758 1463.13 388.286C1464.48 387.514 1467.8 384.969 1468.81 382.705C1469.8 380.506 1467.85 376.697 1471.07 374.569C1474.28 372.473 1481.41 371.904 1484.92 369.754C1486.02 369.093 1486.27 367.601 1487.3 366.786C1489.45 366.789 1491.39 367.314 1494.2 365.528C1498.27 366.304 1500.54 371.874 1503.74 375.006C1507.73 375.045 1511.81 370.724 1515.91 370.583C1517.45 368.501 1518.62 366.298 1522.35 365.052C1526.49 365.821 1526.22 371.989 1528.22 374.687C1529.64 376.586 1531.2 375.424 1532.86 376.684C1533.63 379.596 1531.91 380.407 1532.94 382.616C1534.36 385.574 1542.81 387.83 1537.6 392.055C1535.29 393.957 1533.38 391.856 1530.4 393.475C1527.6 394.992 1528.57 398.711 1527.39 401.583C1526.03 404.828 1522.63 405.739 1522.56 409.031Z" fill="#0DD180"/>
<path d="M1397.81 220.148L1399.34 219.449C1399.14 219.117 1398.65 219.445 1398.28 219.561C1400.54 213.175 1407.73 217.781 1406.49 223.676C1403.82 228.708 1397.49 225.17 1397.81 220.148Z" fill="#0DD180"/>
<path d="M1248.18 134.05C1252.46 135.309 1254.74 142.046 1252.5 145.161C1247.11 152.599 1236.79 144.323 1241.21 137.595C1242.5 135.655 1244.78 134.778 1248.18 134.05Z" fill="#0DD180"/>
<path d="M1235.25 322.126C1235.87 322.03 1235.27 322.515 1235.22 322.881C1237.56 322.826 1239.58 323.603 1242.05 323.143C1241.79 322.118 1243.13 321.671 1242.74 320.598C1241.47 320.357 1240.75 318.667 1239.3 318.797C1238.67 319.109 1235.78 321.67 1235.25 322.126ZM1255.66 308.728C1254.83 310.934 1257.96 311.233 1258.94 314.315C1258.58 314.69 1258.42 315.138 1258.44 315.657C1256.26 316.754 1254.41 316.535 1254 316.563C1257.19 320.785 1257.58 326.707 1255.92 330.621C1257.88 333.706 1257.1 339.553 1259.9 342.627C1269.12 338.614 1277.33 341.509 1281.88 348.297C1282.16 348.728 1282.41 349.354 1282.58 349.835C1285.7 358.969 1269.7 366.437 1262.53 362.327C1260.49 361.161 1260.16 357.466 1257.31 354.996C1251.78 360.085 1246.04 364.658 1238.97 361.46C1237.69 360.873 1230.17 356.156 1229.64 354.884C1228.95 353.184 1231.1 349.71 1230.96 347.944C1230.71 344.479 1228.77 342.366 1229.62 339.221C1230.72 337.847 1232.09 336.558 1233.85 335.413C1233.94 332.771 1233.09 331.119 1232.6 328.53C1233.45 327.266 1234.83 327.619 1234.94 326.348C1232.46 325.382 1232.44 327.887 1230.2 327.394C1228.73 325.385 1230.78 324.715 1230.52 323.139C1227.93 320.895 1224.77 320.238 1221.5 319.762C1219.59 320.793 1218.89 323.499 1216.06 323.352C1213.87 320.053 1218.71 319.389 1218.28 316.748C1215.62 313.583 1212.42 311.801 1208.76 311.375C1208.05 309.415 1209.71 309.908 1209.16 308.193C1212.24 306.103 1214.45 303.268 1215.09 299.9C1215.57 297.455 1214.68 295.791 1217.59 293.911C1224.41 289.507 1234.35 291.191 1237.33 298.743C1238.99 299.128 1239.88 301.559 1241.31 302.529C1241.64 302.325 1241.89 302.345 1242.06 302.557C1246.53 301.08 1247.08 296.747 1250.95 295.885C1250.74 293.437 1254.26 290.456 1257.23 290.802C1261.02 293.319 1258.97 298.816 1256 299.582C1256.97 300.892 1256.3 301.569 1256.21 302.484C1259.23 302.595 1263.21 301.338 1266.38 302.708C1267.54 306.584 1264.79 310.804 1260.01 310.833C1258.49 310.302 1257.54 308.215 1255.66 308.728Z" fill="#0DD180"/>
<path d="M1126.39 218.962C1128.11 218.259 1129.77 217.715 1130.48 219.728C1133.8 218.987 1136.04 221.521 1136.24 224.185C1136.59 228.8 1127.75 229.748 1126.13 226.535C1124.81 224.002 1127.38 221.72 1126.39 218.962Z" fill="#0DD180"/>
<path d="M1257.88 569.417C1258.04 573.268 1260.9 573.557 1261.4 577.15C1259.73 581.225 1256.77 582.175 1252.39 581.992C1252.07 581.527 1252.44 581.335 1252.28 580.929C1250.22 581.653 1249.03 583.758 1247.14 584.38C1243.45 585.637 1240.93 582.779 1238.32 580.545C1235.17 575.028 1240.88 572.247 1244.77 570.132C1243.7 568.948 1243.56 567.949 1243.08 566.419C1246.35 558.353 1261.03 558.516 1259.41 568.695C1258.57 569.366 1258.92 569.207 1257.88 569.417Z" fill="#0DD180"/>
<path d="M1261 617.272C1258.46 617.524 1253.78 615.57 1251.9 612.076C1251.39 611.14 1252.4 611.663 1252.38 611.489C1252.13 610.087 1250.78 606.116 1251.26 604.146C1251.79 602.103 1254.25 600.692 1256.11 600.059C1258.05 593.898 1267.36 594.803 1269.92 600.881C1271.27 604.084 1269.05 608.755 1267.99 612.205C1267.16 614.918 1270.13 620.46 1266.13 622.019C1263.69 622.966 1260.12 620.188 1261 617.272Z" fill="#0DD180"/>
</g>
</g>
<defs>
<clipPath id="clip0_1315_48483">
<rect width="649.051" height="759.019" fill="white" transform="translate(674.852 -186.136) rotate(65.5316)"/>
</clipPath>
<clipPath id="clip1_1315_48483">
<rect width="649.051" height="759.019" fill="white" transform="translate(1721.85 -82.1357) rotate(65.5316)"/>
</clipPath>
</defs>
</svg>
