<svg width="1440" height="173" viewBox="0 0 1440 173" fill="none" xmlns="http://www.w3.org/2000/svg">
<g clip-path="url(#clip0_714_22260)">
<rect width="1440" height="173" fill="#00A6E3"/>
<path d="M1845.04 -474C1852.36 -64.0956 1539.31 129.879 1222.9 135.526C906.49 141.174 749.539 509.663 752.505 675.853L196.168 685.782C193.201 519.592 350.152 151.103 666.561 145.456C982.971 139.808 1296.02 -54.1662 1288.7 -464.07L1845.04 -474Z" fill="#0DD180"/>
<path d="M363.041 -468C370.357 -58.0956 57.3086 135.879 -259.101 141.526C-575.51 147.174 -732.461 515.663 -729.495 681.853L-1285.83 691.782C-1288.8 525.592 -1131.85 157.103 -815.439 151.456C-499.029 145.808 -185.981 -48.1662 -193.297 -458.07L363.041 -468Z" fill="#0DD180"/>
</g>
<defs>
<clipPath id="clip0_714_22260">
<rect width="1440" height="173" fill="white"/>
</clipPath>
</defs>
</svg>
