<svg width="1440" height="173" viewBox="0 0 1440 173" fill="none" xmlns="http://www.w3.org/2000/svg">
<g clip-path="url(#clip0_1278_44117)">
<rect width="1440" height="173" fill="#0DD180"/>
<path d="M1771.04 -493.001C1778.36 -83.0966 1465.31 110.878 1148.9 116.525C832.49 122.173 675.539 490.662 678.505 656.852L122.168 666.781C119.201 500.591 276.152 132.102 592.561 126.455C908.971 120.808 1222.02 -73.1672 1214.7 -483.071L1771.04 -493.001Z" fill="#FFDE14"/>
<path d="M363.041 -468.001C370.357 -58.0966 57.3086 135.878 -259.101 141.525C-575.51 147.173 -732.461 515.662 -729.495 681.852L-1285.83 691.781C-1288.8 525.591 -1131.85 157.102 -815.439 151.455C-499.029 145.808 -185.981 -48.1672 -193.297 -458.071L363.041 -468.001Z" fill="#FFDE14"/>
</g>
<defs>
<clipPath id="clip0_1278_44117">
<rect width="1440" height="173" fill="white"/>
</clipPath>
</defs>
</svg>
