<svg width="1069" height="1280" viewBox="0 0 1069 1280" fill="none" xmlns="http://www.w3.org/2000/svg">
<g clip-path="url(#clip0_1214_44618)">
<path d="M974.124 424.509C972.361 423.413 971.166 421.447 971.962 420.192C974.784 415.655 979.821 424.081 974.124 424.509Z" fill="#00A6E3"/>
<path d="M933.019 435.649C930.874 439.195 926.235 434.188 928.986 432.009C930.706 430.663 934.477 433.253 933.019 435.649Z" fill="#00A6E3"/>
<path d="M904.982 453.751C907.022 453.547 909.716 456.54 907.261 457.954C905.478 458.986 902.077 455.607 904.982 453.751Z" fill="#00A6E3"/>
<path d="M910.649 444.049C913.893 443.937 913.51 448.661 910.369 448.46C908.077 447.459 908.504 445.012 910.649 444.049Z" fill="#00A6E3"/>
<path d="M997.872 355.155C998.24 354.597 998.365 354.474 998.929 354.116C999.59 354.056 1000.24 354.672 1000.89 355.412C1000.89 357.582 997.87 357.151 997.872 355.155Z" fill="#00A6E3"/>
<path d="M911.272 439.287C910.516 438.917 910.307 438.305 910.124 437.652C911.522 435.478 913.71 438.739 911.272 439.287Z" fill="#00A6E3"/>
<path d="M904.49 432.149C904.053 429.472 904.375 426.802 905.143 424.136C902.482 421.91 901.033 419.018 903.11 417.386C904.739 416.113 907.406 417.646 908.663 419.992C909.163 420.302 909.67 419.951 910.169 420.36C912.494 423.177 916.096 427.894 914.023 430.846C911.699 434.142 907.452 433.066 904.49 432.149Z" fill="#00A6E3"/>
<path d="M966.183 379.148C964.315 382.242 961.032 377.7 963.769 376.223C965.377 375.362 967.139 377.556 966.183 379.148Z" fill="#00A6E3"/>
<path d="M892.135 436.223C893.146 434.855 894.192 435.119 894.811 435.9C896.402 437.886 892.372 439.146 892.135 436.223Z" fill="#00A6E3"/>
<path d="M901.148 428.746C899.897 428.421 898.766 426.72 900.252 425.718C901.748 425.476 903.407 428.081 901.148 428.746Z" fill="#00A6E3"/>
<path d="M917.334 411.934C916.612 411.581 915.508 410.524 915.729 409.833C917.829 406.642 920.673 411.287 917.334 411.934Z" fill="#00A6E3"/>
<path d="M881.839 431.836C882.692 433.287 884.484 433.946 884.938 435.691C886.032 436.022 886.974 435.865 887.83 436.986C890.095 439.96 883.514 443.334 882.594 438.45C882.134 438.182 881.662 438.384 881.204 437.968C879.424 438.703 877.689 439.818 875.856 439.084C871.533 437.347 872.452 430.805 877.097 430.738C879.167 431.68 879.983 431.844 881.839 431.836Z" fill="#00A6E3"/>
<path d="M895.872 421.275L896.455 420.702C898.318 420.851 896.481 423.194 895.872 421.275Z" fill="#00A6E3"/>
<path d="M1001.03 303.497C1003.86 302.846 1006.71 307.078 1005.04 308.994C1002.67 311.72 996.357 306.195 1001.03 303.497Z" fill="#00A6E3"/>
<path d="M882.12 427.424C880.45 426.873 879.636 424.829 879.483 423.573C880.759 421.241 883.341 422.089 884.591 424.311C884.827 425.485 883.483 427.246 882.12 427.424Z" fill="#00A6E3"/>
<path d="M915.674 390.09C914.032 393.664 909.139 389.299 910.816 387.259C912.326 385.433 916.752 387.74 915.674 390.09Z" fill="#00A6E3"/>
<path d="M892.285 407.762C895.7 408.741 892.845 412.346 891.096 410.532C890.205 409.625 890.772 408.203 892.285 407.762Z" fill="#00A6E3"/>
<path d="M943.748 356.536C942.935 357.891 940.666 358.795 939.434 358.239C937.585 357.423 936.157 354.886 936.454 353.107C936.89 350.553 940.123 348.898 942.285 350.6C944.12 352.052 944.494 355.281 943.748 356.536Z" fill="#00A6E3"/>
<path d="M880.172 411.617C877.142 409.247 878.199 406.509 876.994 403.917C877.345 403.392 877.78 402.736 878.401 402.535C880.061 404.109 883.244 405.102 884.275 407.817C884.492 408.404 884.295 409.186 884.486 409.914C885.037 411.907 886.312 414.921 883.161 414.893C881.668 414.872 880.233 413.045 880.172 411.617Z" fill="#00A6E3"/>
<path d="M1037.66 261.084C1037.22 261.896 1036.45 262.657 1035.79 262.923C1035.19 263.174 1033.29 263.289 1032.09 262.198C1029.97 260.299 1031.71 256.634 1034.92 256.877C1036.51 256.998 1038.89 258.85 1037.66 261.084Z" fill="#00A6E3"/>
<path d="M942.836 342.018C940.966 341.679 938.435 340.618 937.754 338.492C936.96 336.002 940.012 333.446 942.329 333.541C945.854 335.947 945.477 339.277 942.836 342.018Z" fill="#00A6E3"/>
<path d="M921.118 354.829C922.344 355.145 922.303 357.751 921.314 358.543C920.151 359.473 917.748 357.959 916.802 356.763C913.605 352.742 920.814 349.439 921.118 354.829Z" fill="#00A6E3"/>
<path d="M914.132 357.325C913.805 356.926 913.969 356.193 914.604 356.174C915.309 356.691 914.725 357.445 914.132 357.325Z" fill="#00A6E3"/>
<path d="M973.438 298.38C972.835 299.364 970.627 299.898 969.247 299.275C963.916 296.844 967.754 287.762 972.664 293.844C973.634 295.048 974.201 297.141 973.438 298.38Z" fill="#00A6E3"/>
<path d="M981.724 281.268C986.06 283.451 982.775 287.984 979.488 283.921C979.261 282.674 980.419 281.438 981.724 281.268Z" fill="#00A6E3"/>
<path d="M953.637 304.715C956.743 299.85 962.983 308.336 957.431 309.278C955.059 309.678 952.979 307.143 953.637 304.715Z" fill="#00A6E3"/>
<path d="M1011.28 250.177C1010.49 252.818 1006.92 250.667 1007.69 249.098C1008.44 247.578 1011.92 248.071 1011.28 250.177Z" fill="#00A6E3"/>
<path d="M1012.94 247.165C1012.34 246.821 1012.21 246.473 1012.13 245.879C1012.84 245.085 1013.54 245.025 1014.23 245.666C1014.5 246.304 1013.57 247.162 1012.94 247.165Z" fill="#00A6E3"/>
<path d="M1017.2 238.614C1015.19 242.061 1010.01 239.788 1010.72 236.23C1011.02 234.764 1012.91 232.545 1014.58 232.898C1015.68 233.131 1017.35 235.34 1017.57 235.944C1017.81 236.581 1017.77 237.629 1017.2 238.614Z" fill="#00A6E3"/>
<path d="M1017.27 230.942C1015.98 232.754 1012.02 233.024 1012.06 229.617C1012.1 225.278 1020.64 226.244 1017.27 230.942Z" fill="#00A6E3"/>
<path d="M945.614 293.73C944.823 293.591 943.966 292.602 943.775 291.858C945.22 288.216 949.143 292.977 945.614 293.73Z" fill="#00A6E3"/>
<path d="M975.276 263.21C972.651 266.932 968.381 262.118 969.859 259.326C972.018 255.245 977.876 259.529 975.276 263.21Z" fill="#00A6E3"/>
<path d="M955.634 277.204C957.03 273.512 962.232 277.426 959.221 279.207C958.258 279.776 956.064 278.857 955.634 277.204Z" fill="#00A6E3"/>
<path d="M902.532 330.041L902.074 329.575C902.069 329.253 902.577 328.754 902.898 328.765C903.504 329.282 903.053 329.856 902.532 330.041Z" fill="#00A6E3"/>
<path d="M916.609 314.613C912.67 314.116 911.258 307.249 915.537 305.776C916.919 305.302 919.734 305.953 920.854 307.91C922.072 310.033 919.527 313.987 916.609 314.613Z" fill="#00A6E3"/>
<path d="M905.357 326.121C902.441 325.65 901.265 321.655 904.604 320.191C907.996 320.031 909.233 325.339 905.357 326.121Z" fill="#00A6E3"/>
<path d="M1009.4 216.592C1008.39 218.25 1005.9 218.946 1004.51 217.944C1001.84 216.023 1002.78 211.84 1005.85 211.1C1008.82 210.392 1010.74 214.369 1009.4 216.592Z" fill="#00A6E3"/>
<path d="M992.027 210.632C992.283 209.743 993.017 208.859 994.032 207.977C995.204 207.937 996.484 207.775 997.39 208.814C1000.34 212.223 993.389 215.833 992.027 210.632Z" fill="#00A6E3"/>
<path d="M927.261 280.906C926.477 281.023 925.209 279.832 925.654 279.036C926.667 277.436 929.499 279.787 927.261 280.906Z" fill="#00A6E3"/>
<path d="M909.696 297.013C908.592 296.871 906.892 295.19 907.05 294.086C908.804 290.092 913.615 296.09 909.696 297.013Z" fill="#00A6E3"/>
<path d="M898.433 296.337C897.535 297.971 895.523 298.671 894.807 298.508C892.387 297.959 891.9 295.331 892.056 294.541C892.964 290.003 900.581 292.413 898.433 296.337Z" fill="#00A6E3"/>
<path d="M931.139 251.794C929.925 250.975 929.09 249.375 928.495 248.636C925.214 247.543 925.633 252.983 922.642 253.468C920.543 253.813 919.161 250.79 919.887 249.031C920.722 247.05 923.708 246.193 923.769 244.074C922.975 243.398 923.018 242.326 922.043 241.617C922.52 238.255 921.925 234.884 922.253 231.521C919.424 229.706 922.966 227.633 924.12 230.374C926.57 230.337 928.712 230.686 931.546 231.14C934.141 231.55 936.675 231.416 938.48 235.152C939.338 236.909 941.26 242.197 941.192 243.31C941.143 244.11 940.343 244.994 940.013 245.858C940.176 247.806 939.005 251.31 936.242 252.094C936.014 252.728 937.555 253.814 937.727 254.789C937.939 255.97 936.626 257.831 935.26 258.372C932.172 259.541 926.371 255.267 931.139 251.794Z" fill="#00A6E3"/>
<path d="M902.676 289.865C902.059 289.62 901.3 288.813 901.297 288.227C902.426 285.68 905.626 289.305 902.676 289.865Z" fill="#00A6E3"/>
<path d="M950.771 225.599C947.921 224.163 947.746 220.004 948.986 217.919C950.587 215.236 954.224 216.241 955.715 219.141C956.679 221.006 955.701 223.275 955.43 224.947C959.529 227.672 960.814 234.044 955.783 236.566C954.142 237.393 950.812 237.1 949.292 234.653C947.723 232.106 950.15 228.465 950.771 225.599Z" fill="#00A6E3"/>
<path d="M872.638 310.16C871.258 313.902 864.441 313.306 864.981 309.392C865.653 304.547 874.335 305.159 872.638 310.16Z" fill="#00A6E3"/>
<path d="M980.774 196.592C981.537 195.254 982.842 195.15 983.92 195.349C989.415 199.712 980.586 201.73 980.774 196.592Z" fill="#00A6E3"/>
<path d="M903.099 270.126C901.466 270.929 898.825 271.97 897.635 270.425C896.2 268.548 899.785 266.335 901.625 266.277C902.093 263.856 905.417 263.11 906.88 263.65C912.931 265.931 907.934 274.516 903.099 270.126Z" fill="#00A6E3"/>
<path d="M840.708 334.391C839.226 336.796 835.255 336.167 835.265 333.296C835.26 328.511 843.238 330.305 840.708 334.391Z" fill="#00A6E3"/>
<path d="M919.137 255.978C918.354 255.963 917.384 255.608 916.947 254.68C916.716 251.131 922.244 253.712 919.137 255.978Z" fill="#00A6E3"/>
<path d="M881.868 267.045C883.03 267.212 884.201 265.539 885.373 265.45C889.415 267.317 892.063 272.546 890.036 275.828C890.181 277.141 890.657 278.259 890.58 279.43C890.379 282.373 887.868 287.161 884.47 287.049C882.367 286.973 880.887 284.732 879.168 283.282C878.333 282.581 876.609 281.675 876.175 280.467C875.941 279.813 876.501 277.351 876.328 276.409C876.061 274.922 875.27 273.034 874.75 271.289C874.223 269.502 873.483 267.433 874.105 266.168C875.762 262.792 879.52 263.254 881.868 267.045Z" fill="#00A6E3"/>
<path d="M856.594 312.577C855.625 313.888 854.128 314.346 852.863 313.707C849.645 312.079 851.457 307.062 854.782 307.916C856.889 308.463 857.923 310.749 856.594 312.577Z" fill="#00A6E3"/>
<path d="M1006.42 162.909C1005.49 166.152 999.244 163.119 1001.33 160.547C1002.59 158.965 1007.01 160.803 1006.42 162.909Z" fill="#00A6E3"/>
<path d="M939.613 226.896C936.771 231.713 931.371 225.099 934.311 222.196C937.108 219.449 941.264 224.097 939.613 226.896Z" fill="#00A6E3"/>
<path d="M917.126 247.835L916.431 247.127C916.386 246.698 916.745 246.28 917.26 245.856C918.498 245.817 918.415 247.582 917.126 247.835Z" fill="#00A6E3"/>
<path d="M936.898 219.901C936.782 218.2 938.613 216.434 940.055 217.486C942.358 219.181 939.007 222.864 936.898 219.901Z" fill="#00A6E3"/>
<path d="M929.102 220.658C928.419 220.495 927.548 219.291 926.91 218.659C927.257 211.583 936.629 216.813 931.766 220.788C932.182 222.178 931.384 224.563 929.755 224.137C928.216 223.735 928.597 221.808 929.102 220.658Z" fill="#00A6E3"/>
<path d="M910.113 226.638C912.589 228.276 909.372 230.014 908.587 228.365C908.215 227.57 909.163 226.786 910.113 226.638Z" fill="#00A6E3"/>
<path d="M917.755 216.598L917.406 216.942C915.964 216.69 917.53 215.153 917.755 216.598Z" fill="#00A6E3"/>
<path d="M901.014 206.346C901.759 205.172 899.406 204.492 899.294 203.196C899.444 203.081 899.478 202.966 899.413 202.85C901.106 201.792 902.822 201.742 904.206 200.219C904.673 199.695 904.019 199.03 904.92 198.831C904.806 198.715 904.689 198.879 904.572 198.944C906.087 195.822 910.339 196.272 912.937 199.017C913.02 199.867 911.201 201.18 910.948 200.039C910.795 201.349 909.925 202.662 910.441 203.986C911.2 203.976 910.587 203.303 910.797 202.95C912.825 201.351 914.843 201.674 916.854 201.84C916.988 201.61 916.595 201.375 917.092 201.149C919.495 200.898 921.912 199.079 924.311 198.424C927.01 200.089 929.698 203.775 927.485 206.586C926.392 207.97 924.54 209.266 922.701 209.208C921.085 208.18 919.224 208.683 917.963 206.733C916.662 208.273 913.594 208.229 911.573 207.255C910.791 207.957 910.015 208.033 909.238 208.158C908.628 209.003 908.566 208.623 908.189 209.189C906.895 209.037 906.894 207.47 907.52 206.625C906.98 206.142 906.443 206.245 905.906 205.448C904.494 205.526 902.557 205.369 901.014 206.346Z" fill="#00A6E3"/>
<path d="M910.627 221.998L909.59 220.941C909.374 219.338 911.52 218.31 912.615 220.274C912.573 221.214 911.533 222.204 910.627 221.998Z" fill="#00A6E3"/>
<path d="M823.492 300.672C823.534 299.666 825.066 298.161 826.073 298.137C828.462 298.455 829.554 301.682 827.536 303.141C826.049 304.209 823.894 302.614 823.492 300.672Z" fill="#00A6E3"/>
<path d="M963.068 164.972C962.046 163.981 963.603 162.419 964.594 163.245C964.883 164.039 964.062 165.435 963.068 164.972Z" fill="#00A6E3"/>
<path d="M871.1 250.452C870.486 249.943 871.011 249.444 871.221 248.943C872.345 248.755 872.124 250.345 871.1 250.452Z" fill="#00A6E3"/>
<path d="M926.439 194.961C921.485 194.563 926.169 187.608 928.334 191.727C928.828 192.68 927.978 194.529 926.439 194.961Z" fill="#00A6E3"/>
<path d="M889.987 218.335C891.006 216.991 892.009 217.33 893.025 217.199C893.433 216.848 895.082 215.179 895.473 215.711C894.585 214.523 895.149 212.433 896.902 212.002C899.128 212.954 897.93 214.932 898.367 216.775C898.66 218.04 899.352 219.011 899.146 219.917C897.975 225.154 891.094 221.711 889.987 218.335Z" fill="#00A6E3"/>
<path d="M834.734 277.893C835.016 276.865 836.271 275.844 837.186 275.943C837.77 276.171 838.349 276.91 838.913 277.468C840.064 280.489 835.09 281.287 834.734 277.893Z" fill="#00A6E3"/>
<path d="M905.282 209.526C905.892 209.548 906.75 210.421 907.008 211.051C906.212 214.154 902.233 210.885 905.282 209.526Z" fill="#00A6E3"/>
<path d="M866.123 249.831C865.419 249.247 865.086 248.658 865.554 248.085C866.891 247.115 867.979 249.872 866.123 249.831Z" fill="#00A6E3"/>
<path d="M923.379 186.915C924.306 188.392 923.66 190.416 921.829 191.2C917.823 190.917 920.465 185.347 923.379 186.915Z" fill="#00A6E3"/>
<path d="M901.252 206.356C901.197 206.95 901.438 206.746 902.172 206.826C902.389 206.548 901.695 206.674 901.831 206.246C904.026 207.098 901.766 211.476 899.83 209.372C898.973 208.432 899.403 207.388 900.676 206.236C900.863 206.51 901.061 206.577 901.252 206.356Z" fill="#00A6E3"/>
<path d="M850.402 253.059C848.308 256.423 843.709 252.456 845.547 249.997C847.426 247.514 852.269 250.064 850.402 253.059Z" fill="#00A6E3"/>
<path d="M861.208 240.845C859.318 243.6 855.674 243.304 854.597 240.209C852.974 235.542 861.545 233.043 862.045 238.649C862.112 239.384 861.977 239.729 861.208 240.845Z" fill="#00A6E3"/>
<path d="M901.56 198.224C900.781 197.747 901.074 197.296 900.872 196.824C901.729 196.031 901.947 195.703 902.855 195.563C904.461 196.765 902.748 198.251 901.56 198.224Z" fill="#00A6E3"/>
<path d="M894.347 199.325C894.361 198.772 895.036 198.044 895.64 197.826C899.147 198.632 895.704 202.504 894.347 199.325Z" fill="#00A6E3"/>
<path d="M869.234 226.75C869.035 227.763 867.839 227.744 867.253 227.78C863.647 225.191 869.663 223.223 869.234 226.75Z" fill="#00A6E3"/>
<path d="M946.323 142.526C947.215 140.735 949.343 140.754 950.273 141.867C952.435 144.419 946.483 146.619 946.323 142.526Z" fill="#00A6E3"/>
<path d="M883.397 202.248C884.502 201.507 886.793 201.708 887.109 203.212C887.749 202.715 888.61 203.275 888.611 204.042C887.162 204.582 883.948 206.922 882.797 204.684C882.23 203.59 883.832 203.407 883.397 202.248Z" fill="#00A6E3"/>
<path d="M892.986 195.822C896.118 193.515 890.2 193.818 892.986 195.822V195.822Z" fill="#00A6E3"/>
<path d="M859.806 216.899C857.39 213.191 865.404 211.941 863.751 216.703C864.865 216.721 865.203 217.565 864.67 218.105C863.837 218.939 860.744 217.155 859.806 216.899Z" fill="#00A6E3"/>
<path d="M873.994 202.05C874.228 201.738 874.255 201.433 874.704 201.124C874.893 201.117 875.081 201.375 875.28 201.244C876.122 202.019 874.683 203.302 873.994 202.05Z" fill="#00A6E3"/>
<path d="M856.56 216.409C857.403 215.418 858.312 215.228 858.893 215.736C860.726 217.32 856.642 219.157 856.56 216.409Z" fill="#00A6E3"/>
<path d="M919.02 156.229C920.211 160.323 913.133 161.26 913.204 157.102C913.252 154.636 917.204 152.881 919.02 156.229Z" fill="#00A6E3"/>
<path d="M933.572 140.549C933.567 140.162 934.173 139.779 934.515 139.394C934.976 139.415 935.862 139.984 935.667 140.568C935.388 141.283 933.843 141.509 933.572 140.549Z" fill="#00A6E3"/>
<path d="M867.345 193.165C868.817 191.949 869.796 191.38 869.117 189.806C867.018 191.116 864.178 187.824 865.9 186.297C864.476 185.946 863.44 184.625 862.318 183.832C861.826 183.481 861.208 183.418 860.816 183.002C859.239 181.313 860.727 179.198 860.753 177.309C859.945 176.37 859.913 175.437 859.616 174.502C860.044 173.772 860.191 173.039 860.915 172.311C860.958 171.305 860.043 170.29 860.482 169.288C863.578 168.976 866.838 169.715 869.336 166.346C870.513 166.645 871.513 168.279 871.058 169.265C874.279 170.679 875.143 173.541 875.292 176.157C875.37 177.569 875.247 177.427 874.69 178.825C874.141 180.181 873.985 181.805 873.025 182.993C871.89 184.402 870.325 185.939 868.47 185.849C868.265 186.573 869.257 187.201 869.846 187.717C872.103 187.267 874.379 183.789 876.612 184.064C880.822 187.318 882.815 193.028 878.133 195.223C877.495 195.523 876.175 195.577 875.226 195.544C874.822 195.532 874.191 195.155 873.712 195.184C872.713 195.233 871.418 196.162 870.453 196.08C869.142 195.994 867.495 194.783 867.345 193.165Z" fill="#00A6E3"/>
<path d="M929.277 139.241C933.986 142.087 927.345 144.752 927.177 140.617C927.623 139.738 928.527 139.193 929.277 139.241Z" fill="#00A6E3"/>
<path d="M926.577 143.054C926.829 145.193 925.058 147.586 922.815 147.435C920.985 147.303 918.189 144.556 918.56 142.868C918.896 141.312 921.434 139.849 922.76 140.117C924.283 140.419 925.639 141.883 926.577 143.054Z" fill="#00A6E3"/>
<path d="M879.966 184.447C880.511 183.487 881.667 182.532 882.545 182.144C883.336 182.249 884.531 183.2 884.968 184.145C884.833 187.155 880.373 187.644 879.966 184.447Z" fill="#00A6E3"/>
<path d="M894.139 172.148C890.365 171.653 892.143 165.919 894.881 167.741C896.365 168.736 896.505 171.443 894.139 172.148Z" fill="#00A6E3"/>
<path d="M925.25 135.841C923.904 135.953 922.958 135.639 922.239 134.891C920.434 132.986 922.56 129.655 924.946 130.385C927.101 131.031 928.294 134.044 925.25 135.841Z" fill="#00A6E3"/>
<path d="M879.305 167.835C881.728 167.271 884.298 170.338 883.33 172.4C881.267 176.795 874.059 171.271 879.305 167.835Z" fill="#00A6E3"/>
<path d="M848.997 193.234C849.87 191.642 850.54 188.76 852.879 188.277C854.074 189.344 855.366 190.51 855.633 192.014C856.354 196.112 849.705 197.803 848.997 193.234Z" fill="#00A6E3"/>
<path d="M855.664 187.832C855.804 186.043 858.318 185.372 858.577 185.886C859.924 187.457 857.297 190.528 855.664 187.832Z" fill="#00A6E3"/>
<path d="M877.465 166.895C876.955 166.775 875.856 166.056 875.739 165.37C874.931 165.313 873.27 164.721 873.207 163.492C874.269 161.958 874.927 163.045 876.455 163.751C878.213 164.558 879.988 165.383 877.465 166.895Z" fill="#00A6E3"/>
<path d="M879.719 161.446C879.169 161.218 878.442 160.477 878.224 159.923C874.954 161.99 870.757 157.316 873.399 154.543C874.865 153.005 876.629 153.985 878.172 153.075C878.613 153.59 879.141 153.595 879.327 154.017C881.062 153.703 882.819 152.893 884.558 153.015C885.783 155.278 886.989 157.739 884.614 159.401C883.892 159.915 882.606 159.738 881.711 160.193C880.824 160.639 880.692 161.603 879.719 161.446Z" fill="#00A6E3"/>
<path d="M878.984 152.735C876.351 152.853 873.47 149.569 875.313 147.366C878.751 143.287 885.094 150.38 878.984 152.735Z" fill="#00A6E3"/>
<path d="M847.712 180.684C843.809 178.093 849.154 173.742 851.223 177.465C852.278 179.322 849.755 180.933 847.712 180.684Z" fill="#00A6E3"/>
<path d="M833.871 196.353C833.556 196.45 833.25 196.538 832.941 196.106C832.976 195.875 833.102 195.637 833.418 195.409C833.605 195.633 833.804 195.519 834 195.769C833.998 195.967 833.732 196.162 833.871 196.353Z" fill="#00A6E3"/>
<path d="M851.723 175.142C851.022 175.128 850.264 174.156 849.882 173.501C849.916 172.586 851.073 171.449 851.989 171.432C854.044 172.209 853.641 174.763 851.723 175.142Z" fill="#00A6E3"/>
<path d="M843.078 179.481C842.383 178.856 842.397 178.237 843.096 177.616C844.141 177.832 844.128 179.267 843.078 179.481Z" fill="#00A6E3"/>
<path d="M873.681 148.968C872.37 150.665 868.727 151.169 867.067 148.795C865.357 146.354 869.102 141.99 871.994 143.269C874.442 144.347 875.251 146.936 873.681 148.968Z" fill="#00A6E3"/>
<path d="M878.144 143.67C877.912 143.783 877.681 143.781 877.449 143.895C876.974 143.495 876.862 143.114 877.221 142.729C877.335 142.846 877.452 142.682 877.568 142.617C877.994 142.967 878.296 143.325 878.144 143.67Z" fill="#00A6E3"/>
<path d="M898.564 120.625C897.302 122.305 894.128 122.937 892.642 120.458C890.887 117.538 896.169 113.823 898.717 116.567C899.558 117.457 899.767 119.019 898.564 120.625Z" fill="#00A6E3"/>
<path d="M924.745 91.0064C920.656 90.6241 923.446 84.2879 926.29 87.1838C927.5 88.4153 927.077 90.3338 924.745 91.0064Z" fill="#00A6E3"/>
<path d="M881.77 128.142C881.887 126.229 884.002 125.051 885.391 126.433C887.443 128.489 884.168 132.049 881.77 128.142Z" fill="#00A6E3"/>
<path d="M848.617 158.854C848.193 158.339 847.24 157.836 848.045 157.34C846.38 158.109 844.426 157.069 843.418 155.443C843.591 152.821 847.532 151.305 848.648 154.672C848.376 155.445 848.765 156.224 848.164 156.994C848.434 157.203 848.713 156.521 848.984 156.647C849.326 157.161 849.674 156.95 850.024 157.473C850.108 158.224 849.367 158.952 848.617 158.854Z" fill="#00A6E3"/>
<path d="M922.723 83.0852C920.464 82.1001 920.4 79.2534 922.765 78.6801C925.498 79.2815 925.469 83.2165 922.723 83.0852Z" fill="#00A6E3"/>
<path d="M825.561 178.048C825.092 177.854 824.708 177.463 824.523 176.991C824.892 176.285 825.507 175.878 826.157 176.073C826.992 176.757 826.463 177.734 825.561 178.048Z" fill="#00A6E3"/>
<path d="M912.23 88.3399C912.774 87.5279 913.312 88.1431 913.861 87.653C915.744 89.2039 912.177 90.4679 912.23 88.3399Z" fill="#00A6E3"/>
<path d="M815.424 181.334C813.833 181.212 812.904 179.101 813.705 178.184C815.264 176.424 818.488 180.156 815.424 181.334Z" fill="#00A6E3"/>
<path d="M823.772 170.831C823.306 170.406 822.922 169.965 822.736 169.543C822.933 168.827 823.225 168.409 823.914 167.928C825.917 168.168 825.707 171.268 823.772 170.831Z" fill="#00A6E3"/>
<path d="M918.003 78.7463C913.974 83.4876 907.346 75.1055 913.422 71.966C914.417 71.4468 915.578 71.6797 916.903 71.9965C917.265 72.0822 919.49 72.4152 920.022 73.7728C920.376 74.6669 919.23 77.3133 918.003 78.7463Z" fill="#00A6E3"/>
<path d="M845.828 147.339C845.784 146.794 846.149 146.615 846.653 146.529C847.735 147.215 846.486 148.442 845.828 147.339Z" fill="#00A6E3"/>
<path d="M894.716 97.9369C893.482 100.195 890.577 96.7705 891.835 95.4697C893.118 94.161 895.522 96.459 894.716 97.9369Z" fill="#00A6E3"/>
<path d="M842.337 147.53C839.304 146.324 839.944 144.061 839.946 142.048C839.943 140.662 839.1 138.971 840.337 138.215C841.395 138.794 843.914 142.941 844.105 144.633C844.242 145.773 843.9 147.107 842.337 147.53Z" fill="#00A6E3"/>
<path d="M859.514 123.534C865.371 127.999 856.551 131.659 855.547 126.057C855.492 125.767 855.668 125.464 855.556 125.133C855.187 124.041 854.463 123.77 854.529 122.921C854.793 119.359 859.983 120.147 859.514 123.534Z" fill="#00A6E3"/>
<path d="M895.457 92.8453L894.648 92.0215C894.631 91.2377 895.389 90.4936 896.172 90.5252C897.551 91.2797 896.448 92.821 895.457 92.8453Z" fill="#00A6E3"/>
<path d="M928.648 58.173C928.065 57.9451 927.502 57.206 926.922 56.6482C926.774 55.6816 926.816 54.7085 927.988 53.7536C930.967 52.8392 932.286 58.1966 928.648 58.173Z" fill="#00A6E3"/>
<path d="M795.565 181.498C796.694 179.833 798.314 180.449 799.042 181.99C798.699 184.272 795.207 183.648 795.565 181.498Z" fill="#00A6E3"/>
<path d="M845.596 134.211C844.352 133.193 844.531 131.71 845.741 131.077C847.212 131.676 847.372 134.02 845.596 134.211Z" fill="#00A6E3"/>
<path d="M864.889 107.205L864.423 107.663C863.823 107.435 863.079 106.694 863.851 106.148C864.222 106.16 864.884 106.834 864.889 107.205Z" fill="#00A6E3"/>
<path d="M863.771 103.251C862.373 106.308 858.704 102.539 860.89 100.784C862.336 99.6251 864.47 101.715 863.771 103.251Z" fill="#00A6E3"/>
<path d="M901.65 63.9756C899.489 63.041 899.581 60.3359 901.698 59.7934C904.524 60.1564 904.447 63.9424 901.65 63.9756Z" fill="#00A6E3"/>
<path d="M782.11 167.33C781.712 164.01 786.038 160.987 788.531 163.558C791.015 166.121 788.37 171.007 784.991 169.797C784.794 169.73 784.829 169.449 784.533 169.331C783.835 169.053 782.757 168.722 782.11 167.33Z" fill="#00A6E3"/>
<path d="M910.411 46.3979C909.925 47.2186 909.005 46.7156 908.904 46.0299C909.391 45.2092 910.301 45.7204 910.411 46.3979Z" fill="#00A6E3"/>
<path d="M892.955 50.6584C890.559 54.6138 885.114 51.0847 886.714 47.5843C887.463 45.9491 889.509 45.1503 891.138 46.4598C891.4 45.8433 891.29 45.2154 891.626 44.6079C892.983 44.1908 893.794 42.1189 895.249 41.7357C896.43 42.4885 897.354 41.6303 898.731 41.7661C900.104 43.0981 900.15 44.4103 901.251 45.7316C901.24 46.903 901.202 47.4966 901.456 48.5219C899.736 52.4502 895.694 52.4148 892.955 50.6584Z" fill="#00A6E3"/>
<path d="M908.367 40.8036L907.901 41.2615C907.367 41.001 908.019 40.0828 908.367 40.8036Z" fill="#00A6E3"/>
<path d="M781.97 156.646C782.107 155.302 782.506 153.128 784.333 152.723C787.103 152.096 788.7 156.936 786.375 158.549C784.996 159.494 783.41 158.861 781.97 156.646Z" fill="#00A6E3"/>
<path d="M878.966 55.651C881.05 55.991 884.442 57.6459 883.8 60.107C883.039 63.029 878.231 63.7129 876.948 60.6245C876.529 59.6308 877.24 58.4903 877.095 57.2598C877.712 56.6052 878.344 56.0003 878.966 55.651Z" fill="#00A6E3"/>
<path d="M764.102 167.981C763.826 167.517 763.764 167.054 763.876 166.585C765.37 165.559 766.027 168.526 764.102 167.981Z" fill="#00A6E3"/>
<path d="M892.732 35.6752C894.985 36.4044 895.906 39.3742 893.733 40.6751C890.954 42.342 888.806 36.474 892.732 35.6752Z" fill="#00A6E3"/>
<path d="M884.528 43.9602C883.815 43.4672 883.563 43.0443 883.149 42.3229C884.397 39.4464 887.622 43.9461 884.528 43.9602Z" fill="#00A6E3"/>
<path d="M757.76 162.472C758.907 160.725 761.177 159.673 762.642 161.814C763.025 163.203 762.235 165.646 760.403 165.63C759.026 165.61 757.707 163.767 757.76 162.472Z" fill="#00A6E3"/>
<path d="M743.593 137.954C743.813 137.379 744.395 136.938 745.113 136.92C745.423 137.269 745.931 137.62 745.92 137.975C745.499 138.845 744.351 138.926 743.593 137.954Z" fill="#00A6E3"/>
<path d="M901.552 285.673C897.847 284.931 896.036 280.056 899.185 278.566C900.287 278.039 902.772 278.721 903.812 280.462C904.64 281.855 903.746 284.809 901.552 285.673Z" fill="#00A6E3"/>
<path d="M816.603 167.294C815.996 167.775 817.325 167.729 816.482 167.87C817.345 168.266 817.129 168.412 817.87 168.584C817.95 168.815 817.832 169.045 817.632 169.275C817.938 169.187 818.258 169.429 818.556 169.283C818.484 169.893 818.901 170.333 819.475 170.685C819.958 172.009 819.414 173.737 817.47 173.34C817.108 174.203 816.618 173.622 815.951 174.375C814.842 173.895 813.467 175.326 812.591 173.768C811.588 174.213 811.143 172.476 810.756 171.434C811.253 171.207 811.031 171.18 811.456 170.747C810.505 170.945 812.086 169.507 812.289 169.013C812.872 167.525 813.747 164.769 816.603 167.294Z" fill="#00A6E3"/>
<path d="M757.5 153.296C757.41 153.139 757.651 152.984 757.504 152.834C757.2 152.658 757.209 153.434 757.612 153.644C757.137 154.143 756.133 156.535 755.164 155.132C755.03 155.362 755.424 155.596 754.927 155.823C752.098 154.858 752.534 152.337 750.445 150.792C750.681 150.201 750.731 150.201 750.572 149.523C751.091 149.536 751.301 148.317 751.508 149.061C752.935 147.399 754.908 150.741 756.373 150.267C756.295 150.637 756.729 150.979 757.298 150.976C757.429 152.009 758.182 151.809 757.5 153.296Z" fill="#00A6E3"/>
<path d="M733.146 162.026C732.577 160.264 732.204 158.751 734.122 157.39C736.429 155.942 739.478 160.778 735.935 162.05C735.946 161.762 735.552 161.478 735.244 161.813C736.025 162.142 735.034 162.232 734.318 162.036C734.434 161.971 734.549 162.038 734.665 161.924C734.517 161.889 734.353 161.855 734.206 161.689C734.176 162.208 733.509 162.046 733.146 162.026Z" fill="#00A6E3"/>
<path d="M951.016 274.382C945.281 272.724 946.251 266.116 950.525 264.272C951.245 263.957 952.881 263.74 953.777 264.07C956.449 265.058 958.317 269.109 957.083 271.416C955.697 273.986 953.014 274.251 951.016 274.382Z" fill="#00A6E3"/>
<path d="M865.708 268.644C864.519 265.202 869.143 258.585 872.491 263.127C873.657 264.696 872.802 267.023 870.823 267.757C870.119 268.023 869.13 267.981 868.261 268.196C867.261 268.443 866.365 268.98 865.708 268.644Z" fill="#00A6E3"/>
<path d="M904.04 231.229C903.42 230.563 903.154 229.909 903.943 229.248C904.05 229.356 904.175 229.201 904.291 229.136C904.759 229.329 905.143 229.721 905.329 230.192C905.126 230.702 904.551 231.332 904.04 231.229Z" fill="#00A6E3"/>
<path d="M884.908 252.553C884.981 255.342 881.121 258.806 878.015 256.559C876.228 255.257 874.451 253.929 872.829 252.678C873.298 248.425 878.782 244.216 877.823 239.943C875.764 238.695 872.381 237.898 871.828 235.254C871.655 234.394 872.552 231.96 873.028 231.312C873.689 230.403 874.883 229.671 875.72 229.356C877.267 228.8 878.67 229.695 879.565 228.342C879.779 227.577 878.844 226.974 878.65 226.478C874.69 224.81 870.183 224.985 866.626 220.796C866.738 220.211 866.834 219.642 867.459 219.062C866.957 218.018 867.858 216.97 868.065 215.933C867.972 215.272 867.244 214.614 867.267 213.954C867.812 212.977 868.357 212.965 869.257 212C867.448 210.491 864.663 210.153 863.616 207.421C863.43 206.933 863.098 203.679 863.301 203.12C863.343 203.013 863.767 202.646 863.767 202.662C863.848 201.945 862.971 201.368 863.668 200.912C865.371 200.498 867.077 200.703 868.791 200.033C871.081 202.165 876.475 205.042 873.705 208.318C874.251 209.024 873.645 209.456 874.158 210.178C874.614 210.826 876.353 211.831 877.389 212.302C878.087 212.613 878.69 212.478 879.124 212.903C879.688 213.444 879.41 214.093 879.807 214.765C880.246 215.511 881.19 215.99 881.417 216.404C881.872 217.2 881.592 218.064 881.858 218.735C882.277 219.778 883.41 221.215 884.499 222.124C885.072 222.607 886.778 223.695 887.973 223.779C889.136 223.864 890.544 222.35 892.043 223.46C893.526 224.57 894.965 227.718 896.521 228.953C897.004 229.344 897.723 229.211 898.265 229.545C898.619 230.522 898.7 231.488 899.978 232.472C900.298 234.447 898.143 236.4 897.25 238.372C897.893 240.193 900.531 241.329 901.272 243.167C902.474 243.524 903.668 243.692 904.851 245.179C905.187 247.186 902.34 248.085 901.445 249.439C900.817 250.398 901.604 250.917 901.307 251.879C900.111 252.71 899.457 252.061 898.624 252.895C897.516 254.032 897.89 258.243 895.108 256.577C893.861 255.84 894.5 254.625 893.272 253.542C892.119 252.517 890.591 253.576 889.09 253.513C887.391 253.432 886.414 252.038 884.908 252.553Z" fill="#00A6E3"/>
<path d="M950.069 164.627L950.641 165.21C950.758 165.062 950.528 164.895 950.414 164.746C953.69 164.717 952.786 168.743 949.903 169.155C947.176 168.776 947.736 165.316 950.069 164.627Z" fill="#00A6E3"/>
<path d="M964.424 82.411C964.561 84.5654 961.876 86.7116 960.09 86.2092C955.82 84.9921 957.873 78.9382 961.66 79.8293C962.754 80.0947 963.53 80.9842 964.424 82.411Z" fill="#00A6E3"/>
<path d="M876.847 107.656C876.993 107.921 876.673 107.729 876.499 107.768C876.91 108.82 876.892 109.867 877.509 110.912C877.933 110.627 878.357 111.159 878.781 110.808C878.679 110.188 879.329 109.583 879.029 108.945C878.784 108.712 877.142 107.823 876.847 107.656ZM886.31 114.71C885.171 114.7 885.553 116.172 884.315 117.126C884.085 117.025 883.854 117.023 883.622 117.12C882.764 116.312 882.557 115.436 882.477 115.254C881.087 117.403 878.461 118.56 876.408 118.451C875.331 119.852 872.545 120.463 871.612 122.245C874.962 125.772 875.005 129.98 872.674 133.169C872.523 133.366 872.282 133.586 872.091 133.741C868.458 136.671 862.418 130.637 863.098 126.7C863.29 125.579 864.914 124.818 865.565 123.116C862.339 121.446 859.312 119.597 859.594 115.854C859.65 115.178 860.547 110.978 861.038 110.529C861.695 109.932 863.63 110.337 864.409 109.981C865.942 109.293 866.58 108.061 868.149 107.926C868.955 108.197 869.768 108.609 870.579 109.218C871.795 108.824 872.404 108.161 873.499 107.511C874.215 107.691 874.283 108.376 874.878 108.216C874.907 106.929 873.764 107.332 873.618 106.233C874.287 105.233 874.931 106.055 875.603 105.673C876.195 104.127 875.97 102.583 875.647 101.021C874.861 100.321 873.515 100.449 873.115 99.1423C874.251 97.6013 875.354 99.6899 876.482 99.0563C877.48 97.3243 877.76 95.5779 877.347 93.8418C878.12 93.1968 878.17 94.0305 878.86 93.5003C880.319 94.5525 881.972 95.0867 883.608 94.8206C884.798 94.633 885.406 93.9536 886.741 94.9635C889.871 97.3339 890.75 102.126 887.814 104.732C887.913 105.55 886.957 106.358 886.751 107.165C886.899 107.282 886.931 107.398 886.864 107.513C888.274 109.299 890.333 108.83 891.365 110.448C892.442 109.946 894.379 111.052 894.713 112.457C894.198 114.597 891.36 114.573 890.521 113.352C890.086 114.009 889.667 113.815 889.237 113.927C889.686 115.317 890.917 116.92 890.819 118.585C889.249 119.751 886.878 119.203 886.073 117.034C886.064 116.259 886.855 115.482 886.31 114.71Z" fill="#00A6E3"/>
<path d="M905.7 41.1351C906.304 41.8003 906.826 42.4649 906.028 43.1179C906.914 44.5034 906.133 45.9402 904.957 46.4744C902.919 47.3971 901.024 43.536 902.216 42.2678C903.149 41.253 904.61 42.0413 905.7 41.1351Z" fill="#00A6E3"/>
<path d="M768.255 158.852C766.532 159.563 766.874 160.91 765.324 161.73C763.196 161.645 762.275 160.458 761.634 158.439C761.793 158.218 761.94 158.351 762.098 158.212C761.429 157.398 760.276 157.206 759.681 156.45C758.498 154.98 759.38 153.362 759.963 151.808C761.949 149.466 764.156 151.597 765.76 153.014C766.121 152.332 766.552 152.105 767.167 151.632C771.373 151.784 773.728 158.479 768.835 159.426C768.392 159.158 768.523 159.291 768.255 158.852Z" fill="#00A6E3"/>
<path d="M747.032 168.186C746.498 167.076 746.611 164.627 747.887 163.195C748.229 162.81 748.158 163.354 748.232 163.313C748.829 162.972 750.409 161.699 751.383 161.592C752.399 161.493 753.447 162.377 754.042 163.116C757.162 162.979 758.292 167.361 755.954 169.527C754.722 170.671 752.233 170.435 750.491 170.527C749.121 170.597 747.095 172.865 745.724 171.302C744.891 170.354 745.562 168.273 747.032 168.186Z" fill="#00A6E3"/>
</g>
<g clip-path="url(#clip1_1214_44618)">
<path d="M362.101 1282.92C360.085 1282.42 358.344 1280.91 358.714 1279.48C360.002 1274.29 367.388 1280.76 362.101 1282.92Z" fill="#00A6E3"/>
<path d="M363.339 1209.62C363.517 1208.98 363.598 1208.82 364.025 1208.31C364.635 1208.05 365.447 1208.43 366.289 1208.94C366.961 1211 363.952 1211.52 363.339 1209.62Z" fill="#00A6E3"/>
<path d="M340.578 1242.2C339.752 1245.72 335.231 1242.41 337.38 1240.17C338.645 1238.85 340.996 1240.4 340.578 1242.2Z" fill="#00A6E3"/>
<path d="M350.443 1159.5C352.933 1158.01 356.945 1161.16 355.948 1163.49C354.527 1166.82 346.823 1163.51 350.443 1159.5Z" fill="#00A6E3"/>
<path d="M295.891 1268.17C295.43 1272.07 289.43 1269.43 290.398 1266.97C291.273 1264.77 296.193 1265.6 295.891 1268.17Z" fill="#00A6E3"/>
<path d="M312.27 1227.6C311.914 1229.14 310.034 1230.7 308.69 1230.55C306.68 1230.34 304.54 1228.37 304.275 1226.58C303.904 1224.02 306.47 1221.45 309.051 1222.4C311.243 1223.22 312.593 1226.18 312.27 1227.6Z" fill="#00A6E3"/>
<path d="M372.234 1107.87C372.061 1108.78 371.558 1109.74 371.018 1110.19C370.52 1110.62 368.749 1111.31 367.269 1110.65C364.676 1109.49 365.197 1105.47 368.331 1104.71C369.882 1104.33 372.712 1105.37 372.234 1107.87Z" fill="#00A6E3"/>
<path d="M306.932 1214.07C305.05 1214.32 302.315 1214.09 301.012 1212.28C299.49 1210.15 301.606 1206.78 303.84 1206.16C307.935 1207.36 308.601 1210.65 306.932 1214.07Z" fill="#00A6E3"/>
<path d="M290.214 1232.94C291.478 1232.87 292.242 1235.36 291.545 1236.42C290.724 1237.66 287.972 1236.96 286.703 1236.11C282.424 1233.27 288.265 1227.91 290.214 1232.94Z" fill="#00A6E3"/>
<path d="M284.336 1237.47C283.903 1237.19 283.833 1236.44 284.431 1236.23C285.261 1236.5 284.937 1237.4 284.336 1237.47Z" fill="#00A6E3"/>
<path d="M322.611 1163.13C322.34 1164.25 320.404 1165.44 318.899 1165.27C313.078 1164.6 313.934 1154.78 320.478 1159.05C321.772 1159.9 322.955 1161.71 322.611 1163.13Z" fill="#00A6E3"/>
<path d="M325.226 1144.3C330.023 1145.04 328.293 1150.36 323.915 1147.51C323.315 1146.39 324.036 1144.86 325.226 1144.3Z" fill="#00A6E3"/>
<path d="M305.722 1175.25C307.18 1169.67 315.73 1175.82 310.737 1178.42C308.603 1179.54 305.844 1177.76 305.722 1175.25Z" fill="#00A6E3"/>
<path d="M343.777 1105.61C343.837 1108.37 339.779 1107.42 340.024 1105.69C340.268 1104.02 343.728 1103.42 343.777 1105.61Z" fill="#00A6E3"/>
<path d="M344.422 1102.24C343.747 1102.1 343.517 1101.8 343.261 1101.26C343.691 1100.29 344.332 1100.02 345.191 1100.41C345.641 1100.94 345.026 1102.04 344.422 1102.24Z" fill="#00A6E3"/>
<path d="M345.845 1092.79C344.992 1096.69 339.368 1096.12 338.947 1092.52C338.776 1091.03 339.894 1088.34 341.593 1088.16C342.706 1088.04 344.984 1089.63 345.376 1090.14C345.795 1090.67 346.084 1091.68 345.845 1092.79Z" fill="#00A6E3"/>
<path d="M343.551 1085.47C342.876 1087.59 339.197 1089.07 338.186 1085.81C336.889 1081.67 345.309 1079.96 343.551 1085.47Z" fill="#00A6E3"/>
<path d="M294.706 1167.27C293.911 1167.38 292.791 1166.71 292.38 1166.06C292.634 1162.15 297.833 1165.47 294.706 1167.27Z" fill="#00A6E3"/>
<path d="M313.531 1129.1C312.179 1133.45 306.635 1130.19 307.181 1127.07C307.978 1122.53 314.871 1124.8 313.531 1129.1Z" fill="#00A6E3"/>
<path d="M299.151 1148.46C299.342 1144.52 305.497 1146.64 303.18 1149.26C302.44 1150.1 300.07 1149.9 299.151 1148.46Z" fill="#00A6E3"/>
<path d="M264.898 1215.08L264.319 1214.78C264.215 1214.47 264.545 1213.84 264.854 1213.76C265.589 1214.06 265.337 1214.75 264.898 1215.08Z" fill="#00A6E3"/>
<path d="M273.542 1196.07C269.642 1196.81 266.183 1190.71 269.801 1187.99C270.97 1187.12 273.849 1186.87 275.517 1188.39C277.329 1190.03 276.126 1194.58 273.542 1196.07Z" fill="#00A6E3"/>
<path d="M266.38 1210.48C263.46 1210.93 261.112 1207.5 263.837 1205.07C267.015 1203.88 269.827 1208.55 266.38 1210.48Z" fill="#00A6E3"/>
<path d="M331.638 1074.24C331.192 1076.13 329.037 1077.56 327.403 1077.03C324.27 1076.03 323.883 1071.76 326.573 1070.11C329.179 1068.52 332.237 1071.71 331.638 1074.24Z" fill="#00A6E3"/>
<path d="M313.279 1073.92C313.249 1073 313.675 1071.93 314.369 1070.78C315.472 1070.38 316.64 1069.83 317.822 1070.54C321.682 1072.87 316.176 1078.45 313.279 1073.92Z" fill="#00A6E3"/>
<path d="M273.298 1160.72C272.587 1161.07 271.014 1160.33 271.192 1159.44C271.663 1157.6 275.082 1158.97 273.298 1160.72Z" fill="#00A6E3"/>
<path d="M261.545 1181.45C260.451 1181.66 258.315 1180.58 258.126 1179.48C258.565 1175.14 264.989 1179.37 261.545 1181.45Z" fill="#00A6E3"/>
<path d="M250.621 1184.28C250.269 1186.11 248.571 1187.39 247.84 1187.46C245.368 1187.68 244.096 1185.33 244 1184.53C243.468 1179.94 251.457 1179.88 250.621 1184.28Z" fill="#00A6E3"/>
<path d="M268.023 1131.83C266.616 1131.42 265.329 1130.16 264.535 1129.64C261.077 1129.61 263.151 1134.66 260.455 1136.04C258.564 1137.01 256.318 1134.56 256.467 1132.66C256.651 1130.52 259.229 1128.79 258.634 1126.75C257.671 1126.35 257.382 1125.32 256.236 1124.95C255.654 1121.6 254.05 1118.58 253.326 1115.28C250.076 1114.42 252.808 1111.36 254.75 1113.61C257.07 1112.82 259.215 1112.49 262.051 1112.05C264.646 1111.64 267.015 1110.74 269.883 1113.74C271.24 1115.14 274.697 1119.58 274.975 1120.66C275.175 1121.44 274.686 1122.53 274.638 1123.45C275.393 1125.25 275.358 1128.95 272.971 1130.54C272.948 1131.22 274.749 1131.77 275.213 1132.65C275.778 1133.71 275.103 1135.88 273.969 1136.82C271.391 1138.88 264.556 1136.6 268.023 1131.83Z" fill="#00A6E3"/>
<path d="M252.665 1176.81C252.003 1176.77 251.032 1176.24 250.849 1175.68C251.139 1172.91 255.3 1175.37 252.665 1176.81Z" fill="#00A6E3"/>
<path d="M278.635 1100.86C275.482 1100.37 274.034 1096.47 274.573 1094.1C275.269 1091.06 279.039 1090.89 281.351 1093.2C282.842 1094.67 282.61 1097.13 282.867 1098.81C287.606 1100.14 290.791 1105.8 286.781 1109.75C285.474 1111.04 282.215 1111.79 280.016 1109.93C277.739 1107.99 278.927 1103.78 278.635 1100.86Z" fill="#00A6E3"/>
<path d="M230.335 1205.37C230.175 1209.36 223.505 1210.89 222.814 1207C221.962 1202.18 230.41 1200.09 230.335 1205.37Z" fill="#00A6E3"/>
<path d="M298.249 1064.03C298.563 1062.52 299.772 1062.02 300.86 1061.87C307.431 1064.33 299.652 1068.97 298.249 1064.03Z" fill="#00A6E3"/>
<path d="M246.99 1157.9C245.684 1159.17 243.491 1160.97 241.883 1159.87C239.941 1158.53 242.67 1155.32 244.403 1154.7C244.103 1152.25 247.035 1150.51 248.594 1150.58C255.052 1150.89 252.942 1160.59 246.99 1157.9Z" fill="#00A6E3"/>
<path d="M207.418 1238.26C206.748 1241 202.776 1241.63 201.902 1238.89C200.424 1234.34 208.566 1233.59 207.418 1238.26Z" fill="#00A6E3"/>
<path d="M257.893 1139.51C257.143 1139.73 256.11 1139.69 255.409 1138.95C254.096 1135.64 260.151 1136.39 257.893 1139.51Z" fill="#00A6E3"/>
<path d="M225.842 1161.51C226.998 1161.31 227.597 1159.36 228.685 1158.91C233.105 1159.45 237.235 1163.6 236.317 1167.35C236.859 1168.56 237.656 1169.47 237.944 1170.61C238.659 1173.47 237.744 1178.8 234.476 1179.74C232.452 1180.32 230.354 1178.64 228.272 1177.79C227.262 1177.38 225.342 1177.05 224.557 1176.03C224.134 1175.48 223.908 1172.97 223.454 1172.13C222.742 1170.79 221.408 1169.24 220.376 1167.74C219.324 1166.2 217.983 1164.46 218.186 1163.07C218.723 1159.34 222.44 1158.63 225.842 1161.51Z" fill="#00A6E3"/>
<path d="M215.816 1212.61C215.297 1214.16 214.013 1215.05 212.614 1214.84C209.05 1214.28 209.23 1208.95 212.656 1208.74C214.829 1208.61 216.517 1210.46 215.816 1212.61Z" fill="#00A6E3"/>
<path d="M312.273 1024.08C312.395 1027.45 305.515 1026.49 306.708 1023.4C307.42 1021.51 312.193 1021.9 312.273 1024.08Z" fill="#00A6E3"/>
<path d="M268.418 1105.53C267.198 1110.99 260.024 1106.36 261.927 1102.69C263.743 1099.22 269.128 1102.36 268.418 1105.53Z" fill="#00A6E3"/>
<path d="M253.471 1132.38L252.593 1131.92C252.417 1131.52 252.63 1131.02 252.99 1130.45C254.155 1130.03 254.62 1131.74 253.471 1132.38Z" fill="#00A6E3"/>
<path d="M263.681 1099.71C263.047 1098.13 264.246 1095.89 265.942 1096.44C268.654 1097.35 266.6 1101.88 263.681 1099.71Z" fill="#00A6E3"/>
<path d="M256.498 1102.83C255.798 1102.89 254.598 1102.01 253.797 1101.61C251.948 1094.77 262.476 1096.86 259.072 1102.14C259.896 1103.33 259.872 1105.85 258.19 1105.94C256.602 1106.03 256.371 1104.08 256.498 1102.83Z" fill="#00A6E3"/>
<path d="M240.273 1114.37C243.133 1115.17 240.607 1117.81 239.353 1116.48C238.754 1115.84 239.414 1114.8 240.273 1114.37Z" fill="#00A6E3"/>
<path d="M244.453 1102.46L244.226 1102.9C242.777 1103.1 243.793 1101.16 244.453 1102.46Z" fill="#00A6E3"/>
<path d="M225.367 1097.86C225.714 1096.52 223.266 1096.6 222.761 1095.4C222.868 1095.24 222.865 1095.12 222.767 1095.03C224.052 1093.5 225.67 1092.93 226.517 1091.05C226.8 1090.41 225.973 1089.98 226.769 1089.51C226.625 1089.44 226.564 1089.63 226.473 1089.73C226.953 1086.29 231.137 1085.41 234.454 1087.22C234.795 1088 233.468 1089.81 232.876 1088.81C233.134 1090.1 232.711 1091.62 233.609 1092.72C234.328 1092.47 233.538 1092.02 233.629 1091.62C235.066 1089.48 237.085 1089.16 239.05 1088.7C239.107 1088.44 238.66 1088.34 239.063 1087.97C241.272 1086.99 243.013 1084.52 245.093 1083.15C248.173 1083.91 251.866 1086.59 250.626 1089.94C250.012 1091.6 248.649 1093.4 246.881 1093.91C245.027 1093.43 243.412 1094.48 241.612 1093.01C240.848 1094.88 237.915 1095.78 235.693 1095.48C235.165 1096.39 234.45 1096.7 233.75 1097.06C233.429 1098.05 233.253 1097.71 233.069 1098.36C231.791 1098.61 231.307 1097.12 231.643 1096.13C230.981 1095.83 230.501 1096.1 229.745 1095.5C228.426 1096.01 226.535 1096.46 225.367 1097.86Z" fill="#00A6E3"/>
<path d="M239.333 1109.8L238.02 1109.11C237.321 1107.65 239.046 1106.01 240.693 1107.54C240.943 1108.45 240.258 1109.71 239.333 1109.8Z" fill="#00A6E3"/>
<path d="M180.655 1211.48C180.386 1210.51 181.38 1208.6 182.331 1208.27C184.702 1207.84 186.734 1210.57 185.263 1212.58C184.178 1214.05 181.637 1213.2 180.655 1211.48Z" fill="#00A6E3"/>
<path d="M271.667 1039.39C270.39 1038.77 271.39 1036.8 272.587 1037.28C273.107 1037.95 272.755 1039.53 271.667 1039.39Z" fill="#00A6E3"/>
<path d="M210.488 1149.04C209.747 1148.74 210.092 1148.11 210.138 1147.57C211.15 1147.04 211.429 1148.62 210.488 1149.04Z" fill="#00A6E3"/>
<path d="M246.051 1079.2C241.215 1080.35 243.531 1072.29 246.858 1075.54C247.622 1076.3 247.382 1078.32 246.051 1079.2Z" fill="#00A6E3"/>
<path d="M218.568 1112.67C219.124 1111.07 220.182 1111.09 221.109 1110.65C221.388 1110.19 222.443 1108.09 222.979 1108.48C221.768 1107.62 221.661 1105.46 223.197 1104.51C225.608 1104.73 225.077 1106.98 226.06 1108.6C226.729 1109.71 227.687 1110.43 227.769 1111.35C228.267 1116.69 220.66 1115.54 218.568 1112.67Z" fill="#00A6E3"/>
<path d="M184.338 1186.34C184.29 1185.28 185.17 1183.92 186.071 1183.73C186.696 1183.77 187.474 1184.3 188.183 1184.65C190.209 1187.17 185.722 1189.46 184.338 1186.34Z" fill="#00A6E3"/>
<path d="M230.408 1099.58C230.995 1099.41 232.081 1099.98 232.52 1100.5C232.718 1103.69 227.926 1101.81 230.408 1099.58Z" fill="#00A6E3"/>
<path d="M205.561 1149.98C204.712 1149.64 204.214 1149.18 204.482 1148.49C205.455 1147.16 207.339 1149.45 205.561 1149.98Z" fill="#00A6E3"/>
<path d="M240.663 1072.49C241.999 1073.61 242.008 1075.74 240.508 1077.04C236.609 1078.01 237.408 1071.9 240.663 1072.49Z" fill="#00A6E3"/>
<path d="M225.598 1097.8C225.729 1098.38 225.895 1098.11 226.618 1097.96C226.739 1097.63 226.117 1097.97 226.115 1097.52C228.465 1097.65 227.663 1102.51 225.173 1101.11C224.068 1100.48 224.156 1099.35 225.013 1097.86C225.275 1098.07 225.484 1098.07 225.598 1097.8Z" fill="#00A6E3"/>
<path d="M191.597 1157.89C190.641 1161.74 185.044 1159.38 186.035 1156.47C187.059 1153.53 192.452 1154.47 191.597 1157.89Z" fill="#00A6E3"/>
<path d="M198.118 1142.94C197.168 1146.15 193.61 1146.99 191.633 1144.37C188.652 1140.43 196.036 1135.42 198.238 1140.6C198.529 1141.28 198.506 1141.65 198.118 1142.94Z" fill="#00A6E3"/>
<path d="M223.386 1089.97C222.498 1089.76 222.637 1089.24 222.3 1088.85C222.871 1087.83 222.977 1087.45 223.799 1087.04C225.697 1087.69 224.524 1089.63 223.386 1089.97Z" fill="#00A6E3"/>
<path d="M216.863 1093.24C216.705 1092.71 217.123 1091.81 217.631 1091.41C221.216 1091.1 219.132 1095.85 216.863 1093.24Z" fill="#00A6E3"/>
<path d="M201.414 1127.06C201.537 1128.09 200.393 1128.44 199.846 1128.65C195.619 1127.3 200.736 1123.57 201.414 1127.06Z" fill="#00A6E3"/>
<path d="M248.825 1023.19C249.122 1021.22 251.153 1020.58 252.38 1021.35C255.223 1023.11 250.238 1027.04 248.825 1023.19Z" fill="#00A6E3"/>
<path d="M207.344 1099.39C208.167 1098.35 210.409 1097.83 211.173 1099.17C211.628 1098.49 212.62 1098.76 212.857 1099.49C211.645 1100.45 209.307 1103.67 207.524 1101.89C206.647 1101.03 208.115 1100.36 207.344 1099.39Z" fill="#00A6E3"/>
<path d="M214.489 1090.33C216.758 1087.17 211.221 1089.28 214.489 1090.33V1090.33Z" fill="#00A6E3"/>
<path d="M189.411 1120.59C185.971 1117.81 193.21 1114.15 193.104 1119.19C194.169 1118.87 194.751 1119.57 194.41 1120.24C193.875 1121.29 190.382 1120.55 189.411 1120.59Z" fill="#00A6E3"/>
<path d="M198.338 1102.1C198.465 1101.73 198.397 1101.43 198.728 1101C198.907 1100.93 199.164 1101.12 199.314 1100.94C200.354 1101.41 199.379 1103.08 198.338 1102.1Z" fill="#00A6E3"/>
<path d="M186.172 1121.13C186.668 1119.92 187.475 1119.46 188.184 1119.77C190.416 1120.71 187.095 1123.72 186.172 1121.13Z" fill="#00A6E3"/>
<path d="M227.068 1044.64C229.462 1048.17 223.015 1051.24 221.803 1047.26C221.089 1044.9 224.308 1042.01 227.068 1044.64Z" fill="#00A6E3"/>
<path d="M236.084 1025.24C235.96 1024.87 236.419 1024.32 236.626 1023.85C237.072 1023.73 238.089 1024 238.083 1024.61C238.038 1025.38 236.638 1026.07 236.084 1025.24Z" fill="#00A6E3"/>
<path d="M189.276 1095.69C190.302 1094.08 191.058 1093.24 189.928 1091.95C188.334 1093.84 184.618 1091.58 185.786 1089.6C184.323 1089.71 182.932 1088.77 181.619 1088.36C181.043 1088.18 180.436 1088.31 179.934 1088.03C177.915 1086.91 178.679 1084.44 178.122 1082.63C177.064 1081.99 176.746 1081.11 176.176 1080.31C176.358 1079.49 176.272 1078.75 176.738 1077.83C176.468 1076.86 175.286 1076.18 175.394 1075.09C178.244 1073.84 181.573 1073.54 182.913 1069.56C184.125 1069.48 185.579 1070.73 185.45 1071.81C188.949 1072.16 190.653 1074.62 191.6 1077.06C192.108 1078.38 191.948 1078.28 191.848 1079.79C191.744 1081.25 192.096 1082.84 191.548 1084.26C190.902 1085.95 189.886 1087.9 188.093 1088.38C188.121 1089.14 189.259 1089.43 189.978 1089.74C191.987 1088.61 193.081 1084.6 195.291 1084.18C200.298 1085.98 203.952 1090.8 200.174 1094.33C199.659 1094.81 198.42 1095.27 197.507 1095.53C197.119 1095.64 196.402 1095.48 195.955 1095.65C195.02 1096.01 194.074 1097.29 193.13 1097.51C191.857 1097.83 189.917 1097.18 189.276 1095.69Z" fill="#00A6E3"/>
<path d="M231.596 1025.32C236.952 1026.58 231.454 1031.16 230.021 1027.27C230.175 1026.3 230.867 1025.5 231.596 1025.32Z" fill="#00A6E3"/>
<path d="M230.201 1029.78C231.099 1031.73 230.151 1034.56 227.971 1035.1C226.189 1035.54 222.683 1033.79 222.516 1032.07C222.357 1030.48 224.321 1028.31 225.665 1028.16C227.207 1027.98 228.948 1028.95 230.201 1029.78Z" fill="#00A6E3"/>
<path d="M198.6 1083.51C198.823 1082.43 199.628 1081.17 200.344 1080.53C201.129 1080.38 202.559 1080.92 203.266 1081.68C204.064 1084.59 199.971 1086.43 198.6 1083.51Z" fill="#00A6E3"/>
<path d="M208.297 1067.44C204.554 1068.14 204.48 1062.13 207.646 1063.02C209.365 1063.51 210.331 1066.04 208.297 1067.44Z" fill="#00A6E3"/>
<path d="M226.717 1023.32C225.471 1023.84 224.475 1023.84 223.56 1023.34C221.256 1022.09 222.253 1018.26 224.748 1018.22C226.998 1018.18 229.06 1020.68 226.717 1023.32Z" fill="#00A6E3"/>
<path d="M192.855 1067.91C194.986 1066.63 198.376 1068.75 198.09 1071.01C197.481 1075.83 188.922 1072.79 192.855 1067.91Z" fill="#00A6E3"/>
<path d="M171.84 1101.41C172.18 1099.62 171.931 1096.68 174.008 1095.5C175.473 1096.14 177.062 1096.85 177.778 1098.2C179.726 1101.88 173.921 1105.54 171.84 1101.41Z" fill="#00A6E3"/>
<path d="M176.52 1094.21C176.103 1092.47 178.288 1091.06 178.693 1091.47C180.458 1092.55 178.904 1096.28 176.52 1094.21Z" fill="#00A6E3"/>
<path d="M190.816 1067.58C190.294 1067.62 189.027 1067.28 188.704 1066.66C187.918 1066.86 186.156 1066.81 185.717 1065.65C186.256 1063.87 187.216 1064.7 188.887 1064.9C190.809 1065.13 192.75 1065.37 190.816 1067.58Z" fill="#00A6E3"/>
<path d="M191.282 1061.7C190.688 1061.65 189.768 1061.17 189.391 1060.71C186.916 1063.69 181.484 1060.53 183.143 1057.08C184.065 1055.17 186.045 1055.56 187.233 1054.21C187.811 1054.57 188.315 1054.41 188.622 1054.76C190.176 1053.92 191.598 1052.61 193.29 1052.19C195.152 1053.97 197.058 1055.94 195.31 1058.25C194.78 1058.96 193.503 1059.19 192.791 1059.9C192.085 1060.59 192.255 1061.55 191.282 1061.7Z" fill="#00A6E3"/>
<path d="M187.901 1053.64C185.432 1054.56 181.679 1052.33 182.755 1049.66C184.769 1044.72 192.989 1049.52 187.901 1053.64Z" fill="#00A6E3"/>
<path d="M166.753 1089.86C162.242 1088.6 165.988 1082.81 169.102 1085.72C170.678 1087.16 168.774 1089.47 166.753 1089.86Z" fill="#00A6E3"/>
<path d="M158.409 1109.03C158.14 1109.22 157.876 1109.4 157.449 1109.08C157.411 1108.85 157.457 1108.59 157.687 1108.27C157.935 1108.43 158.089 1108.26 158.352 1108.44C158.412 1108.62 158.219 1108.89 158.409 1109.03Z" fill="#00A6E3"/>
<path d="M168.864 1083.35C168.192 1083.56 167.171 1082.87 166.607 1082.36C166.356 1081.48 167.108 1080.04 167.974 1079.74C170.168 1079.85 170.571 1082.4 168.864 1083.35Z" fill="#00A6E3"/>
<path d="M161.974 1090.14C161.12 1089.76 160.943 1089.17 161.416 1088.36C162.478 1088.25 162.907 1089.62 161.974 1090.14Z" fill="#00A6E3"/>
<path d="M181.696 1051.69C180.971 1053.71 177.66 1055.31 175.349 1053.56C172.971 1051.77 175.19 1046.46 178.336 1046.79C180.997 1047.06 182.564 1049.27 181.696 1051.69Z" fill="#00A6E3"/>
<path d="M184.311 1045.27C184.125 1045.45 183.905 1045.52 183.719 1045.7C183.144 1045.47 182.92 1045.14 183.143 1044.66C183.287 1044.74 183.348 1044.55 183.439 1044.45C183.952 1044.65 184.349 1044.9 184.311 1045.27Z" fill="#00A6E3"/>
<path d="M196.642 1017.06C195.959 1019.05 193.134 1020.63 190.957 1018.73C188.388 1016.49 192.269 1011.33 195.539 1013.16C196.613 1013.74 197.292 1015.16 196.642 1017.06Z" fill="#00A6E3"/>
<path d="M212.431 980.822C208.424 981.717 209.127 974.83 212.725 976.709C214.255 977.508 214.444 979.464 212.431 980.822Z" fill="#00A6E3"/>
<path d="M182.979 1029.39C182.502 1027.53 184.151 1025.76 185.898 1026.64C188.483 1027.97 186.463 1032.36 182.979 1029.39Z" fill="#00A6E3"/>
<path d="M160.893 1068.81C160.33 1068.45 159.269 1068.27 159.882 1067.55C158.535 1068.79 156.356 1068.41 154.896 1067.17C154.253 1064.62 157.536 1061.97 159.634 1064.83C159.614 1065.64 160.224 1066.27 159.889 1067.18C160.21 1067.3 160.265 1066.56 160.562 1066.6C161.045 1066.98 161.312 1066.68 161.806 1067.07C162.117 1067.76 161.636 1068.68 160.893 1068.81Z" fill="#00A6E3"/>
<path d="M208.069 973.908C205.616 973.667 204.679 970.978 206.752 969.704C209.538 969.435 210.722 973.187 208.069 973.908Z" fill="#00A6E3"/>
<path d="M144.867 1094.17C144.362 1094.13 143.876 1093.88 143.554 1093.49C143.688 1092.7 144.148 1092.13 144.826 1092.11C145.831 1092.51 145.629 1093.6 144.867 1094.17Z" fill="#00A6E3"/>
<path d="M199.703 982.138C199.97 981.198 200.672 981.618 201.044 980.982C203.313 981.878 200.308 984.179 199.703 982.138Z" fill="#00A6E3"/>
<path d="M136.234 1100.42C134.683 1100.8 133.149 1099.07 133.628 1097.95C134.57 1095.8 138.786 1098.36 136.234 1100.42Z" fill="#00A6E3"/>
<path d="M140.942 1087.86C140.368 1087.6 139.867 1087.3 139.561 1086.95C139.527 1086.21 139.677 1085.72 140.184 1085.05C142.164 1084.66 142.918 1087.68 140.942 1087.86Z" fill="#00A6E3"/>
<path d="M202.242 971.233C199.869 976.984 190.981 971.051 195.796 966.193C196.582 965.392 197.759 965.256 199.117 965.15C199.488 965.12 201.707 964.752 202.631 965.88C203.244 966.621 202.968 969.492 202.242 971.233Z" fill="#00A6E3"/>
<path d="M154.694 1058.72C154.484 1058.21 154.776 1057.93 155.229 1057.69C156.471 1058.01 155.66 1059.56 154.694 1058.72Z" fill="#00A6E3"/>
<path d="M185.996 996.662C185.517 999.19 181.699 996.827 182.495 995.202C183.313 993.562 186.307 995.008 185.996 996.662Z" fill="#00A6E3"/>
<path d="M151.431 1059.97C148.174 1059.76 148.086 1057.41 147.468 1055.49C147.038 1054.18 145.716 1052.83 146.66 1051.73C147.845 1051.95 151.519 1055.12 152.221 1056.67C152.703 1057.71 152.788 1059.09 151.431 1059.97Z" fill="#00A6E3"/>
<path d="M160.385 1031.85C167.332 1034.3 160.068 1040.5 157.388 1035.47C157.246 1035.22 157.32 1034.87 157.111 1034.59C156.424 1033.67 155.652 1033.63 155.453 1032.81C154.608 1029.34 159.789 1028.49 160.385 1031.85Z" fill="#00A6E3"/>
<path d="M185.133 991.59L184.11 991.055C183.852 990.315 184.343 989.374 185.099 989.162C186.643 989.456 186.068 991.262 185.133 991.59Z" fill="#00A6E3"/>
<path d="M206.036 948.382C205.41 948.345 204.648 947.814 203.924 947.463C203.485 946.588 203.226 945.65 204.047 944.38C206.599 942.593 209.504 947.284 206.036 948.382Z" fill="#00A6E3"/>
<path d="M117.391 1106.69C117.953 1104.76 119.683 1104.85 120.85 1106.09C121.227 1108.37 117.712 1108.85 117.391 1106.69Z" fill="#00A6E3"/>
<path d="M150.432 1046.3C148.934 1045.71 148.648 1044.25 149.604 1043.27C151.188 1043.39 152.062 1045.57 150.432 1046.3Z" fill="#00A6E3"/>
<path d="M160.471 1014.66L160.169 1015.24C159.528 1015.21 158.592 1014.73 159.159 1013.98C159.515 1013.87 160.353 1014.31 160.471 1014.66Z" fill="#00A6E3"/>
<path d="M158.191 1011.25C157.802 1014.59 153.151 1012.13 154.69 1009.79C155.709 1008.24 158.383 1009.57 158.191 1011.25Z" fill="#00A6E3"/>
<path d="M182.135 962.216C179.791 961.992 179.045 959.39 180.892 958.222C183.693 957.697 184.786 961.323 182.135 962.216Z" fill="#00A6E3"/>
<path d="M100.227 1097.36C98.826 1094.32 102.012 1090.11 105.174 1091.79C108.327 1093.46 107.315 1098.93 103.728 1098.82C103.519 1098.81 103.467 1098.54 103.149 1098.51C102.398 1098.46 101.271 1098.48 100.227 1097.36Z" fill="#00A6E3"/>
<path d="M185.058 942.794C184.848 943.724 183.819 943.529 183.512 942.908C183.722 941.977 184.746 942.183 185.058 942.794Z" fill="#00A6E3"/>
<path d="M169.763 952.223C168.701 956.724 162.434 955.043 162.879 951.22C163.088 949.433 164.788 948.043 166.742 948.788C166.8 948.12 166.503 947.557 166.635 946.875C167.798 946.061 167.932 943.84 169.198 943.027C170.554 943.38 171.168 942.279 172.52 941.984C174.237 942.828 174.684 944.063 176.139 944.981C176.489 946.099 176.635 946.675 177.193 947.572C176.766 951.839 172.91 953.05 169.763 952.223Z" fill="#00A6E3"/>
<path d="M181.391 938.101L181.089 938.68C180.501 938.597 180.838 937.522 181.391 938.101Z" fill="#00A6E3"/>
<path d="M96.804 1087.23C96.52 1085.91 96.2308 1083.72 97.8444 1082.77C100.286 1081.32 103.296 1085.44 101.58 1087.69C100.56 1089.01 98.8557 1088.9 96.804 1087.23Z" fill="#00A6E3"/>
<path d="M157.99 961.28C160.078 960.961 163.814 961.492 163.962 964.031C164.137 967.045 159.773 969.176 157.602 966.633C156.896 965.817 157.223 964.512 156.706 963.386C157.091 962.574 157.506 961.803 157.99 961.28Z" fill="#00A6E3"/>
<path d="M83.2951 1103.52C82.8894 1103.16 82.6883 1102.74 82.65 1102.26C83.7559 1100.82 85.2947 1103.45 83.2951 1103.52Z" fill="#00A6E3"/>
<path d="M164.937 938.035C167.306 938.035 169.096 940.577 167.429 942.484C165.298 944.926 161.448 940.004 164.937 938.035Z" fill="#00A6E3"/>
<path d="M159.683 948.444C158.853 948.195 158.483 947.87 157.867 947.311C158.168 944.19 162.622 947.478 159.683 948.444Z" fill="#00A6E3"/>
<path d="M75.5649 1100.23C76.1178 1098.22 77.9536 1096.52 80.0068 1098.1C80.799 1099.31 80.7996 1101.87 79.0523 1102.42C77.7355 1102.83 75.9128 1101.48 75.5649 1100.23Z" fill="#00A6E3"/>
<path d="M54.536 1081.27C54.5679 1080.65 54.9857 1080.05 55.663 1079.81C56.0657 1080.05 56.6573 1080.23 56.7555 1080.57C56.6234 1081.53 55.5565 1081.96 54.536 1081.27Z" fill="#00A6E3"/>
<path d="M250.305 1173.17C246.551 1173.61 243.327 1169.53 245.864 1167.14C246.75 1166.3 249.325 1166.18 250.85 1167.52C252.067 1168.59 252.127 1171.67 250.305 1173.17Z" fill="#00A6E3"/>
<path d="M133.033 1086.7C132.604 1087.35 133.854 1086.89 133.096 1087.29C134.038 1087.4 133.878 1087.6 134.636 1087.54C134.783 1087.73 134.742 1087.99 134.622 1088.27C134.887 1088.09 135.265 1088.22 135.504 1087.99C135.624 1088.59 136.156 1088.89 136.81 1089.04C137.677 1090.15 137.691 1091.97 135.72 1092.19C135.641 1093.12 134.996 1092.72 134.593 1093.64C133.39 1093.52 132.523 1095.31 131.21 1094.1C130.393 1094.83 129.434 1093.31 128.745 1092.44C129.149 1092.07 128.929 1092.11 129.199 1091.57C128.356 1092.05 129.417 1090.2 129.458 1089.67C129.555 1088.07 129.539 1085.18 133.033 1086.7Z" fill="#00A6E3"/>
<path d="M72.4912 1091.58C72.3577 1091.46 72.5391 1091.24 72.353 1091.14C72.01 1091.07 72.2576 1091.8 72.7049 1091.88C72.4068 1092.5 72.188 1095.08 70.8345 1094.05C70.7777 1094.31 71.2245 1094.41 70.8213 1094.78C67.8326 1094.73 67.4714 1092.2 65.008 1091.37C65.0508 1090.74 65.098 1090.72 64.7383 1090.13C65.2366 1089.98 65.0604 1088.75 65.4871 1089.4C66.3322 1087.38 69.2389 1089.95 70.4865 1089.05C70.5266 1089.42 71.0449 1089.62 71.5855 1089.44C72.0276 1090.38 72.6822 1089.96 72.4912 1091.58Z" fill="#00A6E3"/>
<path d="M52.0095 1107.39C50.9253 1105.88 50.104 1104.56 51.5102 1102.67C53.2591 1100.59 57.6487 1104.25 54.6698 1106.55C54.5913 1106.27 54.1297 1106.12 53.9396 1106.54C54.7835 1106.61 53.8687 1107 53.1272 1107.04C53.2176 1106.94 53.3475 1106.97 53.4232 1106.82C53.2717 1106.83 53.1044 1106.85 52.9134 1106.74C53.0451 1107.24 52.3608 1107.29 52.0095 1107.39Z" fill="#00A6E3"/>
<path d="M293.889 1147.2C287.923 1147.39 286.81 1140.8 290.309 1137.73C290.897 1137.21 292.387 1136.5 293.341 1136.54C296.187 1136.66 299.212 1139.93 298.748 1142.51C298.221 1145.38 295.75 1146.46 293.889 1147.2Z" fill="#00A6E3"/>
<path d="M210.959 1168.01C208.768 1165.1 211.13 1157.38 215.714 1160.67C217.306 1161.8 217.209 1164.28 215.552 1165.59C214.965 1166.06 214.01 1166.32 213.25 1166.8C212.375 1167.34 211.687 1168.12 210.959 1168.01Z" fill="#00A6E3"/>
<path d="M235.908 1120.61C235.113 1120.17 234.658 1119.62 235.206 1118.75C235.34 1118.82 235.412 1118.64 235.502 1118.54C236.007 1118.58 236.493 1118.83 236.815 1119.22C236.779 1119.77 236.426 1120.55 235.908 1120.61Z" fill="#00A6E3"/>
<path d="M224.271 1146.79C225.199 1149.42 222.593 1153.9 218.947 1152.72C216.846 1152.03 214.746 1151.32 212.818 1150.62C211.954 1146.43 215.876 1140.74 213.648 1136.97C211.305 1136.42 207.841 1136.7 206.501 1134.35C206.071 1133.59 206.175 1131 206.429 1130.23C206.777 1129.17 207.688 1128.1 208.387 1127.54C209.688 1126.54 211.298 1126.96 211.733 1125.4C211.701 1124.6 210.626 1124.32 210.289 1123.9C206.007 1123.54 201.774 1125.09 197.099 1122.2C197.026 1121.61 196.942 1121.04 197.358 1120.29C196.559 1119.46 197.093 1118.18 196.971 1117.13C196.679 1116.53 195.784 1116.13 195.602 1115.49C195.821 1114.4 196.335 1114.22 196.894 1113.02C194.708 1112.14 191.954 1112.68 190.117 1110.4C189.79 1109.99 188.472 1107 188.493 1106.41C188.501 1106.29 188.791 1105.81 188.796 1105.83C188.652 1105.12 187.64 1104.84 188.163 1104.19C189.656 1103.28 191.342 1102.95 192.766 1101.78C195.602 1103.1 201.619 1104.18 199.992 1108.15C200.729 1108.65 200.286 1109.25 200.996 1109.78C201.629 1110.26 203.594 1110.68 204.724 1110.81C205.484 1110.89 206.016 1110.57 206.559 1110.84C207.263 1111.18 207.198 1111.89 207.783 1112.4C208.43 1112.98 209.476 1113.14 209.82 1113.47C210.497 1114.09 210.497 1114.99 210.956 1115.55C211.676 1116.41 213.197 1117.43 214.513 1117.96C215.207 1118.24 217.165 1118.75 218.328 1118.47C219.46 1118.19 220.334 1116.31 222.102 1116.91C223.855 1117.51 226.193 1120.06 228.054 1120.76C228.634 1120.98 229.277 1120.63 229.895 1120.78C230.532 1121.6 230.907 1122.5 232.426 1123.04C233.339 1124.82 231.89 1127.34 231.647 1129.49C232.82 1131.03 235.679 1131.3 236.951 1132.82C238.204 1132.79 239.392 1132.58 240.974 1133.63C241.912 1135.44 239.481 1137.17 239.046 1138.73C238.744 1139.84 239.653 1140.09 239.666 1141.1C238.784 1142.25 237.962 1141.84 237.427 1142.89C236.723 1144.31 238.374 1148.2 235.215 1147.47C233.802 1147.16 234.035 1145.8 232.534 1145.15C231.12 1144.53 229.993 1146.01 228.546 1146.41C226.905 1146.86 225.546 1145.83 224.271 1146.79Z" fill="#00A6E3"/>
<path d="M259.193 1043.07L259.917 1043.45C259.983 1043.27 259.713 1043.18 259.558 1043.07C262.666 1042.04 263.046 1046.15 260.43 1047.43C257.718 1047.91 257.186 1044.44 259.193 1043.07Z" fill="#00A6E3"/>
<path d="M247.536 960.427C248.329 962.434 246.436 965.303 244.582 965.375C240.145 965.532 240.234 959.14 244.111 958.822C245.234 958.737 246.246 959.345 247.536 960.427Z" fill="#00A6E3"/>
<path d="M171.987 1011.41C172.208 1011.62 171.844 1011.53 171.691 1011.62C172.406 1012.5 172.711 1013.5 173.62 1014.3C173.935 1013.9 174.502 1014.28 174.798 1013.81C174.51 1013.26 174.942 1012.48 174.461 1011.97C174.155 1011.82 172.32 1011.48 171.987 1011.41ZM183.162 1015.21C182.076 1015.55 182.893 1016.83 182.009 1018.12C181.759 1018.1 181.538 1018.17 181.347 1018.33C180.282 1017.82 179.816 1017.05 179.683 1016.91C179.022 1019.38 176.88 1021.29 174.893 1021.82C174.3 1023.48 171.837 1024.92 171.499 1026.9C175.772 1029.23 177.109 1033.22 175.872 1036.97C175.79 1037.2 175.628 1037.49 175.494 1037.69C172.94 1041.6 165.335 1037.72 164.77 1033.76C164.608 1032.64 165.918 1031.41 166.014 1029.59C162.43 1029 158.98 1028.17 158.097 1024.52C157.942 1023.86 157.502 1019.59 157.831 1019.01C158.273 1018.24 160.238 1018.03 160.869 1017.45C162.116 1016.33 162.344 1014.96 163.795 1014.35C164.645 1014.36 165.545 1014.5 166.505 1014.83C167.541 1014.08 167.915 1013.26 168.757 1012.3C169.494 1012.25 169.769 1012.89 170.287 1012.55C169.917 1011.32 168.955 1012.05 168.477 1011.05C168.806 1009.89 169.672 1010.48 170.193 1009.91C170.281 1008.25 169.591 1006.85 168.802 1005.47C167.839 1005.04 166.598 1005.58 165.815 1004.46C166.422 1002.64 168.114 1004.29 168.992 1003.34C169.408 1001.39 169.137 999.638 168.21 998.114C168.747 997.262 169.051 998.04 169.544 997.323C171.256 997.875 172.993 997.874 174.467 997.117C175.542 996.572 175.911 995.739 177.493 996.288C181.2 997.58 183.512 1001.87 181.521 1005.25C181.867 1006 181.206 1007.06 181.259 1007.89C181.435 1007.96 181.501 1008.06 181.473 1008.19C183.365 1009.46 185.179 1008.38 186.66 1009.6C187.53 1008.79 189.713 1009.24 190.463 1010.48C190.632 1012.67 187.925 1013.52 186.751 1012.62C186.539 1013.38 186.081 1013.32 185.707 1013.56C186.562 1014.75 188.226 1015.89 188.646 1017.51C187.511 1019.1 185.086 1019.31 183.653 1017.49C183.405 1016.76 183.919 1015.77 183.162 1015.21Z" fill="#00A6E3"/>
<path d="M178.955 939.237C179.735 939.684 180.436 940.156 179.878 941.023C181.148 942.068 180.848 943.675 179.893 944.546C178.238 946.051 175.247 942.961 175.99 941.388C176.565 940.135 178.198 940.435 178.955 939.237Z" fill="#00A6E3"/>
<path d="M84.4341 1093.56C83.0141 1094.76 83.7546 1095.94 82.5319 1097.2C80.4816 1097.77 79.2395 1096.93 78.0079 1095.2C78.0909 1094.94 78.272 1095.02 78.3796 1094.84C77.4925 1094.27 76.3363 1094.45 75.5373 1093.91C73.9594 1092.88 74.2999 1091.07 74.3768 1089.41C75.5445 1086.57 78.3011 1087.92 80.2631 1088.77C80.3968 1088.01 80.737 1087.66 81.1763 1087.02C85.2249 1085.87 89.5266 1091.52 85.1631 1093.92C84.6592 1093.81 84.8246 1093.89 84.4341 1093.56Z" fill="#00A6E3"/>
<path d="M67.1169 1108.97C66.2669 1108.08 65.6209 1105.71 66.3934 1103.96C66.6002 1103.49 66.7 1104.03 66.7585 1103.97C67.2216 1103.46 68.3322 1101.76 69.2264 1101.36C70.1624 1100.95 71.4314 1101.47 72.2254 1101.99C75.1512 1100.9 77.5762 1104.72 76.0182 1107.5C75.1987 1108.97 72.7576 1109.51 71.129 1110.13C69.8471 1110.62 68.6179 1113.4 66.8318 1112.34C65.7478 1111.69 65.7456 1109.51 67.1169 1108.97Z" fill="#00A6E3"/>
</g>
<defs>
<clipPath id="clip0_1214_44618">
<rect width="313.793" height="366.959" fill="white" transform="translate(1141 261.815) rotate(135.518)"/>
</clipPath>
<clipPath id="clip1_1214_44618">
<rect width="313.793" height="366.959" fill="white" transform="translate(470.777 1076.74) rotate(117.585)"/>
</clipPath>
</defs>
</svg>
