<svg width="1069" height="1280" viewBox="0 0 1069 1280" fill="none" xmlns="http://www.w3.org/2000/svg">
<g clip-path="url(#clip0_1292_45323)">
<mask id="mask0_1292_45323" style="mask-type:luminance" maskUnits="userSpaceOnUse" x="659" y="0" width="482" height="482">
<path d="M917.118 481.685L1141 261.814L883.877 -2.92762e-05L659.995 219.87L917.118 481.685Z" fill="white"/>
</mask>
<g mask="url(#mask0_1292_45323)">
<path d="M974.124 424.508C972.361 423.412 971.166 421.446 971.962 420.191C974.784 415.654 979.821 424.08 974.124 424.508Z" fill="#0DD180"/>
<path d="M933.02 435.648C930.875 439.194 926.236 434.187 928.987 432.008C930.707 430.662 934.478 433.252 933.02 435.648Z" fill="#0DD180"/>
<path d="M904.983 453.75C907.023 453.546 909.717 456.539 907.262 457.953C905.479 458.985 902.078 455.606 904.983 453.75Z" fill="#0DD180"/>
<path d="M910.649 444.047C913.893 443.935 913.51 448.659 910.369 448.458C908.077 447.457 908.504 445.01 910.649 444.047Z" fill="#0DD180"/>
<path d="M997.872 355.154C998.24 354.596 998.365 354.473 998.929 354.115C999.59 354.055 1000.24 354.671 1000.89 355.411C1000.89 357.581 997.87 357.15 997.872 355.154Z" fill="#0DD180"/>
<path d="M911.272 439.286C910.516 438.916 910.307 438.304 910.124 437.651C911.522 435.477 913.71 438.738 911.272 439.286Z" fill="#0DD180"/>
<path d="M904.49 432.149C904.053 429.472 904.376 426.802 905.144 424.136C902.483 421.91 901.033 419.018 903.11 417.386C904.739 416.113 907.407 417.646 908.664 419.992C909.164 420.302 909.671 419.951 910.17 420.36C912.495 423.177 916.097 427.894 914.024 430.846C911.7 434.142 907.452 433.066 904.49 432.149Z" fill="#0DD180"/>
<path d="M966.184 379.146C964.316 382.24 961.033 377.698 963.77 376.221C965.378 375.36 967.14 377.554 966.184 379.146Z" fill="#0DD180"/>
<path d="M892.136 436.221C893.147 434.853 894.193 435.117 894.812 435.898C896.403 437.884 892.373 439.144 892.136 436.221Z" fill="#0DD180"/>
<path d="M901.148 428.745C899.897 428.42 898.766 426.719 900.252 425.717C901.748 425.475 903.407 428.08 901.148 428.745Z" fill="#0DD180"/>
<path d="M917.334 411.933C916.612 411.58 915.508 410.523 915.729 409.832C917.829 406.641 920.673 411.286 917.334 411.933Z" fill="#0DD180"/>
<path d="M881.839 431.834C882.692 433.285 884.484 433.944 884.938 435.689C886.032 436.02 886.974 435.863 887.83 436.984C890.095 439.958 883.514 443.332 882.594 438.448C882.134 438.18 881.662 438.382 881.204 437.966C879.424 438.701 877.689 439.816 875.856 439.082C871.533 437.345 872.452 430.803 877.097 430.736C879.167 431.678 879.983 431.842 881.839 431.834Z" fill="#0DD180"/>
<path d="M895.872 421.274L896.455 420.701C898.318 420.85 896.481 423.193 895.872 421.274Z" fill="#0DD180"/>
<path d="M1001.03 303.495C1003.86 302.844 1006.71 307.076 1005.04 308.992C1002.67 311.718 996.357 306.193 1001.03 303.495Z" fill="#0DD180"/>
<path d="M882.12 427.422C880.45 426.871 879.636 424.827 879.483 423.571C880.759 421.239 883.341 422.087 884.591 424.309C884.827 425.483 883.483 427.244 882.12 427.422Z" fill="#0DD180"/>
<path d="M915.675 390.089C914.033 393.663 909.14 389.298 910.817 387.258C912.327 385.432 916.753 387.739 915.675 390.089Z" fill="#0DD180"/>
<path d="M892.285 407.76C895.7 408.739 892.845 412.344 891.096 410.53C890.205 409.623 890.772 408.201 892.285 407.76Z" fill="#0DD180"/>
<path d="M943.748 356.534C942.935 357.889 940.666 358.793 939.434 358.237C937.585 357.421 936.157 354.884 936.454 353.105C936.89 350.551 940.123 348.896 942.285 350.598C944.12 352.05 944.494 355.279 943.748 356.534Z" fill="#0DD180"/>
<path d="M880.172 411.615C877.142 409.245 878.199 406.507 876.994 403.915C877.345 403.39 877.78 402.734 878.401 402.533C880.061 404.107 883.244 405.1 884.275 407.815C884.492 408.402 884.295 409.184 884.486 409.912C885.037 411.905 886.312 414.919 883.161 414.891C881.668 414.87 880.233 413.043 880.172 411.615Z" fill="#0DD180"/>
<path d="M1037.66 261.082C1037.22 261.894 1036.45 262.655 1035.79 262.921C1035.19 263.172 1033.29 263.287 1032.09 262.196C1029.97 260.297 1031.71 256.632 1034.92 256.875C1036.51 256.996 1038.89 258.848 1037.66 261.082Z" fill="#0DD180"/>
<path d="M942.836 342.017C940.966 341.678 938.435 340.617 937.754 338.491C936.96 336.001 940.012 333.445 942.329 333.54C945.854 335.946 945.477 339.276 942.836 342.017Z" fill="#0DD180"/>
<path d="M921.118 354.827C922.344 355.143 922.303 357.749 921.314 358.541C920.151 359.471 917.748 357.957 916.802 356.761C913.605 352.74 920.814 349.437 921.118 354.827Z" fill="#0DD180"/>
<path d="M914.133 357.323C913.806 356.924 913.97 356.191 914.605 356.172C915.31 356.689 914.726 357.443 914.133 357.323Z" fill="#0DD180"/>
<path d="M973.438 298.378C972.835 299.362 970.627 299.896 969.247 299.273C963.916 296.842 967.754 287.76 972.664 293.842C973.634 295.046 974.201 297.139 973.438 298.378Z" fill="#0DD180"/>
<path d="M981.725 281.268C986.061 283.451 982.776 287.984 979.489 283.921C979.262 282.674 980.42 281.438 981.725 281.268Z" fill="#0DD180"/>
<path d="M953.637 304.714C956.743 299.849 962.983 308.335 957.431 309.277C955.059 309.677 952.979 307.142 953.637 304.714Z" fill="#0DD180"/>
<path d="M1011.28 250.176C1010.49 252.817 1006.92 250.666 1007.69 249.097C1008.44 247.577 1011.92 248.07 1011.28 250.176Z" fill="#0DD180"/>
<path d="M1012.94 247.164C1012.34 246.82 1012.21 246.472 1012.13 245.878C1012.84 245.084 1013.54 245.024 1014.23 245.665C1014.5 246.303 1013.57 247.161 1012.94 247.164Z" fill="#0DD180"/>
<path d="M1017.2 238.613C1015.19 242.06 1010.01 239.787 1010.72 236.229C1011.02 234.763 1012.91 232.544 1014.58 232.897C1015.68 233.13 1017.35 235.339 1017.57 235.943C1017.81 236.58 1017.77 237.628 1017.2 238.613Z" fill="#0DD180"/>
<path d="M1017.27 230.941C1015.98 232.753 1012.02 233.023 1012.06 229.616C1012.1 225.277 1020.64 226.243 1017.27 230.941Z" fill="#0DD180"/>
<path d="M945.614 293.729C944.823 293.59 943.966 292.601 943.775 291.857C945.22 288.215 949.143 292.976 945.614 293.729Z" fill="#0DD180"/>
<path d="M975.277 263.209C972.652 266.931 968.382 262.117 969.86 259.325C972.019 255.244 977.877 259.528 975.277 263.209Z" fill="#0DD180"/>
<path d="M955.635 277.202C957.031 273.51 962.233 277.424 959.222 279.205C958.259 279.774 956.065 278.855 955.635 277.202Z" fill="#0DD180"/>
<path d="M902.532 330.04L902.074 329.574C902.069 329.252 902.577 328.753 902.898 328.764C903.504 329.281 903.053 329.855 902.532 330.04Z" fill="#0DD180"/>
<path d="M916.61 314.612C912.671 314.115 911.259 307.248 915.538 305.775C916.92 305.301 919.735 305.952 920.855 307.909C922.073 310.032 919.528 313.986 916.61 314.612Z" fill="#0DD180"/>
<path d="M905.358 326.119C902.442 325.648 901.266 321.653 904.605 320.189C907.997 320.029 909.234 325.337 905.358 326.119Z" fill="#0DD180"/>
<path d="M1009.4 216.591C1008.39 218.249 1005.9 218.945 1004.51 217.943C1001.84 216.022 1002.78 211.839 1005.85 211.099C1008.82 210.391 1010.74 214.368 1009.4 216.591Z" fill="#0DD180"/>
<path d="M992.027 210.63C992.283 209.741 993.017 208.857 994.032 207.975C995.204 207.935 996.484 207.773 997.39 208.812C1000.34 212.221 993.389 215.831 992.027 210.63Z" fill="#0DD180"/>
<path d="M927.262 280.905C926.478 281.022 925.21 279.831 925.655 279.035C926.668 277.435 929.5 279.786 927.262 280.905Z" fill="#0DD180"/>
<path d="M909.696 297.011C908.592 296.869 906.892 295.188 907.05 294.084C908.804 290.09 913.615 296.088 909.696 297.011Z" fill="#0DD180"/>
<path d="M898.434 296.336C897.536 297.97 895.524 298.67 894.808 298.507C892.388 297.958 891.901 295.33 892.057 294.54C892.965 290.002 900.582 292.412 898.434 296.336Z" fill="#0DD180"/>
<path d="M931.14 251.793C929.926 250.974 929.091 249.374 928.496 248.635C925.215 247.542 925.634 252.982 922.643 253.467C920.544 253.812 919.162 250.789 919.888 249.03C920.723 247.049 923.709 246.192 923.77 244.073C922.976 243.397 923.019 242.325 922.044 241.616C922.521 238.254 921.926 234.883 922.254 231.52C919.425 229.705 922.967 227.632 924.121 230.373C926.571 230.336 928.713 230.685 931.547 231.139C934.142 231.549 936.676 231.415 938.481 235.151C939.339 236.908 941.261 242.196 941.193 243.309C941.144 244.109 940.344 244.993 940.014 245.857C940.177 247.805 939.006 251.309 936.243 252.093C936.015 252.727 937.556 253.813 937.728 254.788C937.94 255.969 936.627 257.83 935.261 258.371C932.173 259.54 926.372 255.266 931.14 251.793Z" fill="#0DD180"/>
<path d="M902.676 289.864C902.059 289.619 901.3 288.812 901.297 288.226C902.426 285.679 905.626 289.304 902.676 289.864Z" fill="#0DD180"/>
<path d="M950.771 225.598C947.921 224.162 947.746 220.003 948.986 217.918C950.587 215.235 954.224 216.24 955.715 219.14C956.679 221.005 955.701 223.274 955.43 224.946C959.529 227.671 960.814 234.043 955.783 236.565C954.142 237.392 950.812 237.099 949.292 234.652C947.723 232.105 950.15 228.464 950.771 225.598Z" fill="#0DD180"/>
<path d="M872.639 310.159C871.259 313.901 864.442 313.305 864.982 309.391C865.654 304.546 874.336 305.158 872.639 310.159Z" fill="#0DD180"/>
<path d="M980.774 196.591C981.537 195.253 982.842 195.149 983.92 195.348C989.415 199.711 980.586 201.729 980.774 196.591Z" fill="#0DD180"/>
<path d="M903.1 270.125C901.467 270.928 898.826 271.969 897.636 270.424C896.201 268.547 899.786 266.334 901.626 266.276C902.094 263.855 905.418 263.109 906.881 263.649C912.932 265.93 907.935 274.515 903.1 270.125Z" fill="#0DD180"/>
<path d="M840.709 334.39C839.227 336.795 835.256 336.166 835.266 333.295C835.261 328.51 843.239 330.304 840.709 334.39Z" fill="#0DD180"/>
<path d="M919.138 255.976C918.355 255.961 917.384 255.606 916.947 254.678C916.716 251.129 922.245 253.71 919.138 255.976Z" fill="#0DD180"/>
<path d="M881.868 267.044C883.03 267.211 884.201 265.538 885.373 265.449C889.415 267.316 892.063 272.545 890.036 275.827C890.181 277.14 890.657 278.258 890.58 279.429C890.379 282.372 887.868 287.16 884.47 287.048C882.367 286.972 880.887 284.731 879.168 283.281C878.333 282.58 876.609 281.674 876.175 280.466C875.941 279.812 876.501 277.35 876.328 276.408C876.061 274.921 875.27 273.033 874.75 271.288C874.223 269.501 873.483 267.432 874.105 266.167C875.762 262.791 879.52 263.253 881.868 267.044Z" fill="#0DD180"/>
<path d="M856.594 312.576C855.625 313.887 854.128 314.345 852.863 313.706C849.645 312.078 851.457 307.061 854.782 307.915C856.889 308.462 857.923 310.748 856.594 312.576Z" fill="#0DD180"/>
<path d="M1006.42 162.907C1005.49 166.15 999.244 163.117 1001.33 160.545C1002.59 158.963 1007.01 160.801 1006.42 162.907Z" fill="#0DD180"/>
<path d="M939.614 226.894C936.772 231.711 931.372 225.097 934.312 222.194C937.109 219.447 941.265 224.095 939.614 226.894Z" fill="#0DD180"/>
<path d="M917.126 247.833L916.432 247.125C916.387 246.696 916.746 246.278 917.261 245.854C918.499 245.815 918.415 247.58 917.126 247.833Z" fill="#0DD180"/>
<path d="M936.899 219.9C936.783 218.199 938.614 216.433 940.056 217.485C942.359 219.18 939.008 222.863 936.899 219.9Z" fill="#0DD180"/>
<path d="M929.102 220.657C928.419 220.494 927.548 219.29 926.91 218.658C927.257 211.582 936.629 216.812 931.766 220.787C932.182 222.177 931.384 224.562 929.755 224.136C928.216 223.734 928.597 221.807 929.102 220.657Z" fill="#0DD180"/>
<path d="M910.114 226.637C912.59 228.275 909.373 230.013 908.588 228.364C908.216 227.569 909.164 226.785 910.114 226.637Z" fill="#0DD180"/>
<path d="M917.755 216.596L917.406 216.94C915.964 216.688 917.53 215.151 917.755 216.596Z" fill="#0DD180"/>
<path d="M901.014 206.345C901.759 205.171 899.406 204.491 899.294 203.195C899.444 203.08 899.478 202.965 899.413 202.849C901.106 201.791 902.822 201.741 904.206 200.218C904.673 199.694 904.019 199.029 904.92 198.83C904.806 198.714 904.689 198.878 904.572 198.943C906.087 195.821 910.339 196.271 912.937 199.016C913.02 199.866 911.201 201.179 910.948 200.038C910.795 201.348 909.925 202.661 910.441 203.985C911.2 203.975 910.587 203.302 910.797 202.949C912.825 201.35 914.843 201.673 916.854 201.839C916.988 201.609 916.595 201.374 917.092 201.148C919.495 200.897 921.912 199.078 924.311 198.423C927.01 200.088 929.698 203.774 927.485 206.585C926.392 207.969 924.54 209.265 922.701 209.207C921.085 208.179 919.224 208.682 917.963 206.732C916.662 208.272 913.594 208.228 911.573 207.254C910.791 207.956 910.015 208.032 909.238 208.157C908.628 209.002 908.566 208.622 908.189 209.188C906.895 209.036 906.894 207.469 907.52 206.624C906.98 206.141 906.443 206.244 905.906 205.447C904.494 205.525 902.557 205.368 901.014 206.345Z" fill="#0DD180"/>
<path d="M910.627 221.997L909.59 220.94C909.374 219.337 911.52 218.309 912.615 220.273C912.573 221.213 911.533 222.203 910.627 221.997Z" fill="#0DD180"/>
<path d="M823.492 300.67C823.534 299.664 825.066 298.159 826.073 298.135C828.462 298.453 829.554 301.68 827.536 303.139C826.049 304.207 823.894 302.612 823.492 300.67Z" fill="#0DD180"/>
<path d="M963.069 164.971C962.047 163.98 963.604 162.418 964.595 163.244C964.884 164.038 964.063 165.434 963.069 164.971Z" fill="#0DD180"/>
<path d="M871.1 250.45C870.486 249.941 871.011 249.442 871.221 248.941C872.345 248.753 872.124 250.343 871.1 250.45Z" fill="#0DD180"/>
<path d="M926.44 194.959C921.486 194.561 926.17 187.606 928.335 191.725C928.829 192.678 927.979 194.527 926.44 194.959Z" fill="#0DD180"/>
<path d="M889.987 218.333C891.006 216.989 892.009 217.328 893.025 217.197C893.433 216.846 895.082 215.177 895.473 215.709C894.585 214.521 895.149 212.431 896.902 212C899.128 212.952 897.93 214.93 898.367 216.773C898.66 218.038 899.352 219.009 899.146 219.915C897.975 225.152 891.094 221.709 889.987 218.333Z" fill="#0DD180"/>
<path d="M834.734 277.892C835.016 276.864 836.271 275.843 837.186 275.942C837.77 276.17 838.349 276.909 838.913 277.467C840.064 280.488 835.09 281.286 834.734 277.892Z" fill="#0DD180"/>
<path d="M905.282 209.525C905.892 209.547 906.75 210.42 907.008 211.05C906.212 214.153 902.233 210.884 905.282 209.525Z" fill="#0DD180"/>
<path d="M866.123 249.83C865.419 249.246 865.086 248.657 865.554 248.084C866.891 247.114 867.979 249.871 866.123 249.83Z" fill="#0DD180"/>
<path d="M923.38 186.914C924.307 188.391 923.661 190.415 921.83 191.199C917.824 190.916 920.466 185.346 923.38 186.914Z" fill="#0DD180"/>
<path d="M901.253 206.354C901.198 206.948 901.439 206.744 902.173 206.824C902.39 206.546 901.696 206.672 901.832 206.244C904.027 207.096 901.767 211.474 899.831 209.37C898.974 208.43 899.404 207.386 900.677 206.234C900.864 206.508 901.062 206.575 901.253 206.354Z" fill="#0DD180"/>
<path d="M850.403 253.057C848.309 256.421 843.71 252.454 845.548 249.995C847.427 247.512 852.27 250.062 850.403 253.057Z" fill="#0DD180"/>
<path d="M861.209 240.843C859.319 243.598 855.675 243.302 854.598 240.207C852.975 235.54 861.546 233.041 862.046 238.647C862.113 239.382 861.978 239.727 861.209 240.843Z" fill="#0DD180"/>
<path d="M901.56 198.223C900.781 197.746 901.074 197.296 900.872 196.824C901.729 196.031 901.947 195.703 902.855 195.562C904.461 196.765 902.748 198.25 901.56 198.223Z" fill="#0DD180"/>
<path d="M894.348 199.323C894.362 198.77 895.037 198.042 895.641 197.824C899.148 198.63 895.705 202.502 894.348 199.323Z" fill="#0DD180"/>
<path d="M869.234 226.748C869.035 227.761 867.839 227.742 867.253 227.778C863.647 225.189 869.663 223.221 869.234 226.748Z" fill="#0DD180"/>
<path d="M946.323 142.526C947.215 140.735 949.343 140.754 950.273 141.867C952.435 144.419 946.483 146.619 946.323 142.526Z" fill="#0DD180"/>
<path d="M883.398 202.247C884.503 201.506 886.794 201.707 887.11 203.211C887.75 202.714 888.611 203.274 888.612 204.041C887.163 204.581 883.949 206.921 882.798 204.683C882.231 203.589 883.833 203.406 883.398 202.247Z" fill="#0DD180"/>
<path d="M892.986 195.82C896.118 193.513 890.2 193.816 892.986 195.82Z" fill="#0DD180"/>
<path d="M859.806 216.897C857.39 213.189 865.404 211.939 863.751 216.701C864.865 216.719 865.203 217.563 864.67 218.103C863.837 218.937 860.744 217.153 859.806 216.897Z" fill="#0DD180"/>
<path d="M873.994 202.049C874.228 201.737 874.255 201.432 874.704 201.123C874.893 201.116 875.081 201.374 875.28 201.243C876.122 202.018 874.683 203.301 873.994 202.049Z" fill="#0DD180"/>
<path d="M856.561 216.408C857.404 215.417 858.313 215.227 858.894 215.735C860.727 217.319 856.643 219.156 856.561 216.408Z" fill="#0DD180"/>
<path d="M919.021 156.228C920.212 160.322 913.134 161.259 913.205 157.101C913.253 154.635 917.205 152.88 919.021 156.228Z" fill="#0DD180"/>
<path d="M933.572 140.548C933.567 140.161 934.173 139.778 934.515 139.393C934.976 139.414 935.862 139.983 935.667 140.567C935.388 141.282 933.843 141.508 933.572 140.548Z" fill="#0DD180"/>
<path d="M867.345 193.163C868.817 191.947 869.796 191.378 869.117 189.804C867.018 191.114 864.178 187.822 865.9 186.295C864.476 185.944 863.44 184.623 862.318 183.83C861.826 183.479 861.208 183.416 860.816 183C859.239 181.311 860.727 179.196 860.753 177.307C859.945 176.368 859.913 175.435 859.616 174.5C860.044 173.77 860.191 173.037 860.915 172.309C860.958 171.303 860.043 170.288 860.482 169.286C863.578 168.974 866.838 169.713 869.336 166.344C870.513 166.643 871.513 168.277 871.058 169.263C874.279 170.677 875.143 173.539 875.292 176.155C875.37 177.567 875.247 177.425 874.69 178.823C874.141 180.179 873.985 181.803 873.025 182.991C871.89 184.4 870.325 185.937 868.47 185.847C868.265 186.571 869.257 187.199 869.846 187.715C872.103 187.265 874.379 183.787 876.612 184.062C880.822 187.316 882.815 193.026 878.133 195.221C877.495 195.521 876.175 195.575 875.226 195.542C874.822 195.53 874.191 195.153 873.712 195.182C872.713 195.231 871.418 196.16 870.453 196.078C869.142 195.992 867.495 194.781 867.345 193.163Z" fill="#0DD180"/>
<path d="M929.278 139.239C933.987 142.085 927.346 144.75 927.178 140.615C927.624 139.736 928.528 139.191 929.278 139.239Z" fill="#0DD180"/>
<path d="M926.578 143.053C926.83 145.192 925.059 147.585 922.816 147.434C920.986 147.302 918.19 144.555 918.561 142.867C918.897 141.311 921.435 139.848 922.761 140.116C924.284 140.418 925.64 141.882 926.578 143.053Z" fill="#0DD180"/>
<path d="M879.967 184.446C880.512 183.486 881.668 182.531 882.546 182.143C883.337 182.248 884.532 183.199 884.969 184.144C884.834 187.154 880.374 187.643 879.967 184.446Z" fill="#0DD180"/>
<path d="M894.139 172.146C890.365 171.651 892.143 165.917 894.881 167.739C896.365 168.734 896.505 171.441 894.139 172.146Z" fill="#0DD180"/>
<path d="M925.251 135.84C923.905 135.952 922.959 135.638 922.24 134.89C920.435 132.985 922.561 129.654 924.947 130.384C927.102 131.03 928.295 134.043 925.251 135.84Z" fill="#0DD180"/>
<path d="M879.305 167.834C881.728 167.27 884.298 170.337 883.33 172.399C881.267 176.794 874.059 171.27 879.305 167.834Z" fill="#0DD180"/>
<path d="M848.997 193.232C849.87 191.64 850.54 188.758 852.879 188.275C854.074 189.342 855.366 190.508 855.633 192.012C856.354 196.11 849.705 197.801 848.997 193.232Z" fill="#0DD180"/>
<path d="M855.664 187.831C855.804 186.042 858.318 185.371 858.577 185.885C859.924 187.456 857.297 190.527 855.664 187.831Z" fill="#0DD180"/>
<path d="M877.465 166.894C876.955 166.774 875.856 166.055 875.739 165.369C874.931 165.312 873.27 164.72 873.207 163.491C874.269 161.957 874.927 163.044 876.455 163.75C878.213 164.557 879.988 165.382 877.465 166.894Z" fill="#0DD180"/>
<path d="M879.72 161.445C879.17 161.217 878.443 160.476 878.225 159.922C874.955 161.989 870.758 157.315 873.4 154.542C874.866 153.004 876.63 153.984 878.173 153.074C878.614 153.589 879.142 153.594 879.328 154.016C881.063 153.702 882.82 152.892 884.559 153.014C885.784 155.277 886.99 157.738 884.615 159.4C883.893 159.914 882.607 159.737 881.712 160.192C880.825 160.638 880.693 161.602 879.72 161.445Z" fill="#0DD180"/>
<path d="M878.985 152.734C876.352 152.852 873.471 149.568 875.314 147.365C878.752 143.286 885.095 150.379 878.985 152.734Z" fill="#0DD180"/>
<path d="M847.713 180.683C843.81 178.092 849.155 173.741 851.224 177.464C852.279 179.321 849.756 180.932 847.713 180.683Z" fill="#0DD180"/>
<path d="M833.871 196.352C833.556 196.449 833.25 196.537 832.941 196.105C832.976 195.874 833.102 195.636 833.418 195.408C833.605 195.632 833.804 195.518 834 195.768C833.998 195.966 833.732 196.161 833.871 196.352Z" fill="#0DD180"/>
<path d="M851.724 175.14C851.023 175.126 850.265 174.154 849.883 173.499C849.917 172.584 851.074 171.447 851.99 171.43C854.045 172.207 853.642 174.761 851.724 175.14Z" fill="#0DD180"/>
<path d="M843.078 179.48C842.383 178.855 842.397 178.236 843.096 177.615C844.141 177.831 844.128 179.266 843.078 179.48Z" fill="#0DD180"/>
<path d="M873.681 148.966C872.37 150.663 868.727 151.167 867.067 148.793C865.357 146.352 869.102 141.988 871.994 143.267C874.442 144.345 875.251 146.934 873.681 148.966Z" fill="#0DD180"/>
<path d="M878.144 143.668C877.912 143.781 877.681 143.779 877.449 143.893C876.974 143.493 876.862 143.112 877.221 142.727C877.335 142.844 877.452 142.68 877.568 142.615C877.994 142.965 878.296 143.323 878.144 143.668Z" fill="#0DD180"/>
<path d="M898.564 120.624C897.302 122.304 894.128 122.936 892.642 120.457C890.887 117.537 896.169 113.822 898.717 116.566C899.558 117.456 899.767 119.018 898.564 120.624Z" fill="#0DD180"/>
<path d="M924.746 91.0058C920.657 90.6235 923.447 84.2873 926.291 87.1832C927.501 88.4147 927.078 90.3332 924.746 91.0058Z" fill="#0DD180"/>
<path d="M881.771 128.141C881.888 126.228 884.002 125.05 885.391 126.432C887.443 128.488 884.169 132.048 881.771 128.141Z" fill="#0DD180"/>
<path d="M848.617 158.852C848.193 158.337 847.24 157.834 848.045 157.338C846.38 158.107 844.426 157.067 843.418 155.441C843.591 152.819 847.532 151.303 848.648 154.67C848.376 155.443 848.765 156.222 848.164 156.992C848.434 157.201 848.713 156.519 848.984 156.645C849.326 157.159 849.674 156.948 850.024 157.471C850.108 158.222 849.367 158.95 848.617 158.852Z" fill="#0DD180"/>
<path d="M922.724 83.0848C920.465 82.0997 920.401 79.253 922.766 78.6797C925.499 79.2811 925.47 83.2161 922.724 83.0848Z" fill="#0DD180"/>
<path d="M825.561 178.047C825.092 177.853 824.708 177.462 824.523 176.99C824.892 176.284 825.507 175.877 826.157 176.072C826.992 176.756 826.463 177.733 825.561 178.047Z" fill="#0DD180"/>
<path d="M912.23 88.3392C912.774 87.5272 913.312 88.1424 913.861 87.6523C915.744 89.2032 912.177 90.4672 912.23 88.3392Z" fill="#0DD180"/>
<path d="M815.424 181.333C813.833 181.211 812.904 179.1 813.705 178.183C815.264 176.423 818.488 180.155 815.424 181.333Z" fill="#0DD180"/>
<path d="M823.772 170.829C823.306 170.404 822.922 169.963 822.736 169.541C822.933 168.825 823.225 168.407 823.914 167.926C825.917 168.166 825.707 171.266 823.772 170.829Z" fill="#0DD180"/>
<path d="M918.004 78.7442C913.975 83.4855 907.347 75.1034 913.423 71.9639C914.418 71.4447 915.579 71.6776 916.904 71.9944C917.266 72.0801 919.491 72.4131 920.023 73.7707C920.377 74.6648 919.231 77.3112 918.004 78.7442Z" fill="#0DD180"/>
<path d="M845.829 147.337C845.785 146.792 846.15 146.613 846.654 146.527C847.736 147.213 846.487 148.44 845.829 147.337Z" fill="#0DD180"/>
<path d="M894.717 97.9356C893.483 100.194 890.578 96.7692 891.836 95.4684C893.119 94.1597 895.523 96.4577 894.717 97.9356Z" fill="#0DD180"/>
<path d="M842.337 147.528C839.304 146.322 839.944 144.059 839.946 142.046C839.943 140.66 839.1 138.969 840.337 138.213C841.395 138.792 843.914 142.939 844.105 144.631C844.242 145.771 843.9 147.105 842.337 147.528Z" fill="#0DD180"/>
<path d="M859.515 123.532C865.372 127.997 856.552 131.657 855.548 126.055C855.493 125.765 855.669 125.462 855.557 125.131C855.188 124.039 854.464 123.768 854.53 122.919C854.794 119.357 859.984 120.145 859.515 123.532Z" fill="#0DD180"/>
<path d="M895.458 92.8445L894.649 92.0207C894.632 91.2369 895.39 90.4928 896.173 90.5244C897.552 91.2789 896.449 92.8202 895.458 92.8445Z" fill="#0DD180"/>
<path d="M928.648 58.1709C928.065 57.943 927.502 57.2039 926.922 56.6461C926.774 55.6795 926.816 54.7064 927.988 53.7515C930.967 52.8371 932.286 58.1945 928.648 58.1709Z" fill="#0DD180"/>
<path d="M795.566 181.497C796.695 179.832 798.315 180.448 799.043 181.989C798.7 184.271 795.208 183.647 795.566 181.497Z" fill="#0DD180"/>
<path d="M845.596 134.21C844.352 133.192 844.531 131.709 845.741 131.076C847.212 131.675 847.372 134.019 845.596 134.21Z" fill="#0DD180"/>
<path d="M864.89 107.203L864.424 107.661C863.824 107.433 863.08 106.692 863.852 106.146C864.223 106.158 864.885 106.832 864.89 107.203Z" fill="#0DD180"/>
<path d="M863.771 103.25C862.373 106.307 858.704 102.538 860.89 100.783C862.336 99.6243 864.47 101.714 863.771 103.25Z" fill="#0DD180"/>
<path d="M901.65 63.9752C899.489 63.0406 899.581 60.3355 901.698 59.793C904.524 60.156 904.447 63.942 901.65 63.9752Z" fill="#0DD180"/>
<path d="M782.111 167.328C781.713 164.008 786.039 160.985 788.532 163.556C791.016 166.119 788.371 171.005 784.992 169.795C784.795 169.728 784.83 169.447 784.534 169.329C783.836 169.051 782.758 168.72 782.111 167.328Z" fill="#0DD180"/>
<path d="M910.411 46.3965C909.925 47.2172 909.005 46.7142 908.904 46.0285C909.391 45.2078 910.301 45.719 910.411 46.3965Z" fill="#0DD180"/>
<path d="M892.955 50.6571C890.559 54.6125 885.114 51.0834 886.714 47.583C887.463 45.9478 889.509 45.149 891.138 46.4585C891.4 45.842 891.29 45.2141 891.626 44.6066C892.983 44.1895 893.794 42.1176 895.249 41.7344C896.43 42.4872 897.354 41.629 898.731 41.7648C900.104 43.0968 900.15 44.409 901.251 45.7303C901.24 46.9017 901.202 47.4953 901.456 48.5206C899.736 52.4489 895.694 52.4135 892.955 50.6571Z" fill="#0DD180"/>
<path d="M908.368 40.8019L907.902 41.2598C907.368 40.9993 908.02 40.0811 908.368 40.8019Z" fill="#0DD180"/>
<path d="M781.971 156.645C782.108 155.301 782.507 153.127 784.334 152.722C787.104 152.095 788.701 156.935 786.376 158.548C784.997 159.493 783.411 158.86 781.971 156.645Z" fill="#0DD180"/>
<path d="M878.966 55.6504C881.05 55.9904 884.442 57.6453 883.8 60.1064C883.039 63.0284 878.231 63.7123 876.948 60.6239C876.529 59.6302 877.24 58.4897 877.095 57.2592C877.712 56.6046 878.344 55.9997 878.966 55.6504Z" fill="#0DD180"/>
<path d="M764.102 167.979C763.826 167.515 763.764 167.052 763.876 166.583C765.37 165.557 766.027 168.524 764.102 167.979Z" fill="#0DD180"/>
<path d="M892.733 35.6738C894.986 36.403 895.907 39.3728 893.734 40.6737C890.955 42.3406 888.807 36.4726 892.733 35.6738Z" fill="#0DD180"/>
<path d="M884.528 43.9591C883.815 43.4661 883.563 43.0432 883.149 42.3218C884.397 39.4453 887.622 43.945 884.528 43.9591Z" fill="#0DD180"/>
<path d="M757.76 162.47C758.907 160.723 761.177 159.671 762.642 161.812C763.025 163.201 762.235 165.644 760.403 165.628C759.026 165.608 757.707 163.765 757.76 162.47Z" fill="#0DD180"/>
<path d="M743.594 137.952C743.814 137.377 744.396 136.936 745.114 136.918C745.424 137.267 745.932 137.618 745.921 137.973C745.5 138.843 744.352 138.924 743.594 137.952Z" fill="#0DD180"/>
<path d="M901.552 285.671C897.847 284.929 896.036 280.054 899.185 278.564C900.287 278.037 902.772 278.719 903.812 280.46C904.64 281.853 903.746 284.807 901.552 285.671Z" fill="#0DD180"/>
<path d="M816.603 167.292C815.996 167.773 817.325 167.727 816.482 167.868C817.345 168.264 817.129 168.41 817.87 168.582C817.95 168.813 817.832 169.043 817.632 169.273C817.938 169.185 818.258 169.427 818.556 169.281C818.484 169.891 818.901 170.331 819.475 170.683C819.958 172.007 819.414 173.735 817.47 173.338C817.108 174.201 816.618 173.62 815.951 174.373C814.842 173.893 813.467 175.324 812.591 173.766C811.588 174.211 811.143 172.474 810.756 171.432C811.253 171.205 811.031 171.178 811.456 170.745C810.505 170.943 812.086 169.505 812.289 169.011C812.872 167.523 813.747 164.767 816.603 167.292Z" fill="#0DD180"/>
<path d="M757.5 153.294C757.41 153.137 757.651 152.982 757.504 152.832C757.2 152.656 757.209 153.432 757.612 153.642C757.137 154.141 756.133 156.533 755.164 155.13C755.03 155.36 755.424 155.594 754.927 155.821C752.098 154.856 752.534 152.335 750.445 150.79C750.681 150.199 750.731 150.199 750.572 149.521C751.091 149.534 751.301 148.315 751.508 149.059C752.935 147.397 754.908 150.739 756.373 150.265C756.295 150.635 756.729 150.977 757.298 150.974C757.429 152.007 758.182 151.807 757.5 153.294Z" fill="#0DD180"/>
<path d="M733.146 162.025C732.577 160.263 732.204 158.75 734.122 157.389C736.429 155.941 739.478 160.777 735.935 162.049C735.946 161.761 735.552 161.477 735.244 161.812C736.025 162.141 735.034 162.231 734.318 162.035C734.434 161.97 734.549 162.037 734.665 161.923C734.517 161.888 734.353 161.854 734.206 161.688C734.176 162.207 733.509 162.045 733.146 162.025Z" fill="#0DD180"/>
<path d="M951.017 274.381C945.282 272.723 946.252 266.115 950.526 264.271C951.246 263.956 952.882 263.739 953.778 264.069C956.45 265.057 958.318 269.108 957.084 271.415C955.698 273.985 953.015 274.25 951.017 274.381Z" fill="#0DD180"/>
<path d="M865.708 268.643C864.519 265.201 869.143 258.584 872.491 263.126C873.657 264.695 872.802 267.022 870.823 267.756C870.119 268.022 869.13 267.98 868.261 268.195C867.261 268.442 866.365 268.979 865.708 268.643Z" fill="#0DD180"/>
<path d="M904.041 231.228C903.421 230.562 903.155 229.908 903.944 229.247C904.051 229.355 904.176 229.2 904.292 229.135C904.76 229.328 905.144 229.72 905.33 230.191C905.127 230.701 904.552 231.331 904.041 231.228Z" fill="#0DD180"/>
<path d="M884.909 252.551C884.982 255.34 881.122 258.804 878.016 256.557C876.229 255.255 874.452 253.927 872.83 252.676C873.299 248.423 878.783 244.214 877.824 239.941C875.765 238.693 872.382 237.896 871.829 235.252C871.656 234.392 872.553 231.958 873.029 231.31C873.69 230.401 874.884 229.669 875.721 229.354C877.268 228.798 878.671 229.693 879.566 228.34C879.78 227.575 878.845 226.972 878.651 226.476C874.691 224.808 870.184 224.983 866.627 220.794C866.739 220.209 866.835 219.64 867.46 219.06C866.958 218.016 867.859 216.968 868.066 215.931C867.973 215.27 867.245 214.612 867.268 213.952C867.813 212.975 868.358 212.963 869.258 211.998C867.449 210.489 864.664 210.151 863.617 207.419C863.431 206.931 863.099 203.677 863.302 203.118C863.344 203.011 863.768 202.644 863.768 202.66C863.849 201.943 862.972 201.366 863.669 200.91C865.372 200.496 867.078 200.701 868.792 200.031C871.082 202.163 876.476 205.04 873.706 208.316C874.252 209.022 873.646 209.454 874.159 210.176C874.615 210.824 876.354 211.829 877.39 212.3C878.088 212.611 878.691 212.476 879.125 212.901C879.689 213.442 879.411 214.091 879.808 214.763C880.247 215.509 881.191 215.988 881.418 216.402C881.873 217.198 881.593 218.062 881.859 218.733C882.278 219.776 883.411 221.213 884.5 222.122C885.073 222.605 886.779 223.693 887.974 223.777C889.137 223.862 890.545 222.348 892.044 223.458C893.527 224.568 894.966 227.716 896.522 228.951C897.005 229.342 897.724 229.209 898.266 229.543C898.62 230.52 898.701 231.486 899.979 232.47C900.299 234.445 898.144 236.398 897.251 238.37C897.894 240.191 900.532 241.327 901.273 243.165C902.475 243.522 903.669 243.69 904.852 245.177C905.188 247.184 902.341 248.083 901.446 249.437C900.818 250.396 901.605 250.915 901.308 251.877C900.112 252.708 899.458 252.059 898.625 252.893C897.517 254.03 897.891 258.241 895.109 256.575C893.862 255.838 894.501 254.623 893.273 253.54C892.12 252.515 890.592 253.574 889.091 253.511C887.392 253.43 886.415 252.036 884.909 252.551Z" fill="#0DD180"/>
<path d="M950.069 164.625L950.641 165.208C950.758 165.06 950.528 164.893 950.414 164.744C953.69 164.715 952.786 168.741 949.903 169.153C947.176 168.774 947.736 165.314 950.069 164.625Z" fill="#0DD180"/>
<path d="M964.424 82.4091C964.561 84.5635 961.876 86.7097 960.09 86.2073C955.82 84.9902 957.873 78.9363 961.66 79.8274C962.754 80.0928 963.53 80.9823 964.424 82.4091Z" fill="#0DD180"/>
<path d="M876.847 107.654C876.993 107.919 876.673 107.727 876.499 107.766C876.91 108.818 876.892 109.865 877.509 110.91C877.933 110.625 878.357 111.157 878.781 110.806C878.679 110.186 879.329 109.581 879.029 108.943C878.784 108.71 877.142 107.821 876.847 107.654ZM886.31 114.708C885.171 114.698 885.553 116.17 884.315 117.124C884.085 117.023 883.854 117.021 883.622 117.118C882.764 116.31 882.557 115.434 882.477 115.252C881.087 117.401 878.461 118.558 876.408 118.449C875.331 119.85 872.545 120.461 871.612 122.243C874.962 125.77 875.005 129.978 872.674 133.167C872.523 133.364 872.282 133.584 872.091 133.739C868.458 136.669 862.418 130.635 863.098 126.698C863.29 125.577 864.914 124.816 865.565 123.114C862.339 121.444 859.312 119.595 859.594 115.852C859.65 115.176 860.547 110.976 861.038 110.527C861.695 109.93 863.63 110.335 864.409 109.979C865.942 109.291 866.58 108.059 868.149 107.924C868.955 108.195 869.768 108.607 870.579 109.216C871.795 108.822 872.404 108.159 873.499 107.509C874.215 107.689 874.283 108.374 874.878 108.214C874.907 106.927 873.764 107.33 873.618 106.231C874.287 105.231 874.931 106.053 875.603 105.671C876.195 104.125 875.97 102.581 875.647 101.019C874.861 100.319 873.515 100.447 873.115 99.1401C874.251 97.5991 875.354 99.6876 876.482 99.054C877.48 97.322 877.76 95.5756 877.347 93.8395C878.12 93.1945 878.17 94.0282 878.86 93.498C880.319 94.5502 881.972 95.0845 883.608 94.8184C884.798 94.6308 885.406 93.9514 886.741 94.9613C889.871 97.3317 890.75 102.124 887.814 104.73C887.913 105.548 886.957 106.356 886.751 107.163C886.899 107.28 886.931 107.396 886.864 107.511C888.274 109.297 890.333 108.828 891.365 110.446C892.442 109.944 894.379 111.05 894.713 112.455C894.198 114.595 891.36 114.571 890.521 113.35C890.086 114.007 889.667 113.813 889.237 113.925C889.686 115.315 890.917 116.918 890.819 118.583C889.249 119.749 886.878 119.201 886.073 117.032C886.064 116.257 886.855 115.48 886.31 114.708Z" fill="#0DD180"/>
<path d="M905.701 41.1328C906.305 41.798 906.827 42.4626 906.029 43.1156C906.915 44.5011 906.134 45.9379 904.958 46.4721C902.92 47.3948 901.025 43.5337 902.217 42.2655C903.15 41.2507 904.611 42.039 905.701 41.1328Z" fill="#0DD180"/>
<path d="M768.256 158.85C766.533 159.561 766.875 160.908 765.325 161.728C763.197 161.643 762.276 160.456 761.635 158.437C761.794 158.216 761.941 158.349 762.099 158.21C761.43 157.396 760.277 157.204 759.682 156.448C758.499 154.978 759.381 153.36 759.964 151.806C761.95 149.464 764.157 151.595 765.761 153.012C766.122 152.33 766.553 152.103 767.168 151.63C771.374 151.782 773.729 158.477 768.836 159.424C768.393 159.156 768.524 159.289 768.256 158.85Z" fill="#0DD180"/>
<path d="M747.032 168.184C746.498 167.074 746.611 164.625 747.887 163.193C748.229 162.808 748.158 163.352 748.232 163.311C748.829 162.97 750.409 161.697 751.383 161.59C752.399 161.491 753.447 162.375 754.042 163.114C757.162 162.977 758.292 167.359 755.954 169.525C754.722 170.669 752.233 170.433 750.491 170.525C749.121 170.595 747.095 172.863 745.724 171.3C744.891 170.352 745.562 168.271 747.032 168.184Z" fill="#0DD180"/>
</g>
<mask id="mask1_1292_45323" style="mask-type:luminance" maskUnits="userSpaceOnUse" x="0" y="906" width="471" height="449">
<path d="M325.47 1354.86L470.776 1076.74L145.531 906.815L0.225237 1184.94L325.47 1354.86Z" fill="white"/>
</mask>
<g mask="url(#mask1_1292_45323)">
<path d="M362.1 1282.92C360.084 1282.42 358.343 1280.91 358.713 1279.48C360.001 1274.29 367.387 1280.76 362.1 1282.92Z" fill="#0DD180"/>
<path d="M363.338 1209.62C363.516 1208.98 363.597 1208.82 364.024 1208.31C364.634 1208.05 365.446 1208.43 366.288 1208.94C366.96 1211 363.951 1211.52 363.338 1209.62Z" fill="#0DD180"/>
<path d="M340.577 1242.2C339.751 1245.72 335.23 1242.41 337.379 1240.17C338.644 1238.85 340.995 1240.4 340.577 1242.2Z" fill="#0DD180"/>
<path d="M350.442 1159.5C352.932 1158.01 356.944 1161.16 355.947 1163.49C354.526 1166.82 346.822 1163.51 350.442 1159.5Z" fill="#0DD180"/>
<path d="M295.89 1268.17C295.429 1272.07 289.429 1269.43 290.397 1266.97C291.272 1264.77 296.192 1265.6 295.89 1268.17Z" fill="#0DD180"/>
<path d="M312.269 1227.6C311.913 1229.14 310.033 1230.7 308.689 1230.55C306.679 1230.34 304.539 1228.37 304.274 1226.58C303.903 1224.02 306.469 1221.45 309.05 1222.4C311.242 1223.22 312.592 1226.18 312.269 1227.6Z" fill="#0DD180"/>
<path d="M372.234 1107.87C372.061 1108.78 371.558 1109.74 371.018 1110.19C370.52 1110.62 368.749 1111.31 367.269 1110.65C364.676 1109.49 365.197 1105.47 368.331 1104.71C369.882 1104.33 372.712 1105.37 372.234 1107.87Z" fill="#0DD180"/>
<path d="M306.931 1214.07C305.049 1214.32 302.314 1214.09 301.011 1212.28C299.489 1210.15 301.605 1206.78 303.839 1206.16C307.934 1207.36 308.6 1210.65 306.931 1214.07Z" fill="#0DD180"/>
<path d="M290.214 1232.94C291.478 1232.87 292.242 1235.36 291.545 1236.42C290.724 1237.66 287.972 1236.96 286.703 1236.11C282.424 1233.27 288.265 1227.91 290.214 1232.94Z" fill="#0DD180"/>
<path d="M284.335 1237.47C283.902 1237.19 283.832 1236.44 284.43 1236.23C285.26 1236.5 284.936 1237.4 284.335 1237.47Z" fill="#0DD180"/>
<path d="M322.61 1163.13C322.339 1164.25 320.403 1165.44 318.898 1165.27C313.077 1164.6 313.933 1154.78 320.477 1159.05C321.771 1159.9 322.954 1161.71 322.61 1163.13Z" fill="#0DD180"/>
<path d="M325.226 1144.3C330.023 1145.04 328.293 1150.36 323.915 1147.51C323.315 1146.39 324.036 1144.86 325.226 1144.3Z" fill="#0DD180"/>
<path d="M305.722 1175.25C307.18 1169.67 315.73 1175.82 310.737 1178.42C308.603 1179.54 305.844 1177.76 305.722 1175.25Z" fill="#0DD180"/>
<path d="M343.776 1105.61C343.836 1108.37 339.778 1107.42 340.023 1105.69C340.267 1104.02 343.727 1103.42 343.776 1105.61Z" fill="#0DD180"/>
<path d="M344.422 1102.24C343.747 1102.1 343.517 1101.8 343.261 1101.26C343.691 1100.29 344.332 1100.02 345.191 1100.41C345.641 1100.94 345.026 1102.04 344.422 1102.24Z" fill="#0DD180"/>
<path d="M345.844 1092.79C344.991 1096.69 339.367 1096.12 338.946 1092.52C338.775 1091.03 339.893 1088.34 341.592 1088.16C342.705 1088.04 344.983 1089.63 345.375 1090.14C345.794 1090.67 346.083 1091.68 345.844 1092.79Z" fill="#0DD180"/>
<path d="M343.55 1085.47C342.875 1087.59 339.196 1089.07 338.185 1085.81C336.888 1081.67 345.308 1079.96 343.55 1085.47Z" fill="#0DD180"/>
<path d="M294.705 1167.27C293.91 1167.38 292.79 1166.71 292.379 1166.06C292.633 1162.15 297.832 1165.47 294.705 1167.27Z" fill="#0DD180"/>
<path d="M313.53 1129.1C312.178 1133.45 306.634 1130.19 307.18 1127.07C307.977 1122.53 314.87 1124.8 313.53 1129.1Z" fill="#0DD180"/>
<path d="M299.15 1148.46C299.341 1144.52 305.496 1146.64 303.179 1149.26C302.439 1150.1 300.069 1149.9 299.15 1148.46Z" fill="#0DD180"/>
<path d="M264.897 1215.08L264.318 1214.78C264.214 1214.47 264.544 1213.84 264.853 1213.76C265.588 1214.06 265.336 1214.75 264.897 1215.08Z" fill="#0DD180"/>
<path d="M273.541 1196.07C269.641 1196.81 266.182 1190.71 269.8 1187.99C270.969 1187.12 273.848 1186.87 275.516 1188.39C277.328 1190.03 276.125 1194.58 273.541 1196.07Z" fill="#0DD180"/>
<path d="M266.38 1210.48C263.46 1210.93 261.112 1207.5 263.837 1205.07C267.015 1203.88 269.827 1208.55 266.38 1210.48Z" fill="#0DD180"/>
<path d="M331.638 1074.24C331.192 1076.13 329.037 1077.56 327.403 1077.03C324.27 1076.03 323.883 1071.76 326.573 1070.11C329.179 1068.52 332.237 1071.71 331.638 1074.24Z" fill="#0DD180"/>
<path d="M313.279 1073.92C313.249 1073 313.675 1071.93 314.369 1070.78C315.472 1070.38 316.64 1069.83 317.822 1070.54C321.682 1072.87 316.176 1078.45 313.279 1073.92Z" fill="#0DD180"/>
<path d="M273.298 1160.72C272.587 1161.07 271.014 1160.33 271.192 1159.44C271.663 1157.6 275.082 1158.97 273.298 1160.72Z" fill="#0DD180"/>
<path d="M261.544 1181.45C260.45 1181.66 258.314 1180.58 258.125 1179.48C258.564 1175.14 264.988 1179.37 261.544 1181.45Z" fill="#0DD180"/>
<path d="M250.62 1184.28C250.268 1186.11 248.57 1187.39 247.839 1187.46C245.367 1187.68 244.095 1185.33 243.999 1184.53C243.467 1179.94 251.456 1179.88 250.62 1184.28Z" fill="#0DD180"/>
<path d="M268.022 1131.83C266.615 1131.42 265.328 1130.16 264.534 1129.64C261.076 1129.61 263.15 1134.66 260.454 1136.04C258.563 1137.01 256.317 1134.56 256.466 1132.66C256.65 1130.52 259.228 1128.79 258.633 1126.75C257.67 1126.35 257.381 1125.32 256.235 1124.95C255.653 1121.6 254.049 1118.58 253.325 1115.28C250.075 1114.42 252.807 1111.36 254.749 1113.61C257.069 1112.82 259.214 1112.49 262.05 1112.05C264.645 1111.64 267.014 1110.74 269.882 1113.74C271.239 1115.14 274.696 1119.58 274.974 1120.66C275.174 1121.44 274.685 1122.53 274.637 1123.45C275.392 1125.25 275.357 1128.95 272.97 1130.54C272.947 1131.22 274.748 1131.77 275.212 1132.65C275.777 1133.71 275.102 1135.88 273.968 1136.82C271.39 1138.88 264.555 1136.6 268.022 1131.83Z" fill="#0DD180"/>
<path d="M252.665 1176.81C252.003 1176.77 251.032 1176.24 250.849 1175.68C251.139 1172.91 255.3 1175.37 252.665 1176.81Z" fill="#0DD180"/>
<path d="M278.634 1100.86C275.481 1100.37 274.033 1096.47 274.572 1094.1C275.268 1091.06 279.038 1090.89 281.35 1093.2C282.841 1094.67 282.609 1097.13 282.866 1098.81C287.605 1100.14 290.79 1105.8 286.78 1109.75C285.473 1111.04 282.214 1111.79 280.015 1109.93C277.738 1107.99 278.926 1103.78 278.634 1100.86Z" fill="#0DD180"/>
<path d="M230.334 1205.37C230.174 1209.36 223.504 1210.89 222.813 1207C221.961 1202.18 230.409 1200.09 230.334 1205.37Z" fill="#0DD180"/>
<path d="M298.248 1064.03C298.562 1062.52 299.771 1062.02 300.859 1061.87C307.43 1064.33 299.651 1068.97 298.248 1064.03Z" fill="#0DD180"/>
<path d="M246.989 1157.9C245.683 1159.17 243.49 1160.97 241.882 1159.87C239.94 1158.53 242.669 1155.32 244.402 1154.7C244.102 1152.25 247.034 1150.51 248.593 1150.58C255.051 1150.89 252.941 1160.59 246.989 1157.9Z" fill="#0DD180"/>
<path d="M207.418 1238.26C206.748 1241 202.776 1241.63 201.902 1238.89C200.424 1234.34 208.566 1233.59 207.418 1238.26Z" fill="#0DD180"/>
<path d="M257.892 1139.51C257.142 1139.73 256.109 1139.69 255.408 1138.95C254.095 1135.64 260.15 1136.39 257.892 1139.51Z" fill="#0DD180"/>
<path d="M225.842 1161.51C226.998 1161.31 227.597 1159.36 228.685 1158.91C233.105 1159.45 237.235 1163.6 236.317 1167.35C236.859 1168.56 237.656 1169.47 237.944 1170.61C238.659 1173.47 237.744 1178.8 234.476 1179.74C232.452 1180.32 230.354 1178.64 228.272 1177.79C227.262 1177.38 225.342 1177.05 224.557 1176.03C224.134 1175.48 223.908 1172.97 223.454 1172.13C222.742 1170.79 221.408 1169.24 220.376 1167.74C219.324 1166.2 217.983 1164.46 218.186 1163.07C218.723 1159.34 222.44 1158.63 225.842 1161.51Z" fill="#0DD180"/>
<path d="M215.816 1212.61C215.297 1214.16 214.013 1215.05 212.614 1214.84C209.05 1214.28 209.23 1208.95 212.656 1208.74C214.829 1208.61 216.517 1210.46 215.816 1212.61Z" fill="#0DD180"/>
<path d="M312.272 1024.08C312.394 1027.45 305.514 1026.49 306.707 1023.4C307.419 1021.51 312.192 1021.9 312.272 1024.08Z" fill="#0DD180"/>
<path d="M268.418 1105.53C267.198 1110.99 260.024 1106.36 261.927 1102.69C263.743 1099.22 269.128 1102.36 268.418 1105.53Z" fill="#0DD180"/>
<path d="M253.47 1132.38L252.592 1131.92C252.416 1131.52 252.629 1131.02 252.989 1130.45C254.154 1130.03 254.619 1131.74 253.47 1132.38Z" fill="#0DD180"/>
<path d="M263.68 1099.71C263.046 1098.13 264.245 1095.89 265.941 1096.44C268.653 1097.35 266.599 1101.88 263.68 1099.71Z" fill="#0DD180"/>
<path d="M256.498 1102.83C255.798 1102.89 254.598 1102.01 253.797 1101.61C251.948 1094.77 262.476 1096.86 259.072 1102.14C259.896 1103.33 259.872 1105.85 258.19 1105.94C256.602 1106.03 256.371 1104.08 256.498 1102.83Z" fill="#0DD180"/>
<path d="M240.273 1114.37C243.133 1115.17 240.607 1117.81 239.353 1116.48C238.754 1115.84 239.414 1114.8 240.273 1114.37Z" fill="#0DD180"/>
<path d="M244.452 1102.46L244.225 1102.9C242.776 1103.1 243.792 1101.16 244.452 1102.46Z" fill="#0DD180"/>
<path d="M225.367 1097.86C225.714 1096.52 223.266 1096.6 222.761 1095.4C222.868 1095.24 222.865 1095.12 222.767 1095.03C224.052 1093.5 225.67 1092.93 226.517 1091.05C226.8 1090.41 225.973 1089.98 226.769 1089.51C226.625 1089.44 226.564 1089.63 226.473 1089.73C226.953 1086.29 231.137 1085.41 234.454 1087.22C234.795 1088 233.468 1089.81 232.876 1088.81C233.134 1090.1 232.711 1091.62 233.609 1092.72C234.328 1092.47 233.538 1092.02 233.629 1091.62C235.066 1089.48 237.085 1089.16 239.05 1088.7C239.107 1088.44 238.66 1088.34 239.063 1087.97C241.272 1086.99 243.013 1084.52 245.093 1083.15C248.173 1083.91 251.866 1086.59 250.626 1089.94C250.012 1091.6 248.649 1093.4 246.881 1093.91C245.027 1093.43 243.412 1094.48 241.612 1093.01C240.848 1094.88 237.915 1095.78 235.693 1095.48C235.165 1096.39 234.45 1096.7 233.75 1097.06C233.429 1098.05 233.253 1097.71 233.069 1098.36C231.791 1098.61 231.307 1097.12 231.643 1096.13C230.981 1095.83 230.501 1096.1 229.745 1095.5C228.426 1096.01 226.535 1096.46 225.367 1097.86Z" fill="#0DD180"/>
<path d="M239.332 1109.8L238.019 1109.11C237.32 1107.65 239.045 1106.01 240.692 1107.54C240.942 1108.45 240.257 1109.71 239.332 1109.8Z" fill="#0DD180"/>
<path d="M180.654 1211.48C180.385 1210.51 181.379 1208.6 182.33 1208.27C184.701 1207.84 186.733 1210.57 185.262 1212.58C184.177 1214.05 181.636 1213.2 180.654 1211.48Z" fill="#0DD180"/>
<path d="M271.666 1039.39C270.389 1038.77 271.389 1036.8 272.586 1037.28C273.106 1037.95 272.754 1039.53 271.666 1039.39Z" fill="#0DD180"/>
<path d="M210.488 1149.04C209.747 1148.74 210.092 1148.11 210.138 1147.57C211.15 1147.04 211.429 1148.62 210.488 1149.04Z" fill="#0DD180"/>
<path d="M246.05 1079.2C241.214 1080.35 243.53 1072.29 246.857 1075.54C247.621 1076.3 247.381 1078.32 246.05 1079.2Z" fill="#0DD180"/>
<path d="M218.567 1112.67C219.123 1111.07 220.181 1111.09 221.108 1110.65C221.387 1110.19 222.442 1108.09 222.978 1108.48C221.767 1107.62 221.66 1105.46 223.196 1104.51C225.607 1104.73 225.076 1106.98 226.059 1108.6C226.728 1109.71 227.686 1110.43 227.768 1111.35C228.266 1116.69 220.659 1115.54 218.567 1112.67Z" fill="#0DD180"/>
<path d="M184.338 1186.34C184.29 1185.28 185.17 1183.92 186.071 1183.73C186.696 1183.77 187.474 1184.3 188.183 1184.65C190.209 1187.17 185.722 1189.46 184.338 1186.34Z" fill="#0DD180"/>
<path d="M230.407 1099.58C230.994 1099.41 232.08 1099.98 232.519 1100.5C232.717 1103.69 227.925 1101.81 230.407 1099.58Z" fill="#0DD180"/>
<path d="M205.56 1149.98C204.711 1149.64 204.213 1149.18 204.481 1148.49C205.454 1147.16 207.338 1149.45 205.56 1149.98Z" fill="#0DD180"/>
<path d="M240.663 1072.49C241.999 1073.61 242.008 1075.74 240.508 1077.04C236.609 1078.01 237.408 1071.9 240.663 1072.49Z" fill="#0DD180"/>
<path d="M225.597 1097.8C225.728 1098.38 225.894 1098.11 226.617 1097.96C226.738 1097.63 226.116 1097.97 226.114 1097.52C228.464 1097.65 227.662 1102.51 225.172 1101.11C224.067 1100.48 224.155 1099.35 225.012 1097.86C225.274 1098.07 225.483 1098.07 225.597 1097.8Z" fill="#0DD180"/>
<path d="M191.596 1157.89C190.64 1161.74 185.043 1159.38 186.034 1156.47C187.058 1153.53 192.451 1154.47 191.596 1157.89Z" fill="#0DD180"/>
<path d="M198.117 1142.94C197.167 1146.15 193.609 1146.99 191.632 1144.37C188.651 1140.43 196.036 1135.42 198.238 1140.6C198.529 1141.28 198.505 1141.65 198.117 1142.94Z" fill="#0DD180"/>
<path d="M223.386 1089.97C222.498 1089.76 222.637 1089.24 222.3 1088.85C222.871 1087.83 222.977 1087.45 223.799 1087.04C225.697 1087.69 224.524 1089.63 223.386 1089.97Z" fill="#0DD180"/>
<path d="M216.862 1093.24C216.704 1092.71 217.122 1091.81 217.63 1091.41C221.215 1091.1 219.131 1095.85 216.862 1093.24Z" fill="#0DD180"/>
<path d="M201.414 1127.06C201.537 1128.09 200.393 1128.44 199.846 1128.65C195.619 1127.3 200.736 1123.57 201.414 1127.06Z" fill="#0DD180"/>
<path d="M248.824 1023.19C249.121 1021.22 251.152 1020.58 252.379 1021.35C255.222 1023.11 250.237 1027.04 248.824 1023.19Z" fill="#0DD180"/>
<path d="M207.343 1099.39C208.166 1098.35 210.408 1097.83 211.172 1099.17C211.627 1098.49 212.619 1098.76 212.856 1099.49C211.644 1100.45 209.306 1103.67 207.523 1101.89C206.646 1101.03 208.114 1100.36 207.343 1099.39Z" fill="#0DD180"/>
<path d="M214.489 1090.33C216.758 1087.17 211.221 1089.28 214.489 1090.33Z" fill="#0DD180"/>
<path d="M189.41 1120.59C185.97 1117.81 193.209 1114.15 193.103 1119.19C194.168 1118.87 194.75 1119.57 194.409 1120.24C193.874 1121.29 190.381 1120.55 189.41 1120.59Z" fill="#0DD180"/>
<path d="M198.337 1102.1C198.464 1101.73 198.396 1101.43 198.727 1101C198.906 1100.93 199.163 1101.12 199.313 1100.94C200.353 1101.41 199.378 1103.08 198.337 1102.1Z" fill="#0DD180"/>
<path d="M186.172 1121.13C186.668 1119.92 187.475 1119.46 188.184 1119.77C190.416 1120.71 187.095 1123.72 186.172 1121.13Z" fill="#0DD180"/>
<path d="M227.067 1044.64C229.461 1048.17 223.014 1051.24 221.802 1047.26C221.088 1044.9 224.307 1042.01 227.067 1044.64Z" fill="#0DD180"/>
<path d="M236.083 1025.24C235.959 1024.87 236.418 1024.32 236.625 1023.85C237.071 1023.73 238.088 1024 238.082 1024.61C238.037 1025.38 236.637 1026.07 236.083 1025.24Z" fill="#0DD180"/>
<path d="M189.276 1095.69C190.302 1094.08 191.058 1093.24 189.928 1091.95C188.334 1093.84 184.618 1091.58 185.786 1089.6C184.323 1089.71 182.932 1088.77 181.619 1088.36C181.043 1088.18 180.436 1088.31 179.934 1088.03C177.915 1086.91 178.679 1084.44 178.122 1082.63C177.064 1081.99 176.746 1081.11 176.176 1080.31C176.358 1079.49 176.272 1078.75 176.738 1077.83C176.468 1076.86 175.286 1076.18 175.394 1075.09C178.244 1073.84 181.573 1073.54 182.913 1069.56C184.125 1069.48 185.579 1070.73 185.45 1071.81C188.949 1072.16 190.653 1074.62 191.6 1077.06C192.108 1078.38 191.948 1078.28 191.848 1079.79C191.744 1081.25 192.096 1082.84 191.548 1084.26C190.902 1085.95 189.886 1087.9 188.093 1088.38C188.121 1089.14 189.259 1089.43 189.978 1089.74C191.987 1088.61 193.081 1084.6 195.291 1084.18C200.298 1085.98 203.952 1090.8 200.174 1094.33C199.659 1094.81 198.42 1095.27 197.507 1095.53C197.119 1095.64 196.402 1095.48 195.955 1095.65C195.02 1096.01 194.074 1097.29 193.13 1097.51C191.857 1097.83 189.917 1097.18 189.276 1095.69Z" fill="#0DD180"/>
<path d="M231.596 1025.32C236.952 1026.58 231.454 1031.16 230.021 1027.27C230.175 1026.3 230.867 1025.5 231.596 1025.32Z" fill="#0DD180"/>
<path d="M230.2 1029.78C231.098 1031.73 230.15 1034.56 227.97 1035.1C226.188 1035.54 222.682 1033.79 222.515 1032.07C222.356 1030.48 224.32 1028.31 225.664 1028.16C227.206 1027.98 228.947 1028.95 230.2 1029.78Z" fill="#0DD180"/>
<path d="M198.6 1083.51C198.823 1082.43 199.628 1081.17 200.344 1080.53C201.129 1080.38 202.559 1080.92 203.266 1081.68C204.064 1084.59 199.971 1086.43 198.6 1083.51Z" fill="#0DD180"/>
<path d="M208.297 1067.44C204.554 1068.14 204.48 1062.13 207.646 1063.02C209.365 1063.51 210.331 1066.04 208.297 1067.44Z" fill="#0DD180"/>
<path d="M226.716 1023.32C225.47 1023.84 224.474 1023.84 223.559 1023.34C221.255 1022.09 222.252 1018.26 224.747 1018.22C226.997 1018.18 229.059 1020.68 226.716 1023.32Z" fill="#0DD180"/>
<path d="M192.855 1067.91C194.986 1066.63 198.376 1068.75 198.09 1071.01C197.481 1075.83 188.922 1072.79 192.855 1067.91Z" fill="#0DD180"/>
<path d="M171.84 1101.41C172.18 1099.62 171.931 1096.68 174.008 1095.5C175.473 1096.14 177.062 1096.85 177.778 1098.2C179.726 1101.88 173.921 1105.54 171.84 1101.41Z" fill="#0DD180"/>
<path d="M176.519 1094.21C176.102 1092.47 178.287 1091.06 178.692 1091.47C180.457 1092.55 178.903 1096.28 176.519 1094.21Z" fill="#0DD180"/>
<path d="M190.816 1067.58C190.294 1067.62 189.027 1067.28 188.704 1066.66C187.918 1066.86 186.156 1066.81 185.717 1065.65C186.256 1063.87 187.216 1064.7 188.887 1064.9C190.809 1065.13 192.75 1065.37 190.816 1067.58Z" fill="#0DD180"/>
<path d="M191.282 1061.7C190.688 1061.65 189.768 1061.17 189.391 1060.71C186.916 1063.69 181.484 1060.53 183.143 1057.08C184.065 1055.17 186.045 1055.56 187.233 1054.21C187.811 1054.57 188.315 1054.41 188.622 1054.76C190.176 1053.92 191.598 1052.61 193.29 1052.19C195.152 1053.97 197.058 1055.94 195.31 1058.25C194.78 1058.96 193.503 1059.19 192.791 1059.9C192.085 1060.59 192.255 1061.55 191.282 1061.7Z" fill="#0DD180"/>
<path d="M187.901 1053.64C185.432 1054.56 181.679 1052.33 182.755 1049.66C184.769 1044.72 192.989 1049.52 187.901 1053.64Z" fill="#0DD180"/>
<path d="M166.752 1089.86C162.241 1088.6 165.987 1082.81 169.101 1085.72C170.677 1087.16 168.773 1089.47 166.752 1089.86Z" fill="#0DD180"/>
<path d="M158.408 1109.03C158.139 1109.22 157.875 1109.4 157.448 1109.08C157.41 1108.85 157.456 1108.59 157.686 1108.27C157.934 1108.43 158.088 1108.26 158.351 1108.44C158.411 1108.62 158.218 1108.89 158.408 1109.03Z" fill="#0DD180"/>
<path d="M168.864 1083.35C168.192 1083.56 167.171 1082.87 166.607 1082.36C166.356 1081.48 167.108 1080.04 167.974 1079.74C170.168 1079.85 170.571 1082.4 168.864 1083.35Z" fill="#0DD180"/>
<path d="M161.973 1090.14C161.119 1089.76 160.942 1089.17 161.415 1088.36C162.477 1088.25 162.906 1089.62 161.973 1090.14Z" fill="#0DD180"/>
<path d="M181.695 1051.69C180.97 1053.71 177.659 1055.31 175.348 1053.56C172.97 1051.77 175.189 1046.46 178.335 1046.79C180.996 1047.06 182.563 1049.27 181.695 1051.69Z" fill="#0DD180"/>
<path d="M184.311 1045.27C184.125 1045.45 183.905 1045.52 183.719 1045.7C183.144 1045.47 182.92 1045.14 183.143 1044.66C183.287 1044.74 183.348 1044.55 183.439 1044.45C183.952 1044.65 184.349 1044.9 184.311 1045.27Z" fill="#0DD180"/>
<path d="M196.641 1017.06C195.958 1019.05 193.133 1020.63 190.956 1018.73C188.387 1016.49 192.268 1011.33 195.538 1013.16C196.612 1013.74 197.291 1015.16 196.641 1017.06Z" fill="#0DD180"/>
<path d="M212.43 980.82C208.423 981.715 209.126 974.828 212.724 976.707C214.254 977.506 214.443 979.462 212.43 980.82Z" fill="#0DD180"/>
<path d="M182.978 1029.39C182.501 1027.53 184.15 1025.76 185.897 1026.64C188.482 1027.97 186.462 1032.36 182.978 1029.39Z" fill="#0DD180"/>
<path d="M160.893 1068.81C160.33 1068.45 159.269 1068.27 159.882 1067.55C158.535 1068.79 156.356 1068.41 154.896 1067.17C154.253 1064.62 157.536 1061.97 159.634 1064.83C159.614 1065.64 160.224 1066.27 159.889 1067.18C160.21 1067.3 160.265 1066.56 160.562 1066.6C161.045 1066.98 161.312 1066.68 161.806 1067.07C162.117 1067.76 161.636 1068.68 160.893 1068.81Z" fill="#0DD180"/>
<path d="M208.069 973.907C205.616 973.666 204.679 970.977 206.752 969.703C209.538 969.434 210.722 973.186 208.069 973.907Z" fill="#0DD180"/>
<path d="M144.867 1094.17C144.362 1094.13 143.876 1093.88 143.554 1093.49C143.688 1092.7 144.148 1092.13 144.826 1092.11C145.831 1092.51 145.629 1093.6 144.867 1094.17Z" fill="#0DD180"/>
<path d="M199.702 982.136C199.969 981.196 200.671 981.616 201.043 980.98C203.312 981.876 200.307 984.177 199.702 982.136Z" fill="#0DD180"/>
<path d="M136.233 1100.42C134.682 1100.8 133.148 1099.07 133.627 1097.95C134.569 1095.8 138.785 1098.36 136.233 1100.42Z" fill="#0DD180"/>
<path d="M140.941 1087.86C140.367 1087.6 139.866 1087.3 139.56 1086.95C139.526 1086.21 139.676 1085.72 140.183 1085.05C142.163 1084.66 142.917 1087.68 140.941 1087.86Z" fill="#0DD180"/>
<path d="M202.242 971.232C199.869 976.983 190.981 971.05 195.796 966.192C196.582 965.391 197.759 965.255 199.117 965.149C199.488 965.119 201.707 964.751 202.631 965.879C203.244 966.62 202.968 969.491 202.242 971.232Z" fill="#0DD180"/>
<path d="M154.693 1058.72C154.483 1058.21 154.775 1057.93 155.228 1057.69C156.47 1058.01 155.659 1059.56 154.693 1058.72Z" fill="#0DD180"/>
<path d="M185.996 996.662C185.517 999.19 181.699 996.827 182.495 995.202C183.313 993.562 186.307 995.008 185.996 996.662Z" fill="#0DD180"/>
<path d="M151.431 1059.97C148.174 1059.76 148.086 1057.41 147.468 1055.49C147.038 1054.18 145.716 1052.83 146.66 1051.73C147.845 1051.95 151.519 1055.12 152.221 1056.67C152.703 1057.71 152.788 1059.09 151.431 1059.97Z" fill="#0DD180"/>
<path d="M160.384 1031.85C167.331 1034.3 160.067 1040.5 157.387 1035.47C157.245 1035.22 157.319 1034.87 157.11 1034.59C156.423 1033.67 155.651 1033.63 155.452 1032.81C154.607 1029.34 159.788 1028.49 160.384 1031.85Z" fill="#0DD180"/>
<path d="M185.132 991.588L184.109 991.053C183.851 990.313 184.342 989.372 185.098 989.16C186.642 989.454 186.067 991.26 185.132 991.588Z" fill="#0DD180"/>
<path d="M206.035 948.38C205.409 948.343 204.647 947.812 203.923 947.461C203.484 946.586 203.225 945.648 204.046 944.378C206.598 942.591 209.503 947.282 206.035 948.38Z" fill="#0DD180"/>
<path d="M117.391 1106.69C117.953 1104.76 119.683 1104.85 120.85 1106.09C121.227 1108.37 117.712 1108.85 117.391 1106.69Z" fill="#0DD180"/>
<path d="M150.431 1046.3C148.933 1045.71 148.647 1044.25 149.603 1043.27C151.187 1043.39 152.061 1045.57 150.431 1046.3Z" fill="#0DD180"/>
<path d="M160.471 1014.66L160.169 1015.24C159.528 1015.21 158.592 1014.73 159.159 1013.98C159.515 1013.87 160.353 1014.31 160.471 1014.66Z" fill="#0DD180"/>
<path d="M158.19 1011.25C157.801 1014.59 153.15 1012.13 154.689 1009.79C155.708 1008.24 158.382 1009.57 158.19 1011.25Z" fill="#0DD180"/>
<path d="M182.135 962.216C179.791 961.992 179.045 959.39 180.892 958.222C183.693 957.697 184.786 961.323 182.135 962.216Z" fill="#0DD180"/>
<path d="M100.226 1097.36C98.8253 1094.32 102.011 1090.11 105.173 1091.79C108.326 1093.46 107.314 1098.93 103.727 1098.82C103.518 1098.81 103.466 1098.54 103.148 1098.51C102.397 1098.46 101.27 1098.48 100.226 1097.36Z" fill="#0DD180"/>
<path d="M185.058 942.793C184.848 943.723 183.819 943.528 183.512 942.907C183.722 941.976 184.746 942.182 185.058 942.793Z" fill="#0DD180"/>
<path d="M169.762 952.221C168.7 956.722 162.433 955.041 162.878 951.218C163.087 949.431 164.787 948.041 166.741 948.786C166.799 948.118 166.502 947.555 166.634 946.873C167.797 946.059 167.931 943.838 169.197 943.025C170.553 943.378 171.167 942.277 172.519 941.982C174.236 942.826 174.683 944.061 176.138 944.979C176.488 946.097 176.634 946.673 177.192 947.57C176.765 951.837 172.909 953.048 169.762 952.221Z" fill="#0DD180"/>
<path d="M181.39 938.1L181.088 938.679C180.5 938.596 180.837 937.521 181.39 938.1Z" fill="#0DD180"/>
<path d="M96.8035 1087.23C96.5195 1085.91 96.2303 1083.72 97.8439 1082.77C100.286 1081.32 103.296 1085.44 101.58 1087.69C100.56 1089.01 98.8552 1088.9 96.8035 1087.23Z" fill="#0DD180"/>
<path d="M157.989 961.279C160.077 960.96 163.813 961.491 163.961 964.03C164.136 967.044 159.772 969.175 157.601 966.632C156.895 965.816 157.222 964.511 156.705 963.385C157.09 962.573 157.505 961.802 157.989 961.279Z" fill="#0DD180"/>
<path d="M83.2945 1103.52C82.8888 1103.16 82.6877 1102.74 82.6494 1102.26C83.7553 1100.82 85.2941 1103.45 83.2945 1103.52Z" fill="#0DD180"/>
<path d="M164.936 938.033C167.305 938.033 169.095 940.575 167.428 942.482C165.297 944.924 161.447 940.002 164.936 938.033Z" fill="#0DD180"/>
<path d="M159.682 948.444C158.852 948.195 158.482 947.87 157.866 947.311C158.167 944.19 162.621 947.478 159.682 948.444Z" fill="#0DD180"/>
<path d="M75.5645 1100.23C76.1174 1098.22 77.9531 1096.52 80.0063 1098.1C80.7985 1099.31 80.7991 1101.87 79.0518 1102.42C77.735 1102.83 75.9124 1101.48 75.5645 1100.23Z" fill="#0DD180"/>
<path d="M54.5352 1081.27C54.5671 1080.65 54.9849 1080.05 55.6622 1079.81C56.0649 1080.05 56.6565 1080.23 56.7547 1080.57C56.6226 1081.53 55.5557 1081.96 54.5352 1081.27Z" fill="#0DD180"/>
<path d="M250.304 1173.17C246.55 1173.61 243.326 1169.53 245.863 1167.14C246.749 1166.3 249.324 1166.18 250.849 1167.52C252.066 1168.59 252.126 1171.67 250.304 1173.17Z" fill="#0DD180"/>
<path d="M133.032 1086.7C132.603 1087.35 133.853 1086.89 133.095 1087.29C134.037 1087.4 133.877 1087.6 134.635 1087.54C134.782 1087.73 134.741 1087.99 134.621 1088.27C134.886 1088.09 135.264 1088.22 135.503 1087.99C135.623 1088.59 136.155 1088.89 136.809 1089.04C137.676 1090.15 137.69 1091.97 135.719 1092.19C135.64 1093.12 134.995 1092.72 134.592 1093.64C133.389 1093.52 132.522 1095.31 131.209 1094.1C130.392 1094.83 129.433 1093.31 128.744 1092.44C129.148 1092.07 128.928 1092.11 129.198 1091.57C128.355 1092.05 129.416 1090.2 129.457 1089.67C129.554 1088.07 129.538 1085.18 133.032 1086.7Z" fill="#0DD180"/>
<path d="M72.4902 1091.58C72.3567 1091.46 72.5381 1091.24 72.352 1091.14C72.009 1091.07 72.2566 1091.8 72.7039 1091.88C72.4058 1092.5 72.187 1095.08 70.8335 1094.05C70.7767 1094.31 71.2235 1094.41 70.8203 1094.78C67.8316 1094.73 67.4704 1092.2 65.007 1091.37C65.0498 1090.74 65.097 1090.72 64.7373 1090.13C65.2356 1089.98 65.0594 1088.75 65.4861 1089.4C66.3312 1087.38 69.2379 1089.95 70.4855 1089.05C70.5256 1089.42 71.0439 1089.62 71.5845 1089.44C72.0266 1090.38 72.6812 1089.96 72.4902 1091.58Z" fill="#0DD180"/>
<path d="M52.0089 1107.39C50.9247 1105.88 50.1034 1104.56 51.5096 1102.67C53.2585 1100.59 57.6481 1104.25 54.6692 1106.55C54.5907 1106.27 54.1291 1106.12 53.939 1106.54C54.7829 1106.61 53.8681 1107 53.1266 1107.04C53.217 1106.94 53.3469 1106.97 53.4226 1106.82C53.2711 1106.83 53.1038 1106.85 52.9128 1106.74C53.0445 1107.24 52.3602 1107.29 52.0089 1107.39Z" fill="#0DD180"/>
<path d="M293.888 1147.2C287.922 1147.39 286.809 1140.8 290.308 1137.73C290.896 1137.21 292.386 1136.5 293.34 1136.54C296.186 1136.66 299.211 1139.93 298.747 1142.51C298.22 1145.38 295.749 1146.46 293.888 1147.2Z" fill="#0DD180"/>
<path d="M210.959 1168.01C208.768 1165.1 211.13 1157.38 215.714 1160.67C217.306 1161.8 217.209 1164.28 215.552 1165.59C214.965 1166.06 214.01 1166.32 213.25 1166.8C212.375 1167.34 211.687 1168.12 210.959 1168.01Z" fill="#0DD180"/>
<path d="M235.907 1120.61C235.112 1120.17 234.657 1119.62 235.205 1118.75C235.339 1118.82 235.411 1118.64 235.501 1118.54C236.006 1118.58 236.492 1118.83 236.814 1119.22C236.778 1119.77 236.425 1120.55 235.907 1120.61Z" fill="#0DD180"/>
<path d="M224.271 1146.79C225.199 1149.42 222.593 1153.9 218.947 1152.72C216.846 1152.03 214.746 1151.32 212.818 1150.62C211.954 1146.43 215.876 1140.74 213.648 1136.97C211.305 1136.42 207.841 1136.7 206.501 1134.35C206.071 1133.59 206.175 1131 206.429 1130.23C206.777 1129.17 207.688 1128.1 208.387 1127.54C209.688 1126.54 211.298 1126.96 211.733 1125.4C211.701 1124.6 210.626 1124.32 210.289 1123.9C206.007 1123.54 201.774 1125.09 197.099 1122.2C197.026 1121.61 196.942 1121.04 197.358 1120.29C196.559 1119.46 197.093 1118.18 196.971 1117.13C196.679 1116.53 195.784 1116.13 195.602 1115.49C195.821 1114.4 196.335 1114.22 196.894 1113.02C194.708 1112.14 191.954 1112.68 190.117 1110.4C189.79 1109.99 188.472 1107 188.493 1106.41C188.501 1106.29 188.791 1105.81 188.796 1105.83C188.652 1105.12 187.64 1104.84 188.163 1104.19C189.656 1103.28 191.342 1102.95 192.766 1101.78C195.602 1103.1 201.619 1104.18 199.992 1108.15C200.729 1108.65 200.286 1109.25 200.996 1109.78C201.629 1110.26 203.594 1110.68 204.724 1110.81C205.484 1110.89 206.016 1110.57 206.559 1110.84C207.263 1111.18 207.198 1111.89 207.783 1112.4C208.43 1112.98 209.476 1113.14 209.82 1113.47C210.497 1114.09 210.497 1114.99 210.956 1115.55C211.676 1116.41 213.197 1117.43 214.513 1117.96C215.207 1118.24 217.165 1118.75 218.328 1118.47C219.46 1118.19 220.334 1116.31 222.102 1116.91C223.855 1117.51 226.193 1120.06 228.054 1120.76C228.634 1120.98 229.277 1120.63 229.895 1120.78C230.532 1121.6 230.907 1122.5 232.426 1123.04C233.339 1124.82 231.89 1127.34 231.647 1129.49C232.82 1131.03 235.679 1131.3 236.951 1132.82C238.204 1132.79 239.392 1132.58 240.974 1133.63C241.912 1135.44 239.481 1137.17 239.046 1138.73C238.744 1139.84 239.653 1140.09 239.666 1141.1C238.784 1142.25 237.962 1141.84 237.427 1142.89C236.723 1144.31 238.374 1148.2 235.215 1147.47C233.802 1147.16 234.035 1145.8 232.534 1145.15C231.12 1144.53 229.993 1146.01 228.546 1146.41C226.905 1146.86 225.546 1145.83 224.271 1146.79Z" fill="#0DD180"/>
<path d="M259.192 1043.07L259.916 1043.45C259.982 1043.27 259.713 1043.18 259.558 1043.07C262.666 1042.04 263.045 1046.15 260.429 1047.43C257.717 1047.91 257.185 1044.44 259.192 1043.07Z" fill="#0DD180"/>
<path d="M247.535 960.425C248.328 962.432 246.435 965.301 244.581 965.373C240.144 965.53 240.233 959.138 244.11 958.82C245.233 958.735 246.245 959.343 247.535 960.425Z" fill="#0DD180"/>
<path d="M171.986 1011.41C172.207 1011.62 171.843 1011.53 171.69 1011.62C172.405 1012.5 172.71 1013.5 173.619 1014.3C173.934 1013.9 174.501 1014.28 174.797 1013.81C174.509 1013.26 174.941 1012.48 174.46 1011.97C174.154 1011.82 172.319 1011.48 171.986 1011.41ZM183.161 1015.21C182.075 1015.55 182.892 1016.83 182.008 1018.12C181.758 1018.1 181.537 1018.17 181.346 1018.33C180.281 1017.82 179.815 1017.05 179.682 1016.91C179.021 1019.38 176.879 1021.29 174.892 1021.82C174.299 1023.48 171.836 1024.92 171.498 1026.9C175.771 1029.23 177.108 1033.22 175.871 1036.97C175.789 1037.2 175.627 1037.49 175.493 1037.69C172.939 1041.6 165.334 1037.72 164.769 1033.76C164.607 1032.64 165.917 1031.41 166.013 1029.59C162.429 1029 158.979 1028.17 158.096 1024.52C157.941 1023.86 157.501 1019.59 157.83 1019.01C158.272 1018.24 160.237 1018.03 160.868 1017.45C162.115 1016.33 162.343 1014.96 163.794 1014.35C164.644 1014.36 165.544 1014.5 166.504 1014.83C167.54 1014.08 167.914 1013.26 168.756 1012.3C169.493 1012.25 169.768 1012.89 170.286 1012.55C169.916 1011.32 168.954 1012.05 168.476 1011.05C168.805 1009.89 169.671 1010.48 170.192 1009.91C170.28 1008.25 169.59 1006.85 168.801 1005.47C167.838 1005.04 166.597 1005.58 165.814 1004.46C166.421 1002.64 168.113 1004.29 168.991 1003.34C169.407 1001.39 169.136 999.637 168.209 998.113C168.746 997.261 169.05 998.039 169.543 997.322C171.255 997.874 172.992 997.873 174.466 997.116C175.541 996.571 175.91 995.738 177.492 996.287C181.199 997.579 183.511 1001.87 181.52 1005.25C181.866 1006 181.205 1007.06 181.258 1007.89C181.434 1007.96 181.5 1008.06 181.472 1008.19C183.364 1009.46 185.178 1008.38 186.659 1009.6C187.529 1008.79 189.712 1009.24 190.462 1010.48C190.631 1012.67 187.924 1013.52 186.75 1012.62C186.538 1013.38 186.08 1013.32 185.706 1013.56C186.561 1014.75 188.225 1015.89 188.645 1017.51C187.51 1019.1 185.085 1019.31 183.652 1017.49C183.404 1016.76 183.918 1015.77 183.161 1015.21Z" fill="#0DD180"/>
<path d="M178.955 939.236C179.735 939.683 180.436 940.155 179.878 941.022C181.148 942.067 180.848 943.674 179.893 944.545C178.238 946.05 175.247 942.96 175.99 941.387C176.565 940.134 178.198 940.434 178.955 939.236Z" fill="#0DD180"/>
<path d="M84.4334 1093.56C83.0134 1094.76 83.7539 1095.94 82.5312 1097.2C80.4809 1097.77 79.2388 1096.93 78.0072 1095.2C78.0902 1094.94 78.2713 1095.02 78.3789 1094.84C77.4918 1094.27 76.3356 1094.45 75.5366 1093.91C73.9587 1092.88 74.2992 1091.07 74.3761 1089.41C75.5438 1086.57 78.3004 1087.92 80.2624 1088.77C80.3961 1088.01 80.7363 1087.66 81.1756 1087.02C85.2242 1085.87 89.5259 1091.52 85.1624 1093.92C84.6585 1093.81 84.8239 1093.89 84.4334 1093.56Z" fill="#0DD180"/>
<path d="M67.1161 1108.97C66.2661 1108.08 65.6201 1105.71 66.3926 1103.96C66.5994 1103.49 66.6992 1104.03 66.7577 1103.97C67.2208 1103.46 68.3314 1101.76 69.2256 1101.36C70.1616 1100.95 71.4306 1101.47 72.2246 1101.99C75.1504 1100.9 77.5754 1104.72 76.0174 1107.5C75.1979 1108.97 72.7568 1109.51 71.1282 1110.13C69.8463 1110.62 68.6171 1113.4 66.831 1112.34C65.747 1111.69 65.7448 1109.51 67.1161 1108.97Z" fill="#0DD180"/>
</g>
</g>
<defs>
<clipPath id="clip0_1292_45323">
<rect width="1069" height="1280" fill="white"/>
</clipPath>
</defs>
</svg>
