<svg width="1440" height="860" viewBox="0 0 1440 860" fill="none" xmlns="http://www.w3.org/2000/svg">
<g clip-path="url(#clip0_1223_44676)">
<g clip-path="url(#clip1_1223_44676)">
<rect width="1440" height="969" fill="#00A6E3"/>
<mask id="mask0_1223_44676" style="mask-type:luminance" maskUnits="userSpaceOnUse" x="0" y="-31" width="1502" height="1028">
<path d="M140.314 -30.5449C62.8194 -30.5449 0 -9.54131 0 16.3564V950.059C0 975.956 62.8194 996.96 140.314 996.96H1361.69C1439.18 996.96 1502 975.956 1502 950.059V16.3564C1502 -9.54131 1439.18 -30.5449 1361.69 -30.5449H140.314V-30.5449Z" fill="white"/>
</mask>
<g mask="url(#mask0_1223_44676)">
<path d="M751.021 -75C819.139 -75 850.406 -22.1035 850.406 30.7522C850.406 83.6079 911.147 110.933 938.745 110.933V203.92C911.147 203.92 850.406 176.595 850.406 123.739C850.406 70.8833 819.099 17.9869 751.021 17.9869V-75Z" fill="#0DD180"/>
</g>
<mask id="mask1_1223_44676" style="mask-type:luminance" maskUnits="userSpaceOnUse" x="0" y="-31" width="1502" height="1028">
<path d="M140.314 -30.5449C62.8194 -30.5449 0 -9.54131 0 16.3564V950.059C0 975.956 62.8194 996.96 140.314 996.96H1361.69C1439.18 996.96 1502 975.956 1502 950.059V16.3564C1502 -9.54131 1439.18 -30.5449 1361.69 -30.5449H140.314V-30.5449Z" fill="white"/>
</mask>
<g mask="url(#mask1_1223_44676)">
<path d="M0 -75C68.1189 -75 99.386 -22.1035 99.386 30.7522C99.386 83.6079 160.126 110.933 187.725 110.933V203.92C160.126 203.92 99.386 176.595 99.386 123.739C99.386 70.8833 68.1189 17.9869 0 17.9869V-75Z" fill="#0DD180"/>
</g>
<mask id="mask2_1223_44676" style="mask-type:luminance" maskUnits="userSpaceOnUse" x="0" y="-31" width="1502" height="1028">
<path d="M140.314 -30.5449C62.8194 -30.5449 0 -9.54131 0 16.3564V950.059C0 975.956 62.8194 996.96 140.314 996.96H1361.69C1439.18 996.96 1502 975.956 1502 950.059V16.3564C1502 -9.54131 1439.18 -30.5449 1361.69 -30.5449H140.314V-30.5449Z" fill="white"/>
</mask>
<g mask="url(#mask2_1223_44676)">
<path d="M1126.51 -75C1194.63 -75 1225.9 -22.1035 1225.9 30.7522C1225.9 83.6079 1286.64 110.933 1314.23 110.933V203.92C1286.64 203.92 1225.9 176.595 1225.9 123.739C1225.9 70.8833 1194.59 17.9869 1126.51 17.9869V-75Z" fill="#0DD180"/>
</g>
<mask id="mask3_1223_44676" style="mask-type:luminance" maskUnits="userSpaceOnUse" x="0" y="-31" width="1502" height="1028">
<path d="M140.314 -30.5449C62.8194 -30.5449 0 -9.54131 0 16.3564V950.059C0 975.956 62.8194 996.96 140.314 996.96H1361.69C1439.18 996.96 1502 975.956 1502 950.059V16.3564C1502 -9.54131 1439.18 -30.5449 1361.69 -30.5449H140.314V-30.5449Z" fill="white"/>
</mask>
<g mask="url(#mask3_1223_44676)">
<path d="M375.49 -75C443.609 -75 474.876 -22.1035 474.876 30.7522C474.876 83.6079 535.617 110.933 563.215 110.933V203.92C535.617 203.92 474.876 176.595 474.876 123.739C474.876 70.8833 443.609 17.9869 375.49 17.9869V-75Z" fill="#0DD180"/>
</g>
<mask id="mask4_1223_44676" style="mask-type:luminance" maskUnits="userSpaceOnUse" x="0" y="-31" width="1502" height="1028">
<path d="M140.314 -30.5449C62.8194 -30.5449 0 -9.54131 0 16.3564V950.059C0 975.956 62.8194 996.96 140.314 996.96H1361.69C1439.18 996.96 1502 975.956 1502 950.059V16.3564C1502 -9.54131 1439.18 -30.5449 1361.69 -30.5449H140.314V-30.5449Z" fill="white"/>
</mask>
<g mask="url(#mask4_1223_44676)">
<path d="M1126.51 -75C1058.39 -75 1027.12 -22.1035 1027.12 30.7522C1027.12 83.6079 966.383 110.933 938.785 110.933V203.92C966.383 203.92 1027.12 176.595 1027.12 123.739C1027.12 70.8833 1058.43 17.9869 1126.51 17.9869V-75Z" fill="#0DD180"/>
</g>
<mask id="mask5_1223_44676" style="mask-type:luminance" maskUnits="userSpaceOnUse" x="0" y="-31" width="1502" height="1028">
<path d="M140.314 -30.5449C62.8194 -30.5449 0 -9.54131 0 16.3564V950.059C0 975.956 62.8194 996.96 140.314 996.96H1361.69C1439.18 996.96 1502 975.956 1502 950.059V16.3564C1502 -9.54131 1439.18 -30.5449 1361.69 -30.5449H140.314V-30.5449Z" fill="white"/>
</mask>
<g mask="url(#mask5_1223_44676)">
<path d="M375.49 -75C307.412 -75 276.104 -22.1035 276.104 30.7522C276.104 83.6079 215.364 110.933 187.766 110.933V203.92C215.364 203.92 276.104 176.595 276.104 123.739C276.104 70.8833 307.412 17.9869 375.49 17.9869V-75Z" fill="#0DD180"/>
</g>
<mask id="mask6_1223_44676" style="mask-type:luminance" maskUnits="userSpaceOnUse" x="0" y="-31" width="1502" height="1028">
<path d="M140.314 -30.5449C62.8194 -30.5449 0 -9.54131 0 16.3564V950.059C0 975.956 62.8194 996.96 140.314 996.96H1361.69C1439.18 996.96 1502 975.956 1502 950.059V16.3564C1502 -9.54131 1439.18 -30.5449 1361.69 -30.5449H140.314V-30.5449Z" fill="white"/>
</mask>
<g mask="url(#mask6_1223_44676)">
<path d="M1502 -75C1433.88 -75 1402.61 -22.1035 1402.61 30.7522C1402.61 83.6079 1341.87 110.933 1314.28 110.933V203.92C1341.87 203.92 1402.61 176.595 1402.61 123.739C1402.61 70.8833 1433.92 17.9869 1502 17.9869V-75Z" fill="#0DD180"/>
</g>
<mask id="mask7_1223_44676" style="mask-type:luminance" maskUnits="userSpaceOnUse" x="0" y="-31" width="1502" height="1028">
<path d="M140.314 -30.5449C62.8194 -30.5449 0 -9.54131 0 16.3564V950.059C0 975.956 62.8194 996.96 140.314 996.96H1361.69C1439.18 996.96 1502 975.956 1502 950.059V16.3564C1502 -9.54131 1439.18 -30.5449 1361.69 -30.5449H140.314V-30.5449Z" fill="white"/>
</mask>
<g mask="url(#mask7_1223_44676)">
<path d="M751.02 -75C682.902 -75 651.635 -22.1035 651.635 30.7522C651.635 83.6079 590.894 110.933 563.296 110.933V203.92C590.894 203.92 651.635 176.595 651.635 123.739C651.635 70.8833 682.942 17.9869 751.02 17.9869V-75Z" fill="#0DD180"/>
</g>
<mask id="mask8_1223_44676" style="mask-type:luminance" maskUnits="userSpaceOnUse" x="0" y="-31" width="1502" height="1028">
<path d="M140.314 -30.5449C62.8194 -30.5449 0 -9.54131 0 16.3564V950.059C0 975.956 62.8194 996.96 140.314 996.96H1361.69C1439.18 996.96 1502 975.956 1502 950.059V16.3564C1502 -9.54131 1439.18 -30.5449 1361.69 -30.5449H140.314V-30.5449Z" fill="white"/>
</mask>
<g mask="url(#mask8_1223_44676)">
<path d="M751.021 122.395C819.139 122.395 850.406 175.291 850.406 228.147C850.406 281.002 911.147 308.368 938.745 308.368V401.355C911.147 401.355 850.406 374.03 850.406 321.174C850.406 268.319 819.099 215.422 751.021 215.422V122.395Z" fill="#0DD180"/>
</g>
<mask id="mask9_1223_44676" style="mask-type:luminance" maskUnits="userSpaceOnUse" x="0" y="-31" width="1502" height="1028">
<path d="M140.314 -30.5449C62.8194 -30.5449 0 -9.54131 0 16.3564V950.059C0 975.956 62.8194 996.96 140.314 996.96H1361.69C1439.18 996.96 1502 975.956 1502 950.059V16.3564C1502 -9.54131 1439.18 -30.5449 1361.69 -30.5449H140.314V-30.5449Z" fill="white"/>
</mask>
<g mask="url(#mask9_1223_44676)">
<path d="M0 122.395C68.1189 122.395 99.386 175.291 99.386 228.147C99.386 281.002 160.126 308.368 187.765 308.368V401.355C160.167 401.355 99.4267 374.03 99.4267 321.174C99.4267 268.319 68.1189 215.381 0 215.381V122.395Z" fill="#0DD180"/>
</g>
<mask id="mask10_1223_44676" style="mask-type:luminance" maskUnits="userSpaceOnUse" x="0" y="-31" width="1502" height="1028">
<path d="M140.314 -30.5449C62.8194 -30.5449 0 -9.54131 0 16.3564V950.059C0 975.956 62.8194 996.96 140.314 996.96H1361.69C1439.18 996.96 1502 975.956 1502 950.059V16.3564C1502 -9.54131 1439.18 -30.5449 1361.69 -30.5449H140.314V-30.5449Z" fill="white"/>
</mask>
<g mask="url(#mask10_1223_44676)">
<path d="M1126.51 122.395C1194.63 122.395 1225.9 175.291 1225.9 228.147C1225.9 281.002 1286.64 308.368 1314.28 308.368V401.355C1286.68 401.355 1225.94 374.03 1225.94 321.174C1225.94 268.319 1194.63 215.422 1126.55 215.422V122.395H1126.51Z" fill="#0DD180"/>
</g>
<mask id="mask11_1223_44676" style="mask-type:luminance" maskUnits="userSpaceOnUse" x="0" y="-31" width="1502" height="1028">
<path d="M140.314 -30.5449C62.8194 -30.5449 0 -9.54131 0 16.3564V950.059C0 975.956 62.8194 996.96 140.314 996.96H1361.69C1439.18 996.96 1502 975.956 1502 950.059V16.3564C1502 -9.54131 1439.18 -30.5449 1361.69 -30.5449H140.314V-30.5449Z" fill="white"/>
</mask>
<g mask="url(#mask11_1223_44676)">
<path d="M375.49 122.395C443.609 122.395 474.876 175.291 474.876 228.147C474.876 281.002 535.657 308.368 563.256 308.368V401.355C535.657 401.355 474.917 374.03 474.917 321.174C474.917 268.319 443.609 215.381 375.49 215.381V122.395Z" fill="#0DD180"/>
</g>
<mask id="mask12_1223_44676" style="mask-type:luminance" maskUnits="userSpaceOnUse" x="0" y="-31" width="1502" height="1028">
<path d="M140.314 -30.5449C62.8194 -30.5449 0 -9.54131 0 16.3564V950.059C0 975.956 62.8194 996.96 140.314 996.96H1361.69C1439.18 996.96 1502 975.956 1502 950.059V16.3564C1502 -9.54131 1439.18 -30.5449 1361.69 -30.5449H140.314V-30.5449Z" fill="white"/>
</mask>
<g mask="url(#mask12_1223_44676)">
<path d="M1126.51 122.395C1058.39 122.395 1027.12 175.291 1027.12 228.147C1027.12 281.002 966.384 308.368 938.745 308.368V401.355C966.343 401.355 1027.08 374.03 1027.08 321.174C1027.08 268.319 1058.39 215.422 1126.47 215.422V122.395H1126.51Z" fill="#0DD180"/>
</g>
<mask id="mask13_1223_44676" style="mask-type:luminance" maskUnits="userSpaceOnUse" x="0" y="-31" width="1502" height="1028">
<path d="M140.314 -30.5449C62.8194 -30.5449 0 -9.54131 0 16.3564V950.059C0 975.956 62.8194 996.96 140.314 996.96H1361.69C1439.18 996.96 1502 975.956 1502 950.059V16.3564C1502 -9.54131 1439.18 -30.5449 1361.69 -30.5449H140.314V-30.5449Z" fill="white"/>
</mask>
<g mask="url(#mask13_1223_44676)">
<path d="M375.49 122.395C307.371 122.395 276.104 175.291 276.104 228.147C276.104 281.002 215.364 308.368 187.766 308.368V401.355C215.364 401.355 276.104 374.03 276.104 321.174C276.104 268.319 307.412 215.381 375.49 215.381V122.395Z" fill="#0DD180"/>
</g>
<mask id="mask14_1223_44676" style="mask-type:luminance" maskUnits="userSpaceOnUse" x="0" y="-31" width="1502" height="1028">
<path d="M140.314 -30.5449C62.8194 -30.5449 0 -9.54131 0 16.3564V950.059C0 975.956 62.8194 996.96 140.314 996.96H1361.69C1439.18 996.96 1502 975.956 1502 950.059V16.3564C1502 -9.54131 1439.18 -30.5449 1361.69 -30.5449H140.314V-30.5449Z" fill="white"/>
</mask>
<g mask="url(#mask14_1223_44676)">
<path d="M1502 122.395C1433.88 122.395 1402.61 175.291 1402.61 228.147C1402.61 281.002 1341.87 308.368 1314.28 308.368V401.355C1341.87 401.355 1402.61 374.03 1402.61 321.174C1402.61 268.319 1433.92 215.422 1502 215.422V122.395Z" fill="#0DD180"/>
</g>
<mask id="mask15_1223_44676" style="mask-type:luminance" maskUnits="userSpaceOnUse" x="0" y="-31" width="1502" height="1028">
<path d="M140.314 -30.5449C62.8194 -30.5449 0 -9.54131 0 16.3564V950.059C0 975.956 62.8194 996.96 140.314 996.96H1361.69C1439.18 996.96 1502 975.956 1502 950.059V16.3564C1502 -9.54131 1439.18 -30.5449 1361.69 -30.5449H140.314V-30.5449Z" fill="white"/>
</mask>
<g mask="url(#mask15_1223_44676)">
<path d="M751.02 122.395C682.901 122.395 651.634 175.291 651.634 228.147C651.634 281.002 590.853 308.368 563.255 308.368V401.355C590.853 401.355 651.593 374.03 651.593 321.174C651.593 268.319 682.901 215.422 750.979 215.422V122.395H751.02Z" fill="#0DD180"/>
</g>
<mask id="mask16_1223_44676" style="mask-type:luminance" maskUnits="userSpaceOnUse" x="0" y="-31" width="1502" height="1028">
<path d="M140.314 -30.5449C62.8194 -30.5449 0 -9.54131 0 16.3564V950.059C0 975.956 62.8194 996.96 140.314 996.96H1361.69C1439.18 996.96 1502 975.956 1502 950.059V16.3564C1502 -9.54131 1439.18 -30.5449 1361.69 -30.5449H140.314V-30.5449Z" fill="white"/>
</mask>
<g mask="url(#mask16_1223_44676)">
<path d="M751.021 319.787C819.139 319.787 850.406 372.684 850.406 425.539C850.406 478.395 911.147 505.72 938.745 505.72V598.707C911.147 598.707 850.406 571.382 850.406 518.526C850.406 465.67 819.099 412.774 751.021 412.774V319.787Z" fill="#0DD180"/>
</g>
<mask id="mask17_1223_44676" style="mask-type:luminance" maskUnits="userSpaceOnUse" x="0" y="-31" width="1502" height="1028">
<path d="M140.314 -30.5449C62.8194 -30.5449 0 -9.54131 0 16.3564V950.059C0 975.956 62.8194 996.96 140.314 996.96H1361.69C1439.18 996.96 1502 975.956 1502 950.059V16.3564C1502 -9.54131 1439.18 -30.5449 1361.69 -30.5449H140.314V-30.5449Z" fill="white"/>
</mask>
<g mask="url(#mask17_1223_44676)">
<path d="M0 319.787C68.1189 319.787 99.386 372.684 99.386 425.539C99.386 478.395 160.126 505.72 187.725 505.72V598.707C160.126 598.707 99.386 571.382 99.386 518.526C99.386 465.67 68.1189 412.774 0 412.774V319.787Z" fill="#0DD180"/>
</g>
<mask id="mask18_1223_44676" style="mask-type:luminance" maskUnits="userSpaceOnUse" x="0" y="-31" width="1502" height="1028">
<path d="M140.314 -30.5449C62.8194 -30.5449 0 -9.54131 0 16.3564V950.059C0 975.956 62.8194 996.96 140.314 996.96H1361.69C1439.18 996.96 1502 975.956 1502 950.059V16.3564C1502 -9.54131 1439.18 -30.5449 1361.69 -30.5449H140.314V-30.5449Z" fill="white"/>
</mask>
<g mask="url(#mask18_1223_44676)">
<path d="M1126.51 319.787C1194.63 319.787 1225.9 372.684 1225.9 425.539C1225.9 478.395 1286.64 505.72 1314.23 505.72V598.707C1286.64 598.707 1225.9 571.382 1225.9 518.526C1225.9 465.67 1194.59 412.774 1126.51 412.774V319.787Z" fill="#0DD180"/>
</g>
<mask id="mask19_1223_44676" style="mask-type:luminance" maskUnits="userSpaceOnUse" x="0" y="-31" width="1502" height="1028">
<path d="M140.314 -30.5449C62.8194 -30.5449 0 -9.54131 0 16.3564V950.059C0 975.956 62.8194 996.96 140.314 996.96H1361.69C1439.18 996.96 1502 975.956 1502 950.059V16.3564C1502 -9.54131 1439.18 -30.5449 1361.69 -30.5449H140.314V-30.5449Z" fill="white"/>
</mask>
<g mask="url(#mask19_1223_44676)">
<path d="M375.49 319.787C443.609 319.787 474.876 372.684 474.876 425.539C474.876 478.395 535.617 505.72 563.215 505.72V598.707C535.617 598.707 474.876 571.382 474.876 518.526C474.876 465.67 443.568 412.774 375.49 412.774V319.787Z" fill="#0DD180"/>
</g>
<mask id="mask20_1223_44676" style="mask-type:luminance" maskUnits="userSpaceOnUse" x="0" y="-31" width="1502" height="1028">
<path d="M140.314 -30.5449C62.8194 -30.5449 0 -9.54131 0 16.3564V950.059C0 975.956 62.8194 996.96 140.314 996.96H1361.69C1439.18 996.96 1502 975.956 1502 950.059V16.3564C1502 -9.54131 1439.18 -30.5449 1361.69 -30.5449H140.314V-30.5449Z" fill="white"/>
</mask>
<g mask="url(#mask20_1223_44676)">
<path d="M1126.51 319.787C1058.39 319.787 1027.12 372.684 1027.12 425.539C1027.12 478.395 966.383 505.72 938.785 505.72V598.707C966.383 598.707 1027.12 571.382 1027.12 518.526C1027.12 465.67 1058.43 412.774 1126.51 412.774V319.787Z" fill="#0DD180"/>
</g>
<mask id="mask21_1223_44676" style="mask-type:luminance" maskUnits="userSpaceOnUse" x="0" y="-31" width="1502" height="1028">
<path d="M140.314 -30.5449C62.8194 -30.5449 0 -9.54131 0 16.3564V950.059C0 975.956 62.8194 996.96 140.314 996.96H1361.69C1439.18 996.96 1502 975.956 1502 950.059V16.3564C1502 -9.54131 1439.18 -30.5449 1361.69 -30.5449H140.314V-30.5449Z" fill="white"/>
</mask>
<g mask="url(#mask21_1223_44676)">
<path d="M375.49 319.787C307.371 319.787 276.104 372.684 276.104 425.539C276.104 478.395 215.364 505.72 187.766 505.72V598.707C215.364 598.707 276.104 571.382 276.104 518.526C276.104 465.67 307.412 412.774 375.49 412.774V319.787Z" fill="#0DD180"/>
</g>
<mask id="mask22_1223_44676" style="mask-type:luminance" maskUnits="userSpaceOnUse" x="0" y="-31" width="1502" height="1028">
<path d="M140.314 -30.5449C62.8194 -30.5449 0 -9.54131 0 16.3564V950.059C0 975.956 62.8194 996.96 140.314 996.96H1361.69C1439.18 996.96 1502 975.956 1502 950.059V16.3564C1502 -9.54131 1439.18 -30.5449 1361.69 -30.5449H140.314V-30.5449Z" fill="white"/>
</mask>
<g mask="url(#mask22_1223_44676)">
<path d="M1502 319.787C1433.88 319.787 1402.61 372.684 1402.61 425.539C1402.61 478.395 1341.87 505.72 1314.28 505.72V598.707C1341.87 598.707 1402.61 571.382 1402.61 518.526C1402.61 465.67 1433.92 412.774 1502 412.774V319.787Z" fill="#0DD180"/>
</g>
<mask id="mask23_1223_44676" style="mask-type:luminance" maskUnits="userSpaceOnUse" x="0" y="-31" width="1502" height="1028">
<path d="M140.314 -30.5449C62.8194 -30.5449 0 -9.54131 0 16.3564V950.059C0 975.956 62.8194 996.96 140.314 996.96H1361.69C1439.18 996.96 1502 975.956 1502 950.059V16.3564C1502 -9.54131 1439.18 -30.5449 1361.69 -30.5449H140.314V-30.5449Z" fill="white"/>
</mask>
<g mask="url(#mask23_1223_44676)">
<path d="M751.02 319.787C682.902 319.787 651.635 372.684 651.635 425.539C651.635 478.395 590.894 505.72 563.296 505.72V598.707C590.894 598.707 651.635 571.382 651.635 518.526C651.635 465.67 682.942 412.774 751.02 412.774V319.787Z" fill="#0DD180"/>
</g>
<mask id="mask24_1223_44676" style="mask-type:luminance" maskUnits="userSpaceOnUse" x="0" y="-31" width="1502" height="1028">
<path d="M140.314 -30.5449C62.8194 -30.5449 0 -9.54131 0 16.3564V950.059C0 975.956 62.8194 996.96 140.314 996.96H1361.69C1439.18 996.96 1502 975.956 1502 950.059V16.3564C1502 -9.54131 1439.18 -30.5449 1361.69 -30.5449H140.314V-30.5449Z" fill="white"/>
</mask>
<g mask="url(#mask24_1223_44676)">
<path d="M751.021 517.221C819.139 517.221 850.406 570.117 850.406 622.973C850.406 675.829 911.147 703.154 938.745 703.154V796.141C911.147 796.141 850.406 768.815 850.406 715.96C850.406 663.104 819.099 610.167 751.021 610.167V517.221Z" fill="#0DD180"/>
</g>
<mask id="mask25_1223_44676" style="mask-type:luminance" maskUnits="userSpaceOnUse" x="0" y="-31" width="1502" height="1028">
<path d="M140.314 -30.5449C62.8194 -30.5449 0 -9.54131 0 16.3564V950.059C0 975.956 62.8194 996.96 140.314 996.96H1361.69C1439.18 996.96 1502 975.956 1502 950.059V16.3564C1502 -9.54131 1439.18 -30.5449 1361.69 -30.5449H140.314V-30.5449Z" fill="white"/>
</mask>
<g mask="url(#mask25_1223_44676)">
<path d="M0 517.221C68.1189 517.221 99.386 570.117 99.386 622.973C99.386 675.829 160.126 703.154 187.725 703.154V796.141C160.126 796.141 99.386 768.815 99.386 715.96C99.386 663.104 68.1189 610.167 0 610.167V517.221Z" fill="#0DD180"/>
</g>
<mask id="mask26_1223_44676" style="mask-type:luminance" maskUnits="userSpaceOnUse" x="0" y="-31" width="1502" height="1028">
<path d="M140.314 -30.5449C62.8194 -30.5449 0 -9.54131 0 16.3564V950.059C0 975.956 62.8194 996.96 140.314 996.96H1361.69C1439.18 996.96 1502 975.956 1502 950.059V16.3564C1502 -9.54131 1439.18 -30.5449 1361.69 -30.5449H140.314V-30.5449Z" fill="white"/>
</mask>
<g mask="url(#mask26_1223_44676)">
<path d="M1126.51 517.221C1194.63 517.221 1225.9 570.117 1225.9 622.973C1225.9 675.829 1286.64 703.154 1314.23 703.154V796.141C1286.64 796.141 1225.9 768.815 1225.9 715.96C1225.9 663.104 1194.63 610.167 1126.51 610.167V517.221Z" fill="#0DD180"/>
</g>
<mask id="mask27_1223_44676" style="mask-type:luminance" maskUnits="userSpaceOnUse" x="0" y="-31" width="1502" height="1028">
<path d="M140.314 -30.5449C62.8194 -30.5449 0 -9.54131 0 16.3564V950.059C0 975.956 62.8194 996.96 140.314 996.96H1361.69C1439.18 996.96 1502 975.956 1502 950.059V16.3564C1502 -9.54131 1439.18 -30.5449 1361.69 -30.5449H140.314V-30.5449Z" fill="white"/>
</mask>
<g mask="url(#mask27_1223_44676)">
<path d="M375.49 517.221C443.609 517.221 474.876 570.117 474.876 622.973C474.876 675.829 535.617 703.154 563.215 703.154V796.141C535.617 796.141 474.876 768.815 474.876 715.96C474.876 663.104 443.609 610.167 375.49 610.167V517.221Z" fill="#0DD180"/>
</g>
<mask id="mask28_1223_44676" style="mask-type:luminance" maskUnits="userSpaceOnUse" x="0" y="-31" width="1502" height="1028">
<path d="M140.314 -30.5449C62.8194 -30.5449 0 -9.54131 0 16.3564V950.059C0 975.956 62.8194 996.96 140.314 996.96H1361.69C1439.18 996.96 1502 975.956 1502 950.059V16.3564C1502 -9.54131 1439.18 -30.5449 1361.69 -30.5449H140.314V-30.5449Z" fill="white"/>
</mask>
<g mask="url(#mask28_1223_44676)">
<path d="M1126.51 517.221C1058.39 517.221 1027.12 570.117 1027.12 622.973C1027.12 675.829 966.383 703.154 938.785 703.154V796.141C966.383 796.141 1027.12 768.815 1027.12 715.96C1027.12 663.104 1058.39 610.167 1126.51 610.167V517.221Z" fill="#0DD180"/>
</g>
<mask id="mask29_1223_44676" style="mask-type:luminance" maskUnits="userSpaceOnUse" x="0" y="-31" width="1502" height="1028">
<path d="M140.314 -30.5449C62.8194 -30.5449 0 -9.54131 0 16.3564V950.059C0 975.956 62.8194 996.96 140.314 996.96H1361.69C1439.18 996.96 1502 975.956 1502 950.059V16.3564C1502 -9.54131 1439.18 -30.5449 1361.69 -30.5449H140.314V-30.5449Z" fill="white"/>
</mask>
<g mask="url(#mask29_1223_44676)">
<path d="M375.49 517.221C307.371 517.221 276.104 570.117 276.104 622.973C276.104 675.829 215.364 703.154 187.766 703.154V796.141C215.364 796.141 276.104 768.815 276.104 715.96C276.104 663.104 307.412 610.167 375.49 610.167V517.221Z" fill="#0DD180"/>
</g>
<mask id="mask30_1223_44676" style="mask-type:luminance" maskUnits="userSpaceOnUse" x="0" y="-31" width="1502" height="1028">
<path d="M140.314 -30.5449C62.8194 -30.5449 0 -9.54131 0 16.3564V950.059C0 975.956 62.8194 996.96 140.314 996.96H1361.69C1439.18 996.96 1502 975.956 1502 950.059V16.3564C1502 -9.54131 1439.18 -30.5449 1361.69 -30.5449H140.314V-30.5449Z" fill="white"/>
</mask>
<g mask="url(#mask30_1223_44676)">
<path d="M1502 517.221C1433.88 517.221 1402.61 570.117 1402.61 622.973C1402.61 675.829 1341.87 703.154 1314.28 703.154V796.141C1341.87 796.141 1402.61 768.815 1402.61 715.96C1402.61 663.104 1433.92 610.167 1502 610.167V517.221Z" fill="#0DD180"/>
</g>
<mask id="mask31_1223_44676" style="mask-type:luminance" maskUnits="userSpaceOnUse" x="0" y="-31" width="1502" height="1028">
<path d="M140.314 -30.5449C62.8194 -30.5449 0 -9.54131 0 16.3564V950.059C0 975.956 62.8194 996.96 140.314 996.96H1361.69C1439.18 996.96 1502 975.956 1502 950.059V16.3564C1502 -9.54131 1439.18 -30.5449 1361.69 -30.5449H140.314V-30.5449Z" fill="white"/>
</mask>
<g mask="url(#mask31_1223_44676)">
<path d="M751.02 517.221C682.902 517.221 651.635 570.117 651.635 622.973C651.635 675.829 590.894 703.154 563.296 703.154V796.141C590.894 796.141 651.635 768.815 651.635 715.96C651.635 663.104 682.902 610.167 751.02 610.167V517.221Z" fill="#0DD180"/>
</g>
<mask id="mask32_1223_44676" style="mask-type:luminance" maskUnits="userSpaceOnUse" x="0" y="-31" width="1502" height="1028">
<path d="M140.314 -30.5449C62.8194 -30.5449 0 -9.54131 0 16.3564V950.059C0 975.956 62.8194 996.96 140.314 996.96H1361.69C1439.18 996.96 1502 975.956 1502 950.059V16.3564C1502 -9.54131 1439.18 -30.5449 1361.69 -30.5449H140.314V-30.5449Z" fill="white"/>
</mask>
<g mask="url(#mask32_1223_44676)">
<path d="M751.021 714.615C819.139 714.615 850.406 767.512 850.406 820.367C850.406 873.223 911.147 900.548 938.745 900.548V993.535C911.147 993.535 850.406 966.21 850.406 913.354C850.406 860.499 819.099 807.602 751.021 807.602V714.615Z" fill="#0DD180"/>
</g>
<mask id="mask33_1223_44676" style="mask-type:luminance" maskUnits="userSpaceOnUse" x="0" y="-31" width="1502" height="1028">
<path d="M140.314 -30.5449C62.8194 -30.5449 0 -9.54131 0 16.3564V950.059C0 975.956 62.8194 996.96 140.314 996.96H1361.69C1439.18 996.96 1502 975.956 1502 950.059V16.3564C1502 -9.54131 1439.18 -30.5449 1361.69 -30.5449H140.314V-30.5449Z" fill="white"/>
</mask>
<g mask="url(#mask33_1223_44676)">
<path d="M0 714.615C68.1189 714.615 99.386 767.512 99.386 820.367C99.386 873.223 160.126 900.548 187.725 900.548V993.535C160.126 993.535 99.386 966.21 99.386 913.354C99.386 860.499 68.1189 807.602 0 807.602V714.615Z" fill="#0DD180"/>
</g>
<mask id="mask34_1223_44676" style="mask-type:luminance" maskUnits="userSpaceOnUse" x="0" y="-31" width="1502" height="1028">
<path d="M140.314 -30.5449C62.8194 -30.5449 0 -9.54131 0 16.3564V950.059C0 975.956 62.8194 996.96 140.314 996.96H1361.69C1439.18 996.96 1502 975.956 1502 950.059V16.3564C1502 -9.54131 1439.18 -30.5449 1361.69 -30.5449H140.314V-30.5449Z" fill="white"/>
</mask>
<g mask="url(#mask34_1223_44676)">
<path d="M1126.51 714.615C1194.63 714.615 1225.9 767.512 1225.9 820.367C1225.9 873.223 1286.64 900.548 1314.23 900.548V993.535C1286.64 993.535 1225.9 966.21 1225.9 913.354C1225.9 860.499 1194.59 807.602 1126.51 807.602V714.615Z" fill="#0DD180"/>
</g>
<mask id="mask35_1223_44676" style="mask-type:luminance" maskUnits="userSpaceOnUse" x="0" y="-31" width="1502" height="1028">
<path d="M140.314 -30.5449C62.8194 -30.5449 0 -9.54131 0 16.3564V950.059C0 975.956 62.8194 996.96 140.314 996.96H1361.69C1439.18 996.96 1502 975.956 1502 950.059V16.3564C1502 -9.54131 1439.18 -30.5449 1361.69 -30.5449H140.314V-30.5449Z" fill="white"/>
</mask>
<g mask="url(#mask35_1223_44676)">
<path d="M375.49 714.615C443.609 714.615 474.876 767.512 474.876 820.367C474.876 873.223 535.617 900.548 563.215 900.548V993.535C535.617 993.535 474.876 966.21 474.876 913.354C474.876 860.499 443.568 807.602 375.49 807.602V714.615Z" fill="#0DD180"/>
</g>
<mask id="mask36_1223_44676" style="mask-type:luminance" maskUnits="userSpaceOnUse" x="0" y="-31" width="1502" height="1028">
<path d="M140.314 -30.5449C62.8194 -30.5449 0 -9.54131 0 16.3564V950.059C0 975.956 62.8194 996.96 140.314 996.96H1361.69C1439.18 996.96 1502 975.956 1502 950.059V16.3564C1502 -9.54131 1439.18 -30.5449 1361.69 -30.5449H140.314V-30.5449Z" fill="white"/>
</mask>
<g mask="url(#mask36_1223_44676)">
<path d="M1126.51 714.615C1058.39 714.615 1027.12 767.512 1027.12 820.367C1027.12 873.223 966.383 900.548 938.785 900.548V993.535C966.383 993.535 1027.12 966.21 1027.12 913.354C1027.12 860.499 1058.43 807.602 1126.51 807.602V714.615Z" fill="#0DD180"/>
</g>
<mask id="mask37_1223_44676" style="mask-type:luminance" maskUnits="userSpaceOnUse" x="0" y="-31" width="1502" height="1028">
<path d="M140.314 -30.5449C62.8194 -30.5449 0 -9.54131 0 16.3564V950.059C0 975.956 62.8194 996.96 140.314 996.96H1361.69C1439.18 996.96 1502 975.956 1502 950.059V16.3564C1502 -9.54131 1439.18 -30.5449 1361.69 -30.5449H140.314V-30.5449Z" fill="white"/>
</mask>
<g mask="url(#mask37_1223_44676)">
<path d="M375.49 714.615C307.371 714.615 276.104 767.512 276.104 820.367C276.104 873.223 215.364 900.548 187.766 900.548V993.535C215.364 993.535 276.104 966.21 276.104 913.354C276.104 860.499 307.412 807.602 375.49 807.602V714.615Z" fill="#0DD180"/>
</g>
<mask id="mask38_1223_44676" style="mask-type:luminance" maskUnits="userSpaceOnUse" x="0" y="-31" width="1502" height="1028">
<path d="M140.314 -30.5449C62.8194 -30.5449 0 -9.54131 0 16.3564V950.059C0 975.956 62.8194 996.96 140.314 996.96H1361.69C1439.18 996.96 1502 975.956 1502 950.059V16.3564C1502 -9.54131 1439.18 -30.5449 1361.69 -30.5449H140.314V-30.5449Z" fill="white"/>
</mask>
<g mask="url(#mask38_1223_44676)">
<path d="M1502 714.615C1433.88 714.615 1402.61 767.512 1402.61 820.367C1402.61 873.223 1341.87 900.548 1314.28 900.548V993.535C1341.87 993.535 1402.61 966.21 1402.61 913.354C1402.61 860.499 1433.92 807.602 1502 807.602V714.615Z" fill="#0DD180"/>
</g>
<mask id="mask39_1223_44676" style="mask-type:luminance" maskUnits="userSpaceOnUse" x="0" y="-31" width="1502" height="1028">
<path d="M140.314 -31C62.8194 -31 0 -9.99639 0 15.9013V949.604C0 975.501 62.8194 996.505 140.314 996.505H1361.69C1439.18 996.505 1502 975.501 1502 949.604V15.9013C1502 -9.99639 1439.18 -31 1361.69 -31H140.314Z" fill="white"/>
</mask>
<g mask="url(#mask39_1223_44676)">
<path d="M751.02 714.16C682.902 714.16 651.635 767.057 651.635 819.912C651.635 872.768 590.894 900.093 563.296 900.093V993.08C590.894 993.08 651.635 965.755 651.635 912.899C651.635 860.043 682.942 807.147 751.02 807.147V714.16Z" fill="#0DD180"/>
</g>
</g>
</g>
<defs>
<clipPath id="clip0_1223_44676">
<rect width="1440" height="860" fill="white"/>
</clipPath>
<clipPath id="clip1_1223_44676">
<rect width="1440" height="969" fill="white"/>
</clipPath>
</defs>
</svg>
