<svg width="136" height="1041" viewBox="0 0 136 1041" fill="none" xmlns="http://www.w3.org/2000/svg">
<path d="M125.499 11C38.5398 102.89 -14.5001 163.5 68.9997 383C90.1547 466.646 89.3538 527.068 68.9997 614.5C33.4999 685.5 10.9986 896.5 125.499 1030" stroke="#E1E2E6" stroke-width="21" stroke-linecap="round"/>
<path d="M126 68C131.03 112.718 98.6894 129 65 129C18.5007 129 1 107.689 1 74C1.00039 34 25.0003 9 56.4996 3C90.189 3 121.501 28 126 68Z" fill="#0DD180"/>
<path d="M65.9766 33.6406C66.75 35.1875 67.7344 36.4531 68.9297 37.4375C70.1953 38.3516 71.4258 39.3008 72.6211 40.2852C74.0977 43.0273 75.0117 46.0859 75.3633 49.4609C75.7148 52.8359 76.1016 56.5273 76.5234 60.5352C76.5234 63.7695 76.3125 66.8281 75.8906 69.7109C75.4688 72.5234 74.9062 75.3008 74.2031 78.043C73.5703 80.7148 72.832 83.3867 71.9883 86.0586C71.1445 88.7305 70.3359 91.543 69.5625 94.4961C68.5781 95.5508 67.8047 97.0625 67.2422 99.0312C66.75 100.93 66.7148 102.793 67.1367 104.621C66.2227 105.746 65.3086 106.836 64.3945 107.891C63.4805 108.945 62.4609 109.93 61.3359 110.844C60.9141 110.422 60.3516 110.176 59.6484 110.105C59.0156 110.105 58.3477 110.105 57.6445 110.105C56.9414 110.176 56.2734 110.246 55.6406 110.316C55.0781 110.457 54.6562 110.492 54.375 110.422C54.0234 109.859 53.5312 109.262 52.8984 108.629C52.3359 107.996 51.8086 107.328 51.3164 106.625C50.8945 105.922 50.543 105.254 50.2617 104.621C50.0508 103.918 50.1211 103.25 50.4727 102.617C50.4727 101.844 50.0508 101.457 49.207 101.457C49.418 98.2227 49.9453 95.0586 50.7891 91.9648C51.6328 88.8008 52.582 85.7422 53.6367 82.7891C54.6914 79.7656 55.7109 76.7773 56.6953 73.8242C57.75 70.8711 58.5234 67.9531 59.0156 65.0703C59.5781 62.1875 59.7188 59.3047 59.4375 56.4219C59.2266 53.5391 58.418 50.6211 57.0117 47.668C57.0117 46.6836 56.9766 45.875 56.9062 45.2422C56.9062 44.5391 56.8711 43.9414 56.8008 43.4492C56.8008 42.8867 56.7656 42.3594 56.6953 41.8672C56.625 41.375 56.4844 40.8477 56.2734 40.2852C56.625 39.3008 56.8711 38.3867 57.0117 37.543C57.2227 36.6992 57.2227 35.9258 57.0117 35.2227C57.082 34.7305 57.2227 34.3438 57.4336 34.0625C57.6445 33.7109 57.8906 33.3945 58.1719 33.1133C58.4531 32.7617 58.6992 32.4453 58.9102 32.1641C59.1914 31.8125 59.3672 31.3906 59.4375 30.8984H61.7578C62.5312 31.5312 63.1992 32.1289 63.7617 32.6914C64.3242 33.1836 65.0625 33.5 65.9766 33.6406Z" fill="#FFDE14"/>
<path d="M125.574 352.338C130.604 397.056 98.2636 413.338 64.5742 413.338C18.075 413.338 0.574219 392.027 0.574219 358.338C0.57461 318.338 24.5745 293.338 56.0738 287.338C89.7632 287.338 121.075 312.338 125.574 352.338Z" fill="#00A6E3"/>
<path d="M103.098 371.986C104.785 372.83 105.629 373.885 105.629 375.15C105.699 376.416 105.312 377.611 104.469 378.736C103.695 379.791 102.641 380.6 101.305 381.162C100.039 381.725 98.8789 381.689 97.8242 381.057C97.6836 381.619 97.3672 382.006 96.875 382.217C96.4531 382.357 96.1719 382.674 96.0312 383.166C89.2109 384.221 82.25 385.521 75.1484 387.068C68.0469 388.615 60.9453 389.775 53.8438 390.549C48.3594 390.338 43.7891 389.529 40.1328 388.123C38.6562 386.857 37.5312 385.275 36.7578 383.377C36.0547 381.479 35.6328 379.475 35.4922 377.365C35.3516 375.256 35.4219 373.217 35.7031 371.248C35.9844 369.209 36.4062 367.451 36.9688 365.975C40.625 361.334 44.4219 356.904 48.3594 352.686C52.3672 348.396 56.9023 344.6 61.9648 341.295C63.4414 339.467 65.1641 337.92 67.1328 336.654C69.1016 335.318 70.8945 333.842 72.5117 332.225C70.4023 331.451 68.1875 331.064 65.8672 331.064C63.5469 331.064 61.2617 331.275 59.0117 331.697C56.7617 332.049 54.6523 332.506 52.6836 333.068C50.7148 333.631 48.9922 334.053 47.5156 334.334C46.3906 333.771 45.0547 333.455 43.5078 333.385C42.0312 333.314 40.5547 333.033 39.0781 332.541C38.2344 331.838 37.6367 330.924 37.2852 329.799C37.0039 328.674 36.8281 327.514 36.7578 326.318C36.6875 325.123 36.6523 323.998 36.6523 322.943C36.6523 321.818 36.5117 320.904 36.2305 320.201C36.793 319.287 37.2852 318.373 37.707 317.459C38.1992 316.545 38.7617 315.701 39.3945 314.928C42.6992 314.014 46.3555 313.275 50.3633 312.713C54.3711 312.08 58.4141 311.799 62.4922 311.869C66.5703 311.939 70.5078 312.467 74.3047 313.451C78.1016 314.365 81.4766 315.912 84.4297 318.092C84.7812 320.061 85.5195 321.643 86.6445 322.838C87.7695 323.963 89.1406 324.842 90.7578 325.475C91.5312 326.881 92.1992 328.322 92.7617 329.799C93.3242 331.205 93.7109 332.717 93.9219 334.334C92.5156 338.061 90.5117 341.225 87.9102 343.826C85.3789 346.357 82.8125 348.678 80.2109 350.787C78.8047 351.982 77.293 353.002 75.6758 353.846C74.0586 354.689 72.6523 355.674 71.457 356.799C71.1758 357.08 71 357.467 70.9297 357.959C70.8594 358.381 70.6836 358.697 70.4023 358.908C69.1367 360.033 67.7305 361.053 66.1836 361.967C64.6367 362.811 63.2305 363.795 61.9648 364.92C61.0508 365.693 60.2773 366.537 59.6445 367.451C59.082 368.365 58.3086 369.174 57.3242 369.877C58.5898 370.299 59.8203 370.475 61.0156 370.404C62.2812 370.334 63.5469 370.193 64.8125 369.982C66.1484 369.771 67.4844 369.561 68.8203 369.35C70.2266 369.139 71.668 369.068 73.1445 369.139C75.1836 368.436 77.4336 367.838 79.8945 367.346C82.3555 366.783 84.8164 366.572 87.2773 366.713C89.3867 365.869 91.3906 365.271 93.2891 364.92C95.2578 364.498 97.1211 364.393 98.8789 364.604C99.793 364.955 100.461 365.588 100.883 366.502C101.375 367.416 102.113 368.049 103.098 368.4C102.887 369.174 102.816 369.736 102.887 370.088C103.027 370.439 103.098 371.072 103.098 371.986Z" fill="#FFDE14"/>
<path d="M126 614.338C131.03 659.056 98.6894 675.338 65 675.338C18.5007 675.338 1 654.027 1 620.338C1.00039 580.338 25.0003 555.338 56.4996 549.338C90.189 549.338 121.501 574.338 126 614.338Z" fill="#0DD180"/>
<path d="M38.9746 579.619C42.8418 578.846 46.6738 578.072 50.4707 577.299C54.2676 576.455 58.0645 575.752 61.8613 575.189C65.7285 574.627 69.666 574.24 73.6738 574.029C77.6816 573.818 81.9004 573.924 86.3301 574.346C88.0879 576.174 89.6348 578.178 90.9707 580.357C92.3066 582.467 93.5723 584.682 94.7676 587.002C94.627 587.494 94.5215 587.986 94.4512 588.479C94.4512 588.971 94.3809 589.498 94.2402 590.061C93.8887 590.975 93.3965 591.818 92.7637 592.592C92.2012 593.295 91.7441 594.139 91.3926 595.123C89.6348 596.107 87.9473 597.162 86.3301 598.287C84.7832 599.412 83.2363 600.572 81.6895 601.768C80.4238 602.33 79.0879 602.857 77.6816 603.35C76.3457 603.771 75.3262 604.615 74.623 605.881C76.9434 606.865 78.9824 608.061 80.7402 609.467C82.498 610.873 84.0449 612.455 85.3809 614.213C86.7168 615.971 87.877 617.869 88.8613 619.908C89.8457 621.947 90.7246 624.057 91.498 626.236C91.3574 627.291 91.1816 628.381 90.9707 629.506C90.7598 630.631 90.7598 631.58 90.9707 632.354C90.4785 633.83 89.8105 635.025 88.9668 635.939C88.1934 636.783 87.4199 637.943 86.6465 639.42C84.1855 640.475 82.1816 641.951 80.6348 643.85C79.9316 643.85 79.5801 643.709 79.5801 643.428C77.4004 644.904 74.8691 646.17 71.9863 647.225C69.1035 648.209 66.0098 648.982 62.7051 649.545C59.4004 650.107 55.9199 650.424 52.2637 650.494C48.6074 650.564 44.9512 650.424 41.2949 650.072C41.0137 649.861 40.7676 649.615 40.5566 649.334C40.3457 649.053 39.9238 648.947 39.291 649.018C39.0098 648.314 38.623 647.717 38.1309 647.225C37.709 646.662 37.3574 646.029 37.0762 645.326C37.7793 644.201 38.2363 642.9 38.4473 641.424C38.7285 639.947 39.0098 638.541 39.291 637.205C39.6426 635.799 40.0996 634.568 40.6621 633.514C41.2246 632.389 42.1738 631.58 43.5098 631.088C44.0723 631.018 44.3887 631.193 44.459 631.615C44.5293 632.037 44.7402 632.318 45.0918 632.459C47.834 632.459 50.5762 632.424 53.3184 632.354C56.0605 632.213 58.6621 631.967 61.123 631.615C63.584 631.193 65.8691 630.596 67.9785 629.822C70.1582 629.049 72.0215 627.959 73.5684 626.553C71.459 624.865 68.998 623.6 66.1855 622.756C63.373 621.842 60.6309 620.963 57.959 620.119C55.3574 619.275 53.0371 618.221 50.998 616.955C48.959 615.619 47.623 613.686 46.9902 611.154C47.3418 609.537 47.5879 608.096 47.7285 606.83C47.8691 605.564 48.0449 604.404 48.2559 603.35C48.4668 602.295 48.7832 601.311 49.2051 600.396C49.6973 599.412 50.4707 598.463 51.5254 597.549C51.1738 597.338 50.6465 597.303 49.9434 597.443C49.3105 597.514 48.6074 597.689 47.834 597.971C47.0605 598.182 46.2871 598.463 45.5137 598.814C44.8105 599.096 44.2129 599.342 43.7207 599.553C42.2441 599.201 40.7324 598.99 39.1855 598.92C37.709 598.779 36.3379 598.322 35.0723 597.549C34.9316 596.775 34.7559 595.932 34.5449 595.018C34.334 594.033 34.1934 593.049 34.123 592.064C34.0527 591.08 34.123 590.096 34.334 589.111C34.5449 588.127 35.0371 587.213 35.8105 586.369C35.6699 585.877 35.5645 585.385 35.4941 584.893C35.4238 584.4 35.2832 583.979 35.0723 583.627C35.8457 582.994 36.6543 582.361 37.498 581.729C38.4121 581.096 38.9043 580.393 38.9746 579.619Z" fill="#FFDE14"/>
<path d="M127 883.338C132.03 928.056 99.6894 944.338 66 944.338C19.5007 944.338 2 923.027 2 889.338C2.00039 849.338 26.0003 824.338 57.4996 818.338C91.189 818.338 122.501 843.338 127 883.338Z" fill="#00A6E3"/>
<path d="M91.1836 873.709C91.6055 874.904 92.0273 875.959 92.4492 876.873C92.8711 877.787 93.6797 878.596 94.875 879.299C94.5938 880.916 94.5234 882.252 94.6641 883.307C94.8047 884.361 94.6289 885.662 94.1367 887.209C93.1523 888.264 91.957 889.107 90.5508 889.74C89.2148 890.373 87.8086 890.936 86.332 891.428C84.9258 891.85 83.4844 892.307 82.0078 892.799C80.6016 893.291 79.3008 893.959 78.1055 894.803C77.1914 897.615 76.207 900.393 75.1523 903.135C74.168 905.877 73.2891 908.9 72.5156 912.205C72.6562 912.557 72.9023 912.803 73.2539 912.943C73.6055 913.084 73.8867 913.295 74.0977 913.576C73.7461 914.561 73.7109 915.369 73.9922 916.002C74.2734 916.564 74.6602 917.092 75.1523 917.584C75.6445 918.076 76.1367 918.568 76.6289 919.061C77.1914 919.553 77.5781 920.115 77.7891 920.748C77.5078 921.381 77.332 922.014 77.2617 922.646C77.1914 923.279 77.1211 923.912 77.0508 924.545C77.0508 925.178 76.9453 925.811 76.7344 926.443C76.5938 927.076 76.2773 927.709 75.7852 928.342C74.3789 928.904 72.9375 929.186 71.4609 929.186C70.0547 929.186 68.7539 929.361 67.5586 929.713C66.082 929.361 64.8164 928.623 63.7617 927.498C62.7773 926.443 61.9688 925.213 61.3359 923.807C60.7031 922.4 60.2109 920.959 59.8594 919.482C59.5078 918.006 59.2266 916.705 59.0156 915.58C59.4375 914.807 59.332 914.455 58.6992 914.525C58.418 913.541 58.4531 912.592 58.8047 911.678C59.1562 910.764 59.2266 910.061 59.0156 909.568C59.1562 907.811 59.4375 905.982 59.8594 904.084C60.2812 902.115 60.7734 899.9 61.3359 897.439C60.4219 897.229 59.4023 897.053 58.2773 896.912C57.2227 896.701 56.168 896.561 55.1133 896.49C54.1289 896.35 53.2148 896.244 52.3711 896.174C51.5273 896.104 50.8945 896.068 50.4727 896.068C49.418 895.787 48.5039 895.365 47.7305 894.803C46.957 894.17 46.2539 893.502 45.6211 892.799C44.9883 892.025 44.3555 891.252 43.7227 890.479C43.1602 889.705 42.5625 888.967 41.9297 888.264C41.7188 885.803 41.3672 883.307 40.875 880.775C40.3828 878.244 39.9258 875.783 39.5039 873.393C39.082 871.002 38.7656 868.752 38.5547 866.643C38.3438 864.533 38.4492 862.635 38.8711 860.947C39.5742 859.893 40.2773 858.873 40.9805 857.889C41.6836 856.904 42.5273 856.061 43.5117 855.357C44.2852 855.568 44.8828 855.955 45.3047 856.518C45.7969 857.01 46.2188 857.572 46.5703 858.205C46.9922 858.768 47.4141 859.33 47.8359 859.893C48.3281 860.385 48.9609 860.736 49.7344 860.947C50.0156 862.283 50.4375 863.549 51 864.744C51.6328 865.869 52.1953 867.029 52.6875 868.225C53.25 869.42 53.707 870.686 54.0586 872.021C54.4805 873.287 54.6914 874.729 54.6914 876.346C55.3945 877.4 56.1328 878.068 56.9062 878.35C57.75 878.561 58.6289 878.631 59.543 878.561C60.457 878.49 61.3711 878.42 62.2852 878.35C63.2695 878.279 64.2539 878.385 65.2383 878.666C65.4492 878.314 65.8008 878.139 66.293 878.139C66.7852 878.068 67.207 877.928 67.5586 877.717C67.9805 877.576 68.1914 877.225 68.1914 876.662C68.2617 876.1 68.5781 875.783 69.1406 875.713C69 874.518 69 873.357 69.1406 872.232C69.3516 871.037 69.5273 869.912 69.668 868.857C69.8789 867.803 69.9844 866.783 69.9844 865.799C70.0547 864.814 69.9141 863.83 69.5625 862.846C70.2656 861.51 70.6875 859.928 70.8281 858.1C71.0391 856.201 71.25 854.373 71.4609 852.615C71.7422 850.857 72.1992 849.275 72.832 847.869C73.5352 846.393 74.7305 845.373 76.418 844.811C80.6367 848.396 83.5898 853.213 85.2773 859.26C84.5742 862.213 84.1523 864.955 84.0117 867.486C83.9414 870.018 83.9414 872.549 84.0117 875.08C85.207 874.729 86.4375 874.447 87.7031 874.236C89.0391 874.025 90.1992 873.85 91.1836 873.709Z" fill="#FFDE14"/>
</svg>
