<svg width="32" height="32" viewBox="0 0 32 32" fill="none" xmlns="http://www.w3.org/2000/svg">
<path d="M28.0829 15.7608L27.8695 15.4674C27.4962 15.0141 27.0562 14.6541 26.5495 14.3874C25.8695 14.0008 25.0962 13.8008 24.2962 13.8008H7.6962C6.8962 13.8008 6.1362 14.0008 5.44287 14.3874C4.92287 14.6674 4.4562 15.0541 4.06953 15.5341C3.30953 16.5074 2.94953 17.7074 3.06953 18.9074L3.56287 25.1341C3.7362 27.0141 3.96287 29.3341 8.18953 29.3341H23.8162C28.0429 29.3341 28.2562 27.0141 28.4429 25.1208L28.9362 18.9208C29.0562 17.8008 28.7629 16.6808 28.0829 15.7608ZM19.1895 23.1208H12.8029C12.2829 23.1208 11.8695 22.6941 11.8695 22.1874C11.8695 21.6808 12.2829 21.2541 12.8029 21.2541H19.1895C19.7095 21.2541 20.1229 21.6808 20.1229 22.1874C20.1229 22.7074 19.7095 23.1208 19.1895 23.1208Z" fill="#237FEA"/>
<path opacity="0.4" d="M4.50781 15.0813C4.80115 14.8146 5.09448 14.5746 5.44115 14.388C6.12115 14.0013 6.89448 13.8013 7.69448 13.8013H24.3078C25.1078 13.8013 25.8678 14.0013 26.5611 14.388C26.9078 14.5746 27.2145 14.8146 27.4945 15.0946V14.388V13.0946C27.4945 8.33464 26.0411 6.8813 21.2811 6.8813H18.1078C17.5211 6.8813 17.5078 6.86797 17.1611 6.41464L15.5611 4.26797C14.8011 3.2813 14.2011 2.66797 12.2945 2.66797H10.7211C5.96115 2.66797 4.50781 4.1213 4.50781 8.8813V14.4013V15.0813Z" fill="#237FEA"/>
</svg>
