<svg width="35" height="34" viewBox="0 0 35 34" fill="none" xmlns="http://www.w3.org/2000/svg">
<path d="M33.8197 14.2778L27.6861 27.7826C27.486 28.2168 27.1658 28.5845 26.7633 28.8424C26.3608 29.1003 25.8929 29.2375 25.4149 29.2378H3.65489C2.9992 29.2353 2.37107 28.9737 1.90743 28.5101C1.44378 28.0464 1.18219 27.4183 1.17969 26.7626V6.11781C1.18076 5.75745 1.32439 5.41215 1.57921 5.15734C1.83403 4.90252 2.17932 4.75889 2.53969 4.75781H12.6853C12.9113 4.75817 13.1338 4.81419 13.333 4.92093C13.5323 5.02767 13.7022 5.18184 13.8277 5.36981L16.1397 8.83781H27.0197C27.3801 8.83889 27.7253 8.98252 27.9802 9.23734C28.235 9.49215 28.3786 9.83745 28.3797 10.1978V14.2778H33.8197Z" fill="#376CFB"/>
<path d="M33.821 14.2773L27.6874 27.7821C27.4874 28.2163 27.1672 28.5841 26.7647 28.842C26.3622 29.0998 25.8943 29.237 25.4162 29.2373H3.65625C4.13427 29.237 4.60221 29.0998 5.0047 28.842C5.4072 28.5841 5.72741 28.2163 5.92745 27.7821L12.061 14.2773H33.821Z" fill="#4294FF"/>
</svg>
