<svg width="161" height="156" viewBox="0 0 161 156" fill="none" xmlns="http://www.w3.org/2000/svg">
<g clip-path="url(#clip0_1_36692)">
<path d="M88.9039 52.918L67.5786 55.0241C54.6054 56.3055 45.1565 67.9141 46.4427 80.9376L46.8133 84.6891C48.0258 96.9666 58.3488 106.127 70.3737 106.08L77.8673 120.837L79.7854 105.581C81.3307 105.407 83.1432 105.121 85.0957 104.734L93.8929 103.865C106.845 102.586 116.315 90.9753 115.029 77.9518L114.658 74.2003C113.414 61.1726 101.856 51.6388 88.9039 52.918Z" fill="#0DD180"/>
<path d="M119.146 136.109L103.883 137.617L103.569 134.441L118.832 132.933C124.365 132.387 130.382 127.424 131.994 122.077L132.334 120.968C134.142 114.999 135.27 111.035 135.502 110.13L135.532 109.998L135.53 109.976L135.595 109.992L138.627 109.692L138.662 110.055C138.696 110.396 138.73 110.737 135.358 121.896L135.018 123.005C133.055 129.57 125.929 135.439 119.146 136.109Z" fill="#00A6E3"/>
<path d="M68.5125 8.57187C39.3227 11.4548 17.9321 37.8239 20.8478 67.3453L21.7383 76.3616L29.4332 75.6016L28.5427 66.5853C26.0502 41.3482 44.3095 18.8182 69.2597 16.354L73.8809 15.8976L73.1125 8.11755L68.5125 8.57187Z" fill="#00A6E3"/>
<path d="M77.755 7.65882L73.1338 8.11523L73.9022 15.8952L78.5234 15.4388C103.474 12.9746 125.787 31.4975 128.28 56.7345L129.17 65.7508L136.865 64.9908L135.975 55.9746C133.08 26.4511 106.966 4.7738 77.755 7.65882Z" fill="#00A6E3"/>
<path d="M149.57 64.6836C145.09 60.0681 138.477 60.2908 138.477 60.2908C136.065 59.9264 133.865 60.1868 131.948 60.9357L137.718 119.36C139.744 119.72 141.953 119.545 144.247 118.716C144.247 118.716 150.798 117.638 154.267 112.238C157.758 106.835 154.05 69.299 149.57 64.6836Z" fill="#042C89"/>
<path d="M125.087 73.1708L128.596 108.703C129.175 114.565 132.841 118.529 137.697 119.362L131.927 60.9374C127.349 62.7024 124.508 67.3092 125.087 73.1708Z" fill="#0048C4"/>
<path d="M19.2801 72.0632C19.2801 72.0632 12.7317 73.1619 9.23903 78.5432C5.7697 83.9438 9.47692 121.48 13.9357 126.097C18.4157 130.713 25.0504 130.488 25.0504 130.488C27.4623 130.852 29.6627 130.592 31.5794 129.843L25.8091 71.4183C23.8041 71.0567 21.5741 71.2339 19.2801 72.0632Z" fill="#042C89"/>
<path d="M25.8096 71.418L31.5799 129.843C36.1553 128.056 38.9988 123.471 38.4199 117.609L34.9105 82.077C34.3316 76.2153 30.6652 72.2513 25.8096 71.418Z" fill="#0048C4"/>
<path d="M99.1633 71.4046L62.1302 75.0622C61.2611 75.148 60.4921 74.5137 60.4058 73.6398C60.3195 72.7659 60.9495 71.9934 61.8187 71.9076L98.8518 68.25C99.7209 68.1642 100.49 68.7985 100.576 69.6724C100.663 70.5463 100.032 71.3188 99.1633 71.4046Z" fill="#FDFDFF"/>
<path d="M100.013 80.016L62.9798 83.6735C62.1107 83.7594 61.3417 83.1251 61.2554 82.2511C61.1691 81.3772 61.7991 80.6047 62.6683 80.5189L99.7014 76.8613C100.571 76.7755 101.34 77.4098 101.426 78.2837C101.512 79.1576 100.882 79.9301 100.013 80.016Z" fill="#FDFDFF"/>
<path d="M100.865 88.6488L63.8324 92.3063C62.9633 92.3922 62.1942 91.7579 62.1079 90.884C62.0216 90.01 62.6517 89.2376 63.5208 89.1517L100.554 85.4941C101.423 85.4083 102.192 86.0426 102.278 86.9165C102.365 87.7905 101.735 88.5629 100.865 88.6488Z" fill="#FDFDFF"/>
<path d="M85.806 148.55L91.2963 148.008L96.7866 147.465C103.061 146.846 107.644 141.227 107.02 134.918L73.3154 138.247C73.9386 144.556 79.5314 149.169 85.806 148.55Z" fill="#00A6E3"/>
<path d="M94.5274 124.594L89.0371 125.136L83.5468 125.679C77.2721 126.298 72.6898 131.916 73.3129 138.226L107.018 134.897C106.395 128.588 100.802 123.974 94.5274 124.594Z" fill="#00A6E3"/>
</g>
<defs>
<clipPath id="clip0_1_36692">
<rect width="147" height="141" fill="white" transform="translate(0 15.3379) rotate(-5.64052)"/>
</clipPath>
</defs>
</svg>
