<svg width="153" height="58" viewBox="0 0 153 58" fill="none" xmlns="http://www.w3.org/2000/svg">
<g id="Component 13" clip-path="url(#clip0_1_9661)">
<path id="Vector" d="M24.47 6.69945L20.21 11.5895C16.84 8.21945 13.68 6.53945 10.74 6.53945C9.5 6.53945 8.53 6.80945 7.84 7.35945C7.15 7.90945 6.8 8.65945 6.8 9.61945C6.8 10.9995 7.28 12.1095 8.24 12.9395C9.2 13.7695 10.4 14.5095 11.86 15.1495C13.31 15.7895 14.88 16.4195 16.57 17.0395C18.25 17.6595 19.82 18.4595 21.28 19.4295C22.73 20.4095 23.94 21.6295 24.9 23.0995C25.86 24.5695 26.34 26.4795 26.34 28.8195C26.34 30.4895 26.04 31.9795 25.43 33.3095C24.83 34.6395 23.97 35.7795 22.85 36.7095C21.73 37.6495 20.38 38.3695 18.78 38.8595C17.18 39.3595 15.39 39.5995 13.41 39.5995C10.82 39.5995 8.32 39.1795 5.91 38.3495C3.49 37.5395 1.52 36.4195 0 34.9995L4.26 30.1095C6.39 32.0595 8.45 33.4995 10.46 34.4195C12.46 35.3395 14.42 35.7995 16.34 35.7995C17.86 35.7995 19.04 35.4795 19.88 34.8395C20.71 34.1995 21.13 33.2995 21.13 32.1295C21.13 30.7795 20.64 29.6895 19.67 28.8595C18.7 28.0295 17.48 27.2795 16.03 26.6295C14.58 25.9795 12.99 25.3295 11.27 24.6895C9.55 24.0495 7.96 23.2595 6.51 22.3195C5.05 21.3795 3.84 20.2295 2.87 18.8595C1.89 17.4895 1.41 15.7495 1.41 13.6195C1.41 11.9895 1.68 10.5195 2.24 9.20945C2.79 7.89945 3.56 6.76945 4.55 5.82945C5.54 4.88945 6.76 4.16945 8.19 3.67945C9.63 3.17945 11.21 2.93945 12.95 2.93945C14.97 2.93945 16.98 3.26945 18.99 3.91945C20.97 4.56945 22.8 5.49945 24.47 6.69945Z" fill="white"/>
<path id="Vector_2" d="M33.6702 21.38L30.5302 17.18C32.3002 15.9 34.1602 14.93 36.1102 14.26C38.0602 13.59 40.0502 13.25 42.0702 13.25C45.0502 13.25 47.3502 14.02 48.9802 15.56C50.6102 17.1 51.4302 19.27 51.4302 22.08V39.1H50.3702L44.6802 37.24C44.0102 36.99 43.6702 36.53 43.6702 35.86V34.74H43.5602C41.9602 36.41 40.4802 37.6 39.1202 38.33C37.7602 39.06 36.3302 39.42 34.8402 39.42C32.9302 39.42 31.3802 38.84 30.2102 37.66C29.0402 36.49 28.4502 34.91 28.4502 32.93C28.4502 31.55 28.8002 30.27 29.5102 29.1C30.2202 27.93 31.2002 26.92 32.4602 26.07C33.7202 25.22 35.2202 24.55 36.9502 24.08C38.6902 23.6 40.6002 23.36 42.6902 23.36H43.6502V19.53C43.6502 17.15 42.6602 15.97 40.6702 15.97C39.4602 15.97 38.2602 16.43 37.0502 17.35C35.8702 18.26 34.7302 19.61 33.6702 21.38ZM43.6702 31.81V26.01C42.7102 26.01 41.8202 26.16 40.9802 26.46C40.1502 26.76 39.4202 27.17 38.8002 27.68C38.1802 28.19 37.6802 28.79 37.3102 29.46C36.9402 30.13 36.7502 30.86 36.7502 31.64C36.7502 33.13 37.4802 33.87 38.9302 33.87C39.6702 33.87 40.5002 33.67 41.4002 33.28C42.3102 32.91 43.0702 32.41 43.6702 31.81Z" fill="white"/>
<path id="Vector_3" d="M63.8804 39.0902H55.6904V13.2402H56.1104L62.6004 15.5302C63.2404 15.7802 63.5604 16.2902 63.5604 17.0702V18.8302H63.7704C65.3604 16.8802 66.9304 15.4602 68.4804 14.5702C70.0204 13.6902 71.6504 13.2402 73.3504 13.2402C75.0904 13.2402 76.5404 13.7502 77.7104 14.7602C78.8804 15.7702 79.6604 17.2002 80.0504 19.0402H80.1604C81.6504 17.2302 83.1704 15.8102 84.7104 14.7902C86.2504 13.7602 87.9804 13.2502 89.9004 13.2502C92.1304 13.2502 93.8704 14.0002 95.1104 15.5102C96.3504 17.0202 96.9704 19.1402 96.9704 21.8702V39.1002H88.7804V22.7102C88.7804 21.5702 88.5204 20.6902 88.0104 20.0502C87.5004 19.4102 86.7804 19.0902 85.8604 19.0902C84.1204 19.0902 82.3104 20.2302 80.4404 22.4902V39.0802H72.2504V22.7102C72.2504 21.5702 71.9904 20.6902 71.4804 20.0502C70.9704 19.4102 70.2504 19.0902 69.3304 19.0902C67.5904 19.0902 65.7804 20.2302 63.9104 22.4902V39.0902H63.8804Z" fill="white"/>
<path id="Vector_4" d="M109.41 18.83H109.52C110.97 16.88 112.45 15.46 113.94 14.57C115.43 13.68 117.1 13.24 118.94 13.24C120.22 13.24 121.39 13.49 122.45 13.98C123.51 14.48 124.42 15.19 125.16 16.11C125.9 17.03 126.48 18.14 126.89 19.43C127.3 20.72 127.5 22.17 127.5 23.77C127.5 26.15 127.09 28.3 126.28 30.23C125.46 32.16 124.29 33.8 122.77 35.15C121.24 36.5 119.4 37.54 117.24 38.29C115.08 39.03 112.66 39.41 110.01 39.41C107.21 39.41 104.28 38.98 101.23 38.13V0H101.65L108.41 2.34C109.08 2.55 109.42 3.01 109.42 3.72V18.83H109.41ZM109.41 21.91V36.8C110.97 36.73 112.38 36.43 113.64 35.9C114.9 35.37 115.97 34.63 116.86 33.69C117.75 32.75 118.44 31.63 118.94 30.34C119.44 29.05 119.68 27.6 119.68 26.01C119.68 23.99 119.23 22.38 118.32 21.17C117.42 19.97 116.22 19.36 114.73 19.36C112.99 19.36 111.22 20.21 109.41 21.91Z" fill="white"/>
<path id="Vector_5" d="M134.3 21.38L131.16 17.18C132.93 15.9 134.79 14.93 136.74 14.26C138.69 13.59 140.68 13.25 142.7 13.25C145.68 13.25 147.98 14.02 149.61 15.56C151.24 17.1 152.06 19.27 152.06 22.08V39.1H151L145.31 37.24C144.64 36.99 144.3 36.53 144.3 35.86V34.74H144.19C142.59 36.41 141.11 37.6 139.75 38.33C138.39 39.06 136.96 39.42 135.47 39.42C133.56 39.42 132.01 38.84 130.84 37.66C129.67 36.49 129.08 34.91 129.08 32.93C129.08 31.55 129.43 30.27 130.14 29.1C130.85 27.93 131.83 26.92 133.09 26.07C134.35 25.22 135.85 24.55 137.58 24.08C139.32 23.6 141.23 23.36 143.32 23.36H144.28V19.53C144.28 17.15 143.29 15.97 141.3 15.97C140.09 15.97 138.89 16.43 137.68 17.35C136.5 18.26 135.37 19.61 134.3 21.38ZM144.3 31.81V26.01C143.34 26.01 142.45 26.16 141.61 26.46C140.78 26.76 140.05 27.17 139.43 27.68C138.81 28.19 138.31 28.79 137.94 29.46C137.57 30.13 137.38 30.86 137.38 31.64C137.38 33.13 138.11 33.87 139.56 33.87C140.3 33.87 141.13 33.67 142.03 33.28C142.95 32.91 143.7 32.41 144.3 31.81Z" fill="white"/>
<path id="Vector_6" d="M18.22 49.1402L17.18 50.3402C16.36 49.5102 15.58 49.1002 14.86 49.1002C14.56 49.1002 14.32 49.1702 14.15 49.3002C13.98 49.4302 13.9 49.6202 13.9 49.8502C13.9 50.1902 14.02 50.4602 14.25 50.6702C14.48 50.8702 14.78 51.0502 15.14 51.2102C15.5 51.3702 15.88 51.5202 16.29 51.6702C16.7 51.8202 17.09 52.0202 17.44 52.2602C17.79 52.5002 18.09 52.8002 18.32 53.1602C18.56 53.5202 18.67 53.9902 18.67 54.5602C18.67 54.9702 18.6 55.3302 18.45 55.6602C18.3 55.9802 18.09 56.2602 17.82 56.4902C17.55 56.7202 17.21 56.9002 16.82 57.0202C16.43 57.1402 15.99 57.2002 15.5 57.2002C14.87 57.2002 14.25 57.1002 13.66 56.8902C13.07 56.6902 12.59 56.4102 12.21 56.0602L13.25 54.8602C13.77 55.3402 14.28 55.6902 14.77 55.9202C15.26 56.1502 15.74 56.2602 16.21 56.2602C16.58 56.2602 16.87 56.1802 17.08 56.0302C17.28 55.8702 17.39 55.6502 17.39 55.3602C17.39 55.0302 17.27 54.7602 17.03 54.5602C16.79 54.3602 16.49 54.1702 16.14 54.0102C15.78 53.8502 15.4 53.6902 14.97 53.5302C14.55 53.3702 14.16 53.1802 13.8 52.9502C13.44 52.7202 13.15 52.4402 12.91 52.1002C12.67 51.7702 12.55 51.3402 12.55 50.8202C12.55 50.4202 12.62 50.0602 12.75 49.7402C12.88 49.4202 13.07 49.1402 13.32 48.9102C13.56 48.6802 13.86 48.5002 14.21 48.3802C14.56 48.2602 14.95 48.2002 15.37 48.2002C15.87 48.2002 16.36 48.2802 16.85 48.4402C17.36 48.6202 17.81 48.8502 18.22 49.1402Z" fill="white"/>
<path id="Vector_7" d="M20.8301 52.7097C20.8301 52.0297 20.9401 51.4197 21.1601 50.8697C21.3801 50.3197 21.7001 49.8497 22.1001 49.4597C22.5001 49.0697 22.9901 48.7697 23.5601 48.5497C24.1301 48.3297 24.7601 48.2197 25.4601 48.2197C26.1501 48.2197 26.7901 48.3297 27.3601 48.5497C27.9301 48.7697 28.4101 49.0697 28.8201 49.4597C29.2201 49.8497 29.5401 50.3197 29.7601 50.8697C29.9801 51.4197 30.0901 52.0397 30.0901 52.7097C30.0901 53.3797 29.9801 53.9997 29.7601 54.5497C29.5401 55.0997 29.2301 55.5697 28.8201 55.9597C28.4201 56.3497 27.9301 56.6597 27.3601 56.8697C26.7901 57.0897 26.1601 57.1997 25.4601 57.1997C24.7601 57.1997 24.1301 57.0897 23.5601 56.8697C22.9901 56.6497 22.5101 56.3497 22.1001 55.9597C21.7001 55.5697 21.3801 55.0997 21.1601 54.5497C20.9401 53.9997 20.8301 53.3897 20.8301 52.7097ZM23.0201 52.2597C23.0201 52.8397 23.0901 53.3797 23.2301 53.8897C23.3701 54.3897 23.5601 54.8297 23.8001 55.2097C24.0401 55.5797 24.3201 55.8797 24.6401 56.0997C24.9601 56.3197 25.3101 56.4297 25.6801 56.4297C26.0201 56.4297 26.3201 56.3497 26.6001 56.1997C26.8701 56.0497 27.1101 55.8297 27.3001 55.5497C27.4901 55.2697 27.6401 54.9297 27.7401 54.5297C27.8401 54.1297 27.9001 53.6797 27.9001 53.1897C27.9001 52.6097 27.8301 52.0597 27.6901 51.5597C27.5501 51.0597 27.3601 50.6197 27.1201 50.2397C26.8801 49.8697 26.6001 49.5697 26.2801 49.3497C25.9601 49.1297 25.6101 49.0197 25.2401 49.0197C24.9001 49.0197 24.5901 49.0997 24.3201 49.2497C24.0501 49.3997 23.8101 49.6197 23.6201 49.8997C23.4301 50.1797 23.2801 50.5197 23.1801 50.9197C23.0701 51.3197 23.0201 51.7597 23.0201 52.2597Z" fill="white"/>
<path id="Vector_8" d="M32.29 52.8197C32.29 52.1397 32.4 51.5197 32.61 50.9597C32.83 50.3997 33.13 49.9197 33.53 49.5097C33.93 49.0997 34.4 48.7797 34.94 48.5597C35.49 48.3297 36.09 48.2197 36.74 48.2197C37.41 48.2197 38.01 48.3297 38.55 48.5497C39.09 48.7697 39.54 49.0597 39.91 49.4197L38.5 51.0497C38.3 50.3897 38.04 49.8797 37.73 49.5297C37.41 49.1797 37.05 48.9997 36.65 48.9997C36.31 48.9997 36.01 49.0797 35.74 49.2297C35.47 49.3797 35.24 49.5897 35.04 49.8697C34.84 50.1397 34.69 50.4797 34.59 50.8697C34.49 51.2597 34.43 51.6897 34.43 52.1697C34.43 52.7497 34.5 53.2897 34.64 53.7797C34.78 54.2697 34.97 54.6997 35.21 55.0597C35.45 55.4197 35.74 55.6997 36.08 55.9097C36.42 56.1097 36.78 56.2197 37.17 56.2197C38.26 56.2197 39.14 55.8197 39.82 55.0297L40.17 55.2897C39.81 55.8997 39.33 56.3697 38.73 56.7097C38.12 57.0497 37.44 57.2197 36.7 57.2197C36.06 57.2197 35.46 57.1097 34.92 56.8897C34.38 56.6697 33.91 56.3697 33.52 55.9897C33.13 55.5997 32.82 55.1397 32.61 54.5997C32.4 54.0497 32.29 53.4597 32.29 52.8197Z" fill="white"/>
<path id="Vector_9" d="M42.2002 52.8197C42.2002 52.1397 42.3102 51.5197 42.5202 50.9597C42.7402 50.3997 43.0402 49.9197 43.4402 49.5097C43.8402 49.0997 44.3102 48.7797 44.8502 48.5597C45.4002 48.3297 46.0002 48.2197 46.6502 48.2197C47.3202 48.2197 47.9202 48.3297 48.4602 48.5497C49.0002 48.7697 49.4502 49.0597 49.8202 49.4197L48.4102 51.0497C48.2102 50.3897 47.9502 49.8797 47.6402 49.5297C47.3202 49.1797 46.9602 48.9997 46.5702 48.9997C46.2302 48.9997 45.9302 49.0797 45.6602 49.2297C45.3902 49.3797 45.1602 49.5897 44.9602 49.8697C44.7702 50.1397 44.6202 50.4797 44.5102 50.8697C44.4102 51.2597 44.3502 51.6897 44.3502 52.1697C44.3502 52.7497 44.4202 53.2897 44.5602 53.7797C44.7002 54.2697 44.8902 54.6997 45.1302 55.0597C45.3702 55.4197 45.6602 55.6997 46.0002 55.9097C46.3402 56.1097 46.7002 56.2197 47.0902 56.2197C48.1802 56.2197 49.0602 55.8197 49.7302 55.0297L50.0802 55.2897C49.7302 55.8997 49.2402 56.3697 48.6402 56.7097C48.0302 57.0497 47.3502 57.2197 46.6102 57.2197C45.9702 57.2197 45.3702 57.1097 44.8302 56.8897C44.2902 56.6697 43.8202 56.3697 43.4302 55.9897C43.0402 55.5997 42.7302 55.1397 42.5202 54.5997C42.3102 54.0497 42.2002 53.4597 42.2002 52.8197Z" fill="white"/>
<path id="Vector_10" d="M58.4304 57.0804H54.6804C53.9804 57.0804 53.4304 56.8804 53.0304 56.4804C52.6304 56.0804 52.4404 55.5304 52.4404 54.8304V48.3604H58.3004V49.4004C57.9804 49.3504 57.6704 49.3103 57.3904 49.2803C57.1004 49.2503 56.8204 49.2204 56.5304 49.2004C56.2404 49.1804 55.9404 49.1604 55.6204 49.1504C55.3004 49.1404 54.9304 49.1404 54.5304 49.1404V52.0604H57.6604V52.8404H54.5304V55.0804C54.5304 55.9004 54.9204 56.3104 55.7004 56.3104H58.4404V57.0804H58.4304Z" fill="white"/>
<path id="Vector_11" d="M68.84 57.0804H66.27C66.09 57.0804 65.94 57.0204 65.84 56.8904L64.08 54.7904C63.85 54.5304 63.7 54.3004 63.6 54.0904C63.51 53.8904 63.46 53.6803 63.46 53.4604C63.46 53.2204 63.51 53.0303 63.61 52.8703C63.71 52.7104 63.83 52.5604 63.98 52.4304C64.13 52.3004 64.29 52.1804 64.46 52.0604C64.63 51.9404 64.79 51.8104 64.94 51.6804C65.09 51.5404 65.21 51.3803 65.31 51.1903C65.41 51.0003 65.46 50.7704 65.46 50.5004C65.46 50.0704 65.32 49.7404 65.04 49.5004C64.76 49.2604 64.37 49.1404 63.87 49.1404H63.06V57.0904H61V48.3604H65C65.84 48.3604 66.5 48.5204 66.97 48.8404C67.44 49.1604 67.67 49.6103 67.67 50.1903C67.67 50.5003 67.61 50.7704 67.49 50.9804C67.37 51.1904 67.22 51.3703 67.03 51.5103C66.84 51.6503 66.64 51.7704 66.42 51.8604C66.2 51.9504 66 52.0403 65.81 52.1203C65.62 52.2003 65.47 52.2903 65.35 52.3703C65.23 52.4604 65.17 52.5704 65.17 52.7004C65.17 52.8204 65.21 52.9603 65.29 53.1003C65.37 53.2403 65.53 53.4504 65.77 53.7004L68.84 57.0804Z" fill="white"/>
<path id="Vector_12" d="M80.1704 49.1402L79.1304 50.3402C78.3104 49.5102 77.5304 49.1002 76.8104 49.1002C76.5104 49.1002 76.2704 49.1702 76.1004 49.3002C75.9304 49.4302 75.8404 49.6202 75.8404 49.8502C75.8404 50.1902 75.9604 50.4602 76.1904 50.6702C76.4204 50.8702 76.7204 51.0502 77.0804 51.2102C77.4404 51.3702 77.8204 51.5202 78.2304 51.6702C78.6404 51.8202 79.0304 52.0202 79.3804 52.2602C79.7304 52.5002 80.0304 52.8002 80.2604 53.1602C80.5004 53.5202 80.6104 53.9902 80.6104 54.5602C80.6104 54.9702 80.5404 55.3302 80.3904 55.6602C80.2404 55.9802 80.0304 56.2602 79.7604 56.4902C79.4904 56.7202 79.1504 56.9002 78.7604 57.0202C78.3704 57.1402 77.9304 57.2002 77.4404 57.2002C76.8104 57.2002 76.1904 57.1002 75.6004 56.8902C75.0104 56.6902 74.5304 56.4102 74.1504 56.0602L75.1904 54.8602C75.7104 55.3402 76.2204 55.6902 76.7104 55.9202C77.2004 56.1502 77.6804 56.2602 78.1504 56.2602C78.5204 56.2602 78.8104 56.1802 79.0204 56.0302C79.2204 55.8702 79.3304 55.6502 79.3304 55.3602C79.3304 55.0302 79.2104 54.7602 78.9704 54.5602C78.7304 54.3602 78.4304 54.1702 78.0804 54.0102C77.7204 53.8502 77.3404 53.6902 76.9104 53.5302C76.4904 53.3702 76.1004 53.1802 75.7404 52.9502C75.3804 52.7202 75.0904 52.4402 74.8504 52.1002C74.6104 51.7702 74.4904 51.3402 74.4904 50.8202C74.4904 50.4202 74.5604 50.0602 74.6904 49.7402C74.8204 49.4202 75.0104 49.1402 75.2604 48.9102C75.5004 48.6802 75.8004 48.5002 76.1504 48.3802C76.5004 48.2602 76.8904 48.2002 77.3104 48.2002C77.8104 48.2002 78.3004 48.2802 78.7904 48.4402C79.3104 48.6202 79.7604 48.8502 80.1704 49.1402Z" fill="white"/>
<path id="Vector_13" d="M82.7803 52.8197C82.7803 52.1397 82.8903 51.5197 83.1003 50.9597C83.3203 50.3997 83.6203 49.9197 84.0203 49.5097C84.4203 49.0997 84.8903 48.7797 85.4303 48.5597C85.9803 48.3297 86.5803 48.2197 87.2303 48.2197C87.9003 48.2197 88.5003 48.3297 89.0403 48.5497C89.5803 48.7697 90.0303 49.0597 90.4003 49.4197L88.9903 51.0497C88.7903 50.3897 88.5303 49.8797 88.2203 49.5297C87.9003 49.1797 87.5403 48.9997 87.1403 48.9997C86.8003 48.9997 86.5003 49.0797 86.2303 49.2297C85.9603 49.3797 85.7303 49.5897 85.5303 49.8697C85.3303 50.1397 85.1903 50.4797 85.0803 50.8697C84.9803 51.2597 84.9203 51.6897 84.9203 52.1697C84.9203 52.7497 84.9903 53.2897 85.1303 53.7797C85.2703 54.2697 85.4603 54.6997 85.7003 55.0597C85.9403 55.4197 86.2303 55.6997 86.5703 55.9097C86.9103 56.1097 87.2703 56.2197 87.6603 56.2197C88.7503 56.2197 89.6303 55.8197 90.3003 55.0297L90.6503 55.2897C90.2903 55.8997 89.8103 56.3697 89.2103 56.7097C88.6003 57.0497 87.9203 57.2197 87.1803 57.2197C86.5403 57.2197 85.9403 57.1097 85.4003 56.8897C84.8603 56.6697 84.3903 56.3697 84.0003 55.9897C83.6103 55.5997 83.3003 55.1397 83.0903 54.5997C82.8903 54.0497 82.7803 53.4597 82.7803 52.8197Z" fill="white"/>
<path id="Vector_14" d="M98.0898 57.0796V52.9696H95.0998V57.0796H93.0098V48.3496H95.0998V52.1896H98.0898V48.3496H100.18V57.0796H98.0898Z" fill="white"/>
<path id="Vector_15" d="M102.72 52.7097C102.72 52.0297 102.83 51.4197 103.05 50.8697C103.27 50.3197 103.58 49.8497 103.99 49.4597C104.39 49.0697 104.88 48.7697 105.45 48.5497C106.02 48.3297 106.65 48.2197 107.35 48.2197C108.04 48.2197 108.68 48.3297 109.25 48.5497C109.82 48.7697 110.3 49.0697 110.71 49.4597C111.11 49.8497 111.43 50.3197 111.65 50.8697C111.87 51.4197 111.98 52.0397 111.98 52.7097C111.98 53.3797 111.87 53.9997 111.65 54.5497C111.43 55.0997 111.12 55.5697 110.71 55.9597C110.31 56.3497 109.82 56.6597 109.25 56.8697C108.68 57.0897 108.05 57.1997 107.35 57.1997C106.66 57.1997 106.02 57.0897 105.45 56.8697C104.88 56.6497 104.4 56.3497 103.99 55.9597C103.58 55.5697 103.27 55.0997 103.05 54.5497C102.83 53.9997 102.72 53.3897 102.72 52.7097ZM104.91 52.2597C104.91 52.8397 104.98 53.3797 105.12 53.8897C105.26 54.3897 105.45 54.8297 105.69 55.2097C105.93 55.5797 106.21 55.8797 106.53 56.0997C106.85 56.3197 107.2 56.4297 107.57 56.4297C107.91 56.4297 108.21 56.3497 108.49 56.1997C108.76 56.0497 109 55.8297 109.19 55.5497C109.38 55.2697 109.53 54.9297 109.63 54.5297C109.73 54.1297 109.79 53.6797 109.79 53.1897C109.79 52.6097 109.72 52.0597 109.58 51.5597C109.44 51.0597 109.25 50.6197 109.01 50.2397C108.77 49.8697 108.49 49.5697 108.17 49.3497C107.85 49.1297 107.5 49.0197 107.13 49.0197C106.79 49.0197 106.49 49.0997 106.21 49.2497C105.94 49.3997 105.7 49.6197 105.51 49.8997C105.32 50.1797 105.17 50.5197 105.07 50.9197C104.96 51.3197 104.91 51.7597 104.91 52.2597Z" fill="white"/>
<path id="Vector_16" d="M114.18 52.7097C114.18 52.0297 114.29 51.4197 114.51 50.8697C114.73 50.3197 115.04 49.8497 115.45 49.4597C115.85 49.0697 116.34 48.7697 116.91 48.5497C117.48 48.3297 118.11 48.2197 118.81 48.2197C119.5 48.2197 120.14 48.3297 120.71 48.5497C121.28 48.7697 121.76 49.0697 122.17 49.4597C122.57 49.8497 122.89 50.3197 123.11 50.8697C123.33 51.4197 123.44 52.0397 123.44 52.7097C123.44 53.3797 123.33 53.9997 123.11 54.5497C122.89 55.0997 122.58 55.5697 122.17 55.9597C121.77 56.3497 121.28 56.6597 120.71 56.8697C120.14 57.0897 119.51 57.1997 118.81 57.1997C118.12 57.1997 117.48 57.0897 116.91 56.8697C116.34 56.6497 115.86 56.3497 115.45 55.9597C115.04 55.5697 114.73 55.0997 114.51 54.5497C114.29 53.9997 114.18 53.3897 114.18 52.7097ZM116.37 52.2597C116.37 52.8397 116.44 53.3797 116.58 53.8897C116.72 54.3897 116.91 54.8297 117.15 55.2097C117.39 55.5797 117.67 55.8797 117.99 56.0997C118.31 56.3197 118.66 56.4297 119.03 56.4297C119.37 56.4297 119.67 56.3497 119.95 56.1997C120.22 56.0497 120.46 55.8297 120.65 55.5497C120.84 55.2697 120.99 54.9297 121.09 54.5297C121.19 54.1297 121.25 53.6797 121.25 53.1897C121.25 52.6097 121.18 52.0597 121.04 51.5597C120.9 51.0597 120.71 50.6197 120.47 50.2397C120.23 49.8697 119.95 49.5697 119.63 49.3497C119.31 49.1297 118.96 49.0197 118.59 49.0197C118.25 49.0197 117.95 49.0997 117.67 49.2497C117.4 49.3997 117.16 49.6197 116.97 49.8997C116.78 50.1797 116.63 50.5197 116.53 50.9197C116.42 51.3197 116.37 51.7597 116.37 52.2597Z" fill="white"/>
<path id="Vector_17" d="M128.05 55.0696C128.05 55.8896 128.44 56.2996 129.22 56.2996H131.83V57.0796H128.21C127.51 57.0796 126.96 56.8796 126.56 56.4796C126.16 56.0796 125.97 55.5296 125.97 54.8296V48.3496H128.05V55.0696Z" fill="white"/>
<path id="Vector_18" d="M139.39 49.1402L138.35 50.3402C137.53 49.5102 136.75 49.1002 136.03 49.1002C135.73 49.1002 135.49 49.1702 135.32 49.3002C135.15 49.4302 135.07 49.6202 135.07 49.8502C135.07 50.1902 135.19 50.4602 135.42 50.6702C135.65 50.8702 135.95 51.0502 136.31 51.2102C136.67 51.3702 137.05 51.5202 137.46 51.6702C137.87 51.8202 138.26 52.0202 138.61 52.2602C138.96 52.5002 139.26 52.8002 139.49 53.1602C139.73 53.5202 139.84 53.9902 139.84 54.5602C139.84 54.9702 139.77 55.3302 139.62 55.6602C139.47 55.9802 139.26 56.2602 138.99 56.4902C138.72 56.7202 138.38 56.9002 137.99 57.0202C137.6 57.1402 137.16 57.2002 136.67 57.2002C136.04 57.2002 135.42 57.1002 134.83 56.8902C134.24 56.6902 133.76 56.4102 133.38 56.0602L134.42 54.8602C134.94 55.3402 135.45 55.6902 135.94 55.9202C136.43 56.1502 136.91 56.2602 137.38 56.2602C137.75 56.2602 138.04 56.1802 138.25 56.0302C138.45 55.8702 138.56 55.6502 138.56 55.3602C138.56 55.0302 138.44 54.7602 138.2 54.5602C137.96 54.3602 137.66 54.1702 137.31 54.0102C136.95 53.8502 136.57 53.6902 136.14 53.5302C135.72 53.3702 135.33 53.1802 134.97 52.9502C134.61 52.7202 134.32 52.4402 134.08 52.1002C133.84 51.7702 133.72 51.3402 133.72 50.8202C133.72 50.4202 133.79 50.0602 133.92 49.7402C134.05 49.4202 134.24 49.1402 134.49 48.9102C134.73 48.6802 135.03 48.5002 135.38 48.3802C135.73 48.2602 136.12 48.2002 136.54 48.2002C137.04 48.2002 137.53 48.2802 138.02 48.4402C138.53 48.6202 138.98 48.8502 139.39 49.1402Z" fill="white"/>
</g>
<defs>
<clipPath id="clip0_1_9661">
<rect width="152.07" height="57.21" fill="white"/>
</clipPath>
</defs>
</svg>
