<svg width="63" height="63" viewBox="0 0 63 63" fill="none" xmlns="http://www.w3.org/2000/svg">
<circle cx="31.1877" cy="31.1877" r="31.1877" fill="#00A6E3"/>
<path d="M21.294 47.71H14.1764C14.0047 47.71 13.8402 47.6418 13.7188 47.5205C13.5975 47.3992 13.5293 47.2346 13.5293 47.063V40.5924C13.5293 40.4208 13.5975 40.2562 13.7188 40.1348C13.8402 40.0135 14.0047 39.9453 14.1764 39.9453H21.294C21.4656 39.9453 21.6302 40.0135 21.7515 40.1348C21.8729 40.2562 21.9411 40.4208 21.9411 40.5924V47.063C21.9411 47.2346 21.8729 47.3992 21.7515 47.5205C21.6302 47.6418 21.4656 47.71 21.294 47.71ZM14.8234 46.4159H20.6469V41.2394H14.8234V46.4159Z" fill="#FDFDFF"/>
<path d="M32.9414 47.7104H26.4708C26.2992 47.7104 26.1346 47.6422 26.0132 47.5208C25.8919 47.3995 25.8237 47.2349 25.8237 47.0633V38.0045C25.8237 37.8329 25.8919 37.6683 26.0132 37.5469C26.1346 37.4256 26.2992 37.3574 26.4708 37.3574H32.9414C33.113 37.3574 33.2776 37.4256 33.3989 37.5469C33.5203 37.6683 33.5884 37.8329 33.5884 38.0045V47.0633C33.5884 47.2349 33.5203 47.3995 33.3989 47.5208C33.2776 47.6422 33.113 47.7104 32.9414 47.7104ZM27.1178 46.4162H32.2943V38.6515H27.1178V46.4162Z" fill="#FDFDFF"/>
<path d="M45.8824 47.7091H38.7647C38.5931 47.7091 38.4285 47.6409 38.3072 47.5196C38.1858 47.3982 38.1177 47.2337 38.1177 47.062V32.8267C38.1177 32.6551 38.1858 32.4906 38.3072 32.3692C38.4285 32.2479 38.5931 32.1797 38.7647 32.1797H45.8824C46.054 32.1797 46.2186 32.2479 46.3399 32.3692C46.4613 32.4906 46.5294 32.6551 46.5294 32.8267V47.062C46.5294 47.2337 46.4613 47.3982 46.3399 47.5196C46.2186 47.6409 46.054 47.7091 45.8824 47.7091ZM39.4118 46.415H45.2353V33.4738H39.4118V46.415Z" fill="#FDFDFF"/>
<path d="M27.7646 21.4706C27.1247 21.4706 26.4992 21.2808 25.9672 20.9253C25.4351 20.5698 25.0204 20.0646 24.7756 19.4734C24.5307 18.8822 24.4666 18.2317 24.5915 17.6041C24.7163 16.9765 25.0244 16.4001 25.4769 15.9476C25.9294 15.4951 26.5058 15.187 27.1334 15.0622C27.761 14.9373 28.4115 15.0014 29.0027 15.2463C29.5939 15.4911 30.0991 15.9058 30.4546 16.4379C30.8101 16.9699 30.9999 17.5954 30.9999 18.2353C30.9999 19.0933 30.659 19.9163 30.0523 20.523C29.4456 21.1297 28.6226 21.4706 27.7646 21.4706ZM27.7646 16.2941C27.3807 16.2941 27.0054 16.408 26.6861 16.6213C26.3669 16.8346 26.1181 17.1377 25.9712 17.4924C25.8243 17.8471 25.7858 18.2374 25.8607 18.614C25.9356 18.9906 26.1205 19.3364 26.392 19.6079C26.6635 19.8794 27.0093 20.0643 27.3859 20.1392C27.7624 20.2141 28.1527 20.1756 28.5074 20.0287C28.8622 19.8818 29.1653 19.633 29.3786 19.3138C29.5919 18.9945 29.7058 18.6192 29.7058 18.2353C29.7058 17.7205 29.5013 17.2267 29.1372 16.8627C28.7732 16.4986 28.2794 16.2941 27.7646 16.2941Z" fill="#FDFDFF"/>
<path d="M19.9483 36.7081C19.5079 36.7052 19.0764 36.5834 18.6994 36.3556C18.3224 36.1279 18.0139 35.8025 17.8065 35.4139C17.5261 34.8628 17.4595 34.2273 17.6195 33.63C17.7796 33.0327 18.1551 32.5157 18.6736 32.1787L20.0648 31.2663L20.9771 30.1275C20.5606 30.1997 20.1324 30.1639 19.7337 30.0234C19.3349 29.8829 18.9788 29.6425 18.6995 29.3251C18.3051 28.8421 18.1056 28.229 18.1403 27.6064C18.1751 26.9837 18.4415 26.3966 18.8871 25.9604L21.7924 23.0616C22.1239 22.7285 22.5451 22.4992 23.0047 22.4015C23.4643 22.3039 23.9424 22.3421 24.3807 22.5116L27.5383 23.3334L31.9513 21.3922C32.2433 21.2526 32.5603 21.1727 32.8836 21.1571C33.2069 21.1416 33.5301 21.1907 33.8342 21.3016C34.1431 21.4105 34.4265 21.5815 34.6669 21.8041C34.9072 22.0267 35.0995 22.2961 35.2318 22.5957C35.4754 23.1827 35.4836 23.8409 35.2547 24.4337C35.0258 25.0265 34.5773 25.5084 34.0024 25.7792L30.0748 27.7204C30.0279 27.7422 29.9893 27.7785 29.9648 27.8239C29.9438 27.8627 29.9329 27.9061 29.9329 27.9501C29.9329 27.9942 29.9438 28.0375 29.9648 28.0763C29.9829 28.116 30.0109 28.1505 30.0459 28.1765C30.081 28.2025 30.1221 28.2193 30.1654 28.2251L30.3918 28.2575C30.8697 28.3245 31.3166 28.5327 31.6751 28.8556C32.0337 29.1784 32.2876 29.601 32.4042 30.0692L32.9865 33.0457C33.0826 33.4054 33.0948 33.7824 33.0222 34.1475C32.9497 34.5127 32.7943 34.8564 32.568 35.152C32.3417 35.4477 32.0506 35.6875 31.7171 35.8529C31.3836 36.0184 31.0165 36.105 30.6442 36.1063C30.1029 36.1066 29.577 35.9259 29.1502 35.5929C28.7234 35.2599 28.4203 34.7938 28.2889 34.2687L28.056 32.8387L26.2377 32.6381L21.333 36.2228C20.9316 36.5217 20.4485 36.691 19.9483 36.7081ZM23.8695 26.2969C24.0113 26.2982 24.1492 26.3434 24.2642 26.4263C24.3885 26.5215 24.474 26.6586 24.505 26.8121C24.5359 26.9656 24.5101 27.1251 24.4324 27.261L23.1836 29.4481C23.1687 29.479 23.149 29.5073 23.1254 29.5322L21.016 32.1722C20.9727 32.224 20.9227 32.2697 20.8671 32.3081L19.3918 33.2916C19.1427 33.4451 18.9592 33.6854 18.8767 33.9662C18.7943 34.247 18.8187 34.5484 18.9454 34.8122C19.0235 34.9483 19.1281 35.0673 19.2531 35.1622C19.3781 35.2571 19.5209 35.3259 19.673 35.3645C19.8251 35.4032 19.9834 35.4108 20.1385 35.3871C20.2936 35.3633 20.4424 35.3087 20.576 35.2263L25.6554 31.5122C25.7856 31.416 25.9473 31.3721 26.1083 31.3892L28.6642 31.6739C28.8047 31.689 28.9365 31.7496 29.0393 31.8466C29.1421 31.9436 29.2104 32.0716 29.2336 32.211L29.5377 34.0681C29.6056 34.3032 29.7487 34.5096 29.945 34.6556C30.1413 34.8017 30.3801 34.8794 30.6248 34.8769C30.8198 34.8749 31.0113 34.8237 31.1812 34.7281C31.4008 34.5908 31.5699 34.3861 31.6632 34.1446C31.7565 33.9031 31.7691 33.6379 31.6989 33.3887L31.123 30.4187C31.0651 30.2062 30.9458 30.0155 30.7801 29.8705C30.6144 29.7254 30.4095 29.6325 30.1912 29.6034L29.9648 29.571C29.7121 29.5354 29.4719 29.4383 29.2655 29.2883C29.059 29.1382 28.8925 28.9398 28.7807 28.7104C28.6697 28.4811 28.6158 28.2283 28.6237 27.9737C28.6316 27.719 28.701 27.4701 28.826 27.2481C28.9704 26.9713 29.1963 26.7455 29.473 26.601L33.4007 24.6598C33.6813 24.5394 33.9049 24.3158 34.0253 24.0352C34.1458 23.7547 34.1538 23.4385 34.0477 23.1522C33.9871 23.012 33.8984 22.8858 33.7871 22.7812C33.6758 22.6766 33.5443 22.5958 33.4007 22.5439C33.2565 22.4896 33.1025 22.4661 32.9487 22.475C32.7949 22.4839 32.6446 22.525 32.5077 22.5957L27.8554 24.621C27.7227 24.6785 27.5747 24.6899 27.4348 24.6534L24.0248 23.7669H23.9471C23.741 23.6844 23.5152 23.6644 23.2977 23.7093C23.0803 23.7541 22.8808 23.8619 22.7242 24.0192L19.8254 26.9181C19.6099 27.1213 19.4774 27.3971 19.4535 27.6923C19.4296 27.9875 19.516 28.2811 19.696 28.5163C19.799 28.6327 19.9246 28.7271 20.0651 28.7937C20.2057 28.8603 20.3582 28.8978 20.5136 28.9038C20.669 28.9098 20.824 28.8844 20.9693 28.8289C21.1146 28.7734 21.2471 28.6891 21.3589 28.581L23.4295 26.5104C23.5426 26.3844 23.7005 26.3078 23.8695 26.2969Z" fill="#FDFDFF"/>
<path d="M45.7204 26.5839C45.6161 26.5843 45.5135 26.5575 45.4227 26.5063L42.3233 24.8822L39.2239 26.5063C39.1176 26.5626 38.9978 26.5882 38.8778 26.5802C38.7577 26.5722 38.6423 26.5309 38.5445 26.461C38.4441 26.3891 38.3664 26.2899 38.3205 26.1753C38.2747 26.0606 38.2626 25.9352 38.2857 25.8139L38.881 22.3651L36.3704 19.9192C36.2849 19.8346 36.2248 19.7278 36.1966 19.6108C36.1685 19.4938 36.1736 19.3714 36.2112 19.2571C36.2488 19.1429 36.3176 19.0414 36.4097 18.964C36.5018 18.8867 36.6137 18.8365 36.7327 18.8192L40.2204 18.3275L41.7668 15.1892C41.8198 15.0798 41.9025 14.9876 42.0055 14.923C42.1085 14.8585 42.2276 14.8242 42.3492 14.8242C42.4707 14.8242 42.5898 14.8585 42.6928 14.923C42.7958 14.9876 42.8786 15.0798 42.9315 15.1892L44.4521 18.3275L47.9139 18.8322C48.0329 18.8495 48.1448 18.8996 48.2369 18.977C48.329 19.0543 48.3978 19.1558 48.4354 19.2701C48.4731 19.3843 48.4781 19.5068 48.45 19.6237C48.4219 19.7407 48.3617 19.8475 48.2762 19.9322L45.7657 22.3781L46.361 25.8269C46.3841 25.9482 46.372 26.0736 46.3261 26.1882C46.2802 26.3029 46.2025 26.402 46.1021 26.4739C45.9896 26.5497 45.856 26.5882 45.7204 26.5839ZM42.3233 23.5039C42.429 23.5025 42.5334 23.5269 42.6274 23.5751L44.8598 24.7528L44.4327 22.2616C44.4146 22.1576 44.4223 22.0507 44.455 21.9503C44.4877 21.85 44.5445 21.7591 44.6204 21.6857L46.4321 19.9192L43.928 19.5569C43.8243 19.5413 43.726 19.5008 43.6415 19.4388C43.5569 19.3768 43.4887 19.2952 43.4427 19.201L42.3233 16.9363L41.2039 19.201C41.1579 19.2952 41.0897 19.3768 41.0051 19.4388C40.9206 19.5008 40.8223 19.5413 40.7186 19.5569L38.2145 19.9192L40.0262 21.6857C40.1021 21.7591 40.1589 21.85 40.1916 21.9503C40.2243 22.0507 40.232 22.1576 40.2139 22.2616L39.7868 24.7528L42.0192 23.5751C42.1132 23.5269 42.2176 23.5025 42.3233 23.5039Z" fill="#FDFDFF"/>
</svg>
