<svg width="85" height="68" viewBox="0 0 85 68" fill="none" xmlns="http://www.w3.org/2000/svg">
<g clip-path="url(#clip0_153_33399)">
<path d="M32.6948 64.8727C48.1855 65.6748 62.9265 57.0456 67.3953 41.8315C72.3986 24.8228 60.3585 10.1033 45.2616 3.73328C31.197 -2.2015 15.714 4.73964 9.27311 17.9685C5.39143 23.6462 3.21287 30.5987 3.16134 37.6284C3.03771 54.2959 17.2717 64.0722 32.6948 64.8727ZM18.9245 43.0238C18.7267 42.4797 18.5664 41.9365 18.4286 41.3937C18.4514 41.3792 18.474 41.3722 18.4967 41.3653C20.0537 40.448 21.6387 39.6212 23.2525 38.8476C22.7776 39.3018 22.3101 39.7636 21.8799 40.2338C21.2038 40.9758 21.2976 42.1472 21.9815 42.7396C21.7224 43.6033 22.1807 44.5654 23.2025 44.7981C23.2286 45.6456 23.7958 46.4303 24.7829 46.5347C23.9811 46.8617 23.1721 47.1735 22.3704 47.493C21.8643 47.3318 21.3589 47.1406 20.8691 46.9198C20.1009 45.7334 19.4402 44.437 18.9245 43.0238ZM18.1196 35.4053C18.7563 31.0496 21.2063 27.0564 24.5318 23.8024C24.7672 24.0025 24.925 24.3209 24.9668 24.8015C25.0195 25.4623 24.7878 26.1093 24.6091 26.7274C24.2842 27.852 23.736 28.9117 23.1434 29.9404C21.3893 30.9582 19.9889 32.5836 19.1669 34.4917C18.8006 34.7834 18.4489 35.0904 18.1196 35.4053ZM25.8426 59.2035C25.5681 59.4147 25.4042 59.7034 25.3298 60.0166C23.9143 59.6253 22.5385 59.1374 21.2095 58.5681C21.2739 58.3672 21.2937 58.1503 21.2609 57.9396C22.2067 57.8782 23.0325 57.1471 23.1491 56.2877C23.2254 56.2294 23.3016 56.1711 23.3705 56.1052C23.9554 57.1076 24.8872 58.0129 26.2568 58.7779C26.294 58.7937 26.3311 58.8096 26.3607 58.8252C26.1931 58.9489 26.0179 59.0724 25.8426 59.2035ZM40.7166 54.37C40.5358 54.411 40.3625 54.4521 40.182 54.4781C40.35 54.3394 40.518 54.2007 40.686 54.062C40.9796 54.0011 41.2658 53.94 41.5595 53.8791C41.2712 54.0376 40.9903 54.1962 40.7166 54.37ZM44.8494 41.7869C43.7179 42.4438 42.5652 43.0478 41.405 43.6441C42.3377 42.8254 43.2716 41.9542 44.1465 41.0367C46.5034 39.545 48.91 37.8371 51.4075 36.4236C51.4112 36.9334 51.4 37.4353 51.3813 37.9371C49.1725 39.1772 47.0136 40.5308 44.8494 41.7869ZM49.1958 33.7509C49.6674 33.1093 50.0942 32.4517 50.4545 31.7551C50.6325 31.8415 50.826 31.9058 51.0344 31.9704C51.0742 32.2036 51.114 32.4369 51.1463 32.67C50.4865 33.0151 49.8338 33.3753 49.1958 33.7509ZM56.1072 49.2258C55.6 49.7842 55.0563 50.3043 54.4982 50.794C54.4867 50.2991 54.2641 49.8594 53.9114 49.5442C55.1677 49.0025 56.3439 48.3541 57.4476 47.5991C57.0229 48.1593 56.5835 48.7042 56.1072 49.2258ZM60.772 24.8639C61.9724 27.8439 62.4725 30.9732 62.3586 34.0664C62.1495 34.0317 61.9248 34.0267 61.6992 34.0592C61.2255 34.1236 60.7587 34.2181 60.2993 34.3128C60.6635 33.7813 61.0053 33.2417 61.3101 32.6788C61.9197 31.5605 61.2153 29.8658 59.7741 29.9612C58.9483 30.0178 58.136 30.1421 57.3377 30.3117C59.0189 28.865 60.4448 26.768 60.772 24.8639ZM52.5142 18.024C53.3289 18.7992 54.0371 19.6469 54.8064 20.4436C54.4668 20.5485 54.1343 20.6685 53.7942 20.7959C53.9402 19.285 51.7158 18.5309 50.7482 19.5737C50.3334 20.0217 49.9547 20.538 49.6198 21.1002C48.9572 20.2235 48.2261 19.3977 47.4183 18.6451C46.6398 17.9232 45.8287 17.3205 44.9931 16.8072C46.3047 16.8139 49.6916 17.2041 52.5142 18.024ZM43.2131 19.3236C43.4279 19.4408 43.6505 19.5432 43.8574 19.6752C45.6025 20.7484 47.0016 22.2113 48.103 23.9148C47.014 24.6851 45.9761 25.5165 44.9677 26.371C44.1274 25.0556 43.4321 23.6309 42.9104 22.1502C43.0737 21.2094 43.1771 20.2672 43.2131 19.3236ZM38.4913 17.9592C38.6086 19.4235 38.8759 20.8836 39.2939 22.3095C39.2521 22.5035 39.2102 22.7049 39.1609 22.8987C38.4682 21.3542 37.9749 19.6042 37.8551 17.9151C38.0649 17.9197 38.2742 17.9469 38.4913 17.9592ZM38.57 28.5673C39.4851 29.5471 41.2639 29.1069 41.6151 27.8105C41.6232 27.7807 41.6314 27.7509 41.6395 27.7211C41.8563 28.0857 42.0882 28.4432 42.3201 28.8006C41.934 29.3093 41.8972 29.9531 42.0946 30.5121C41.7844 30.6401 41.4666 30.7755 41.1564 30.9035C40.8906 30.7252 40.5781 30.6208 40.2774 30.6591C37.7901 30.941 35.2105 31.6631 32.7285 32.7173C32.4688 30.9125 31.1902 29.4224 28.6969 28.9622C28.361 28.9022 28.0245 28.8647 27.7027 28.8426C27.8534 28.4712 27.9966 28.0996 28.1246 27.7351C28.9481 25.4223 28.7632 23.2894 27.2285 21.5238C27.5788 21.2767 27.9365 21.0298 28.3015 20.7981C30.4812 20.5318 32.5338 19.9104 34.2818 18.8324C34.7095 22.5148 36.3808 26.2324 38.57 28.5673ZM34.1063 8.52954C34.0129 8.68487 33.9417 8.85568 33.8929 9.027C33.2438 8.89262 32.5868 8.77306 31.9293 8.67598C32.6431 8.60192 33.3713 8.55066 34.1063 8.52954ZM23.3559 12.6452C23.3793 12.6083 23.3951 12.5711 23.4184 12.5342C26.7155 11.5657 30.9241 12.0791 34.7761 13.1243C34.7518 13.2062 34.7127 13.2803 34.6884 13.3622C34.1514 14.2497 33.4683 14.9691 32.6761 15.5361C31.4082 15.9276 30.1673 16.4472 28.9539 17.0798C27.3728 17.3969 25.6403 17.4408 23.9049 17.2822C23.164 16.5537 22.2309 16.0457 21.1895 15.6852C21.9389 14.6825 22.666 13.6718 23.3559 12.6452ZM12.7753 19.5755C13.0765 19.1775 13.3925 18.7872 13.7158 18.4047C13.8791 18.4758 14.0424 18.5469 14.2134 18.6106C13.4567 19.6057 12.7075 20.6009 11.9804 21.6117C12.2205 20.9274 12.4756 20.2435 12.7753 19.5755ZM18.0005 19.8792C18.753 20.0834 19.5286 20.258 20.3048 20.4102C19.7024 20.8691 18.9629 21.4298 18.6499 21.6851C18.4897 21.809 18.3295 21.9329 18.1767 22.0644C16.8859 23.145 17.9963 25.1186 19.373 25.2317C17.8369 27.2288 16.6126 29.3603 15.8084 31.4787C15.2272 33.0098 14.8713 34.516 14.7038 35.9814C13.8011 35.7889 12.7054 36.1843 12.3376 37.218C12.2815 37.3817 12.24 37.5606 12.1839 37.7243C11.4227 35.8934 10.9564 33.9417 10.7532 31.9583C12.2742 27.6072 15.059 23.7265 18.0005 19.8792ZM9.12234 44.2748C9.6164 46.3246 10.1324 48.3974 10.8233 50.3616C9.6318 48.6636 8.66973 46.7608 7.9967 44.6695C8.3946 44.6409 8.78736 44.5072 9.12234 44.2748Z" fill="#FFDE14"/>
<path d="M43.1186 63.3747C43.1186 63.3747 43.8658 63.1439 45.2771 62.7106C45.9719 62.4787 46.7747 62.1068 47.7428 61.7161C48.22 61.4944 48.7134 61.213 49.2517 60.9402C49.5171 60.8037 49.7976 60.66 50.0783 60.5088C50.3519 60.3425 50.6259 60.1537 50.9073 59.9726C53.1954 58.5394 55.7976 56.4611 58.1565 53.5303C58.7056 52.7705 59.3293 52.0273 59.8651 51.1922C60.1293 50.7709 60.4012 50.3422 60.6731 49.9135C60.8128 49.6992 60.9452 49.4773 61.0849 49.263C61.2024 49.0333 61.3201 48.796 61.4377 48.5663C61.9157 47.6325 62.424 46.6843 62.792 45.6431C62.9833 45.1302 63.2121 44.6181 63.4037 44.0902C63.5656 43.5541 63.7276 43.0105 63.8972 42.4596C64.2812 41.3738 64.4198 40.2001 64.678 39.0365C64.8184 38.455 64.8171 37.8403 64.8978 37.2424C64.9488 36.6364 65.0449 36.0239 65.0586 35.4096C65.1063 32.9296 64.9912 30.356 64.4796 27.7437C63.5075 22.5875 61.0832 17.3466 57.2823 12.997C53.4963 8.64769 48.3793 5.16827 42.5888 3.32288C36.8139 1.44787 30.3762 1.40201 24.5028 3.28012C18.6074 5.13524 13.4115 8.90232 9.46979 13.5743C5.60279 18.2555 3.30673 24.0884 2.62376 29.8524C1.91765 35.6458 2.94467 41.3653 4.94933 46.2671C7.03674 51.1557 10.1614 55.2429 13.7701 58.1266C17.3711 61.0176 21.3113 62.8143 24.972 63.6978C25.8973 63.8833 26.7767 64.1128 27.6507 64.2447C28.5253 64.3541 29.37 64.4553 30.1773 64.5558C31.81 64.6146 33.3143 64.723 34.6735 64.6109C35.3491 64.5659 35.9939 64.5578 36.6024 64.4964C37.2037 64.4198 37.7676 64.3424 38.2939 64.2717C38.8202 64.2009 39.3013 64.1367 39.7448 64.0791C40.1817 63.9839 40.5808 63.9028 40.9422 63.8284C42.373 63.5305 43.1337 63.3675 43.1337 63.3675L43.1186 63.3747ZM43.3127 64.0836C43.3127 64.0836 42.537 64.2462 41.0909 64.5588C40.7294 64.6332 40.3227 64.7216 39.8783 64.8167C39.4272 64.8816 38.931 64.9455 38.3971 65.0235C37.8633 65.0941 37.292 65.1713 36.6754 65.2551C36.0666 65.3315 35.4068 65.3393 34.7161 65.3914C33.3337 65.533 31.7914 65.4537 30.1203 65.4315C29.2827 65.3454 28.4152 65.2586 27.5178 65.1637C26.621 65.0463 25.7038 64.831 24.7482 64.6598C20.951 63.8482 16.8163 62.0322 13.0377 59.0398C9.2893 56.033 6.05661 51.7485 4.01882 46.6511C3.02632 44.0955 2.3077 41.3586 1.9287 38.5168C1.54222 35.6749 1.48056 32.7202 1.85359 29.7678C2.53973 23.8615 4.79385 17.8927 8.78589 12.9819C12.7453 8.1904 18.0584 4.20856 24.1517 2.21542C30.2307 0.191988 36.953 0.251661 42.9518 2.16914C48.966 4.06448 54.2905 7.65347 58.2454 12.1564C62.2303 16.66 64.8235 22.0621 65.9018 27.498C66.4491 30.1861 66.5689 32.8872 66.5262 35.4797C66.5116 36.1315 66.4151 36.7665 66.3634 37.4025C66.2818 38.0378 66.2751 38.6748 66.1341 39.2863C65.867 40.5096 65.7196 41.7431 65.3195 42.881C63.9943 47.5288 61.6592 51.4121 59.1052 54.3535C56.5358 57.3095 53.7694 59.3542 51.3696 60.7549C51.0732 60.9357 50.7771 61.109 50.496 61.2752C50.2003 61.426 49.9123 61.5695 49.6394 61.7059C49.0787 61.9782 48.5704 62.2517 48.0783 62.4731C47.0652 62.8629 46.2024 63.2334 45.5003 63.4577C44.0895 63.8685 43.3351 64.0841 43.3351 64.0841L43.3127 64.0836Z" fill="#042C89"/>
<path d="M51.5377 59.2946C51.2174 57.5185 50.9571 55.7438 50.6663 53.9908C50.5133 53.1179 50.383 52.238 50.1918 51.4017C50.0959 50.9948 50.0082 50.5581 49.8731 50.2253C49.8452 50.1348 49.8097 50.044 49.7804 50.0134L49.7446 49.9376L49.7376 49.915L49.7301 49.9148C49.7082 49.8918 49.8915 50.0758 49.8182 49.9992L49.8109 49.9916L49.7446 49.9376C49.6635 49.8759 49.5608 49.7761 49.4941 49.7447C49.4346 49.7209 49.3752 49.697 49.3159 49.6657C49.0341 49.532 48.5806 49.3645 48.1783 49.2507C47.769 49.1216 47.3364 49.022 46.9116 48.9151C46.054 48.7162 45.1731 48.5541 44.2922 48.3921C42.53 48.0905 40.7596 47.8188 38.988 47.5994L39.4563 47.4375L35.261 51.3767C34.5643 52.0358 33.8968 52.7256 33.2295 53.4078C32.8995 53.7528 32.5841 54.113 32.2615 54.4656C31.9463 54.8184 31.6306 55.1937 31.3752 55.5553C31.3286 55.6292 31.2129 55.7765 31.2355 55.7695C31.2354 55.777 31.2279 55.7768 31.2202 55.7842L31.2126 55.7915C31.2136 55.7465 31.2029 55.8887 31.2222 55.6943L31.2219 55.7092L31.2214 55.7317C31.2192 55.8291 31.251 55.7474 31.2435 55.7472C31.308 55.8836 31.438 56.1038 31.5538 56.2863C31.8001 56.6741 32.0839 57.0552 32.345 57.4507L33.9793 59.7958C35.0765 61.3493 36.1733 62.9253 37.2243 64.5378C37.3328 64.7126 37.2904 64.9365 37.1154 65.0526C36.9557 65.1539 36.7539 65.127 36.6371 64.9894C36.0011 64.2632 35.388 63.5225 34.7976 62.7673C34.1921 62.0192 33.6171 61.2494 33.0499 60.4647C32.4751 59.6873 31.9154 58.9028 31.4014 58.0819C31.1407 57.6713 30.8954 57.2461 30.6578 56.806C30.5431 56.5711 30.4276 56.3737 30.322 56.064C30.2797 55.9431 30.2539 55.7552 30.2619 55.7329L30.2624 55.7104L30.2628 55.6954C30.2821 55.5009 30.2716 55.6356 30.2801 55.5908L30.2802 55.5834L30.3119 55.5091L30.3825 55.3683C30.4999 55.146 30.568 55.1175 30.653 54.9995C30.9915 54.6098 31.3288 54.2725 31.659 53.92L32.6714 52.8857L34.6594 50.7937C35.9798 49.3914 37.2928 47.989 38.6424 46.6248C38.7651 46.5001 38.9387 46.444 39.0957 46.4625L39.1107 46.4628C40.9128 46.6603 42.7068 46.8802 44.4992 47.1749C45.3954 47.3223 46.2914 47.4772 47.1868 47.662C47.6345 47.7544 48.0822 47.8468 48.5367 47.9694C49.0062 48.0923 49.4087 48.1912 49.9583 48.4208C50.1068 48.484 50.2475 48.5621 50.3883 48.6327C50.5217 48.7032 50.5803 48.7644 50.6837 48.8342L50.7501 48.8806L50.7574 48.8883L50.8528 48.9804L50.8601 48.988L50.8746 49.0108L50.9109 49.0641L51.0486 49.2771C51.1501 49.4292 51.1999 49.5503 51.2497 49.6713C51.364 49.9212 51.4336 50.1626 51.5035 50.389C51.5808 50.6231 51.6357 50.8492 51.683 51.0826C51.8799 52.0015 52.0172 52.904 52.1094 53.813C52.2016 54.7221 52.2639 55.6304 52.2886 56.5379C52.3209 57.4456 52.3232 58.3527 52.2806 59.2587C52.2686 59.4608 52.1001 59.6219 51.8905 59.6098C51.711 59.5908 51.5715 59.4603 51.5377 59.2946Z" fill="#042C89"/>
<path d="M50.0384 49.1679C50.0384 49.1679 50.1252 48.975 50.3043 48.6716C50.4908 48.376 50.7845 47.9777 51.1837 47.5519C51.583 47.126 52.161 46.7491 52.704 46.2665C53.2469 45.7839 53.8208 45.257 54.4165 44.7605C55.0122 44.2641 55.6812 43.8442 56.1948 43.3309C56.4627 43.0821 56.6642 42.7867 56.8724 42.5215C57.0734 42.2486 57.281 42.0134 57.5028 41.816C58.3526 41.0178 59.0655 40.6439 59.0655 40.6439C59.2551 40.5432 59.4859 40.6158 59.5791 40.8053C59.6439 40.9267 59.6332 41.0688 59.5708 41.1799C59.5708 41.1799 59.1582 41.8678 58.3082 42.6734C58.1013 42.8787 57.8495 43.0754 57.5682 43.2566C57.294 43.4529 56.9899 43.641 56.7221 43.8899C56.1791 44.3725 55.7151 45.0143 55.1852 45.5871C54.6554 46.1525 54.0961 46.6947 53.5825 47.208C53.0689 47.7213 52.6591 48.2818 52.2161 48.6542C51.7729 49.0341 51.3547 49.3022 51.0511 49.4678C50.7401 49.6333 50.5437 49.7039 50.5437 49.7039C50.3321 49.7816 50.1022 49.6716 50.0319 49.4601C49.989 49.3692 49.999 49.257 50.0384 49.1679Z" fill="#042C89"/>
<path d="M64.4741 41.8446C63.5879 41.9223 62.7108 41.9253 61.8421 41.891C60.9735 41.8492 60.0978 41.7922 59.2387 41.6606L59.1715 41.6516C58.8876 41.6078 58.6749 41.4007 58.6056 41.1443L57.9624 38.7239L57.2889 36.3178C57.0745 35.511 56.8524 34.7115 56.6681 33.8979C56.4764 33.0841 56.3297 32.2638 56.1757 31.4359C56.0293 30.6081 55.8598 29.8023 55.7594 28.9231C55.7421 28.6903 55.6939 28.5019 55.7773 28.1214C55.8735 27.8388 55.9365 27.7052 56.016 27.4971C56.1596 27.1105 56.3257 26.717 56.4616 26.3377C56.7485 25.5721 57.087 24.845 57.4261 24.088C57.7801 23.3388 58.1416 22.5898 58.5475 21.8643C58.6489 21.6866 58.8752 21.6242 59.053 21.7181C59.201 21.8039 59.2721 21.9779 59.2311 22.1344C59.0181 22.9466 58.7384 23.7274 58.4585 24.5158C58.1713 25.2964 57.839 26.0835 57.4698 26.8399C57.289 27.2181 57.0639 27.5654 56.861 27.9282L56.5724 28.4315C56.5496 28.446 56.5293 28.6854 56.5403 28.8655C56.5617 29.2483 56.6351 29.6547 56.7162 30.0537C56.7973 30.4528 56.8933 30.8522 57.012 31.2446C57.2342 32.0366 57.5016 32.8221 57.739 33.6069L58.4583 35.9766L59.1926 38.3465C59.4524 39.1319 59.7424 39.9104 60.0174 40.6885L59.3843 40.1722C60.2525 40.229 61.1193 40.3533 61.978 40.4998C62.8367 40.6464 63.6945 40.8378 64.543 41.1041C64.744 41.1685 64.8519 41.3733 64.7874 41.5743C64.754 41.7309 64.6243 41.833 64.4741 41.8446Z" fill="#042C89"/>
<path d="M56.2156 28.5932C55.2355 28.8487 54.2504 28.9917 53.2585 29.1046C52.2664 29.2249 51.2764 29.2478 50.2795 29.2481C48.2932 29.2489 46.3116 29.3697 44.3239 29.4304L44.764 29.1928C44.0644 29.9793 43.4164 30.8044 42.7832 31.6373C42.1573 32.4779 41.5166 33.3106 40.9867 34.2208C40.707 34.6643 40.4494 35.1233 40.1624 35.5591C39.8753 35.995 39.5586 36.4152 39.2495 36.8356C38.6163 37.6685 37.961 38.4859 37.2392 39.2569C37.1009 39.4112 36.861 39.4134 36.7141 39.2752C36.5893 39.16 36.5635 38.972 36.6417 38.8238C37.1495 37.8982 37.7163 37.0188 38.3127 36.1551C38.6145 35.7271 38.9091 35.2914 39.2404 34.8865C39.5644 34.4739 39.9178 34.0845 40.2492 33.6797C40.9413 32.893 41.5378 32.0218 42.1341 31.1656C42.723 30.3017 43.2972 29.4225 43.8272 28.5124C43.9053 28.3717 44.0494 28.2924 44.1998 28.2733L44.2674 28.2673C46.2496 28.1165 48.2303 28.0332 50.2061 27.8298C51.1979 27.7245 52.1815 27.6489 53.1781 27.6636C54.175 27.6633 55.171 27.708 56.1719 27.8652C56.381 27.8998 56.5192 28.0903 56.4847 28.2919C56.4739 28.4416 56.3588 28.5589 56.2156 28.5932Z" fill="#042C89"/>
<path d="M38.6894 47.1181C38.2313 45.8112 37.8108 44.4976 37.4128 43.1845C36.9923 41.8709 36.632 40.5436 36.2417 39.2232L36.7697 39.7447C34.4651 39.2286 32.1847 38.6307 29.9055 37.9803C28.7659 37.6551 27.6338 37.3301 26.5022 36.9826L24.7978 36.4424C24.5151 36.3462 24.2249 36.2498 23.9349 36.1459C23.7862 36.0901 23.645 36.0345 23.4817 35.9634C23.4001 35.9241 23.3257 35.9 23.215 35.8226C23.1561 35.7763 23.1404 35.8059 22.9721 35.6223C22.943 35.5841 22.9138 35.546 22.8849 35.5004L22.8487 35.4396C22.8625 35.4924 22.7996 35.2886 22.8066 35.3113L22.8003 35.2587C22.7608 35.0104 22.7419 34.5153 22.7479 34.2456L22.7529 33.3462L22.7999 31.5708C22.8413 30.3874 22.9051 29.2045 22.9762 28.0293C23.0475 26.8466 23.1261 25.6715 23.2574 24.4901C23.3886 23.3087 23.5045 22.142 23.7714 20.9261C23.8124 20.7696 23.838 20.6278 23.902 20.4493C23.996 20.264 24.0229 20.0697 24.199 19.9013C24.5513 19.5643 24.8228 19.4879 25.111 19.3369C25.6788 19.0872 26.2452 18.8974 26.8189 18.7153C27.9587 18.3584 29.0976 18.0389 30.2507 17.7573C31.3965 17.468 32.5496 17.1863 33.7097 16.9273C34.8846 16.6761 36.0001 16.4011 37.291 16.3249C37.3809 16.3269 37.456 16.3211 37.5682 16.3311L37.643 16.3402L37.6804 16.3411L37.7029 16.3416L37.7998 16.3662L37.904 16.3985C37.9636 16.4148 38.1339 16.5086 38.2298 16.5782C38.348 16.6558 38.3845 16.7015 38.4579 16.7706C38.7148 17.0162 38.9117 17.2605 39.101 17.512C39.4721 18.015 39.7982 18.517 40.109 19.0336C40.7157 20.0665 41.2542 21.1279 41.7853 22.1891C42.8323 24.3187 43.7735 26.4834 44.6313 28.6912C44.7021 28.8801 44.6073 29.0954 44.4184 29.1662C44.2369 29.2371 44.0364 29.1502 43.9502 28.9833L42.3714 25.83L40.7772 22.6913C40.2381 21.6524 39.6839 20.6207 39.0915 19.6256C38.8028 19.1245 38.5065 18.6306 38.1792 18.1811C38.0192 17.9602 37.8442 17.7389 37.6829 17.5779C37.6536 17.5473 37.5877 17.4784 37.5802 17.4782C37.5579 17.4702 37.6181 17.4565 37.5364 17.4247L37.4323 17.3849C37.4621 17.3931 37.3429 17.3605 37.5069 17.4016L37.4994 17.4014L37.4844 17.4011L37.447 17.4003C37.4097 17.3919 37.3423 17.3904 37.2823 17.3891C36.218 17.3879 35.0143 17.586 33.8708 17.7704C32.7194 17.9771 31.5746 18.2215 30.4363 18.511C29.3054 18.8081 28.1741 19.1202 27.0786 19.5081C26.5345 19.7059 25.9902 19.9111 25.4901 20.1549C25.2552 20.2696 24.9741 20.4357 24.9051 20.5091C24.8444 20.5378 24.8489 20.6728 24.8025 20.7392C24.7703 20.8359 24.7442 21.0003 24.7191 21.1196C24.5147 22.2169 24.4433 23.4072 24.3575 24.5671L24.1594 28.0781C24.1033 29.2537 24.0623 30.4221 24.0361 31.5983L24.0046 33.3516L24.0077 34.2212C24.023 34.5438 23.9909 34.6405 24.0435 34.9715L24.0498 35.0241C24.0566 35.0543 24.001 34.8581 24.0147 34.9184L24.0005 34.8806C23.9862 34.8503 23.9717 34.8275 23.9497 34.8045C23.825 34.6818 23.8836 34.7431 23.8838 34.7356C23.8911 34.7432 23.9579 34.7747 24.0098 34.7984C24.1137 34.8456 24.2474 34.9011 24.3739 34.9414C24.6342 35.0371 24.9095 35.1257 25.1849 35.2143C25.7356 35.3914 26.3018 35.5465 26.8606 35.7013C27.993 36.0114 29.1259 36.2989 30.2664 36.5867C32.5474 37.1546 34.8361 37.7153 37.1009 38.3353L37.1382 38.3437C37.3916 38.4093 37.5744 38.6157 37.629 38.8568C37.944 40.198 38.2815 41.5323 38.5662 42.8878C38.866 44.2362 39.1433 45.5841 39.3903 46.9463C39.4233 47.1494 39.2916 47.3414 39.0885 47.3743C38.9231 47.3931 38.7455 47.2918 38.6894 47.1181Z" fill="#042C89"/>
<path d="M30.6655 56.0538C29.6994 56.0173 28.7574 55.9064 27.8079 55.7953C26.8588 55.6693 25.9175 55.5284 24.9847 55.3427C24.0439 55.1794 23.1195 54.9489 22.1947 54.7409C21.2625 54.5253 20.3375 54.3248 19.4047 54.1392L19.3972 54.139C19.166 54.0889 18.9824 53.9199 18.9198 53.7011C18.3193 51.7164 17.7036 49.7463 17.1482 47.7551L16.3304 44.7612C16.199 44.2635 16.0452 43.7654 15.8987 43.2749C15.7524 42.7769 15.5984 42.2863 15.4295 41.7953C15.3803 41.6443 15.4213 41.4878 15.536 41.3854L15.5513 41.3708C16.7905 40.2515 17.9495 39.0331 19.2471 37.9826C19.896 37.4573 20.5228 36.9091 21.1938 36.3993C21.8499 35.8818 22.5132 35.3793 23.206 34.9C23.3735 34.7838 23.6049 34.8265 23.7211 34.994C23.8228 35.1386 23.8033 35.3406 23.6806 35.4653C23.0976 36.0669 22.4925 36.6456 21.8728 37.209C21.2678 37.7877 20.6263 38.3206 19.9993 38.8763C18.7526 39.9954 17.3674 40.939 16.0624 41.9818L16.1843 41.5573C16.3306 42.0552 16.4846 42.5459 16.6461 43.0367C16.8076 43.5275 16.9616 44.0182 17.138 44.5093L18.1823 47.4333C18.8658 49.3899 19.4891 51.3602 20.1275 53.3232L19.6425 52.8852C20.5755 53.0634 21.5165 53.2192 22.4575 53.3751C23.3986 53.5235 24.3399 53.6643 25.2724 53.865C26.2052 54.0507 27.1374 54.2663 28.0541 54.5041C28.9779 54.757 29.8942 55.0098 30.8014 55.3373C30.9947 55.409 31.0949 55.6211 31.0231 55.8144C30.9749 55.9633 30.8227 56.0648 30.6655 56.0538Z" fill="#042C89"/>
<path d="M19.789 53.7578C19.789 53.7578 19.7707 53.9073 19.6908 54.1304C19.6108 54.3535 19.4695 54.6426 19.2379 54.9448C19.0211 55.2548 18.6189 55.4782 18.2965 55.8158C17.9669 56.1458 17.6289 56.5131 17.2541 56.8495C16.8794 57.186 16.4312 57.4533 16.1308 57.8139C15.9695 57.9902 15.8749 58.198 15.7655 58.398C15.6636 58.5981 15.5476 58.7604 15.417 58.8999C14.9101 59.4508 14.4178 59.6797 14.4178 59.6797C14.2133 59.7726 13.9756 59.6774 13.8825 59.4804C13.8397 59.382 13.8346 59.277 13.8665 59.1877C13.8665 59.1877 14.0429 58.6744 14.5425 58.1159C14.6655 57.9762 14.8184 57.8447 15.0085 57.7215C15.1912 57.5981 15.3963 57.4753 15.55 57.3063C15.8796 56.9763 16.1075 56.5017 16.4014 56.096C16.7028 55.6904 17.0333 55.323 17.3336 54.9624C17.634 54.6018 17.8306 54.1864 18.1135 53.9379C18.389 53.6816 18.6627 53.5078 18.8748 53.4076C19.0944 53.3076 19.2376 53.2733 19.2376 53.2733C19.4789 53.2112 19.7154 53.3589 19.7775 53.6001C19.799 53.6456 19.7977 53.7055 19.789 53.7578Z" fill="#042C89"/>
<path d="M15.6134 41.9858C14.897 41.8425 14.2509 41.5732 13.6204 41.2744C12.9898 40.983 12.4218 40.5731 11.8381 40.1928C11.262 39.8052 10.6474 39.4692 10.0559 39.1037C9.46419 38.7458 8.86501 38.3876 8.28915 37.9925L8.8597 37.9528C8.35806 38.2639 7.84927 38.5599 7.36927 38.909C6.88212 39.243 6.4534 39.6457 6.03184 40.0636C5.61761 40.4891 5.13761 40.8382 4.65795 41.1723C4.17079 41.5063 3.66932 41.8099 3.1239 42.0676C2.93443 42.1609 2.71134 42.0809 2.62561 41.8916C2.56135 41.7478 2.58733 41.591 2.68723 41.4808C3.08698 41.0324 3.52319 40.6299 3.97372 40.2576C4.43174 39.8855 4.89708 39.5211 5.42036 39.2479C5.93648 38.9596 6.45277 38.6638 6.90346 38.284C7.3688 37.9196 7.79769 37.5094 8.23357 37.1218C8.37126 36.9975 8.56672 36.9718 8.72238 37.0502L8.80395 37.0895C9.4346 37.3809 10.0494 37.7094 10.6642 38.0379C11.2792 38.3589 11.8784 38.7171 12.5089 39.0159C13.1394 39.3148 13.7777 39.5988 14.3535 39.9939C14.9296 40.3815 15.4898 40.8063 15.9799 41.3494C16.1262 41.51 16.1132 41.7571 15.9527 41.8959C15.861 41.9764 15.7328 42.011 15.6134 41.9858Z" fill="#042C89"/>
<path d="M24.2753 20.5815C24.2753 20.5815 24.1033 20.5626 23.8352 20.4817C23.5672 20.4008 23.2108 20.2504 22.8187 20.0168C22.4265 19.7907 22.0762 19.3632 21.619 19.0232C21.1695 18.6759 20.6752 18.3201 20.2117 17.9275C19.7484 17.5274 19.3465 17.0612 18.8664 16.7432C18.6376 16.5807 18.3701 16.4773 18.1327 16.3671C17.8876 16.2642 17.673 16.1395 17.4886 16.008C16.7509 15.4744 16.3878 14.9491 16.3878 14.9491C16.2643 14.7739 16.3072 14.5275 16.4899 14.4042C16.5888 14.3389 16.7091 14.3191 16.8209 14.3516C16.8209 14.3516 17.4392 14.5227 18.1844 15.0565C18.3688 15.1881 18.5601 15.3497 18.7356 15.5485C18.9187 15.74 19.1012 15.9614 19.3299 16.1239C19.7794 16.4712 20.359 16.7015 20.8842 17.013C21.4095 17.3245 21.9039 17.6728 22.3767 17.9832C22.8494 18.301 23.3622 18.4998 23.7079 18.7924C24.0612 19.0851 24.3171 19.3756 24.4769 19.604C24.6367 19.8324 24.7082 19.9914 24.7082 19.9914C24.8084 20.2035 24.7203 20.4564 24.5082 20.5567C24.4253 20.5773 24.35 20.5906 24.2753 20.5815Z" fill="#042C89"/>
<path d="M37.8786 16.8909C37.8786 16.8909 37.822 16.7397 37.7752 16.4838C37.7284 16.2279 37.7064 15.8676 37.7531 15.4564C37.7849 15.0374 38.0123 14.5852 38.1211 14.0779C38.2373 13.5708 38.3394 13.0259 38.4937 12.4896C38.6481 11.9534 38.892 11.4341 38.9709 10.9187C39.0215 10.665 38.9974 10.4021 38.9878 10.162C38.9708 9.91426 38.9908 9.68984 39.0327 9.48839C39.1859 8.66728 39.5044 8.16467 39.5044 8.16467C39.621 7.97987 39.8621 7.92527 40.0544 8.04199C40.1504 8.10409 40.2157 8.20299 40.236 8.30088C40.236 8.30088 40.3503 8.88809 40.1971 9.7092C40.1625 9.9183 40.0977 10.1342 39.9953 10.3568C39.9004 10.5796 39.7827 10.8168 39.7396 11.0707C39.6234 11.5778 39.6705 12.156 39.6207 12.7096C39.5709 13.2632 39.4686 13.8156 39.3972 14.3312C39.3182 14.8466 39.367 15.3499 39.2456 15.752C39.1392 16.1544 38.9895 16.4809 38.8572 16.7028C38.7173 16.9245 38.6098 17.0421 38.6098 17.0421C38.4484 17.2184 38.1782 17.2348 38.0018 17.081C37.9431 17.0197 37.907 16.959 37.8786 16.8909Z" fill="#042C89"/>
<path d="M19.3573 5.40274C19.3573 5.40274 19.3988 5.56107 19.4228 5.83144C19.4469 6.09433 19.4311 6.46875 19.3543 6.8868C19.2923 7.31267 19.0351 7.75669 18.8811 8.27795C18.7197 8.79156 18.6025 9.34363 18.4254 9.89436C18.2484 10.4376 17.9743 10.9637 17.8801 11.4938C17.8218 11.7548 17.8607 12.0255 17.8702 12.2731C17.8872 12.5208 17.8745 12.7529 17.8399 12.962C17.7015 13.791 17.3896 14.3312 17.3896 14.3312L17.3663 14.3682C17.2573 14.5531 17.0235 14.6154 16.8386 14.5063C16.7423 14.4517 16.6771 14.3528 16.6569 14.2474C16.6569 14.2474 16.5354 13.6451 16.6746 12.7787C16.7094 12.5621 16.7671 12.331 16.8698 12.0934C16.965 11.8557 17.0681 11.6031 17.1264 11.3421C17.2654 10.8205 17.2488 10.2205 17.3216 9.64492C17.4018 9.06955 17.5194 8.50249 17.6361 7.9729C17.7528 7.44331 17.7495 6.91854 17.8935 6.50949C18.1593 5.68339 18.6418 5.22191 18.6418 5.22191C18.8103 5.06075 19.08 5.06675 19.2486 5.23541C19.3004 5.26655 19.3364 5.33481 19.3573 5.40274Z" fill="#042C89"/>
<path d="M8.20869 37.6634C8.20885 37.6559 8.15042 37.5871 8.06502 37.3828C7.97945 37.186 7.8511 36.8909 7.74672 36.5287C7.61987 36.1661 7.5175 35.7141 7.41646 35.2022C7.30061 34.6824 7.24602 34.104 7.19277 33.4657C7.11704 32.8269 7.14736 32.138 7.16371 31.4037C7.17256 30.6694 7.23451 29.9062 7.2745 29.12C7.30716 28.3262 7.34032 27.5099 7.42609 26.6873C7.50437 25.8646 7.57549 25.0266 7.66909 24.1892L7.66992 24.1517L7.67907 24.077L7.67924 24.0695L7.68724 24.0472L7.71138 23.9728C7.7197 23.9355 7.75167 23.8462 7.78331 23.772C7.85457 23.6012 7.91667 23.5051 7.97145 23.4014C8.09599 23.1943 8.21986 23.0172 8.35855 22.8478C8.62861 22.5016 8.90549 22.1854 9.18237 21.8693C9.74312 21.2596 10.2889 20.6496 10.8265 20.0694C11.3566 19.4891 11.8198 18.8847 12.282 18.3254C12.7367 17.7658 13.1904 17.2512 13.6349 16.8114C14.5095 15.9089 15.3043 15.222 15.8548 14.7395C16.42 14.2649 16.7555 14.01 16.7555 14.01C16.9231 13.8863 17.1547 13.9214 17.2786 14.0816C17.3805 14.2188 17.3763 14.4061 17.2684 14.5386C17.2684 14.5386 16.2198 15.8495 14.4786 17.6322C14.0414 18.0797 13.5513 18.5485 13.016 19.0238C12.4881 19.5068 11.9221 20.0114 11.3997 20.5844C10.8771 21.1649 10.3538 21.7754 9.88192 22.432C9.64234 22.7565 9.40991 23.0961 9.20013 23.4287C9.0989 23.5989 8.99783 23.7615 8.91924 23.9247C8.87995 24.0063 8.84049 24.0954 8.8325 24.1177C8.82451 24.14 8.80935 24.1471 8.80053 24.2069L8.78388 24.2815L8.78338 24.304L8.78321 24.3114C8.77439 24.3712 8.79221 24.2442 8.79187 24.2592L8.79104 24.2966C8.75755 25.1279 8.69425 25.951 8.64611 26.767C8.58298 27.5826 8.56513 28.3842 8.55545 29.1561C8.53827 29.9277 8.53658 30.6772 8.59583 31.3832C8.64758 32.0889 8.64023 32.7558 8.68666 33.364C8.7256 33.972 8.70543 34.5412 8.74703 35.0294C8.77349 35.5247 8.7788 35.9596 8.80859 36.305C8.82306 36.6651 8.8397 36.9278 8.86566 37.1083C8.86915 37.2883 8.90395 37.409 8.89662 37.4013C8.93724 37.5971 8.81287 37.7967 8.61707 37.8374C8.47389 37.8717 8.33288 37.8085 8.24531 37.7017L8.20869 37.6634Z" fill="#042C89"/>
<path d="M8.12398 23.8876C8.12398 23.8876 8.01826 23.9227 7.86059 23.9342C7.70293 23.9457 7.50115 23.9187 7.3007 23.8318C7.09259 23.7522 6.94825 23.5016 6.727 23.3393C6.50574 23.1769 6.26202 23.0141 6.04159 22.8143C5.82117 22.6145 5.65503 22.3335 5.41063 22.2006C5.29226 22.1305 5.15024 22.1124 5.01572 22.0944C4.8812 22.0764 4.76216 22.0363 4.67359 21.9743C4.304 21.7412 4.17665 21.4011 4.17665 21.4011C4.08442 21.1667 4.20281 20.8995 4.44472 20.8074C4.48251 20.7933 4.5278 20.7793 4.57275 20.7803C4.57275 20.7803 4.93319 20.7508 5.31028 20.9841C5.4065 21.0387 5.49458 21.1231 5.56699 21.2372C5.6469 21.3514 5.71899 21.4804 5.83736 21.5505C6.05861 21.7128 6.38026 21.7425 6.66262 21.8537C6.93749 21.9648 7.18139 22.1201 7.42595 22.2455C7.66286 22.3782 7.95471 22.3997 8.1162 22.5532C8.28534 22.6993 8.39405 22.8667 8.45082 23.0104C8.50742 23.1615 8.52756 23.2669 8.52756 23.2669C8.55885 23.5449 8.38803 23.811 8.12398 23.8876Z" fill="#042C89"/>
<path d="M58.4964 21.7794C58.0556 20.7052 57.5319 19.6517 56.9698 18.6347C56.6965 18.1189 56.3927 17.625 56.0965 17.1237C55.8003 16.6224 55.4737 16.1429 55.1547 15.656C55.0029 15.4053 54.8204 15.1839 54.6535 14.9403C54.4863 14.7042 54.3268 14.4608 54.137 14.2317C53.7799 13.774 53.4077 13.3235 53.005 12.8948C52.6174 12.4589 52.1764 12.0668 51.758 11.6677C51.5528 11.4608 51.3169 11.2831 51.0963 11.0908L50.4267 10.5287L50.7164 10.6476C48.9982 10.3845 47.2806 10.0989 45.5791 9.76123L43.0194 9.25451L40.4365 8.77727L39.7281 8.61159L39.7058 8.6036L39.6983 8.60343C39.7056 8.61109 39.5871 8.54848 39.639 8.57213L39.6317 8.56447L39.5948 8.54116L39.5283 8.49471L39.3955 8.4018L39.1296 8.22349C38.7762 7.93828 38.4082 7.63026 38.0551 7.33008C37.3934 6.75317 36.7622 6.14698 36.1692 5.51164C34.9681 4.24812 33.7974 2.9628 32.7339 1.57493C32.61 1.41476 32.6377 1.18301 32.798 1.05166C32.9429 0.942446 33.145 0.95444 33.2698 1.06965C33.9166 1.64622 34.5478 2.25243 35.1639 2.85829C35.7954 3.44951 36.3807 4.09217 37.0045 4.69072C37.613 5.30391 38.2138 5.92443 38.7842 6.56676L39.6191 7.44734L39.8693 7.65529L39.9865 7.77783L40.0453 7.83161L40.0748 7.85475L40.0821 7.86241C40.1339 7.89354 40.0153 7.83094 40.0303 7.83127L40.0378 7.83144L40.0526 7.83927L40.6037 8.00144C42.2669 8.37576 44.0088 8.57944 45.7285 8.77513C47.4558 8.96349 49.1744 9.20412 50.8932 9.43726L50.9007 9.43743C51.0053 9.45475 51.1018 9.49438 51.1829 9.55615L51.9046 10.1344C52.1402 10.327 52.3909 10.5125 52.611 10.7273C53.0665 11.1422 53.5296 11.5497 53.9468 12.0013C54.3945 12.431 54.804 12.8898 55.2136 13.3487C55.426 13.5708 55.6155 13.8149 55.8124 14.0591C56.0019 14.3032 56.2065 14.5401 56.3808 14.7914C56.5626 15.0428 56.7444 15.2942 56.911 15.5527L57.388 16.3504C57.5546 16.6089 57.6831 16.8966 57.827 17.1697C57.9708 17.4427 58.0993 17.7304 58.2203 18.0179C58.4701 18.5857 58.6668 19.1747 58.8484 19.7709C59.0226 20.3669 59.1516 20.9695 59.2198 21.6081C59.2378 21.8109 59.0913 21.995 58.8885 22.013C58.7232 22.0318 58.568 21.9309 58.5037 21.7871L58.4964 21.7794Z" fill="#042C89"/>
<path d="M59.0285 21.664C59.0285 21.664 59.1419 21.6216 59.3224 21.5956C59.5029 21.5696 59.7351 21.5748 59.9958 21.6481C60.2567 21.7138 60.4911 21.9589 60.7878 22.1005C61.0843 22.2495 61.4109 22.3917 61.7218 22.571C62.0249 22.7576 62.2961 23.0335 62.6086 23.1379C62.7646 23.2013 62.9371 23.1977 63.0943 23.2087C63.2591 23.2123 63.4008 23.2455 63.5195 23.3006C64.0096 23.5064 64.2493 23.849 64.2495 23.8415C64.3875 24.0395 64.344 24.3084 64.1536 24.4465C64.1001 24.4903 64.0322 24.5113 63.9719 24.525C63.9719 24.525 63.5582 24.5907 63.0681 24.3849C62.9417 24.3371 62.8235 24.2595 62.7061 24.1445C62.5886 24.0369 62.4639 23.9142 62.3079 23.8508C62.0114 23.7018 61.6292 23.7008 61.2787 23.618C60.9359 23.5279 60.6016 23.3931 60.2891 23.2887C59.9768 23.1768 59.6393 23.1842 59.4101 23.0442C59.1807 22.9117 59.0045 22.7429 58.8951 22.6055C58.7859 22.4607 58.736 22.3471 58.736 22.3471C58.6218 22.0897 58.7408 21.7925 58.9907 21.6782C59.0134 21.6712 59.021 21.6639 59.0285 21.664Z" fill="#042C89"/>
<path d="M51.3923 9.58836C51.3923 9.58836 51.3413 9.51977 51.2836 9.42104C51.2331 9.32997 51.1982 9.21676 51.2228 9.11986C51.2326 9.01514 51.4129 8.99667 51.4824 8.90826C51.5593 8.82003 51.6291 8.71664 51.7356 8.64406C51.8497 8.57164 52.0378 8.53835 52.0851 8.43446C52.1162 8.38269 52.0881 8.29961 52.0746 8.23185C52.0538 8.15643 52.0551 8.09649 52.0859 8.0597C52.1868 7.90454 52.4339 7.91753 52.4339 7.91753C52.7034 7.93103 52.9398 8.0862 53.0624 8.3063C53.0624 8.3063 53.1849 8.5264 53.084 8.68157C53.0605 8.72602 53.0149 8.75499 52.9396 8.7683C52.8642 8.78911 52.7816 8.79477 52.7505 8.84655C52.6736 8.93478 52.7295 9.11592 52.7115 9.25044C52.6861 9.3848 52.6238 9.48835 52.5838 9.59989C52.5365 9.70378 52.5928 9.86994 52.5091 9.92804C52.4328 9.9863 52.3199 10.0063 52.215 10.0039C52.1027 10.0014 52.0206 9.98463 52.0206 9.98463C51.7595 9.92635 51.5454 9.77916 51.3923 9.58836Z" fill="#042C89"/>
<path d="M58.8108 66.5982C67.4143 62.6222 74.7522 49.5032 72.8993 40.1374C72.7852 39.5427 71.8851 39.5677 71.7303 40.1264C70.2961 45.289 69.9242 50.2128 67.3505 55.0502C65.0505 59.3764 61.2799 62.4182 58.6053 66.3988C58.5201 66.5243 58.6821 66.6553 58.8108 66.5982Z" fill="#042C89"/>
<path d="M77.9264 52.7847C82.3908 49.2187 84.4659 42.8711 83.0148 37.3445C82.863 36.7565 81.831 36.6511 81.7259 37.3308C80.8984 42.8517 80.6071 47.5225 77.0644 52.1134C76.6553 52.644 77.4762 53.142 77.9264 52.7847Z" fill="#042C89"/>
<path d="M22.4886 34.4429C22.4947 34.8403 22.7689 35.3187 23.1946 35.3881C25.2709 35.7266 27.2166 36.2047 29.1551 37.0049C29.3334 37.0763 29.5134 37.0728 29.687 37.0167C30.5361 37.2605 31.4313 37.4528 32.3342 37.6378C32.3195 38.2971 33.1181 38.7871 33.7147 38.2532C33.8217 38.1582 33.9286 38.0706 34.028 37.9828C35.4828 38.2926 36.8461 38.6677 37.8806 39.3354C38.7155 39.8786 39.5623 38.8781 39.1828 38.0826C38.8823 37.4388 38.7931 36.7322 38.8396 35.9912C40.7344 34.3768 42.431 32.5781 44.0405 30.6501C44.3487 30.2747 44.3448 29.7724 44.1511 29.3858C44.3074 29.097 44.3604 28.7383 44.2253 28.4055C42.5102 24.3047 41.1515 17.9931 35.7744 17.4462C34.1365 17.2823 31.9104 17.2778 29.8023 17.6956C29.3493 17.5056 28.7401 17.597 28.4457 18.0252C26.5667 18.5905 24.9408 19.5737 24.1481 21.1751C24.0224 21.4347 23.9112 21.717 23.8149 21.9997C21.6729 25.6249 22.4514 30.387 22.4886 34.4429ZM41.4633 29.9181C41.4803 29.4913 41.4668 29.0862 41.4232 28.688C41.447 28.6285 41.4708 28.5691 41.4945 28.5172C41.7743 28.7408 42.0532 29.0093 42.3237 29.3152C42.042 29.5113 41.7526 29.7147 41.4633 29.9181ZM33.6653 20.9372C33.1992 21.3391 32.7553 21.749 32.3334 22.1818C32.4358 21.9592 32.5457 21.7368 32.6408 21.5066C32.6562 21.4844 32.6642 21.4621 32.6799 21.4325C32.6799 21.4325 32.6799 21.4325 32.6724 21.4323C32.7117 21.3507 32.751 21.2692 32.7904 21.1801C32.8299 21.091 32.8469 21.0014 32.8639 20.9119C33.1409 20.9255 33.4108 20.9241 33.6653 20.9372ZM31.59 26.2804C30.7817 27.5741 29.9512 28.8524 29.2985 30.2245C29.2932 30.127 29.2956 30.0221 29.2902 29.9245C30.0225 28.6816 30.7696 27.4464 31.59 26.2804ZM27.4636 22.748C27.4192 22.3873 27.3598 22.0261 27.2855 21.6572C27.4069 21.5924 27.5356 21.5353 27.6643 21.4782C27.5948 21.904 27.5256 22.3222 27.4636 22.748ZM27.3918 33.0454C27.4463 32.9567 27.5006 32.8755 27.555 32.7867C27.6148 33.1328 27.682 33.4791 27.7566 33.8331C27.5658 33.649 27.3903 33.4502 27.2377 33.2369C27.2914 33.1781 27.3452 33.1194 27.3918 33.0454ZM35.9287 22.2993C36.0081 22.436 36.095 22.5729 36.1744 22.7096C35.9838 22.8552 35.7781 23.0006 35.5873 23.1537C35.7136 22.8717 35.8323 22.5895 35.9287 22.2993ZM29.9107 34.3758C29.9873 34.3025 30.0566 34.2216 30.119 34.1106C30.3691 33.6514 30.6193 33.1847 30.8694 32.7256C30.8614 32.7479 30.8536 32.7627 30.8456 32.785C30.5937 33.3266 30.3643 33.8687 30.1725 34.4041C30.0847 34.642 30.14 34.8531 30.2485 35.0279C30.1889 35.0116 30.1293 34.9953 30.0699 34.9715C30.0144 34.7678 29.9588 34.5717 29.9107 34.3758ZM32.9854 35.6585C33.5167 35.0257 34.0188 34.3548 34.4988 33.6683C34.0716 34.3409 33.659 35.0289 33.2614 35.7171C33.1718 35.7001 33.0824 35.6756 32.9854 35.6585ZM37.8348 31.6288C37.8984 31.8026 37.9924 31.9547 38.1096 32.0772C38.0465 32.2182 37.9983 32.367 37.9352 32.5081C37.4547 32.8796 36.9817 33.2514 36.5085 33.6306C36.9507 32.9584 37.3927 32.2936 37.8348 31.6288ZM24.4277 31.5103C24.6869 32.3256 24.9623 33.0888 25.2475 33.7473C25.2544 33.7699 25.2691 33.7852 25.2836 33.808C25.1717 33.7831 25.0675 33.7508 24.9554 33.7333C24.2094 33.5742 24.3548 32.4307 24.4277 31.5103ZM40.5586 24.4262C40.3996 24.4976 40.2406 24.569 40.0889 24.6481C39.9521 24.3977 39.8153 24.1473 39.6708 23.9042C39.5914 23.4302 39.5045 22.9561 39.4026 22.4816C39.314 22.0823 39.0573 21.8293 38.7453 21.7024C38.6095 21.407 38.4583 21.1263 38.2919 20.8603C39.2533 21.7812 39.967 23.0563 40.5586 24.4262Z" fill="#042C89"/>
<path d="M39.2788 65.1226C39.8192 65.0897 40.019 64.532 39.7124 64.1654C43.6992 64.5389 48.9159 63.5382 51.0406 60.6922C55.3282 54.9635 48.4926 48.2077 42.9843 47.493C37.9094 46.8328 34.0028 50.9359 32.793 55.4513C31.689 59.5868 34.3627 65.4105 39.2788 65.1226ZM34.3646 55.8986C35.0543 52.5259 38.4124 49.8273 41.7543 49.5419C44.2402 49.3274 46.4379 50.6056 48.1392 52.3C50.2876 54.4465 51.4194 59.164 48.1131 60.8819C45.1252 62.4344 41.3428 62.3053 38.0575 63.0791C36.9767 62.4704 35.9327 61.8925 35.1337 60.7429C34.1608 59.327 34.0362 57.5178 34.3646 55.8986Z" fill="#042C89"/>
<path d="M32.9998 56.6576C32.7715 58.4964 33.2539 60.3961 34.7466 62.0334C37.022 64.5351 40.1543 64.2375 43.0055 62.7644C43.4039 63.0506 43.9499 63.1002 44.372 62.6599C44.9477 62.0505 45.479 61.4177 45.9659 60.7615C46.0881 60.6593 46.2104 60.5495 46.3328 60.4398C46.3521 60.5827 46.3797 60.6882 46.4961 60.8482C46.5835 60.9626 46.6871 61.0249 46.8144 61.0277C46.8131 61.0877 46.7968 61.1473 46.7954 61.2072C46.7305 62.1052 48.0001 62.6507 48.6073 61.9746C50.5833 59.7474 51.3808 57.2541 51.1021 54.2871C51.0599 53.8215 50.8202 53.4788 50.4641 53.3135C50.5598 50.025 47.8 47.7299 43.955 48.0566C43.5494 48.0925 43.1284 48.1506 42.707 48.2237C42.4318 48.1276 42.1168 48.1356 41.7975 48.3384C41.7593 48.3675 41.7212 48.3967 41.6756 48.4256C41.1859 48.5347 40.6958 48.6662 40.1977 48.82C40.0703 48.8171 39.9424 48.8368 39.7991 48.8786C39.2707 49.0467 38.7637 49.2603 38.2707 49.5192C35.2521 50.7712 32.4123 52.7468 30.8807 55.2162C30.0332 56.5841 32.0816 57.8365 32.9998 56.6576ZM36.4203 57.8956C36.2018 58.2805 35.9834 58.6654 35.7799 59.0506C35.6516 58.7554 35.5538 58.4309 35.5016 58.085C35.8149 58.1519 36.1457 58.1068 36.4203 57.8956Z" fill="#042C89"/>
<path d="M6.60244 22.1223C7.40274 22.2001 8.23752 21.739 9.01721 21.0592C14.2548 19.4593 18.0254 13.7191 17.6432 8.32875C17.5924 7.57805 16.7462 6.86962 16.008 7.37039C12.3312 9.90452 8.28663 12.4605 5.87693 16.327C4.97518 17.7761 3.8952 21.8447 6.60244 22.1223ZM9.96774 14.7241C9.59729 15.2031 9.23433 15.6822 8.87137 16.1613C8.68224 16.2396 8.50709 16.3631 8.36807 16.5474C8.23687 16.7169 8.14363 16.8647 8.05772 17.0202C7.90238 17.2641 7.73954 17.5078 7.57654 17.7591C7.96049 17.0105 8.50043 16.3255 9.05419 15.6932C9.34639 15.3624 9.6534 15.0394 9.96774 14.7241Z" fill="#042C89"/>
<path d="M36.5496 2.82127C37.0442 4.17399 37.8548 5.13649 38.835 5.88538C38.6051 6.11263 38.5373 6.46341 38.8375 6.78491C41.5535 9.7012 47.2175 11.5063 51.0617 10.2052C51.9303 9.90968 52.2217 8.94173 51.6152 8.23863C48.1219 4.21068 42.9341 1.8915 37.676 1.38469C36.9802 1.32423 36.3097 2.14882 36.5496 2.82127ZM46.5796 8.17153C46.7331 7.67274 46.6271 7.04824 46.1551 6.70043C46.0298 6.60769 45.8971 6.5073 45.7717 6.41456C46.6664 6.96666 47.5143 7.60017 48.3008 8.29978C47.7384 8.30975 47.1622 8.26695 46.5796 8.17153Z" fill="#042C89"/>
<path d="M64.0505 41.2028C65.4889 41.2348 65.5157 39.0242 64.0772 38.9922C62.6463 38.9603 62.6195 41.1709 64.0505 41.2028Z" fill="#042C89"/>
<path d="M57.9955 37.8344C58.4784 39.7116 60.4094 42.8728 62.7459 41.6205C63.1555 41.4048 63.4776 41.0746 63.7488 40.6759C63.7935 40.6919 63.8454 40.7155 63.89 40.7315C64.5886 41.0019 65.0551 39.9105 64.4112 39.5438C64.3815 39.5282 64.3594 39.5127 64.3298 39.497C64.8491 38.0545 64.9783 36.2884 65.1162 35.1446C65.4485 32.3411 65.6482 29.0925 64.8999 26.3399C64.7062 25.616 63.8643 25.3874 63.2942 25.742C62.5121 24.8476 61.6117 24.2129 60.4475 23.6473C59.8691 23.3646 59.1228 23.5579 58.9353 24.2358C58.903 24.34 58.878 24.4519 58.8457 24.5561C58.527 24.7289 58.2728 25.0381 58.2253 25.4868C58.1404 26.2719 58.0776 27.0725 58.0375 27.8662C57.3418 31.1713 57.1264 34.4496 57.9955 37.8344ZM62.807 37.192C62.7402 37.4978 62.6738 37.7887 62.5997 38.0868C62.3453 38.0662 62.0909 38.0455 61.844 38.025C62.2281 36.2571 62.4641 34.411 62.8341 32.6053C63.039 34.1764 63.026 35.7727 62.807 37.192ZM59.763 35.2053C59.7284 35.7518 59.6937 36.2982 59.6591 36.8446C59.5054 36.3389 59.3962 35.8568 59.3371 35.4807C59.5034 35.4169 59.6478 35.3302 59.763 35.2053Z" fill="#042C89"/>
<path d="M3.99866 43.4713C3.87424 49.7348 6.65059 58.6939 12.2325 57.1167C12.2852 57.1029 12.3234 57.0737 12.3688 57.0522C13.0431 57.7419 13.6605 58.2878 14.1627 58.6288C14.5909 58.9231 15.3664 58.768 15.5946 58.2784C15.8231 57.7812 16.044 57.284 16.2573 56.794C17.5599 55.856 18.1031 53.6794 18.0183 51.0915C18.1322 50.352 18.209 49.5967 18.2188 48.8173C18.2208 48.3901 17.9661 48.0471 17.6251 47.8747C16.5575 42.6339 13.4647 37.1158 9.23425 36.9092C3.93347 36.6338 2.96758 39.618 3.99866 43.4713ZM14.5066 55.6382C14.4235 55.6663 14.3329 55.6943 14.2428 55.6998C14.1603 55.7054 14.0922 55.7339 14.0242 55.7549C13.8631 55.5864 13.6873 55.4026 13.5116 55.2113C13.6933 55.1329 13.8614 54.9867 13.9787 54.7719C14.4945 53.824 14.9352 52.8818 15.2938 51.9229C15.4642 51.6793 15.6418 51.4434 15.8418 51.2155C15.8408 51.2604 15.8399 51.2979 15.8389 51.3429C15.5737 52.8211 15.1001 54.2272 14.5066 55.6382ZM13.2045 51.1643C12.7534 51.8963 12.3908 52.6978 12.0942 53.5607C11.9119 53.3317 11.7223 53.0952 11.5327 52.8586C11.556 52.8216 11.579 52.7996 11.595 52.755C12.3465 51.3176 13.061 49.8643 13.9306 48.512C13.7756 49.4155 13.5236 50.2944 13.2045 51.1643ZM8.20646 48.0623C8.31335 47.9747 8.40609 47.8494 8.48434 47.7012C8.85397 46.9224 9.21594 46.1509 9.60738 45.4025C9.30683 46.4452 8.90939 47.4633 8.46683 48.4878C8.37261 48.3433 8.28587 48.199 8.20646 48.0623ZM10.4906 40.0703C10.3604 40.1948 10.2375 40.327 10.1073 40.4516C10.1115 40.2643 10.1233 40.0696 10.1275 39.8823C10.1242 39.6949 10.0754 39.5289 9.99651 39.3697C10.3391 39.4673 10.6658 39.6095 10.9839 39.7965C10.8104 39.8451 10.6438 39.9238 10.4906 40.0703ZM13.4227 42.3693C13.1825 42.3864 12.9331 42.4783 12.7045 42.6456C12.6206 42.7112 12.5515 42.7846 12.4676 42.8502C12.525 42.2893 12.5527 41.7203 12.5359 41.1277C12.8573 41.5022 13.148 41.9134 13.4227 42.3693Z" fill="#042C89"/>
</g>
<defs>
<clipPath id="clip0_153_33399">
<rect width="82.0193" height="65.3382" fill="white" transform="translate(82.8857 67.1484) rotate(-178.725)"/>
</clipPath>
</defs>
</svg>
