<svg width="78" height="121" viewBox="0 0 78 121" fill="none" xmlns="http://www.w3.org/2000/svg">
<path d="M3.76172 55.2225C3.76172 35.5584 19.6243 19.6172 39.1913 19.6172C58.7584 19.6172 74.6205 35.558 74.6205 55.2225C74.6205 63.061 72.0979 70.3063 67.8274 76.1876C62.7701 83.8461 49.6299 92.4929 49.6299 97.6732V103.591C49.6299 104.773 48.6769 105.73 47.5015 105.73H41.8077H36.5753H30.8816C29.7062 105.73 28.7532 104.773 28.7532 103.591V97.6732C28.7532 92.4929 15.6126 83.8461 10.5556 76.1876C6.28432 70.3063 3.76172 63.061 3.76172 55.2225Z" fill="#FFDE14"/>
<path d="M42.7378 105.662L42.7147 105.163C42.6741 104.283 42.0576 90.4043 43.1254 77.992C41.8865 78.1171 40.5759 78.1827 39.1907 78.1827C37.8053 78.1827 36.4949 78.1171 35.2565 77.9921C36.3242 90.4043 35.7078 104.283 35.6671 105.163L35.644 105.662L35.1443 105.639L34.5196 105.61L34.0206 105.586L34.0435 105.087C34.0534 104.871 34.6955 90.4165 33.5833 77.7812C23.1604 76.1926 18.3663 70.1428 17.4953 64.3205M42.7378 105.662L17.4953 64.3205M42.7378 105.662L43.2376 105.639L43.8623 105.61L44.3613 105.586L44.3384 105.087C44.3284 104.872 43.6864 90.4165 44.7986 77.7812C55.2215 76.1926 60.0155 70.1428 60.8866 64.3205C61.1447 62.595 60.9822 60.868 60.4818 59.4023C59.9835 57.9427 59.1342 56.7002 57.9835 56.0087C56.6099 55.1831 54.9676 55.0311 53.2656 55.5216L53.2655 55.5216C50.5981 56.2909 48.1234 58.5737 46.5964 61.5719C44.8774 64.947 43.8677 70.4361 43.2787 76.3383C42.0045 76.4796 40.6435 76.555 39.1911 76.555C37.7388 76.555 36.3777 76.4796 35.1032 76.3383M42.7378 105.662L35.1032 76.3383M17.4953 64.3205C17.2372 62.595 17.3998 60.8679 17.9003 59.4023C18.3987 57.9427 19.2481 56.7002 20.3988 56.0087L20.3988 56.0087C21.7727 55.1832 23.4141 55.0306 25.1168 55.5216C27.7842 56.2909 30.2585 58.5737 31.7858 61.5718L31.7859 61.5719C33.5045 64.947 34.5141 70.4361 35.1032 76.3383M17.4953 64.3205L35.1032 76.3383M53.7152 57.0863C51.5427 57.7127 49.4037 59.6431 48.0443 62.3118C46.5046 65.3357 45.5398 70.4186 44.9579 76.1056C54.3912 74.5323 58.528 69.1019 59.2793 64.0787C59.493 62.6497 59.3568 61.2052 58.9585 59.9985C58.5572 58.7829 57.9095 57.8629 57.1475 57.4047L53.7152 57.0863ZM53.7152 57.0863C54.2182 56.9415 54.7012 56.8714 55.1568 56.8714M53.7152 57.0863L55.1568 56.8714M55.1568 56.8714C55.8898 56.8714 56.5607 57.0524 57.1473 57.4046L55.1568 56.8714ZM21.235 57.405L21.235 57.405C21.8215 57.0524 22.4924 56.8714 23.2255 56.8714C23.6818 56.8714 24.1642 56.9412 24.6666 57.0866L24.667 57.0867C26.8391 57.7131 28.9786 59.644 30.3376 62.3122L30.3376 62.3122C31.8776 65.3357 32.8421 70.4186 33.424 76.106C23.9907 74.5327 19.8543 69.1023 19.1029 64.0791C18.8892 62.6501 19.0254 61.2055 19.4238 59.9988C19.8251 58.7829 20.4729 57.863 21.235 57.405Z" fill="#00A6E3" stroke="#00A6E3"/>
<path d="M68.7224 57.2638C67.6 57.2638 66.6898 56.3492 66.6898 55.2212C66.6898 42.5522 58.1666 31.5353 45.9632 28.4305C44.8747 28.1538 44.2157 27.0425 44.4914 25.9486C44.7672 24.8548 45.8722 24.1916 46.9611 24.4696C60.971 28.0339 70.7558 40.6794 70.7558 55.2212C70.755 56.3492 69.8448 57.2638 68.7224 57.2638Z" fill="#FFEE99"/>
<path d="M38.5098 25.4884C38.5098 26.6163 39.4199 27.531 40.5423 27.531C41.6651 27.531 42.5749 26.6163 42.5749 25.4884C42.5749 24.36 41.6647 23.4453 40.5423 23.4453C39.4199 23.4457 38.5098 24.36 38.5098 25.4884Z" fill="#FFEE99"/>
<g opacity="0.55">
<path d="M74.5526 57.3242C72.5973 71.9237 60.8682 87.0385 39.1914 87.0385C17.5145 87.0385 6.22329 71.2167 3.83008 57.3242C4.23845 64.3521 6.67007 70.8335 10.5553 76.1841C15.6126 83.8427 28.7528 92.4894 28.7528 97.6698V103.588C28.7528 104.77 29.7058 105.727 30.8812 105.727H36.575H41.8074H47.5011C48.6769 105.727 49.6295 104.769 49.6295 103.588V97.6698C49.6295 92.4894 62.7697 83.8427 67.8271 76.1841C71.7131 70.8335 74.1443 64.3521 74.5526 57.3242Z" fill="#FFC043"/>
</g>
<path d="M50.4674 100.199H27.916V111C27.916 112.764 28.4154 114.492 29.3562 115.981C31.1341 118.795 34.2211 120.501 37.5386 120.501H40.8448C44.1623 120.501 47.2493 118.795 49.0276 115.981C49.968 114.492 50.4674 112.764 50.4674 111V100.199Z" fill="#0DD180"/>
<path d="M27.9146 107.484C27.9789 107.486 28.0439 107.484 28.1099 107.477L50.6612 105.128C51.4311 105.047 51.9684 104.352 51.8621 103.575C51.7553 102.797 51.0433 102.231 50.2751 102.312L27.7237 104.662C26.9543 104.742 26.4165 105.438 26.5233 106.215C26.6199 106.926 27.2232 107.459 27.9146 107.484Z" fill="#00A6E3"/>
<path d="M27.9146 112.425C27.9789 112.427 28.0439 112.425 28.1099 112.418L50.6612 110.069C51.4311 109.989 51.9684 109.293 51.8621 108.516C51.7553 107.738 51.0433 107.174 50.2751 107.254L27.7237 109.603C26.9543 109.683 26.4165 110.378 26.5233 111.156C26.6199 111.867 27.2232 112.401 27.9146 112.425Z" fill="#00A6E3"/>
<path d="M28.8145 117.319C28.8788 117.321 28.9439 117.319 29.0098 117.312L50.3854 115.085C51.1552 115.004 51.6925 114.309 51.5862 113.532C51.4795 112.754 50.7666 112.188 49.9992 112.269L28.6232 114.497C27.8534 114.577 27.3156 115.272 27.4228 116.05C27.5198 116.761 28.1231 117.295 28.8145 117.319Z" fill="#00A6E3"/>
<path d="M39.1914 1.5V12.6888" stroke="#FFDE14" stroke-width="3" stroke-miterlimit="10" stroke-linecap="round" stroke-linejoin="round"/>
<path d="M59.269 5.95703L54.7725 16.1925" stroke="#FFDE14" stroke-width="3" stroke-miterlimit="10" stroke-linecap="round" stroke-linejoin="round"/>
<path d="M76.1917 18.3359L67.9648 25.8746" stroke="#FFDE14" stroke-width="3" stroke-miterlimit="10" stroke-linecap="round" stroke-linejoin="round"/>
<path d="M19.1133 5.95703L23.6098 16.1925" stroke="#FFDE14" stroke-width="3" stroke-miterlimit="10" stroke-linecap="round" stroke-linejoin="round"/>
<path d="M2.19141 18.3359L10.4183 25.8746" stroke="#FFDE14" stroke-width="3" stroke-miterlimit="10" stroke-linecap="round" stroke-linejoin="round"/>
</svg>
