<svg width="114" height="124" viewBox="0 0 114 124" fill="none" xmlns="http://www.w3.org/2000/svg">
<mask id="mask0_1293_45736" style="mask-type:alpha" maskUnits="userSpaceOnUse" x="0" y="0" width="114" height="124">
<rect width="114" height="124" fill="#D9D9D9"/>
</mask>
<g mask="url(#mask0_1293_45736)">
<path d="M75.1766 120.539C75.1738 120.843 74.9412 121.052 74.6756 121.14C71.6089 122.155 68.4906 122.972 65.3081 123.53C65.0263 123.579 64.7455 123.625 64.4661 123.672C59.0502 124.544 53.5328 124.698 48.0746 124.243C42.3614 123.766 36.703 122.536 31.3159 120.61C30.8822 120.456 30.7383 120.068 30.8186 119.649C31.2162 117.567 31.8373 115.519 32.6399 113.554C35.0737 107.593 39.1851 102.273 44.4582 98.5218C45.0986 98.0643 45.7606 97.6326 46.4328 97.2238C47.0905 96.6856 47.7726 96.178 48.4751 95.7162C48.6227 95.6204 48.772 95.6487 48.8852 95.7367C49.16 95.6371 49.438 95.5486 49.7182 95.4748C51.7879 94.911 53.9791 94.9889 56.0722 95.4998C56.5471 95.614 57.0174 95.7534 57.4802 95.9133C60.1274 96.8163 62.4773 98.3586 64.5867 100.163C66.6284 101.908 68.4763 103.901 70.0686 106.059C71.6426 108.186 72.9645 110.473 73.8842 112.957C74.7846 115.375 75.2104 117.954 75.1766 120.539Z" fill="#0DD180"/>
<path d="M75.1714 120.524C75.1686 120.827 74.9361 121.037 74.6707 121.125C71.6057 122.138 68.4892 122.955 65.3086 123.513C65.0269 123.562 64.7462 123.607 64.467 123.655C64.3906 122.881 64.3118 122.109 64.2219 121.34C63.7815 117.515 63.1486 113.688 61.9097 110.034C61.2923 108.219 60.5112 106.461 59.5588 104.797C59.1139 104.023 58.6515 103.116 57.8037 102.719C56.9765 102.329 55.9927 102.339 55.0977 102.236C53.0913 102.003 51.1243 101.551 49.2252 100.873C48.3044 100.544 47.3922 100.175 46.5158 99.7408C46.0317 99.5005 45.5661 99.2366 45.0997 98.9603C44.8815 98.8311 44.6716 98.6777 44.4686 98.5139C45.1086 98.0566 45.7702 97.6251 46.4421 97.2166C47.0993 96.6786 47.781 96.1713 48.4831 95.7097C48.6306 95.6139 48.7798 95.6423 48.893 95.7302C49.1676 95.6307 49.4454 95.5422 49.7255 95.4685C50.5518 95.5538 51.3869 95.5825 52.2166 95.5856C53.4937 95.5904 54.784 95.5298 56.076 95.4939C56.5506 95.6081 57.0206 95.7475 57.4832 95.9073C60.129 96.8101 62.4777 98.3519 64.586 100.156C66.6268 101.9 68.4737 103.892 70.0652 106.05C71.6385 108.176 72.9599 110.462 73.8792 112.945C74.7792 115.362 75.205 117.94 75.1714 120.524Z" fill="#FDFDFF" fill-opacity="0.22"/>
<path d="M90.2522 48.512C90.2113 49.2132 90.1545 49.8981 90.0468 50.5902C90.0259 50.7308 90.0022 50.8666 89.9737 51.0053C89.2664 54.7507 88.4845 58.5012 87.4859 62.208C87.4349 62.424 87.3725 62.6371 87.3173 62.8459C87.2106 63.226 87.105 63.6023 86.998 63.9762C86.2696 66.5076 85.4392 69.0088 84.4514 71.4734C82.1085 77.33 78.9195 82.9584 74.4527 87.8278C70.0959 92.5815 64.2296 96.7821 57.3103 98.0794C56.9843 98.1414 56.6527 98.1939 56.3207 98.2401C54.7317 98.4654 53.1219 98.5069 51.5427 98.3636C51.4193 98.4453 51.2515 98.4792 51.0744 98.4092C50.9574 98.3588 50.8356 98.3112 50.7118 98.2712C49.8023 98.1443 48.9018 97.961 48.0241 97.7064C47.7872 97.6393 47.5562 97.5656 47.3238 97.4895C46.8614 97.3359 46.4174 97.1587 45.9899 96.9654C45.4697 96.7685 44.9641 96.547 44.4802 96.3128C44.417 96.2823 44.3523 96.2495 44.2901 96.2152C43.7681 95.9712 43.2655 95.6998 42.7714 95.4042C42.714 95.3671 42.6542 95.3314 42.5958 95.2981C42.5294 95.2566 42.4591 95.2142 42.3927 95.1728C41.575 94.6681 40.7991 94.1133 40.0826 93.511C39.8938 93.3549 39.718 93.188 39.5359 93.0214C37.1081 90.9116 35.0472 88.3692 33.173 85.7755C31.0453 82.8387 29.1888 79.7082 27.6282 76.4369C26.0596 73.1575 24.7661 69.7462 23.7866 66.2415C23.4772 65.1317 23.1999 64.016 22.9606 62.8878C22.9441 62.8267 22.9357 62.7739 22.9207 62.7153C22.8294 62.2903 22.7443 61.8648 22.6651 61.4328C22.6338 61.297 22.6107 61.1532 22.5842 61.0145C22.37 59.8299 22.1702 58.6369 22.0561 57.4355C21.9097 56.834 21.7708 56.2346 21.6541 55.6286C21.4888 54.775 21.3397 53.9214 21.2328 53.0625C21.2246 52.9935 21.2178 52.9269 21.2082 52.8554C21.0939 51.8628 21.0851 50.8792 21.0794 49.8842C21.078 49.8047 21.1312 49.7576 21.1916 49.7448C21.2219 49.7303 21.2516 49.7258 21.2928 49.7242C23.6953 49.7268 26.0846 49.9105 28.4876 49.9192C30.9503 49.9252 33.4179 49.8898 35.8873 49.8629C44.8444 49.7476 53.8001 49.5528 62.762 49.3576C67.2169 49.2624 71.6728 49.1634 76.1328 49.0716C80.6254 48.98 85.116 48.9346 89.6118 48.854C89.7256 48.8549 89.8234 48.878 89.9047 48.9172C89.9495 48.7787 89.9976 48.635 90.0438 48.4989C90.0776 48.4021 90.2588 48.4022 90.2522 48.512Z" fill="#00A6E3"/>
<path d="M90.3057 45.6697C89.2342 43.1808 86.7156 42.4365 84.6348 42.2167C83.454 42.0909 82.2631 42.0801 81.0801 42.0551C79.6914 42.0218 78.3052 41.9485 76.9182 41.9014C71.5346 41.7229 66.1496 41.6191 60.7646 41.5153C55.327 41.41 49.8859 41.4642 44.4521 41.6297C41.7907 41.7105 39.1289 41.8237 36.4721 41.995C33.9125 42.1609 31.3334 42.3156 28.8109 42.8805C26.6323 43.3697 24.2075 44.0733 22.4472 45.8081C21.7363 46.5092 21.1082 47.4284 20.91 48.5558C20.7068 49.7021 20.9681 50.8788 21.5801 51.7768C22.8225 53.6039 31.6953 54.7465 64.1416 54.0761C69.5777 53.9639 74.9884 53.3077 80.4074 52.8362C81.683 52.7268 82.9608 52.6322 84.2342 52.508C85.3635 52.3974 86.5216 52.2314 87.5849 51.7388C89.5718 50.8189 91.493 48.4217 90.3057 45.6697Z" fill="#FFDE14"/>
<path d="M87.3115 62.8448C86.5128 65.7577 85.5795 68.64 84.4466 71.4688C82.105 77.328 78.9146 82.9543 74.4514 87.8248C70.0907 92.5778 64.2256 96.7809 57.307 98.0744C55.3977 98.4322 53.4505 98.5327 51.5392 98.3586C51.4158 98.4404 51.249 98.4704 51.0734 98.4029C50.9539 98.3538 50.8335 98.3086 50.7083 98.2662C49.5567 98.1074 48.4203 97.8531 47.3202 97.4845C46.8577 97.3309 46.4151 97.156 45.9838 96.9618C45.466 96.7635 44.958 96.5434 44.4754 96.3116C44.4122 96.2811 44.35 96.2468 44.2854 96.2139C43.7633 95.9699 43.2593 95.6961 42.7666 95.4029C42.7082 95.3696 42.6494 95.3301 42.591 95.2968C42.5245 95.2553 42.4557 95.2153 42.3903 95.17C41.574 94.6677 40.7942 94.112 40.0777 93.5096C39.8899 93.3497 39.714 93.1828 39.5296 93.0176C37.1017 90.9077 35.0407 88.3652 33.1664 85.7714C31.0401 82.8369 29.1821 79.7038 27.6214 76.4324C26.0551 73.1515 24.7592 69.7414 23.782 66.2351C23.4576 65.0667 23.1652 63.8923 22.9147 62.7064C27.2074 63.4636 31.5174 64.1401 35.8574 64.6034C40.2738 65.07 44.7099 65.339 49.1505 65.3679C53.7336 65.3969 58.3022 65.1647 62.8761 64.8974C67.4749 64.6283 72.074 64.3269 76.673 64.0417C80.241 63.8194 83.8159 63.5866 87.3115 62.8448Z" fill="#0DD180"/>
<path d="M85.0911 70.2276C86.1561 67.5676 87.0421 64.8615 87.8152 62.1263C61.5846 64.8861 44.1525 65.1403 22.297 61.2849C22.5527 62.4952 22.851 63.6937 23.1821 64.8861C24.1779 68.462 25.5019 71.9444 27.1004 75.2927C27.6244 76.3921 28.1858 77.4762 28.7752 78.5407C29.1499 78.6331 29.5274 78.7304 29.9031 78.8189C31.433 79.18 32.97 79.5139 34.5129 79.8183C37.6141 80.4311 40.7397 80.9281 43.8808 81.3112C50.095 82.068 56.3755 82.3535 62.6383 82.1088C68.527 81.8796 74.4035 81.1856 80.1737 79.9739C82.1345 76.866 83.7485 73.5838 85.0911 70.2276Z" fill="#FFDE14"/>
<path d="M82.7745 72.5216C82.6146 72.0929 82.4501 71.6712 82.2738 71.252C81.7488 70.7842 81.2141 70.3221 80.6687 69.8793C80.1984 69.497 79.4228 69.5802 79.2459 70.2492C78.6152 72.6453 77.6498 74.9497 76.4399 77.1141C75.2363 76.1334 74.0261 75.1565 72.8192 74.1776C72.0665 73.5687 71.3138 72.9597 70.5644 72.3489C70.1602 72.0194 69.756 71.6899 69.3485 71.3622C69.0303 71.1043 68.7229 70.8053 68.3399 70.6461C67.5165 70.3048 66.8309 70.7575 66.3766 71.4319C65.8463 72.2159 65.361 73.039 64.859 73.8414C64.0377 75.1523 63.2196 76.4612 62.3982 77.7721C60.4602 75.2885 58.3518 72.9478 56.0343 70.8033C55.7062 70.4989 55.1546 70.4557 54.8262 70.7998C52.6781 73.0468 50.521 75.286 48.3658 77.5284C47.1538 75.0339 45.953 72.5286 44.6411 70.0881C44.4061 69.6511 43.7288 69.5507 43.3852 69.9211C41.1527 72.3305 38.7195 74.57 36.0874 76.5383C35.0792 73.9205 34.0729 71.3059 33.0484 68.6976C32.8248 68.1233 32.1839 67.906 31.6918 68.337C30.2684 69.5863 28.8089 70.8261 27.4018 72.118C27.2217 72.5278 27.0397 72.9344 26.8732 73.345C26.6525 73.8872 26.4441 74.4354 26.2428 74.9881C28.2126 73.5197 30.0737 71.8886 31.9223 70.2735C32.9167 72.8603 33.9175 75.4433 34.9301 78.0237C35.0947 78.4454 35.6567 78.8568 36.1186 78.5086C38.8072 76.4724 41.3539 74.2842 43.7087 71.8816C44.8767 74.4279 46.1436 76.9338 47.382 79.4432C47.6221 79.9339 48.3718 80.0006 48.7369 79.622C50.9705 77.2816 53.2059 74.9445 55.4466 72.6087C57.7214 74.7999 59.8444 77.1581 61.7346 79.6871C62.1113 80.1937 62.8471 80.2816 63.2188 79.6903C64.1215 78.2492 65.0294 76.8094 65.934 75.3716C66.3671 74.6834 66.8002 73.9953 67.2314 73.3039L67.5846 72.7408C67.6289 72.667 67.7677 72.5077 67.8458 72.3794C67.9657 72.479 68.1529 72.5959 68.2119 72.6441C70.8249 74.7988 73.4253 76.9694 76.0522 79.1029C76.4904 79.4604 77.1462 79.4645 77.4654 78.9257C78.7683 76.733 79.7663 74.4095 80.5121 71.9853C81.5572 72.8977 82.5595 73.8568 83.5186 74.8543C83.303 74.0621 83.0579 73.2872 82.7745 72.5216Z" fill="white"/>
<path d="M77.0383 45.3791C76.2373 44.7873 75.2612 44.5804 74.2496 44.5002C73.9923 44.4643 73.7377 44.4332 73.4846 44.4045C72.5814 44.2995 71.6697 44.2573 70.7593 44.2336C68.0585 44.1704 65.3518 44.1686 62.6462 44.1853C62.1365 44.1716 61.6291 44.1564 61.1194 44.1427C57.5448 44.0409 53.9691 43.9044 50.3918 43.8973C46.9896 43.8907 43.5698 44.0357 40.2225 44.6071C38.2698 44.6271 36.3298 44.8452 34.5409 45.5788C33.3144 46.0802 31.4216 47.1217 32.2316 48.5271C32.8982 49.6886 34.7261 49.7479 35.9953 49.8864C42.9821 50.6505 64.0637 51.26 67.5428 50.8524C69.296 50.647 71.0376 50.3778 72.7643 50.0338C73.6159 49.8639 74.4677 49.6777 75.3093 49.4687C75.9835 49.2996 76.6596 49.0845 77.2051 48.6855C78.4563 47.7748 78.2032 46.2431 77.0383 45.3791Z" fill="#FDFDFF"/>
<path d="M113.213 28.5464C113.049 28.0797 112.891 27.6026 112.681 27.1565C112.686 27.1537 112.689 27.1485 112.697 27.1443C112.962 26.9122 112.763 26.4752 112.402 26.5931C111.673 26.8293 111.01 27.2427 110.328 27.5926C109.641 27.943 108.956 28.2981 108.266 28.6399C106.92 29.3075 105.561 29.9473 104.189 30.5595C101.405 31.8039 98.574 32.9469 95.7292 34.0498C90.03 36.2613 84.2659 38.3018 78.6373 40.6939C76.1327 41.7588 73.6802 42.9122 71.2934 44.2105C71.0734 43.77 70.7656 43.384 70.3731 43.1182C69.9479 42.8298 69.4154 42.6619 68.8979 42.7232C68.301 42.6605 67.707 42.9112 67.3 43.3644C67.0808 43.6082 66.9449 43.8838 66.8672 44.1703C66.4075 44.9083 66.2267 45.8402 66.5661 46.6546C66.701 46.9776 66.9051 47.2699 67.1572 47.5116C67.5863 48.1481 68.2935 48.5804 69.0975 48.5768C69.81 48.5719 70.4233 48.1557 70.824 47.5872C70.856 47.5589 70.8903 47.5292 70.9208 47.4985C70.9784 47.4423 71.0294 47.3804 71.079 47.316C71.4135 46.9598 71.6289 46.4835 71.6617 45.9885C71.6818 45.7196 71.6584 45.4375 71.6063 45.1561C72.4829 44.8464 73.3456 44.4966 74.2095 44.1654C75.5869 43.6338 76.9573 43.0902 78.3301 42.5452C81.0525 41.4655 83.769 40.3701 86.497 39.3C91.9729 37.1547 97.4654 35.0543 102.98 33.0084C104.514 32.44 106.047 31.8754 107.583 31.3157C108.918 30.828 112.715 29.1265 113.328 28.8684C113.292 28.7576 113.25 28.6534 113.213 28.5464Z" fill="#0DD180"/>
<path d="M2.10004 27.6679C1.8504 28.0962 1.58831 28.5253 1.3814 28.9768C1.37518 28.9772 1.36997 28.9738 1.36375 28.9742C1.01823 28.9257 0.811524 29.361 1.13275 29.5553C1.78564 29.9506 2.52903 30.1806 3.23871 30.4689C3.9498 30.7596 4.6643 31.045 5.36956 31.3423C6.74919 31.9228 8.11558 32.5303 9.47254 33.1658C12.224 34.4566 14.9244 35.8477 17.6058 37.2724C22.979 40.1287 28.2641 43.1487 33.7289 45.836C36.1631 47.0328 38.6296 48.1306 41.1629 49.0834C40.9685 49.5339 40.8739 50.0224 40.9255 50.4898C40.9798 51.0004 41.1953 51.51 41.5791 51.8603C41.9171 52.3528 42.4916 52.6367 43.102 52.646C43.4284 52.651 43.7272 52.576 43.9975 52.447C44.8573 52.3138 45.685 51.8399 46.0888 51.052C46.2471 50.738 46.3398 50.395 46.3623 50.0481C46.5705 49.3071 46.4439 48.492 45.9213 47.8891C45.458 47.3541 44.7423 47.1657 44.0493 47.2303C44.0063 47.2233 43.9634 47.2163 43.9194 47.2131C43.8392 47.2086 43.7593 47.2104 43.6771 47.2135C43.1897 47.1933 42.6858 47.3432 42.2853 47.6414C42.0672 47.8041 41.8663 48.0017 41.6871 48.2251C40.8839 47.7668 40.0579 47.3411 39.2463 46.907C37.9507 46.2164 36.6484 45.5362 35.346 44.856C32.7607 43.5067 30.1676 42.1716 27.5877 40.8095C22.4099 38.0765 17.2532 35.3024 12.1268 32.4753C10.7014 31.6905 9.27949 30.9004 7.85854 30.1065C6.61697 29.4197 2.86071 27.6633 2.26821 27.3707C2.21343 27.4701 2.15864 27.5695 2.10004 27.6679Z" fill="#0DD180"/>
<path d="M32.6342 7.88333C30.2946 8.8027 28.5358 10.6088 27.7068 12.9442C26.8638 15.3194 27.2581 18.3784 28.6589 20.3308C30.3177 22.6426 33.4668 23.3891 35.6569 21.9895C36.4532 21.4806 37.387 20.205 37.6151 19.3144C38.0135 17.7587 37.5043 16.3715 36.1298 15.2681C35.1306 14.4665 34.3074 14.302 33.7506 14.7942C33.2201 15.2626 33.3469 15.9887 34.0796 16.6821C34.6391 17.2117 34.8482 17.6829 34.7679 18.232C34.6669 18.9209 34.2832 19.2985 33.6156 19.364C32.9037 19.4335 32.4299 19.267 31.823 18.7334C31.014 18.0221 30.6872 17.3161 30.5017 15.8772C30.3586 14.7713 30.3664 14.5712 30.5738 13.9588C31.2228 12.0442 33.1634 10.5651 35.1658 10.4592C36.4191 10.393 37.1904 10.6688 38.4799 11.6451C39.6874 12.5598 40.5023 13.5183 41.1351 14.7698C41.5361 15.5628 41.5886 15.7713 41.7956 17.3817C42.0329 19.2283 42.0053 19.7957 41.5959 21.4326C40.9126 24.168 38.5111 26.7715 35.4356 28.1107C34.5634 28.4908 34.2648 28.5623 32.7683 28.7504C31.4046 28.9218 30.8998 28.9378 30.1213 28.8346C27.4642 28.4818 25.3707 27.2647 23.9469 25.2444C23.2472 24.2519 22.9807 23.6965 22.4202 22.0652C21.9173 20.6008 21.7665 20.4011 21.488 20.8294C21.2484 21.1979 21.3036 22.6202 21.5988 23.674C22.3302 26.288 24.2865 28.5533 26.8332 29.7364C31.5096 31.9084 37.2638 30.7744 41.1422 26.9174C43.2728 24.7986 44.8305 21.1254 44.9077 18.0385C44.9406 16.7144 44.5343 14.3835 44.0737 13.2556C43.052 10.7545 41.023 8.82068 38.3962 7.84382C36.5706 7.164 34.4264 7.17898 32.6342 7.88333Z" fill="#0DD180"/>
<path d="M81.1953 5.67521C80.5851 4.95964 79.7936 4.77654 78.5467 5.06194C77.6557 5.26597 77.1081 5.55649 75.6331 6.60638C69.9045 10.6857 65.1532 18.2088 65.3683 22.8591C65.4399 24.3987 65.7835 24.257 67.5513 21.9609C69.3172 19.6673 71.1787 17.7456 74.0666 15.2351C76.8931 12.7772 80.2675 9.65589 80.8705 8.94087C81.818 7.8158 81.944 6.55308 81.1953 5.67521Z" fill="#50BFA0"/>
<path d="M58.6644 2.05468C57.6441 0.797157 56.208 0.748988 55.7913 1.95866C55.6209 2.45288 55.6866 2.78723 56.2776 4.42279C58.772 11.3353 59.4644 14.1964 59.8395 19.1443C59.98 20.9996 60.2295 21.5416 60.6024 20.8045C61.0208 19.9765 61.5587 16.8322 61.6271 14.8095C61.802 9.66641 60.5839 4.42097 58.6644 2.05468Z" fill="#F2C438"/>
<path d="M85.551 18.8377C86.7885 18.9636 87.4242 19.8659 86.8225 20.643C86.5768 20.9606 86.3343 21.0592 85.0347 21.3683C79.5435 22.6767 77.4139 23.4367 74.0772 25.2794C72.8261 25.9704 72.3729 26.0383 72.6894 25.4884C73.0452 24.8709 74.8386 23.2012 76.1092 22.3055C79.3397 20.0274 83.2225 18.601 85.551 18.8377Z" fill="#F2C438"/>
<path d="M56.1945 26.856C53.551 27.1883 53.92 30.1655 56.5686 29.8326C59.2121 29.5004 58.8423 26.5232 56.1945 26.856Z" fill="#FFDE14"/>
<path d="M67.0469 32.8171C63.7422 33.2325 64.3605 38.1941 67.6704 37.7781C70.9751 37.3628 70.3569 32.4011 67.0469 32.8171Z" fill="#50BFA0"/>
</g>
</svg>
