<svg width="221" height="196" viewBox="0 0 221 196" fill="none" xmlns="http://www.w3.org/2000/svg">
<path d="M184.632 33.8623C186.188 33.8623 188.555 36.2211 191.783 35.9639C195.011 35.7067 201.22 33.0559 202.29 34.7175" stroke="#263238" stroke-width="0.9395" stroke-miterlimit="10" stroke-linecap="round" stroke-linejoin="round"/>
<path d="M164.339 54.5041C164.339 54.5041 165.7 44.8372 167.209 41.466L163.309 40.3164C163.309 40.3164 159.328 48.9172 158.6 53.266C158.138 56.0251 164.339 54.5041 164.339 54.5041Z" fill="#FFDE14"/>
<path d="M180.824 50.3074C180.824 50.3074 179.604 51.8301 177.693 53.8117C176.613 54.9465 175.307 56.2285 173.869 57.4716C172.089 59.0025 170.116 60.4788 168.134 61.5201C168.127 61.5201 168.118 61.5275 168.118 61.5275C166.65 62.2967 165.173 62.8252 163.775 62.965C163.775 62.965 163.767 62.965 163.759 62.965C162.85 63.0585 161.972 62.9807 161.148 62.7086C153.463 60.1438 159.299 47.9519 159.299 47.9519L165.484 49.7706L165.935 51.2313C165.935 51.2313 166.72 49.8633 167.963 47.9362C170.62 43.7942 175.376 37.08 178.873 35.9609L180.824 50.3074Z" fill="#407BFF"/>
<path d="M165.619 50.1474L165.732 47.6149L159.543 46.0029L158.702 48.8985L165.619 50.1474Z" fill="#407BFF"/>
<path opacity="0.6" d="M165.732 47.6149L159.544 46.0029L158.702 48.8985L165.619 50.1474L165.732 47.6149Z" fill="white"/>
<path opacity="0.2" d="M167.217 56.3224C167.434 54.0297 165.935 51.2326 165.935 51.2326C165.935 51.2326 166.719 49.8646 167.963 47.9375C168.188 50.5329 167.318 55.7476 167.217 56.3224Z" fill="black"/>
<path opacity="0.6" d="M178.206 51.6501C178.16 51.7047 178.005 51.9065 177.748 52.2175C177.064 53.0487 175.689 54.6657 173.94 56.4447C172.254 58.1775 170.218 60.0582 168.136 61.5188C168.128 61.5188 168.12 61.5263 168.12 61.5263C166.651 62.2955 165.175 62.824 163.776 62.9637C167.25 61.8373 171.338 58.0526 174.166 55.0767C176.187 52.9396 177.554 51.2143 177.593 51.168L177.725 51.2689L178.206 51.6501Z" fill="white"/>
<path opacity="0.2" d="M177.747 52.2191C177.747 52.7551 177.732 53.2836 177.693 53.8121C176.613 54.9468 175.307 56.2288 173.869 57.4719C173.869 57.1303 173.901 56.7879 173.939 56.4463C173.986 55.9881 174.072 55.5291 174.165 55.0784C174.989 51.3482 177.18 48.0771 177.18 48.0771C177.491 49.0407 177.662 50.1366 177.716 51.2705H177.723C177.74 51.5823 177.747 51.9007 177.747 52.2191Z" fill="black"/>
<path d="M175.867 78.9049L176.303 75.2344H203.192L204.175 78.441L175.867 78.9049Z" fill="#263238"/>
<path d="M156.823 195.27C161.925 195.27 162.599 195.191 165.466 195.094C167.921 195.007 168.508 195.314 170.48 195.27C172.129 195.235 172.068 193.657 171.559 191.842C171.305 190.93 170.913 189.003 170.562 187.531L163.087 186.988C162.035 188.996 159.662 191.86 156.786 192.246C154.042 192.613 154.789 195.27 156.823 195.27Z" fill="#407BFF"/>
<path d="M190.437 195.27C195.539 195.27 196.213 195.191 199.08 195.094C201.534 195.007 202.122 195.314 204.094 195.27C205.743 195.235 205.681 193.657 205.173 191.842C204.919 190.93 204.527 189.003 204.176 187.531L196.701 186.988C195.649 188.996 193.275 191.86 190.4 192.246C187.657 192.613 188.403 195.27 190.437 195.27Z" fill="#407BFF"/>
<path opacity="0.4" d="M156.823 195.27C161.925 195.27 162.599 195.191 165.466 195.094C167.921 195.007 168.508 195.314 170.48 195.27C172.129 195.235 172.068 193.657 171.559 191.842C171.305 190.93 170.913 189.003 170.562 187.531L163.087 186.988C162.035 188.996 159.662 191.86 156.786 192.246C154.042 192.613 154.789 195.27 156.823 195.27Z" fill="white"/>
<path opacity="0.4" d="M190.437 195.27C195.539 195.27 196.213 195.191 199.08 195.094C201.534 195.007 202.122 195.314 204.094 195.27C205.743 195.235 205.681 193.657 205.173 191.842C204.919 190.93 204.527 189.003 204.176 187.531L196.701 186.988C195.649 188.996 193.275 191.86 190.4 192.246C187.657 192.613 188.403 195.27 190.437 195.27Z" fill="white"/>
<path d="M195.325 76.3066H176.286C175.139 83.3616 169.783 116.992 168.811 135.3C167.666 156.857 165.799 173.941 162.145 187.43C163.173 188.354 168.005 188.739 170.29 187.599C170.29 187.599 185.189 165.222 182.595 140.329C197.679 97.857 195.817 79.4346 195.325 76.3066Z" fill="#263238"/>
<path opacity="0.2" d="M187.533 125.39C189.906 117.57 191.615 110.798 192.823 104.989C191.624 100.446 189.923 96.5569 187.61 94.2188C187.61 94.2188 184.281 106.875 187.533 125.39Z" fill="black"/>
<path d="M203.122 76.3066H183.311C184.672 86.7452 188.859 118.601 191.449 135.429C194.732 156.766 197.08 172.68 196.258 186.632C197.453 187.326 201.81 188.166 204.164 187.43C204.164 187.43 213.36 162.6 205.97 137.537C212.184 91.9549 204.357 78.1543 203.122 76.3066Z" fill="#263238"/>
<path d="M174.967 81.9771L174.158 85.5336C174.158 85.5336 176.184 86.6907 184.701 86.8933C193.218 87.0959 206.194 84.4352 206.194 84.4352L205.309 80.7432L174.967 81.9771Z" fill="#407BFF"/>
<path opacity="0.6" d="M174.967 81.9771L174.158 85.5336C174.158 85.5336 176.184 86.6907 184.701 86.8933C193.218 87.0959 206.194 84.4352 206.194 84.4352L205.309 80.7432L174.967 81.9771Z" fill="white"/>
<path d="M201.69 8.96135C201.69 8.96135 205.348 8.04163 207.096 9.76939C208.845 11.4972 207.311 14.8766 209.346 16.8756C211.381 18.8747 208.153 18.8863 208.768 21.3783C209.382 23.8702 211.765 23.1019 211.535 25.6385C211.304 28.1743 208.617 28.6797 209.346 30.0411C210.075 31.4024 208.269 33.4337 207.096 32.9557C207.096 32.9557 208.537 32.6323 207.615 31.5563C206.693 30.4802 205.002 30.1726 205.771 27.9444C206.539 25.7154 204.459 26.1679 203.193 24.0208C201.928 21.8737 203.229 19.3875 203.193 18.4785C203.158 17.5696 201.697 16.7259 200.544 14.6888C199.391 12.6501 201.69 8.96135 201.69 8.96135Z" fill="#263238"/>
<path d="M175.718 10.8142C175.718 10.8142 177.329 13.3269 182.09 12.7082C185.017 12.3278 183.609 8.6084 183.609 8.6084L175.718 10.8142Z" fill="#407BFF"/>
<path opacity="0.2" d="M175.718 10.8142C175.718 10.8142 177.329 13.3269 182.09 12.7082C185.017 12.3278 183.609 8.6084 183.609 8.6084L175.718 10.8142Z" fill="black"/>
<path d="M199.714 11.7473C199.832 18.2754 200.019 21.0287 197.055 24.7837C192.598 30.4318 184.692 29.5642 182.66 23.304C180.831 17.6691 180.946 7.94024 186.993 4.52772C192.95 1.16565 199.597 5.21998 199.714 11.7473Z" fill="#FFDE14"/>
<path d="M193.374 8.32424C197.767 12.0825 191.707 18.6999 198.768 16.93C205.829 15.16 200.857 5.70075 196.156 4.2881C191.455 2.87711 193.374 8.32424 193.374 8.32424Z" fill="#263238"/>
<path d="M201.575 17.6809C201.197 19.1026 200.305 20.115 199.386 20.5732C198.004 21.263 197.023 19.718 197.164 17.9431C197.29 16.3452 198.163 14.0608 199.667 14.1294C201.149 14.1981 202.006 16.0549 201.575 17.6809Z" fill="#FFDE14"/>
<path d="M202.529 13.7986C202.529 13.7986 199.846 10.86 195.087 9.77077C190.334 8.68895 182.182 7.90984 182.182 7.90984C182.182 7.90984 184.179 2.093 185.09 1.35442C185.955 0.653064 193.262 0.0269754 195.998 0.510815C196.137 0.531492 196.261 0.558789 196.376 0.586082C198.741 1.21218 202.145 5.5593 202.773 7.19029C203.4 8.82873 202.529 13.7986 202.529 13.7986Z" fill="#407BFF"/>
<path opacity="0.2" d="M196.234 4.52183C196.199 5.53914 195.088 9.76964 195.088 9.76964C190.336 8.68782 182.184 7.90871 182.184 7.90871C182.184 7.90871 182.572 6.77893 183.085 5.45147C183.162 5.25215 183.239 5.05282 183.324 4.84522C183.555 4.25469 183.809 3.65671 184.053 3.12076C184.137 2.92971 184.222 2.74527 184.305 2.57737H184.312C184.605 1.98105 184.877 1.52368 185.093 1.35247C185.958 0.65111 193.265 0.0250223 196.001 0.508862C196.104 1.74203 196.265 3.82378 196.234 4.52183Z" fill="white"/>
<path d="M195.087 9.77261C195.087 9.77261 190.364 6.30467 184.017 7.08377L175.718 10.8131C175.718 10.8131 185.371 13.5126 195.087 9.77261Z" fill="#407BFF"/>
<path d="M204.843 55.0394L202.838 71.5131C202.838 71.5131 206.536 78.9031 205.402 81.553C205.402 81.553 177.489 84.6926 175.305 82.5008C173.525 80.721 176.028 72.4767 176.028 72.4767C176.028 72.4767 173.728 43.3983 178.872 35.962C178.872 35.962 192.751 29.6523 207.095 36.5757L205.798 47.2219L204.842 55.0311V55.0394H204.843Z" fill="#407BFF"/>
<path opacity="0.6" d="M207.755 38.5165C204.751 36.4835 199.725 35.2247 199.675 35.2123L199.862 34.458C200.073 34.5101 205.071 35.7615 208.19 37.873L207.755 38.5165Z" fill="white"/>
<path opacity="0.6" d="M205.07 82.3237L204.298 82.2327C204.879 77.2868 201.54 70.6594 201.507 70.5933L201.445 70.4725L201.472 70.3402C203.464 60.4384 204.453 46.7271 204.462 46.5898L205.237 46.6452C205.228 46.7825 204.244 60.4219 202.26 70.3625C202.736 71.3302 205.64 77.4613 205.07 82.3237Z" fill="white"/>
<path d="M189.98 37.5486L198.595 35.2833C196.012 32.6317 197.332 25.3501 198.407 21.376L190.343 27.8495C190.885 30.937 190.754 34.2246 186.244 35.2833C186.244 35.2833 189.99 37.5238 189.98 37.5486Z" fill="#FFDE14"/>
<path opacity="0.2" d="M195.119 24.0186L190.346 27.8471C190.476 28.5782 190.566 29.3193 190.563 30.0397C192.274 29.7949 194.738 27.9364 195.05 26.164C195.206 25.2798 195.232 24.4304 195.119 24.0186Z" fill="black"/>
<path d="M190.346 37.037C190.346 37.037 191.23 32.5799 193.196 31.7595C195.163 30.9398 199.249 30.0615 199.768 30.0391C200.287 30.0176 201.209 34.526 201.209 34.526C201.209 34.526 194.062 38.8301 189.899 38.1122C185.735 37.3952 185.584 34.1158 185.584 34.1158L188.217 30.939C188.217 30.939 189.936 31.2194 190.346 31.848C190.757 32.4765 190.346 37.037 190.346 37.037Z" fill="#407BFF"/>
<path opacity="0.6" d="M190.346 37.037C190.346 37.037 191.23 32.5799 193.196 31.7595C195.163 30.9398 199.249 30.0615 199.768 30.0391C200.287 30.0176 201.209 34.526 201.209 34.526C201.209 34.526 194.062 38.8301 189.899 38.1122C185.735 37.3952 185.584 34.1158 185.584 34.1158L188.217 30.939C188.217 30.939 189.936 31.2194 190.346 31.848C190.757 32.4765 190.346 37.037 190.346 37.037Z" fill="white"/>
<path d="M185.587 87.0961C185.584 87.0961 185.581 87.0961 185.578 87.0961C185.47 87.0911 185.387 87.0002 185.392 86.8926L185.56 83.189C184.383 79.525 185.795 72.2898 185.912 71.71C184.197 49.4657 189.648 38.7609 189.984 38.1265C190.045 37.8065 190.59 35.0672 191.688 32.935C191.738 32.839 191.854 32.801 191.949 32.8514C192.045 32.9002 192.083 33.0177 192.033 33.1136C190.897 35.3169 190.366 38.1985 190.36 38.2274C190.356 38.2481 190.349 38.268 190.338 38.287C190.28 38.3912 184.545 48.9894 186.3 71.7067C186.301 71.7249 186.3 71.7431 186.296 71.7604C186.281 71.8374 184.751 79.4746 185.939 83.1013C185.946 83.1236 185.949 83.1476 185.948 83.1708L185.778 86.91C185.776 87.015 185.69 87.0961 185.587 87.0961Z" fill="#263238"/>
<g opacity="0.4">
<path d="M185.587 87.0961C185.584 87.0961 185.581 87.0961 185.578 87.0961C185.47 87.0911 185.387 87.0002 185.392 86.8926L185.56 83.189C184.383 79.525 185.795 72.2898 185.912 71.71C184.197 49.4657 189.648 38.7609 189.984 38.1265C190.045 37.8065 190.59 35.0672 191.688 32.935C191.738 32.839 191.854 32.801 191.949 32.8514C192.045 32.9002 192.083 33.0177 192.033 33.1136C190.897 35.3169 190.366 38.1985 190.36 38.2274C190.356 38.2481 190.349 38.268 190.338 38.287C190.28 38.3912 184.545 48.9894 186.3 71.7067C186.301 71.7249 186.3 71.7431 186.296 71.7604C186.281 71.8374 184.751 79.4746 185.939 83.1013C185.946 83.1236 185.949 83.1476 185.948 83.1708L185.778 86.91C185.776 87.015 185.69 87.0961 185.587 87.0961Z" fill="white"/>
</g>
<path opacity="0.6" d="M179.334 69.9805L180.359 71.1078C180.359 71.1078 176.658 74.7453 175.87 79.3058L175.44 78.0759C175.44 78.0759 176.465 73.1573 179.334 69.9805Z" fill="white"/>
<path opacity="0.2" d="M205.799 47.2227L204.843 55.032C203.087 51.3101 203.513 46.002 203.513 46.002C204.307 46.2203 205.076 46.6471 205.799 47.2227Z" fill="black"/>
<path d="M209.578 65.2695C209.578 65.2695 202.08 71.5206 198.698 73.006L201.21 77.0703C211.658 72.3402 211.254 71.8911 214.019 70.3933C216.479 69.0609 209.578 65.2695 209.578 65.2695Z" fill="#FFDE14"/>
<path d="M209.28 73.4813L209.249 73.4267L208.814 72.7742L205.884 67.9325C205.884 67.9325 207.85 63.324 211.548 61.6847C211.548 61.6847 207.678 55.8646 205.518 52.3834C201.369 45.7163 204.687 39.8027 206.319 37.549C206.506 37.2926 206.669 37.0825 206.801 36.927C206.979 36.7012 207.096 36.5771 207.096 36.5771C211.564 38.73 219.553 52.5621 220.477 61.6847C221.402 70.7991 209.28 73.4813 209.28 73.4813Z" fill="#407BFF"/>
<path d="M197.061 69.5225C197.061 69.5225 200.362 72.8027 202.967 77.6601L201.928 79.1041C201.928 79.1041 199.059 73.92 195.933 70.8359L197.061 69.5225Z" fill="#407BFF"/>
<path opacity="0.6" d="M197.061 69.5225C197.061 69.5225 200.362 72.8027 202.967 77.6601L201.928 79.1041C201.928 79.1041 199.059 73.92 195.933 70.8359L197.061 69.5225Z" fill="white"/>
<path opacity="0.6" d="M219.762 64.4658L219.754 64.5981L219.676 64.699C219.56 64.8388 217.571 69.6656 209.249 73.4263L208.814 72.7738C216.266 69.4092 218.472 64.8545 218.992 64.2946C219.428 52.8172 209.147 40.6633 206.318 37.5477C206.505 37.2913 206.668 37.0813 206.801 36.9258C209.559 39.957 220.298 52.5377 219.762 64.4658Z" fill="white"/>
<path d="M206.09 67.5039L204.178 69.1117L207.422 74.8682L210.028 73.3902L206.09 67.5039Z" fill="#407BFF"/>
<path opacity="0.6" d="M206.09 67.5039L204.178 69.1117L207.422 74.8682L210.028 73.3902L206.09 67.5039Z" fill="white"/>
<path opacity="0.6" d="M192.42 49.2832L197.469 49.4834C197.469 49.4834 197.469 53.4335 194.139 54.5095C194.139 54.5095 191.578 52.7751 192.42 49.2832Z" fill="white"/>
<path d="M166.874 38.0521L167.917 40.372L169.701 40.0776L170.003 37.5352L166.874 38.0521Z" stroke="#263238" stroke-width="0.9395" stroke-miterlimit="10" stroke-linecap="round" stroke-linejoin="round"/>
<path d="M171.692 34.1015C172.099 36.572 170.732 38.8556 168.639 39.2013C166.545 39.547 164.517 37.8242 164.109 35.3529C163.701 32.8824 165.068 30.5988 167.162 30.2531C169.255 29.9074 171.284 31.6302 171.692 34.1015Z" fill="#263238"/>
<path d="M167.619 28.5543L166.179 28.792L166.373 29.9671L167.813 29.7295L167.619 28.5543Z" fill="#263238"/>
<path d="M167.509 29.3876L166.562 29.5439L166.762 30.7575L167.709 30.6011L167.509 29.3876Z" fill="#263238"/>
<path d="M170.518 29.0938L169.091 28.7822L168.837 29.9458L170.264 30.2574L170.518 29.0938Z" fill="#263238"/>
<path d="M170.107 29.8271L169.168 29.6221L168.906 30.8236L169.845 31.0286L170.107 29.8271Z" fill="#263238"/>
<path d="M164.345 31.3112L165.596 30.5576L164.981 29.5374L163.73 30.2909L164.345 31.3112Z" fill="#263238"/>
<path d="M164.979 31.9129L165.802 31.417L165.167 30.3635L164.344 30.8594L164.979 31.9129Z" fill="#263238"/>
<path opacity="0.2" d="M170.863 34.2392C171.271 36.7105 170.091 38.9626 168.227 39.2703C166.362 39.578 164.52 37.8246 164.113 35.3533C163.705 32.8828 164.886 30.6298 166.749 30.3221C168.614 30.0145 170.456 31.7679 170.863 34.2392Z" fill="white"/>
<path d="M164.671 33.0809L163.093 34.3563C162.499 34.836 162.174 35.5729 162.22 36.3346L162.435 39.8952C162.521 41.3186 163.291 42.6122 164.501 43.3664L165.251 43.8337C168.013 41.8967 169.571 37.7688 169.571 37.7688L170.146 36.6415C170.657 35.6374 170.309 34.4721 169.345 33.9642L167.126 32.7964C166.358 32.3928 165.382 32.5061 164.671 33.0809Z" fill="#FFDE14"/>
<path d="M202.289 34.7167C204.595 38.2971 195.47 47.5422 185.093 47.6207C174.715 47.6993 168.997 39.78 168.997 39.78C168.997 39.78 174.966 41.0876 178.202 40.1134C182.047 38.9554 182.723 33.8623 184.63 33.8623" stroke="#263238" stroke-width="0.9395" stroke-miterlimit="10" stroke-linecap="round" stroke-linejoin="round"/>
<g opacity="0.3">
<path d="M28.9853 58.1299C28.9853 58.1299 29.7378 55.1223 28.8121 53.5051C27.8865 51.885 28.8121 49.9187 28.6957 49.3996C28.6957 49.3996 30.4903 48.8804 29.6781 47.2603C28.8689 45.6401 27.1908 41.4779 24.7005 40.4366C24.7005 40.4366 20.0125 38.4136 18.3941 39.8577C18.3941 39.8577 15.7904 39.3953 14.7483 41.1288C13.7062 42.8623 10.2932 44.3661 11.3353 50.9571C11.3353 50.9571 11.5682 52.3445 12.261 52.6339C12.261 52.6339 11.1621 54.1377 12.0281 55.6982C12.897 57.2586 14.7483 58.8788 15.6739 58.5894C15.6739 58.5894 16.8325 60.3229 17.0057 60.3229C17.1788 60.3229 15.8471 61.5372 15.8471 61.5372L14.805 62.1161C14.805 62.1161 14.5751 61.2478 14.169 61.5969C13.7629 61.943 12.3744 63.5065 12.1445 64.0256C11.9116 64.5448 10.5829 66.165 10.5231 66.338C10.4664 66.5111 9.65423 68.2446 9.42431 68.6504C9.19439 69.0562 8.03584 69.459 7.51329 70.1542C6.99374 70.8494 3.52107 80.794 2.88506 85.2457C2.88506 85.2457 2.42223 85.2457 2.18933 86.7495C1.95642 88.2532 2.36251 87.558 1.4936 89.4079C0.624685 91.2578 0.278314 90.7954 0.684404 91.8367C1.09049 92.878 0.567952 94.3818 0.105128 95.5364C-0.357696 96.6941 0.85759 97.3267 0.85759 98.3113C0.85759 99.2929 0.974042 99.1199 1.78324 99.2929C1.78324 99.2929 1.66679 101.722 1.61005 101.489C1.55332 101.259 2.07288 101.373 2.07288 101.373C2.07288 101.373 1.55929 104.443 2.13558 105.368C2.71486 106.293 3.23441 106.639 3.98688 107.101C3.98688 107.101 5.02898 107.68 5.25889 107.218C5.25889 107.218 6.82055 106.985 6.06809 106.12C6.06809 106.12 6.58765 105.597 6.7041 104.789C6.82055 103.98 7.05047 103.575 6.47418 101.841V101.495L6.76382 99.4123C6.76382 99.4123 7.57301 99.8747 8.09556 99.1228C8.61511 98.371 8.32846 98.2546 8.26874 97.3893C8.21201 96.5211 8.50165 96.175 8.90475 94.9606C9.31084 93.7462 10.12 94.2087 9.77367 92.0127C9.42729 89.8167 10.1798 89.757 10.2932 88.8321C10.4097 87.9071 11.7981 87.0389 11.625 85.0159C11.4518 82.993 12.3774 81.7786 12.3774 81.7786C12.3774 81.7786 11.9146 85.9409 11.9146 86.7525C11.9146 87.561 12.6671 89.1812 12.1475 90.3389C11.6279 91.4965 11.0487 92.4215 11.2786 93.7492C11.5085 95.077 11.5682 99.0662 12.0311 99.5286C12.4939 99.9911 13.1299 101.379 13.6524 101.379C14.172 101.379 14.9842 101.957 14.9842 101.957C14.9842 101.957 13.7689 105.774 14.4049 105.774C15.0409 105.774 15.3873 105.774 15.3873 105.774C15.3873 105.774 17.4118 109.473 17.7014 111.556C17.991 113.639 18.1642 115.026 18.1075 115.951C18.0507 116.876 18.6868 118.323 18.8599 118.38C19.0331 118.436 18.7435 120.346 19.5557 122.139C20.3649 123.932 18.9197 124.222 18.9764 124.741C19.0331 125.263 18.4568 124.914 18.4568 124.914L16.1427 124.568L15.2738 124.801C15.2738 124.801 14.1153 124.395 13.539 125.263C12.9597 126.131 11.9176 128.384 15.1006 131.392L17.4147 134.802L17.9343 136.362C17.9343 136.362 17.0654 136.362 17.6447 137.404C18.2239 138.445 19.0331 139.137 19.0331 139.137C19.0331 139.137 19.0331 143.243 19.1496 143.472C19.266 143.705 19.902 143.416 19.902 143.416L18.3971 147.175C18.3971 147.175 15.9098 154.634 22.4491 154.345C28.9883 154.056 25.226 144.514 25.226 144.514L25.2827 143.992L25.6888 143.702L26.1517 139.424C26.1517 139.424 26.2084 139.48 26.5577 138.672C26.9041 137.863 26.9638 137.401 26.9638 137.228C26.9638 137.055 27.0803 137.401 26.9638 136.186C26.8474 134.972 27.4834 133.874 27.4834 133.352C27.4834 132.833 27.3102 130.98 27.3102 130.634C27.3102 130.288 30.8993 129.19 31.5921 128.551C32.2878 127.915 34.369 126.528 34.8318 124.562C35.2947 122.596 36.916 114.038 36.6831 111.669C36.4532 109.297 37.0295 108.951 36.6831 107.91C36.3368 106.869 36.3935 105.365 36.3935 105.365L36.6831 105.308C36.6831 105.308 36.8563 102.996 36.6264 102.011C36.3935 101.029 36.916 99.4093 36.916 99.4093C36.916 99.4093 37.6685 99.1199 37.7252 97.5027C37.782 95.8855 36.8563 91.8396 36.51 90.2762C36.1636 88.7157 37.3789 89.0051 36.8563 86.7495C36.3368 84.4938 36.3368 84.0313 36.3368 84.0313C36.3368 84.0313 36.3935 82.817 35.9904 82.0084C35.5843 81.1998 36.0471 79.7527 36.0471 79.7527L36.2203 77.497C36.2203 77.497 37.9552 79.0008 39.057 80.0421C40.1558 81.0834 40.9083 82.0651 42.24 81.9487C43.5718 81.8323 44.9005 82.9303 45.8291 83.0467C46.7548 83.1631 47.8536 83.1631 48.8957 83.3928C49.9378 83.6226 50.9202 83.5659 50.9202 83.5659C50.9202 83.5659 50.9202 84.3178 51.3263 83.4495C51.7324 82.5812 52.7715 82.5246 52.7715 82.5246L55.6082 82.6976L55.7813 82.4082C55.7813 82.4082 57.4594 82.8707 58.2119 82.8707C58.9644 82.8707 59.9468 83.1601 59.9468 83.1601C59.9468 83.1601 60.5828 84.4908 61.5084 84.9533C61.5084 84.9533 61.798 84.9533 61.798 84.3178C61.798 84.3178 62.7237 85.013 62.7237 84.6072V83.8553C62.7237 83.8553 62.8969 83.8553 63.2433 83.912C63.5896 83.9687 63.8225 82.814 62.5475 81.2535C61.2755 79.693 60.2901 78.8815 57.8028 79.1709L56.4711 79.4036L56.1815 78.6517L53.0581 78.1893C53.0581 78.1893 54.1002 77.8431 53.291 77.4374C52.4819 77.0316 51.6697 75.0653 50.5708 75.8769C49.472 76.6855 51.0337 74.2567 49.4123 75.6471C49.4123 75.6471 49.1226 74.4895 48.0805 75.7635C48.0805 75.7635 48.2537 74.4925 47.0384 74.5491C45.8232 74.6058 44.2018 71.9474 43.1627 71.4849C42.1206 71.0224 41.0217 69.4023 40.965 69.2292C40.9083 69.0562 40.0961 67.6091 39.9826 67.436C39.8662 67.263 36.4532 64.2554 35.9904 63.7362C35.5276 63.2171 33.9659 62.2921 33.9659 62.2921C33.9659 62.2921 33.7927 62.1191 32.9238 62.1191C32.0549 62.1191 32.3445 60.675 31.189 60.9047C30.0304 61.1374 28.9316 61.1374 28.9316 61.1374L27.5998 61.0211C27.5969 61.0211 28.7554 58.7087 28.9853 58.1299Z" fill="#00A6E3"/>
<path d="M51.27 136.995C51.27 142.464 46.8329 146.898 41.3596 146.898C35.8864 146.898 31.4492 142.464 31.4492 136.995C31.4492 131.526 35.8864 127.092 41.3596 127.092C46.8329 127.092 51.27 131.526 51.27 136.995Z" fill="#00A6E3"/>
<path d="M102.02 50.6801C101.946 50.6383 101.916 50.6264 101.964 50.6652C101.975 50.6771 101.996 50.6801 102.02 50.6801Z" fill="#00A6E3"/>
<path d="M131.871 87.5198L132.379 87.1856C132.379 87.1856 132 83.4083 131.31 81.0362C130.617 78.6612 131.955 78.9805 131.014 77.3872C130.074 75.7939 130.113 74.9704 129.623 74.2782C129.13 73.5859 127.981 70.7872 126.941 68.9314C125.902 67.0755 123.66 67.7498 123.212 66.8488C122.764 65.9477 122.018 64.2619 122.203 62.9431C122.388 61.6243 125.577 55.1079 125.896 53.7712L126.458 53.9085L126.682 52.9268L127.034 53.0223C127.034 53.0223 126.735 51.3246 126.153 50.4384C125.571 49.5523 123.505 46.1538 121.674 45.1424C118.166 43.203 114.639 43.7072 113.17 44.3606C108.237 46.5596 106.846 48.2812 105.774 49.0212C104.759 49.7223 102.91 51.1366 102.489 51.1098C102.755 51.253 103.46 52.1541 103.46 52.1541L102.788 53.1983C102.788 53.1983 103.684 54.2426 105.929 54.7021C105.929 54.7021 104.92 57.1428 106.512 59.6133C106.512 59.6133 106.595 60.7322 106.222 61.7765C105.849 62.8208 106.222 62.9699 107.118 63.4175C107.118 63.4175 107.192 64.611 107.715 64.6856C107.715 64.6856 107.715 65.5061 108.088 65.5061C108.088 65.5061 108.461 66.1028 108.685 66.9233C108.909 67.7439 110.104 67.8185 111.373 66.9233C111.373 66.9233 111.746 67.2963 111.223 67.9676C110.701 68.639 109.357 71.7718 108.984 73.1891C108.829 73.7829 108.608 74.308 108.402 74.7197C108.363 75.2508 108.312 75.7252 108.255 76.0535C108.049 77.229 107.219 78.0436 106.685 79.3624C106.535 79.4101 106.395 79.4429 106.279 79.4608C105.159 79.613 100.949 79.5324 99.3512 79.5861C97.7537 79.6399 94.1228 80.0516 93.5077 79.8905C92.8926 79.7294 91.7012 79.07 91.2652 78.6373C90.8263 78.2047 90.1574 77.3484 89.4258 76.6711C88.1598 75.4985 87.264 76.692 87.264 76.692C87.264 76.692 85.8188 76.1072 85.3052 76.0833C84.8782 76.0624 84.1915 76.316 84.502 77.5871C84.502 77.5871 83.7884 78.5866 84.4871 79.7234C84.4871 79.7234 83.9078 80.4365 84.5767 81.1675C85.3978 82.0626 83.7615 82.0358 85.6217 83.2561C86.2309 83.6559 88.6495 83.8349 90.4232 83.5127C92.1968 83.1875 98.0523 86.0846 103.538 86.2398C104 86.2517 104.439 86.2547 104.857 86.2458C104.332 87.6391 103.433 88.9907 103.003 89.3011C102.436 89.7098 101.268 90.8018 101.268 90.8018L101.423 91.5329C101.423 91.5329 99.6647 92.8337 99.2855 93.0814C98.9063 93.332 95.6814 92.6219 95.6814 92.6219C95.6814 92.6219 92.1729 92.968 90.5157 92.8248C88.8585 92.6786 85.7681 91.9536 85.4993 91.9864C85.2306 92.0192 83.4987 91.8133 82.2297 91.4851C80.9607 91.1569 79.6229 91.3837 78.7361 91.9655C77.8493 92.5473 78.13 93.1978 78.13 93.1978C78.13 93.1978 75.8248 95.6533 73.9347 96.9691C72.0416 98.285 63.2539 104.783 63.2539 104.783C63.2539 104.783 63.451 104.145 62.5731 104.795C61.6952 105.446 60.7218 104.742 60.6083 105.505C60.4949 106.269 59.5513 106.38 59.5513 106.38C59.5513 106.38 58.7899 105.72 58.6675 106.416C58.545 107.114 58.2883 106.666 58.2883 106.666C58.2883 106.666 57.8314 106.857 56.4579 106.201C55.0813 105.544 53.5734 106.063 52.4716 104.831C51.3698 103.596 49.1363 101.475 48.5899 101.469C48.0434 101.466 44.8246 102.528 47.5209 106.848C50.2172 111.169 53.1614 114.096 53.672 115.537C54.1855 116.978 57.5477 118.285 58.4585 116.745C59.3692 115.205 59.6021 115.45 60.2859 114.892C60.9696 114.334 60.0739 113.69 60.7397 113.544C61.4056 113.397 62.4716 113.749 62.2924 112.813C62.2924 112.813 63.1016 112.717 63.0598 112.38L63.7794 111.544L64.6065 111.037C64.6065 111.037 65.9293 110.676 66.1145 110.518C66.2996 110.36 66.2996 110.36 66.2996 110.36C66.2996 110.36 68.8824 109.098 69.8499 108.644C70.8203 108.188 75.2843 106.09 77.2521 103.127C77.2521 103.127 79.4139 100.621 79.608 100.529C79.8021 100.439 81.0353 102.203 81.0353 102.203C81.0353 102.203 81.7818 102.728 82.791 102.608C83.8003 102.489 85.8487 103.065 86.2936 103.354C86.7385 103.644 88.3897 104.333 88.3897 104.333L91.4115 105.067C91.4115 105.067 95.147 106.057 96.5862 106.093C98.0254 106.129 98.5987 106.947 98.5987 106.947C98.5987 106.947 97.9956 111.658 98.1269 113.347C98.2583 115.035 97.8492 116.178 98.1807 117.843C98.5151 119.508 98.1867 120.776 97.4103 122.301C96.634 123.825 96.6817 125.935 97.2371 127.167L98.1926 127.737C98.1926 127.737 98.4942 129.133 99.0854 130.088C99.6767 131.043 103.496 141.37 104.383 145.973C104.383 145.973 104.165 145.863 104.251 146.603C104.338 147.343 104.176 147.704 104.09 148.122C104.003 148.542 103.708 148.918 103.708 148.918C103.708 148.918 102.716 148.626 102.534 149.399C102.352 150.171 100.268 151.031 100.268 151.031C100.268 151.031 99.0944 151.511 97.3088 151.994C95.5232 152.478 92.2028 153.28 92.6955 155.133C93.1882 156.986 94.2512 159.042 101.113 158.162C107.975 157.282 108.706 157.126 110.534 156.977C112.358 156.828 111.749 155.127 111.746 153.967C111.746 152.806 111.847 151.362 111.492 150.109C111.14 148.856 110.671 147.203 110.671 147.203L110.301 145.812L110.474 144.974L110.22 143.98C110.22 143.98 110.083 139.358 109.429 136.16C109.429 136.16 108.602 133.803 107.485 132.433C106.365 131.064 105.998 129.676 105.998 129.676C105.998 129.676 106.544 129.679 106.628 128.647C106.712 127.615 107.637 128.528 107.213 126.669C106.789 124.81 107.073 124.911 107.052 124.163C107.031 123.414 109.133 118.118 110.02 116.375C110.907 114.633 112.63 114.77 112.564 113.072C112.498 111.374 114.484 112.571 114.535 111.27C114.586 109.966 115.024 109.644 115.401 108.779C115.777 107.916 116.279 106.97 116.279 106.97C116.279 106.97 117.563 107.433 117.981 105.201C118.399 102.969 119.653 104.321 119.193 102.191C119.193 102.191 121.014 101.43 120.68 99.7619C120.345 98.097 121.059 97.1929 121.059 97.1929C121.059 97.1929 123.125 95.0387 123.069 94.5673C123.012 94.0959 124.78 89.9992 125.093 88.5969L125.774 88.585C125.774 88.585 127.21 91.4851 127.345 92.6279C127.479 93.7706 127.443 98.0731 127.5 99.7022C127.557 101.334 127.927 105.043 127.798 105.673C127.667 106.302 127.13 107.525 126.774 107.976C126.419 108.427 125.102 108.856 125.156 109.874C125.207 110.891 125.036 111.183 125.036 111.183C125.036 111.183 123.152 112.565 123.636 113.191C124.12 113.815 124.699 114.09 124.699 114.09C124.699 114.09 124.902 115.226 125.956 114.895C125.956 114.895 126.792 115.614 127.73 114.889C127.73 114.889 127.81 115.561 128.593 115.265C129.378 114.967 130.793 114.254 130.984 113.55C131.173 112.845 131.113 110.602 130.829 108.791C130.546 106.982 132.907 100.97 132.994 95.3669C133.093 89.7635 131.871 87.5198 131.871 87.5198Z" fill="#00A6E3"/>
<path d="M81.8837 61.3292C81.8837 67.2608 77.0703 72.0705 71.1342 72.0705C65.1981 72.0705 60.3848 67.2608 60.3848 61.3292C60.3848 55.3976 65.1981 50.5879 71.1342 50.5879C77.0733 50.5879 81.8837 55.3946 81.8837 61.3292Z" fill="#00A6E3"/>
<ellipse cx="63.7222" cy="158.37" rx="58.9371" ry="3.96772" fill="#00A6E3"/>
</g>
</svg>
