<svg width="133" height="77" viewBox="0 0 133 77" fill="none" xmlns="http://www.w3.org/2000/svg">
<g clip-path="url(#clip0_61_56467)">
<path d="M31.2471 29.4375V64.1256C31.2471 68.1348 58.6993 76.5017 66.4203 76.5017C74.1412 76.5017 101.593 68.1348 101.593 64.1256V29.4375H31.2471Z" fill="#0DD180"/>
<path opacity="0.15" d="M31.2471 45.4723L66.4203 59.0687L101.593 45.4723V32.9219H31.2471V45.4723Z" fill="black"/>
<path d="M66.42 0.5L0.191406 25.9495L66.42 51.3991L132.649 25.9495L66.42 0.5Z" fill="#0DD180"/>
<path d="M66.42 51.3988L0.191406 25.9492V29.4355L66.42 54.885L132.649 29.4355V25.9492L66.42 51.3988Z" fill="#FDFDFF"/>
<path d="M105.883 57.5H105.711H103.138H102.966C102.966 57.5 96.4462 66.7385 100.736 76.1514C101.765 76.1514 102.451 76.1514 103.138 76.1514C103.138 76.1514 103.481 76.1514 105.711 76.1514C106.398 76.1514 107.084 76.1514 108.113 76.1514C112.231 66.9128 105.883 57.5 105.883 57.5Z" fill="#FFDE14"/>
<path d="M106.741 74.5821C106.913 73.7106 106.741 72.6647 106.913 71.6188C106.913 71.0959 106.913 70.573 106.913 70.05C106.913 69.5271 106.741 69.0042 106.741 68.3069C106.741 67.784 106.57 67.261 106.57 66.5638C106.398 66.0409 106.398 65.5179 106.227 64.995C105.883 63.9491 105.712 63.0776 105.54 62.206C104.854 60.8115 104.511 59.7656 104.511 59.7656C104.511 59.7656 104.854 60.8115 105.197 62.3803C105.369 63.2519 105.54 64.1234 105.712 65.1693C105.712 65.6922 105.883 66.2152 105.883 66.7381C105.883 67.261 106.055 67.784 106.055 68.3069C106.055 68.8298 106.055 69.3528 106.055 69.8757C106.055 70.3987 106.055 70.9216 106.055 71.4445C105.883 72.4904 105.883 73.362 105.712 74.2335C105.54 74.9308 105.369 75.628 105.369 75.9766C105.54 75.9766 105.54 75.9766 105.712 75.9766C105.883 75.9766 106.227 75.9766 106.57 75.9766C106.57 75.8023 106.57 75.2794 106.741 74.5821Z" fill="#FED96F"/>
<path d="M103.138 74.4093C102.966 73.7121 102.966 72.6662 102.795 71.6203C102.795 71.0974 102.623 70.5744 102.795 70.0515C102.795 69.5286 102.795 69.0056 102.795 68.4827C102.795 67.9598 102.795 67.4368 102.966 66.9139C102.966 66.3909 103.138 65.868 103.138 65.3451C103.309 64.2992 103.481 63.4276 103.653 62.5561C103.996 60.9873 104.339 59.9414 104.339 59.9414C104.339 59.9414 103.824 60.9873 103.481 62.5561C103.138 63.2533 102.966 64.2992 102.795 65.3451C102.623 65.868 102.623 66.3909 102.452 66.9139C102.452 67.4368 102.28 67.9598 102.28 68.657C102.28 69.1799 102.108 69.8772 102.108 70.4001C102.108 70.9231 102.108 71.446 102.108 71.9689C102.108 73.0148 102.108 74.0607 102.28 74.9322C102.452 75.4552 102.452 75.9781 102.452 76.501C102.795 76.501 102.966 76.501 103.309 76.501C103.309 76.501 103.481 76.501 103.653 76.501C103.309 75.8038 103.309 75.1065 103.138 74.4093Z" fill="#FED96F"/>
<path d="M108.8 73.3634C108.972 72.8405 108.972 72.3176 108.972 71.6203C108.972 71.0974 108.972 70.4001 108.972 69.8772C108.972 69.1799 108.8 68.657 108.629 68.1341C108.114 65.6937 107.085 63.602 106.227 62.2075C105.369 60.813 104.683 59.9414 104.683 59.9414C104.683 59.9414 105.369 60.813 106.055 62.3818C106.742 63.9506 107.599 66.0423 107.943 68.3084C107.943 68.8313 108.114 69.5286 108.114 70.0515C108.114 70.5744 108.114 71.0974 108.114 71.7946C108.114 72.3176 107.943 72.8405 107.943 73.3634C107.943 73.8864 107.771 74.235 107.599 74.5836C107.428 75.4552 107.085 75.9781 106.913 76.3267C107.256 76.3267 107.771 76.3267 108.286 76.3267C108.457 76.1524 108.457 75.9781 108.457 75.8038C108.457 75.6295 108.629 75.2809 108.629 74.9322C108.629 74.4093 108.629 73.8864 108.8 73.3634Z" fill="#FED96F"/>
<path d="M104.339 59.7656L103.824 76.1509C104.167 76.1509 104.511 76.1509 105.025 76.1509L104.339 59.7656Z" fill="#FED96F"/>
<path d="M101.937 76.1509C101.765 75.8023 101.422 75.1051 101.251 74.4078C101.079 74.0592 101.079 73.5363 100.907 73.1876C100.736 72.6647 100.736 72.1418 100.736 71.6188C100.736 71.0959 100.736 70.573 100.736 69.8757C100.736 69.3528 100.907 68.6555 100.907 68.1326C101.251 65.8665 102.109 63.6005 102.795 62.206C103.481 60.6372 104.167 59.7656 104.167 59.7656C104.167 59.7656 103.481 60.6372 102.623 62.0317C101.765 63.4262 100.736 65.5179 100.221 67.9583C100.05 68.4812 100.05 69.1785 99.878 69.7014C99.878 70.3987 99.7064 70.9216 99.878 71.4445C99.878 71.9675 99.878 72.6647 100.05 73.1876C100.05 73.7106 100.221 74.2335 100.393 74.7564C100.393 75.1051 100.564 75.2794 100.564 75.628C100.564 75.8023 100.736 75.9766 100.736 76.1509C101.079 76.1509 101.594 76.1509 101.937 76.1509Z" fill="#FED96F"/>
<path d="M101.078 57.4994C101.078 55.582 102.622 54.1875 104.338 54.1875C106.225 54.1875 107.598 55.7563 107.598 57.4994C107.598 59.4169 106.054 60.8114 104.338 60.8114C102.451 60.9857 101.078 59.4169 101.078 57.4994Z" fill="#FED96F"/>
<path opacity="0.15" d="M66.4203 32.2262C72.2006 32.2262 76.8864 29.4167 76.8864 25.951C76.8864 22.4853 72.2006 19.6758 66.4203 19.6758C60.64 19.6758 55.9541 22.4853 55.9541 25.951C55.9541 29.4167 60.64 32.2262 66.4203 32.2262Z" fill="black"/>
<path d="M76.7149 27.168C76.3717 28.2138 75.5138 29.0854 74.4844 29.957V30.1313L102.623 38.4982V57.4982H106.054V36.0579L76.7149 27.168Z" fill="#FFDE14"/>
<path d="M55.9541 25.0795C55.9541 22.1161 60.0719 19.6758 65.0477 19.6758C70.0234 19.6758 74.1412 22.1161 74.1412 25.0795C74.1412 28.0428 70.0234 30.4831 65.0477 30.4831C59.9004 30.4831 55.9541 28.0428 55.9541 25.0795Z" fill="#FFDE14"/>
</g>
<defs>
<clipPath id="clip0_61_56467">
<rect width="132.457" height="76" fill="white" transform="translate(0.191406 0.5)"/>
</clipPath>
</defs>
</svg>
