<svg width="63" height="63" viewBox="0 0 63 63" fill="none" xmlns="http://www.w3.org/2000/svg">
<circle cx="31.1877" cy="31.1877" r="31.1877" fill="#0DD180"/>
<path d="M49.8076 17.9069C49.5114 17.5506 48.9792 17.4996 48.6199 17.7931L46.476 19.5415C46.1581 19.6928 45.9564 20.0295 46.0028 20.3952C46.1725 21.731 45.7507 23.0831 44.8008 24.2202L44.7418 24.2944C44.6648 24.3905 44.5874 24.4884 44.5128 24.5938L44.2986 24.8985L44.3081 24.905C44.1194 25.2048 43.5138 26.2838 40.996 30.7697C40.942 30.8688 40.8588 30.9104 40.7987 30.9275C40.7484 30.9422 40.6471 30.9581 40.5297 30.8929C40.416 30.8313 40.3282 30.7493 40.2693 30.6514C40.1309 30.4201 40.1251 30.1559 40.2537 29.927L42.0839 26.66C42.2685 26.3295 42.2063 25.9171 41.9319 25.6547C41.6576 25.3924 41.239 25.3451 40.9115 25.5392L37.6084 27.5016C37.2337 27.2331 36.7872 27.0826 36.3142 27.0826C36.2843 27.0826 36.2564 27.0902 36.2268 27.0913L37.2658 26.4728C37.6654 26.2353 37.7943 25.722 37.5542 25.3265C37.3144 24.9311 36.7953 24.8034 36.3966 25.0412L35.4026 25.633C35.3985 25.4704 35.3807 25.3077 35.3387 25.1473C35.2882 24.9445 35.201 24.7582 35.0978 24.5816L35.8483 24.1362C36.2479 23.899 36.3776 23.3859 36.1383 22.9903C35.9767 22.7236 35.6887 22.5821 35.3956 22.5883C35.4039 22.3813 35.3929 22.1729 35.3407 21.9665C35.1966 21.3972 34.8369 20.9171 34.3286 20.6155L32.7024 19.6496L37.4829 16.8098C37.4843 16.8089 37.4859 16.8087 37.4874 16.8079C39.2467 15.7618 41.4065 15.6184 43.1305 16.4295C43.2503 16.49 43.3811 16.5236 43.5138 16.5236C43.7025 16.5236 43.8924 16.4612 44.0498 16.3331L46.3225 14.4802C46.6821 14.1869 46.7336 13.6606 46.4374 13.3043C46.1412 12.9485 45.6102 12.8971 45.2498 13.1905L43.3771 14.7173C41.2229 13.8879 38.74 14.1188 36.6282 15.3703C36.6254 15.372 36.6223 15.3728 36.6194 15.3744L31.0626 18.6757L25.4997 15.3718C25.4963 15.3698 25.4927 15.3689 25.4893 15.3669C23.3548 14.1006 20.757 13.8895 18.5874 14.7779L16.5295 13.4171C16.1421 13.161 15.6176 13.2641 15.3594 13.6477C15.1004 14.0313 15.2049 14.5501 15.5923 14.8063L18.0405 16.4251C18.0473 16.4296 18.055 16.4308 18.0618 16.435C18.1232 16.4731 18.188 16.5045 18.2567 16.5259C18.2715 16.5305 18.2863 16.5322 18.3012 16.536C18.3579 16.5503 18.4156 16.5584 18.4744 16.5609C18.4858 16.5614 18.4969 16.5658 18.5083 16.5658C18.5168 16.5658 18.525 16.5631 18.5334 16.5628C18.5792 16.5616 18.6248 16.5553 18.6706 16.5464C18.6865 16.5433 18.7027 16.5426 18.7185 16.5386C18.7759 16.524 18.8326 16.504 18.8877 16.4767C20.6317 15.6094 22.8319 15.7346 24.6292 16.8038C24.6313 16.805 24.6335 16.8053 24.6355 16.8064L33.4606 22.0481C33.6176 22.1411 33.6794 22.2759 33.7037 22.3724C33.728 22.4686 33.7374 22.6163 33.6435 22.7715C33.495 23.0169 33.1748 23.0972 32.9243 22.9567L32.9152 22.9513C32.9076 22.9468 32.8994 22.9446 32.8918 22.9403L28.557 20.3657C28.157 20.1283 27.6389 20.2566 27.3996 20.6522C27.1598 21.0478 27.2894 21.5609 27.689 21.7981L31.4672 24.0422C31.256 23.9774 31.0371 23.9339 30.8093 23.9339C30.4184 23.9339 30.0396 24.0367 29.7053 24.226L27.1415 22.7038C26.7421 22.4662 26.2237 22.5942 25.9839 22.9897C25.744 23.3851 25.8733 23.8984 26.2727 24.1358L28.5937 25.5139C28.3752 25.4596 28.1482 25.4373 27.9201 25.4524C27.7658 25.4599 27.6227 25.484 27.5217 25.5152C27.316 25.5661 27.1201 25.652 26.9379 25.7608L25.7246 25.0406C25.3252 24.8034 24.807 24.9319 24.5672 25.3276C24.3277 25.7232 24.4575 26.2363 24.8571 26.4734L25.925 27.1074C25.8727 27.2996 25.8379 27.4972 25.8379 27.7019V28.2868L21.2092 25.5354C20.8824 25.3414 20.4638 25.3879 20.1895 25.6504C19.9147 25.9126 19.8521 26.3246 20.0364 26.6554L21.8723 29.9356C21.9961 30.1505 21.9905 30.4181 21.85 30.6465C21.7891 30.7493 21.6993 30.8354 21.5897 30.8957C21.4191 30.9895 21.2107 30.9292 21.1161 30.7615L18.3771 25.8755C18.1796 25.5235 18.0339 25.2643 17.9174 25.0737C17.8611 24.9393 17.7598 24.7988 17.5987 24.5752C17.5291 24.4814 17.4574 24.3919 17.3868 24.304L17.3066 24.2041C16.3646 23.0719 15.9453 21.7053 16.1238 20.3543C16.133 20.2938 16.1346 20.2333 16.1304 20.1729C16.1303 20.1705 16.1299 20.1681 16.1297 20.1657C16.1257 20.1141 16.1171 20.0635 16.1037 20.0136C16.1025 20.0091 16.1009 20.0049 16.0997 20.0005C16.0861 19.9533 16.0687 19.9075 16.0468 19.8632C16.0445 19.8585 16.0419 19.854 16.0395 19.8494C16.0177 19.8071 15.9927 19.7668 15.9635 19.7284C15.9589 19.7223 15.9537 19.7167 15.949 19.7107C15.9213 19.6763 15.8915 19.6437 15.8579 19.6135C15.8475 19.604 15.8362 19.5958 15.8253 19.5869C15.8037 19.5693 15.7844 19.5498 15.7606 19.534L13.3124 17.9152C12.9245 17.6591 12.4007 17.7623 12.1422 18.1459C11.8833 18.5295 11.9878 19.0483 12.3752 19.3044L14.4094 20.6495C14.3263 22.2917 14.8775 23.912 15.9921 25.2515L16.0663 25.3441C16.1237 25.4157 16.182 25.4878 16.2319 25.5547C16.2984 25.6469 16.3732 25.7552 16.4043 25.8021C16.4053 25.8037 16.4063 25.8054 16.4071 25.807C16.559 26.0727 18.7833 30.0416 19.6416 31.5736C20.0148 32.2356 20.7104 32.6092 21.4257 32.6092C21.76 32.6092 22.0986 32.5276 22.4105 32.3555C22.7825 32.1503 23.0921 31.8518 23.298 31.5038C23.7508 30.7689 23.766 29.8508 23.3427 29.116L23.0364 28.5701L25.8379 30.2355V34.779L25.5215 34.2361C25.0968 33.4991 24.2968 33.0411 23.4338 33.0411C23.0193 33.0411 22.606 33.1496 22.2298 33.3596C21.7596 33.6292 21.423 34.0632 21.2824 34.5816C21.1411 35.1016 21.2136 35.6449 21.4857 36.1099L24.814 41.8151C24.8395 41.8693 24.8966 41.9921 24.9427 42.0993C24.9909 42.2119 25.0354 42.3277 25.0777 42.446C25.6451 44.0271 26.7018 45.2965 28.0779 46.0786V48.1647C28.0779 48.626 28.4556 49 28.9216 49C29.3875 49 29.7652 48.626 29.7652 48.1647V45.5764C29.7652 45.5446 29.7593 45.5144 29.7558 45.4835C29.7539 45.4674 29.7536 45.4513 29.7509 45.4354C29.744 45.3958 29.7329 45.3582 29.7207 45.3208C29.7163 45.3073 29.7131 45.2937 29.7081 45.2805C29.694 45.244 29.6764 45.2097 29.6576 45.1759C29.65 45.1623 29.6435 45.1484 29.6353 45.1352C29.6155 45.1039 29.5927 45.0753 29.5691 45.047C29.5578 45.0333 29.5475 45.0192 29.5352 45.0063C29.5098 44.9795 29.4817 44.9559 29.453 44.9326C29.4393 44.9215 29.4266 44.9095 29.4121 44.8991C29.3789 44.8755 29.3432 44.8559 29.3067 44.8372C29.2959 44.8317 29.2868 44.8241 29.2756 44.819C28.0567 44.2578 27.1547 43.2438 26.6684 41.8889C26.6157 41.7404 26.558 41.592 26.4958 41.4468C26.42 41.2702 26.3213 41.063 26.317 41.054C26.3094 41.0389 26.3013 41.0242 26.2929 41.0099L22.9462 35.2737C22.8842 35.1673 22.898 35.0661 22.9118 35.0151C22.9258 34.9638 22.9654 34.8683 23.0667 34.8104C23.4272 34.6081 23.8663 34.7349 24.0581 35.0678L25.952 38.3087C26.1434 38.6354 26.5316 38.7924 26.9009 38.6961C27.2692 38.5978 27.5252 38.267 27.5252 37.8894V27.7019C27.5252 27.5563 27.5734 27.4244 27.6719 27.3051C27.7411 27.2202 27.833 27.1601 27.9308 27.136C27.944 27.1328 28.0037 27.124 28.0167 27.1201C28.2221 27.1101 28.3502 27.1943 28.4297 27.2739C28.4608 27.3047 28.4902 27.3416 28.5162 27.3818C28.5244 27.4003 28.5331 27.4193 28.5386 27.4303C28.5713 27.4947 28.5873 27.5619 28.5893 27.63V34.3075C28.5893 34.7688 28.9671 35.1428 29.433 35.1428C29.8989 35.1428 30.2767 34.7688 30.2767 34.3075V27.6598C30.2768 27.6543 30.2783 27.6491 30.2783 27.6436C30.2783 27.6338 30.2768 27.6243 30.2767 27.6146V26.1319C30.2767 26.0052 30.3251 25.8763 30.4015 25.7874C30.5976 25.5651 30.9751 25.5504 31.1838 25.7566C31.2153 25.788 31.2445 25.8253 31.275 25.8782C31.3193 25.9512 31.3418 26.0366 31.3418 26.1319V27.6444V27.7238V34.3075C31.3418 34.7688 31.7195 35.1428 32.1854 35.1428C32.6513 35.1428 33.0293 34.7688 33.0293 34.3075V27.7238V27.6444C33.0293 27.5325 33.0643 27.4289 33.1339 27.3367C33.1422 27.3255 33.1504 27.3141 33.1582 27.3024C33.2287 27.2219 33.3593 27.1171 33.562 27.1171C33.6612 27.1171 33.7552 27.1434 33.8268 27.1884C33.8734 27.2186 33.9072 27.2449 33.9364 27.2737C33.9694 27.3065 34.0032 27.3514 34.0308 27.3997C34.0724 27.4725 34.0946 27.5571 34.0946 27.6444V29.2804V34.3075C34.0946 34.7688 34.4724 35.1428 34.9383 35.1428C35.4042 35.1428 35.7819 34.7688 35.7819 34.3075V29.2804C35.7819 28.9898 36.0209 28.7532 36.3142 28.7532C36.4967 28.7532 36.6182 28.8358 36.6886 28.9053C36.7278 28.9443 36.7455 28.9694 36.7657 29.0026C36.8028 29.0599 36.8468 29.1545 36.8468 29.2804V39.4638C36.8468 39.4666 36.846 39.4691 36.846 39.4719C36.846 41.5316 35.8436 43.4386 34.2242 44.4856C33.9393 44.6097 33.7394 44.8852 33.7234 45.2093C33.7228 45.2189 33.7209 45.2282 33.7205 45.2379C33.7205 45.2419 33.7193 45.2456 33.7193 45.2497V48.1647C33.7193 48.626 34.0971 49 34.563 49C35.0289 49 35.4067 48.626 35.4067 48.1647V45.7111C37.3434 44.3311 38.5295 41.9893 38.533 39.483C38.533 39.4791 38.5342 39.4754 38.5342 39.4715V30.782C38.5896 31.0308 38.6808 31.2748 38.818 31.5042C39.0314 31.8591 39.3432 32.1544 39.7115 32.3538C40.0197 32.5251 40.3591 32.6124 40.7019 32.6124C40.8914 32.6124 41.0817 32.5859 41.2687 32.5321C41.7915 32.382 42.222 32.0381 42.4757 31.5724C43.527 29.6997 45.4965 26.1918 45.7058 25.8213L45.8974 25.5482C45.9505 25.4734 46.0078 25.4024 46.0642 25.332L46.1153 25.2676C47.234 23.9288 47.7876 22.3227 47.7141 20.6963L49.6926 19.0827C50.0523 18.7893 50.1038 18.2629 49.8076 17.9069ZM33.562 25.4464C33.3497 25.4464 33.1438 25.4791 32.9463 25.5354C32.8961 25.3571 32.8247 25.1884 32.7327 25.0372C32.6411 24.8767 32.5212 24.7215 32.3865 24.5864L33.3242 25.1457C33.325 25.1462 33.3259 25.1468 33.3267 25.1473L33.4557 25.2242C33.5465 25.2783 33.6085 25.36 33.654 25.4528C33.6232 25.4516 33.593 25.4464 33.562 25.4464ZM38.7781 29.1166C38.6634 29.3212 38.5842 29.5368 38.5342 29.7566V29.2804C38.5342 29.1582 38.5211 29.038 38.5014 28.9195L39.0821 28.5746L38.7781 29.1166Z" fill="#FDFDFF"/>
</svg>
