<svg width="162" height="209" viewBox="0 0 162 209" fill="none" xmlns="http://www.w3.org/2000/svg">
<path opacity="0.1" d="M106.905 206.421L7.15459 179.693C3.20371 178.634 0.85855 174.573 1.91732 170.622L41.4932 22.9228C42.552 18.9714 46.613 16.6268 50.5644 17.6855L150.315 44.4135C154.265 45.4721 156.611 49.5333 155.552 53.4847L115.976 201.184C114.917 205.135 110.856 207.48 106.905 206.421Z" fill="black"/>
<path d="M107.741 203.3L7.99053 176.572C4.03965 175.513 1.69449 171.452 2.75326 167.501L42.3291 19.8017C43.3879 15.8503 47.4489 13.5057 51.4003 14.5644L151.15 41.2924C155.101 42.351 157.447 46.4122 156.388 50.3636L116.812 198.063C115.753 202.014 111.692 204.359 107.741 203.3Z" fill="#0DD180"/>
<path d="M150.133 47.2915L49.2822 20.2686L9.00801 170.574L109.859 197.597L150.133 47.2915Z" fill="white"/>
<path d="M132.848 71.6419L71.6104 55.2334L70.2523 60.3019L131.49 76.7104L132.848 71.6419Z" fill="#B3B3B3"/>
<path d="M130.379 80.8539L69.1416 64.4453L67.7835 69.5138L129.021 85.9223L130.379 80.8539Z" fill="#D6D6D6"/>
<path d="M127.91 90.065L46.6123 68.2812L45.2542 73.3497L126.552 95.1335L127.91 90.065Z" fill="#D6D6D6"/>
<path d="M78.9023 28.2051C78.5549 29.6284 79.4013 31.075 80.8235 31.4561L117.225 41.2099C118.647 41.5909 120.104 40.7608 120.514 39.355L78.9023 28.2051Z" fill="#D6D6D6"/>
<path d="M121.358 25.7858L108.784 22.4168C109.617 19.309 107.773 16.1142 104.665 15.2814C101.557 14.4487 98.3621 16.2933 97.5294 19.4011L84.9561 16.0321C83.5144 15.6458 82.0324 16.5014 81.6461 17.9431L79.2835 26.7608C78.8971 28.2025 79.7528 29.6845 81.1945 30.0708L117.596 39.8245C119.038 40.2108 120.52 39.3552 120.906 37.9135L123.269 29.0958C123.655 27.6541 122.799 26.1721 121.358 25.7858ZM102.564 23.1204C101.343 22.793 100.618 21.5375 100.945 20.3164C101.273 19.0948 102.528 18.3704 103.749 18.6975C104.97 19.0247 105.695 20.2804 105.368 21.5015C105.041 22.7226 103.786 23.4477 102.564 23.1204Z" fill="#D6D6D6"/>
<path d="M79.9082 24.4287L79.2834 26.7605C78.8971 28.2022 79.7527 29.6842 81.1944 30.0705L117.596 39.8242C119.038 40.2105 120.52 39.3549 120.906 37.9132L121.531 35.5814L79.9082 24.4287Z" fill="#CCCCCC"/>
<path d="M63.6929 55.9402L61.2811 64.9411L51.0703 62.2051L53.4821 53.2042L63.6929 55.9402ZM67.0397 54.0079L51.5498 49.8574L47.7235 64.1374L63.2134 68.2879L67.0397 54.0079Z" fill="#D6D6D6"/>
<path d="M124.271 103.652L63.0332 87.2432L61.6751 92.3116L122.913 108.72L124.271 103.652Z" fill="#B3B3B3"/>
<path d="M121.803 112.864L60.5654 96.4551L59.2073 101.524L120.445 117.932L121.803 112.864Z" fill="#D6D6D6"/>
<path d="M119.333 122.076L38.0352 100.292L36.6771 105.36L117.975 127.144L119.333 122.076Z" fill="#D6D6D6"/>
<path d="M63.4812 149.975L27.3193 140.285L25.9612 145.354L62.1231 155.043L63.4812 149.975Z" fill="#D6D6D6"/>
<path d="M44.7331 154.481L24.9365 149.177L23.5784 154.245L43.375 159.55L44.7331 154.481Z" fill="#D6D6D6"/>
<path d="M108.768 162.109L72.6064 152.42L71.2484 157.488L107.41 167.178L108.768 162.109Z" fill="#D6D6D6"/>
<path d="M90.0212 166.617L70.2246 161.312L68.8665 166.381L88.6631 171.685L90.0212 166.617Z" fill="#D6D6D6"/>
<path d="M55.1148 87.9519L52.703 96.9528L42.4922 94.2168L44.904 85.216L55.1148 87.9519ZM58.4616 86.0197L42.9717 81.8691L39.1454 96.1491L54.6353 100.3L58.4616 86.0197Z" fill="#D6D6D6"/>
<path d="M115.694 135.663L34.3955 113.879L33.0601 118.863L114.358 140.647L115.694 135.663Z" fill="#B3B3B3"/>
<path d="M65.0357 134.053L62.6239 143.054L31.6309 134.749L34.0426 125.748L65.0357 134.053ZM68.3825 132.12L32.1104 122.401L28.284 136.681L64.5562 146.4L68.3825 132.12Z" fill="#D6D6D6"/>
<path d="M110.062 146.118L107.65 155.119L76.6572 146.814L79.069 137.814L110.062 146.118ZM113.409 144.186L77.1367 134.467L73.3104 148.747L109.583 158.466L113.409 144.186Z" fill="#D6D6D6"/>
<path d="M68.2587 54.8738L56.6814 61.558L53.1957 55.5198" stroke="#0DD180" stroke-width="3.16535" stroke-miterlimit="10" stroke-linecap="round" stroke-linejoin="round"/>
<path d="M59.8163 86.3817L48.2391 93.0653L44.7533 87.0276" stroke="#0DD180" stroke-width="3.16535" stroke-miterlimit="10" stroke-linecap="round" stroke-linejoin="round"/>
<path d="M57.1786 42.0065L56.8077 40.3778L56.7715 40.368L55.7936 40.106L55.4113 41.5329L54.122 41.1875L55.4806 36.1173L57.7477 36.7247C59.0877 37.0838 59.6847 37.9269 59.3819 39.0568C59.1742 39.8319 58.6989 40.3022 58.0253 40.4401L58.6418 42.3985L57.1786 42.0065ZM56.0654 39.092L57.0432 39.354C57.6009 39.5034 58.0025 39.3083 58.1462 38.7723C58.2878 38.2435 58.0337 37.8882 57.476 37.7388L56.4982 37.4768L56.0654 39.092ZM64.4195 39.5993L61.7396 38.8812L61.4698 39.888L63.889 40.5362L63.6173 41.5503L61.1981 40.902L60.9244 41.9233L63.6841 42.6628L63.4124 43.6768L59.3634 42.5919L60.722 37.5217L64.6913 38.5852L64.4195 39.5993ZM68.3031 42.2236L69.4185 42.5225L68.8887 44.4999C68.2426 44.7382 67.3142 44.7844 66.6043 44.5942C65.0615 44.1808 64.1943 42.7529 64.5902 41.2753C64.9842 39.8049 66.4762 39.0169 68.077 39.4459C68.8303 39.6477 69.5494 40.1509 69.9467 40.7542L68.9875 41.4366C68.7093 40.9972 68.2514 40.6493 67.7806 40.5232C66.9476 40.3 66.1355 40.7811 65.9084 41.6285C65.6775 42.4905 66.1475 43.3151 66.9877 43.5402C67.2484 43.6101 67.6068 43.6052 67.9518 43.5346L68.3031 42.2236ZM70.9162 45.6875L69.627 45.342L70.9855 40.2718L72.2748 40.6173L70.9162 45.6875ZM75.2554 41.3538C75.987 41.5498 76.6729 41.9743 77.1031 42.4544L76.3481 43.3312C75.8955 42.8761 75.2801 42.4783 74.8673 42.3677C74.5341 42.2784 74.2766 42.3414 74.2106 42.5877C73.9757 43.4641 76.7896 43.6824 76.2986 45.5149C76.0269 46.529 74.9851 46.8243 73.8552 46.5215C73.0077 46.2945 72.2239 45.7429 71.7547 45.0893L72.5204 44.2309C72.9196 44.8269 73.6204 45.3407 74.1491 45.4824C74.5548 45.5911 74.849 45.5069 74.9267 45.2172C75.1673 44.319 72.3437 44.1369 72.825 42.3406C73.0754 41.4063 74.0386 41.0277 75.2554 41.3538ZM81.5504 44.2128L80.0221 43.8033L78.9411 47.8377L77.6518 47.4923L78.7328 43.4578L77.219 43.0522L77.4985 42.0092L81.8299 43.1698L81.5504 44.2128ZM84.0789 49.2144L83.7079 47.5856L83.6717 47.5759L82.6939 47.3139L82.3115 48.7408L81.0222 48.3954L82.3808 43.3251L84.6479 43.9326C85.9879 44.2917 86.5849 45.1348 86.2821 46.2647C86.0745 47.0398 85.5991 47.5101 84.9256 47.648L85.542 49.6064L84.0789 49.2144ZM82.9656 46.2999L83.9434 46.5619C84.5011 46.7113 84.9028 46.5162 85.0464 45.9802C85.1881 45.4514 84.9339 45.0961 84.3762 44.9467L83.3984 44.6847L82.9656 46.2999ZM89.8821 49.7679L87.6657 49.174L87.0459 50.0094L85.7204 49.6542L89.2664 45.1701L90.5919 45.5253L91.3701 51.1681L89.9939 50.7993L89.8821 49.7679ZM89.7675 48.6892L89.5458 46.6191L88.3043 48.2971L89.7675 48.6892ZM96.249 48.1513L94.7207 47.7417L93.6397 51.7762L92.3504 51.4307L93.4314 47.3963L91.9176 46.9907L92.197 45.9476L96.5285 47.1082L96.249 48.1513ZM97.0101 52.6793L95.7208 52.3338L97.0794 47.2636L98.3687 47.6091L97.0101 52.6793ZM101.802 48.4824C103.373 48.9035 104.252 50.3189 103.858 51.7893C103.462 53.2669 101.988 54.0752 100.416 53.654C98.8514 53.2348 97.9769 51.8049 98.3748 50.3201C98.7707 48.8425 100.237 48.0632 101.802 48.4824ZM101.527 49.5655C100.745 49.3559 99.9201 49.8259 99.6911 50.6806C99.4621 51.5353 99.9446 52.371 100.72 52.5787C101.502 52.7883 102.301 52.296 102.53 51.4414C102.759 50.5867 102.309 49.7751 101.527 49.5655ZM108.534 55.7672L107.397 55.4625L105.901 51.7158L105.065 54.8376L103.855 54.5135L105.214 49.4432L106.351 49.7479L107.852 53.5039L108.691 50.3748L109.893 50.697L108.534 55.7672ZM116.079 53.4414L113.609 52.7796L113.295 53.953L115.569 54.5624L115.297 55.5764L113.023 54.967L112.522 56.8357L111.233 56.4903L112.591 51.42L116.351 52.4273L116.079 53.4414ZM119.379 53.1922C120.951 53.6134 121.829 55.0288 121.435 56.4991C121.039 57.9768 119.565 58.785 117.993 58.3639C116.429 57.9447 115.554 56.5148 115.952 55.03C116.348 53.5523 117.815 52.773 119.379 53.1922ZM119.104 54.2754C118.322 54.0658 117.498 54.5357 117.269 55.3904C117.04 56.2451 117.522 57.0809 118.297 57.2885C119.079 57.4981 119.879 57.0059 120.108 56.1512C120.337 55.2965 119.887 54.485 119.104 54.2754ZM124.489 60.0423L124.118 58.4136L124.082 58.4039L123.104 58.1419L122.722 59.5688L121.433 59.2233L122.791 54.1531L125.058 54.7606C126.398 55.1196 126.995 55.9627 126.693 57.0927C126.485 57.8677 126.01 58.3381 125.336 58.4759L125.952 60.4344L124.489 60.0423ZM123.376 57.1278L124.354 57.3898C124.912 57.5393 125.313 57.3441 125.457 56.8081C125.599 56.2794 125.344 55.9241 124.787 55.7746L123.809 55.5126L123.376 57.1278ZM132.244 62.1202L131.107 61.8155L131.983 58.5179L130.019 60.9805L129.178 60.7554L128.709 57.6407L127.826 60.9363L126.674 60.6278L128.035 55.5503L129.447 55.9287L130.014 59.3179L132.199 56.6662L133.605 57.0428L132.244 62.1202Z" fill="#808080"/>
</svg>
