<svg width="63" height="63" viewBox="0 0 63 63" fill="none" xmlns="http://www.w3.org/2000/svg">
<circle cx="31.1877" cy="31.1877" r="31.1877" fill="#00A6E3"/>
<path fill-rule="evenodd" clip-rule="evenodd" d="M46.1222 30.6466C45.4807 30.6467 44.8536 30.4532 44.3201 30.0906C43.7867 29.728 43.3709 29.2125 43.1253 28.6094C42.8797 28.0063 42.8153 27.3427 42.9404 26.7024C43.0655 26.062 43.3743 25.4739 43.8278 25.0122C44.2814 24.5505 44.8592 24.236 45.4884 24.1085C46.1176 23.9811 46.7697 24.0463 47.3625 24.2961C47.9552 24.5458 48.4618 24.9688 48.8183 25.5115C49.1748 26.0543 49.3651 26.6924 49.3652 27.3453C49.3643 28.2203 49.0223 29.0593 48.4144 29.6782C47.8064 30.2971 46.9821 30.6453 46.1222 30.6466ZM46.1222 22.9242C45.2626 22.9237 44.4222 23.1826 43.7072 23.6682C42.9923 24.1539 42.4349 24.8444 42.1056 25.6524C41.7764 26.4605 41.69 27.3498 41.8575 28.2078C42.0249 29.0658 42.4387 29.854 43.0464 30.4727C43.6541 31.0914 44.4285 31.5127 45.2715 31.6834C46.1146 31.8542 46.9885 31.7666 47.7826 31.4318C48.5768 31.097 49.2555 30.5301 49.733 29.8026C50.2105 29.0752 50.4652 28.22 50.465 27.3453C50.4639 26.1731 50.0061 25.0493 49.192 24.2201C48.378 23.391 47.274 22.9242 46.1222 22.9221V22.9242ZM37.9756 18.7364C38.0786 18.8416 38.1364 18.9841 38.1364 19.1326C38.1364 19.2811 38.0786 19.4236 37.9756 19.5288L35.0302 22.5277C34.9797 22.5821 34.9189 22.6257 34.8515 22.6558C34.7842 22.6859 34.7116 22.7019 34.638 22.7029C34.5644 22.704 34.4914 22.69 34.4232 22.6618C34.355 22.6337 34.2931 22.5919 34.2411 22.5389C34.1891 22.486 34.148 22.423 34.1203 22.3536C34.0926 22.2842 34.0789 22.2099 34.0799 22.135C34.081 22.0602 34.0967 21.9863 34.1263 21.9177C34.1559 21.8491 34.1987 21.7873 34.2521 21.7359L37.1985 18.7364C37.2496 18.6844 37.3102 18.6431 37.377 18.6149C37.4437 18.5868 37.5153 18.5723 37.5875 18.5723C37.6598 18.5723 37.7314 18.5868 37.7981 18.6149C37.8649 18.6431 37.9255 18.6844 37.9766 18.7364H37.9756ZM25.7973 18.7236L28.7458 21.7231C28.7969 21.7753 28.8375 21.8371 28.8651 21.9052C28.8927 21.9733 28.9069 22.0462 28.9068 22.1199C28.9068 22.1935 28.8924 22.2664 28.8647 22.3345C28.8369 22.4025 28.7962 22.4643 28.745 22.5163C28.6938 22.5683 28.633 22.6096 28.5661 22.6377C28.4992 22.6658 28.4275 22.6802 28.3551 22.6802C28.2828 22.6801 28.2111 22.6655 28.1443 22.6373C28.0774 22.609 28.0167 22.5676 27.9656 22.5155L25.0192 19.5208C24.9153 19.4158 24.8567 19.2731 24.8562 19.1241C24.8557 18.9751 24.9134 18.832 25.0166 18.7263C25.1198 18.6206 25.26 18.5609 25.4064 18.5604C25.5528 18.5599 25.6935 18.6186 25.7973 18.7236ZM31.5 16C31.6458 16.0003 31.7854 16.0594 31.8883 16.1645C31.9913 16.2695 32.049 16.4118 32.0489 16.5601V20.8027C32.0489 20.9511 31.9909 21.0934 31.8878 21.1984C31.7847 21.3033 31.6448 21.3623 31.499 21.3623C31.3531 21.3623 31.2132 21.3033 31.1101 21.1984C31.007 21.0934 30.9491 20.9511 30.9491 20.8027V16.5601C30.9491 16.4865 30.9633 16.4137 30.991 16.3457C31.0187 16.2777 31.0593 16.2159 31.1105 16.1639C31.1616 16.1119 31.2224 16.0706 31.2892 16.0425C31.356 16.0144 31.4277 15.9999 31.5 16ZM9.10293 35.7224C9.10307 35.2132 9.30178 34.7248 9.65543 34.3645C10.0091 34.0042 10.4888 33.8014 10.9892 33.8007H20.2618C20.3355 33.8008 20.4085 33.7858 20.4764 33.7566L26.706 31.0802C26.8384 31.0231 26.9439 30.9161 27.0005 30.7816L29.337 25.1153C29.4114 24.9333 29.5508 24.7867 29.7271 24.7049C29.9034 24.6231 30.1035 24.6121 30.2874 24.6742L30.418 24.7189C30.607 24.7812 30.765 24.9157 30.8587 25.0941C30.9524 25.2725 30.9745 25.4809 30.9203 25.6755L29.0529 32.3562L24.7414 35.5704C24.6714 35.6225 24.6145 35.6905 24.575 35.7691C24.5355 35.8476 24.5147 35.9345 24.5142 36.0227V44.8792H21.8509V39.1396C21.8509 38.9909 21.7929 38.8483 21.6895 38.7431C21.5862 38.638 21.4461 38.5789 21.3 38.5789C21.1538 38.5789 21.0137 38.638 20.9104 38.7431C20.8071 38.8483 20.749 38.9909 20.749 39.1396V44.8792H13.0039V39.1396C13.0039 38.9909 12.9459 38.8483 12.8426 38.7431C12.7392 38.638 12.5991 38.5789 12.453 38.5789C12.3069 38.5789 12.1667 38.638 12.0634 38.7431C11.9601 38.8483 11.902 38.9909 11.902 39.1396V44.8792H9.10293V35.7224ZM32.582 24.7189C32.4296 24.7689 32.2964 24.8662 32.2009 24.9972C32.1055 25.1281 32.0527 25.2861 32.0499 25.4491C32.0493 25.5261 32.0593 25.6029 32.0797 25.6771L33.9471 32.3562L38.2586 35.5704C38.3289 35.6222 38.3861 35.6901 38.4256 35.7687C38.4651 35.8474 38.4857 35.9344 38.4858 36.0227V44.8792H41.1491V39.1396C41.1491 38.9909 41.2071 38.8483 41.3105 38.7431C41.4138 38.638 41.5539 38.5789 41.7 38.5789C41.8462 38.5789 41.9863 38.638 42.0896 38.7431C42.1929 38.8483 42.251 38.9909 42.251 39.1396V44.8792H49.9961V39.1396C49.9961 38.9909 50.0541 38.8483 50.1574 38.7431C50.2608 38.638 50.4009 38.5789 50.547 38.5789C50.6931 38.5789 50.8333 38.638 50.9366 38.7431C51.0399 38.8483 51.098 38.9909 51.098 39.1396V44.8792H53.8992V35.7224C53.8985 35.213 53.6993 34.7246 53.3453 34.3643C52.9913 34.0041 52.5114 33.8014 52.0108 33.8007H42.7382C42.6645 33.8008 42.5915 33.7858 42.5236 33.7566L36.294 31.0802C36.1616 31.0231 36.0561 30.9161 35.9995 30.7816L33.663 25.1153C33.5889 24.9336 33.4499 24.7871 33.274 24.7052C33.0981 24.6234 32.8983 24.6124 32.7147 24.6742L32.582 24.7189ZM8.55147 46H25.0657C25.2117 46 25.3518 45.941 25.4551 45.836C25.5584 45.7309 25.6165 45.5885 25.6166 45.4399V36.3065L29.8566 33.147C29.9552 33.0735 30.0269 32.9686 30.0602 32.8489L31.5 27.6976L32.9387 32.8489C32.9721 32.9686 33.0437 33.0735 33.1424 33.147L37.3823 36.3065V45.4399C37.3824 45.5135 37.3967 45.5864 37.4244 45.6544C37.4522 45.7224 37.4928 45.7841 37.544 45.8362C37.5953 45.8882 37.656 45.9294 37.7229 45.9575C37.7898 45.9856 37.8614 46.0001 37.9338 46H54.4485C54.5209 46.0001 54.5926 45.9858 54.6595 45.9577C54.7264 45.9296 54.7872 45.8883 54.8384 45.8363C54.8896 45.7843 54.9303 45.7225 54.958 45.6545C54.9857 45.5864 55 45.5135 55 45.4399V35.7224C54.9994 34.9158 54.6844 34.1424 54.1241 33.5718C53.5638 33.0013 52.8039 32.6803 52.0113 32.6794H42.8495L36.9311 30.1369L34.6803 24.6822C34.5007 24.2393 34.1628 23.8822 33.7346 23.6829C33.3063 23.4837 32.8198 23.4571 32.3732 23.6087L32.241 23.6523C31.9628 23.7449 31.7099 23.9027 31.5026 24.113C31.2944 23.9031 31.0411 23.7454 30.7626 23.6523L30.63 23.6087C30.1833 23.4571 29.6968 23.4837 29.2686 23.6829C28.8404 23.8822 28.5024 24.2393 28.3228 24.6822L26.0689 30.1369L20.1505 32.6794H10.9892C10.1965 32.6802 9.4365 33.0011 8.87606 33.5716C8.31563 34.1422 8.00055 34.9157 8 35.7224V45.4399C8 45.5135 8.01425 45.5863 8.04195 45.6543C8.06964 45.7223 8.11023 45.7841 8.1614 45.8361C8.21257 45.8881 8.27331 45.9294 8.34015 45.9575C8.40699 45.9856 8.47914 46.0001 8.55147 46ZM20.1213 27.3463C20.1216 26.6932 19.9316 26.0546 19.5752 25.5114C19.2188 24.9681 18.7121 24.5447 18.1192 24.2946C17.5263 24.0444 16.8738 23.9789 16.2443 24.1062C15.6148 24.2335 15.0365 24.548 14.5827 25.0098C14.1288 25.4716 13.8197 26.06 13.6945 26.7006C13.5693 27.3412 13.6336 28.0053 13.8793 28.6087C14.125 29.2121 14.541 29.7278 15.0747 30.0905C15.6085 30.4533 16.236 30.6468 16.8778 30.6466C17.7381 30.646 18.5631 30.2981 19.1716 29.6791C19.7801 29.0602 20.1224 28.2208 20.1234 27.3453L20.1213 27.3463ZM12.5329 27.3463C12.5333 28.2209 12.7885 29.0757 13.2663 29.8026C13.744 30.5296 14.4229 31.096 15.217 31.4304C16.011 31.7647 16.8847 31.852 17.7275 31.6811C18.5703 31.5102 19.3444 31.0888 19.9519 30.4702C20.5594 29.8516 20.973 29.0636 21.1404 28.2058C21.3079 27.348 21.2216 26.459 20.8926 25.6511C20.5636 24.8432 20.0065 24.1527 19.2919 23.6669C18.5773 23.1812 17.7372 22.9219 16.8778 22.9221C15.7255 22.9232 14.6208 23.3896 13.8061 24.2189C12.9915 25.0482 12.5336 26.1726 12.5329 27.3453V27.3463Z" fill="#FDFDFF"/>
</svg>
