<svg width="63" height="63" viewBox="0 0 63 63" fill="none" xmlns="http://www.w3.org/2000/svg">
<circle cx="31.1877" cy="31.1877" r="31.1877" fill="#0DD180"/>
<path d="M32.3536 33.9093C31.6062 33.9093 30.8756 33.6877 30.2542 33.2725C29.6327 32.8573 29.1484 32.2671 28.8624 31.5766C28.5763 30.8861 28.5015 30.1263 28.6473 29.3932C28.7931 28.6602 29.153 27.9869 29.6815 27.4584C30.21 26.9299 30.8833 26.57 31.6164 26.4242C32.3494 26.2784 33.1092 26.3532 33.7997 26.6392C34.4902 26.9252 35.0804 27.4096 35.4956 28.031C35.9109 28.6524 36.1325 29.3831 36.1325 30.1305C36.1325 31.1327 35.7344 32.0939 35.0257 32.8025C34.317 33.5112 33.3558 33.9093 32.3536 33.9093ZM32.3536 27.8631C31.9052 27.8631 31.4668 27.9961 31.0939 28.2452C30.7211 28.4944 30.4305 28.8485 30.2589 29.2628C30.0872 29.6771 30.0423 30.133 30.1298 30.5728C30.2173 31.0126 30.4333 31.4166 30.7504 31.7337C31.0674 32.0508 31.4714 32.2667 31.9113 32.3542C32.3511 32.4417 32.807 32.3968 33.2213 32.2252C33.6356 32.0536 33.9897 31.763 34.2388 31.3901C34.488 31.0173 34.6209 30.5789 34.6209 30.1305C34.6209 29.5291 34.3821 28.9524 33.9568 28.5272C33.5316 28.102 32.9549 27.8631 32.3536 27.8631Z" fill="#FDFDFF"/>
<path d="M23.2236 51.7101C22.7091 51.7067 22.2051 51.5645 21.7648 51.2985C21.3245 51.0324 20.9642 50.6524 20.7219 50.1985C20.3943 49.5548 20.3165 48.8125 20.5035 48.1148C20.6905 47.4171 21.129 46.8133 21.7347 46.4196L23.3596 45.354L24.4252 44.0238C23.9387 44.1082 23.4386 44.0663 22.9728 43.9022C22.5071 43.7382 22.0912 43.4573 21.7649 43.0867C21.3042 42.5225 21.0713 41.8064 21.1118 41.0791C21.1524 40.3519 21.4635 39.6661 21.9841 39.1566L25.3775 35.7707C25.7647 35.3817 26.2567 35.1138 26.7935 34.9998C27.3303 34.8857 27.8888 34.9304 28.4006 35.1283L32.0888 36.0882L37.2432 33.8208C37.5844 33.6578 37.9546 33.5644 38.3322 33.5463C38.7099 33.5281 39.0874 33.5855 39.4425 33.715C39.8034 33.8423 40.1344 34.042 40.4151 34.302C40.6959 34.5619 40.9205 34.8766 41.075 35.2266C41.3596 35.9121 41.3691 36.6809 41.1017 37.3734C40.8343 38.0658 40.3105 38.6286 39.639 38.945L35.0515 41.2123C34.9967 41.2377 34.9517 41.2801 34.923 41.3333C34.8985 41.3785 34.8857 41.4292 34.8857 41.4806C34.8857 41.5321 34.8985 41.5827 34.923 41.628C34.9442 41.6744 34.9768 41.7147 35.0178 41.7451C35.0588 41.7754 35.1067 41.795 35.1573 41.8018L35.4218 41.8396C35.9799 41.9179 36.5019 42.1611 36.9207 42.5382C37.3395 42.9153 37.6361 43.4089 37.7723 43.9558L38.4525 47.4324C38.5647 47.8525 38.5789 48.2928 38.4942 48.7193C38.4094 49.1459 38.2279 49.5473 37.9636 49.8926C37.6993 50.2379 37.3593 50.518 36.9697 50.7112C36.5802 50.9045 36.1514 51.0057 35.7166 51.0072C35.0843 51.0076 34.4701 50.7965 33.9716 50.4076C33.4731 50.0186 33.119 49.4742 32.9655 48.8608L32.6935 47.1905L30.5697 46.9562L24.8409 51.1432C24.3721 51.4924 23.8078 51.6901 23.2236 51.7101ZM27.8036 39.5496C27.9692 39.5511 28.1302 39.6039 28.2646 39.7008C28.4098 39.812 28.5097 39.9721 28.5458 40.1514C28.5819 40.3307 28.5518 40.5169 28.4611 40.6757L27.0024 43.2303C26.985 43.2663 26.9621 43.2995 26.9344 43.3285L24.4706 46.4121C24.4201 46.4726 24.3616 46.526 24.2968 46.5708L22.5736 47.7196C22.2826 47.8989 22.0682 48.1795 21.9719 48.5075C21.8756 48.8355 21.9042 49.1875 22.0521 49.4957C22.1433 49.6546 22.2655 49.7937 22.4115 49.9045C22.5575 50.0153 22.7243 50.0957 22.902 50.1408C23.0796 50.1859 23.2645 50.1949 23.4457 50.1672C23.6269 50.1394 23.8006 50.0756 23.9567 49.9794L29.8895 45.6412C30.0417 45.5288 30.2305 45.4776 30.4186 45.4976L33.4039 45.8301C33.568 45.8477 33.7219 45.9185 33.842 46.0318C33.9621 46.1451 34.0418 46.2946 34.069 46.4574L34.4242 48.6265C34.5035 48.9011 34.6706 49.1422 34.8999 49.3128C35.1292 49.4834 35.4081 49.5742 35.6939 49.5712C35.9217 49.5689 36.1453 49.5092 36.3439 49.3974C36.6003 49.2371 36.7978 48.998 36.9068 48.7159C37.0158 48.4338 37.0304 48.124 36.9485 47.8329L36.2758 44.3639C36.2082 44.1157 36.0689 43.893 35.8753 43.7236C35.6817 43.5542 35.4425 43.4457 35.1875 43.4116L34.923 43.3739C34.6278 43.3323 34.3473 43.2189 34.1062 43.0436C33.865 42.8684 33.6706 42.6366 33.5399 42.3687C33.4103 42.1008 33.3474 41.8056 33.3566 41.5081C33.3658 41.2107 33.4469 40.9199 33.5928 40.6606C33.7616 40.3374 34.0253 40.0736 34.3486 39.9048L38.9362 37.6375C39.2639 37.4969 39.5251 37.2357 39.6658 36.908C39.8065 36.5802 39.8158 36.211 39.692 35.8765C39.6211 35.7128 39.5175 35.5653 39.3875 35.4432C39.2576 35.321 39.104 35.2267 38.9362 35.1661C38.7678 35.1026 38.5879 35.0751 38.4083 35.0855C38.2286 35.096 38.0531 35.144 37.8932 35.2266L32.4592 37.5922C32.3042 37.6593 32.1313 37.6726 31.9679 37.6299L27.985 36.5945H27.8943C27.6535 36.4982 27.3897 36.4748 27.1358 36.5272C26.8818 36.5796 26.6488 36.7055 26.4658 36.8893L23.08 40.2752C22.8283 40.5125 22.6736 40.8347 22.6456 41.1795C22.6177 41.5243 22.7186 41.8672 22.9288 42.1419C23.0492 42.2779 23.1959 42.3882 23.36 42.466C23.5242 42.5437 23.7023 42.5875 23.8838 42.5945C24.0653 42.6016 24.2464 42.5718 24.4161 42.507C24.5858 42.4422 24.7406 42.3438 24.8712 42.2175L27.2896 39.799C27.4217 39.6519 27.6062 39.5623 27.8036 39.5496Z" fill="#FDFDFF"/>
<path d="M35.053 23.7356C34.9313 23.736 34.8115 23.7047 34.7054 23.6449L31.0852 21.7479L27.465 23.6449C27.3409 23.7107 27.2009 23.7406 27.0607 23.7313C26.9206 23.7219 26.7858 23.6737 26.6715 23.592C26.5542 23.508 26.4634 23.3922 26.4099 23.2583C26.3563 23.1244 26.3422 22.9779 26.3692 22.8362L27.0645 18.8079L24.1321 15.9511C24.0322 15.8522 23.962 15.7274 23.9291 15.5908C23.8963 15.4542 23.9022 15.3112 23.9461 15.1777C23.9901 15.0443 24.0704 14.9257 24.178 14.8354C24.2856 14.745 24.4163 14.6865 24.5553 14.6663L28.6289 14.0919L30.4352 10.4263C30.4971 10.2986 30.5938 10.1908 30.7141 10.1154C30.8344 10.04 30.9735 10 31.1154 10C31.2574 10 31.3965 10.04 31.5168 10.1154C31.6371 10.1908 31.7338 10.2986 31.7956 10.4263L33.5717 14.0919L37.6151 14.6814C37.7542 14.7016 37.8848 14.7601 37.9924 14.8505C38.1 14.9408 38.1803 15.0594 38.2243 15.1928C38.2682 15.3263 38.2741 15.4693 38.2413 15.6059C38.2085 15.7426 38.1382 15.8673 38.0384 15.9662L35.106 18.823L35.8013 22.8513C35.8283 22.993 35.8141 23.1395 35.7606 23.2734C35.707 23.4073 35.6162 23.5231 35.499 23.6071C35.3675 23.6956 35.2115 23.7406 35.053 23.7356ZM31.0852 20.1381C31.2086 20.1364 31.3306 20.1649 31.4404 20.2212L34.0479 21.5967L33.5491 18.687C33.5279 18.5655 33.5369 18.4407 33.5751 18.3234C33.6133 18.2062 33.6796 18.1001 33.7682 18.0143L35.8844 15.9511L32.9595 15.5278C32.8385 15.5097 32.7236 15.4623 32.6249 15.3899C32.5261 15.3175 32.4465 15.2222 32.3927 15.1122L31.0852 12.4669L29.7777 15.1122C29.724 15.2222 29.6443 15.3175 29.5456 15.3899C29.4468 15.4623 29.332 15.5097 29.2109 15.5278L26.286 15.9511L28.4022 18.0143C28.4908 18.1001 28.5572 18.2062 28.5954 18.3234C28.6336 18.4407 28.6425 18.5655 28.6214 18.687L28.1226 21.5967L30.73 20.2212C30.8398 20.1649 30.9618 20.1364 31.0852 20.1381Z" fill="#FDFDFF"/>
<path d="M44.5336 26.3517C44.4741 26.3519 44.4156 26.3359 44.3638 26.3054L42.5963 25.3376L40.8289 26.3054C40.7683 26.339 40.6999 26.3542 40.6315 26.3495C40.563 26.3447 40.4972 26.3201 40.4414 26.2784C40.3842 26.2356 40.3398 26.1765 40.3137 26.1082C40.2875 26.0398 40.2806 25.9651 40.2938 25.8928L40.6333 23.8376L39.2016 22.38C39.1528 22.3296 39.1185 22.2659 39.1025 22.1962C39.0865 22.1265 39.0893 22.0535 39.1108 21.9854C39.1323 21.9173 39.1715 21.8569 39.224 21.8108C39.2765 21.7647 39.3403 21.7348 39.4082 21.7245L41.3971 21.4314L42.279 19.5613C42.3092 19.4961 42.3564 19.4411 42.4151 19.4026C42.4739 19.3642 42.5418 19.3438 42.6111 19.3438C42.6804 19.3438 42.7483 19.3642 42.8071 19.4026C42.8658 19.4411 42.913 19.4961 42.9432 19.5613L43.8103 21.4314L45.7845 21.7322C45.8524 21.7425 45.9161 21.7724 45.9687 21.8185C46.0212 21.8646 46.0604 21.9251 46.0819 21.9931C46.1033 22.0612 46.1062 22.1342 46.0902 22.2039C46.0741 22.2736 46.0398 22.3373 45.9911 22.3877L44.5594 23.8453L44.8989 25.9005C44.9121 25.9728 44.9052 26.0475 44.879 26.1159C44.8528 26.1842 44.8085 26.2433 44.7513 26.2861C44.6871 26.3313 44.6109 26.3542 44.5336 26.3517ZM42.5963 24.5162C42.6566 24.5154 42.7161 24.5299 42.7698 24.5586L44.0428 25.2604L43.7993 23.7759C43.789 23.7139 43.7933 23.6502 43.812 23.5904C43.8306 23.5306 43.863 23.4764 43.9063 23.4327L44.9395 22.38L43.5115 22.1641C43.4523 22.1548 43.3963 22.1306 43.3481 22.0937C43.2998 22.0568 43.2609 22.0081 43.2347 21.952L42.5963 20.6024L41.958 21.952C41.9317 22.0081 41.8928 22.0568 41.8446 22.0937C41.7964 22.1306 41.7404 22.1548 41.6812 22.1641L40.2532 22.38L41.2864 23.4327C41.3297 23.4764 41.3621 23.5306 41.3807 23.5904C41.3994 23.6502 41.4037 23.7139 41.3934 23.7759L41.1499 25.2604L42.4229 24.5586C42.4765 24.5299 42.5361 24.5154 42.5963 24.5162Z" fill="#FDFDFF"/>
<path d="M22.3412 26.3517C22.2817 26.3519 22.2232 26.3359 22.1715 26.3054L20.404 25.3376L18.6365 26.3054C18.5759 26.339 18.5075 26.3542 18.4391 26.3495C18.3706 26.3447 18.3048 26.3201 18.249 26.2784C18.1918 26.2356 18.1475 26.1765 18.1213 26.1082C18.0952 26.0398 18.0883 25.9651 18.1014 25.8928L18.4409 23.8376L17.0092 22.38C16.9605 22.3296 16.9262 22.2659 16.9101 22.1962C16.8941 22.1265 16.897 22.0535 16.9184 21.9854C16.9399 21.9173 16.9791 21.8569 17.0316 21.8108C17.0842 21.7647 17.148 21.7348 17.2158 21.7245L19.2047 21.4314L20.0866 19.5613C20.1168 19.4961 20.164 19.4411 20.2228 19.4026C20.2815 19.3642 20.3494 19.3438 20.4187 19.3438C20.488 19.3438 20.556 19.3642 20.6147 19.4026C20.6734 19.4411 20.7206 19.4961 20.7508 19.5613L21.618 21.4314L23.5921 21.7322C23.66 21.7425 23.7238 21.7724 23.7763 21.8185C23.8288 21.8646 23.868 21.9251 23.8895 21.9931C23.911 22.0612 23.9138 22.1342 23.8978 22.2039C23.8818 22.2736 23.8475 22.3373 23.7987 22.3877L22.367 23.8453L22.7065 25.9005C22.7197 25.9728 22.7128 26.0475 22.6866 26.1159C22.6605 26.1842 22.6161 26.2433 22.5589 26.2861C22.4947 26.3313 22.4185 26.3542 22.3412 26.3517ZM20.404 24.5162C20.4642 24.5154 20.5238 24.5299 20.5774 24.5586L21.8504 25.2604L21.6069 23.7759C21.5966 23.7139 21.6009 23.6502 21.6196 23.5904C21.6382 23.5306 21.6706 23.4764 21.7139 23.4327L22.7471 22.38L21.3191 22.1641C21.26 22.1548 21.2039 22.1306 21.1557 22.0937C21.1075 22.0568 21.0686 22.0081 21.0423 21.952L20.404 20.6024L19.7656 21.952C19.7394 22.0081 19.7005 22.0568 19.6523 22.0937C19.604 22.1306 19.548 22.1548 19.4889 22.1641L18.0608 22.38L19.094 23.4327C19.1373 23.4764 19.1697 23.5306 19.1883 23.5904C19.207 23.6502 19.2113 23.7139 19.201 23.7759L18.9575 25.2604L20.2305 24.5586C20.2842 24.5299 20.3437 24.5154 20.404 24.5162Z" fill="#FDFDFF"/>
</svg>
