<svg width="74" height="86" viewBox="0 0 74 86" fill="none" xmlns="http://www.w3.org/2000/svg">
<g clip-path="url(#clip0_61_30016)">
<path opacity="0.12" d="M27.2091 11.0719C27.4292 10.4557 27.6541 9.84032 27.8685 9.22794C28.2681 9.17009 28.6536 9.03043 28.9872 8.80177C29.92 8.16228 30.6492 6.80643 30.0997 5.47539C29.6636 4.42805 28.5508 3.70758 27.422 3.74595C26.2933 3.78432 25.2264 4.58638 24.8787 5.66823C24.5733 6.60473 24.8296 7.6922 25.4902 8.41107C17.8076 30.0781 9.34043 51.7844 0.309863 72.9337C0.0452223 73.5514 0.309449 74.2595 0.897075 74.5588C0.919911 74.5681 0.941842 74.5822 0.969427 74.5923C1.60612 74.8664 2.34669 74.5664 2.6197 73.9305C6.8415 64.0349 10.9381 54.0215 14.8938 43.9468C28.5285 46.5953 41.5099 52.5089 52.1681 61.3115C60.5181 52.5248 66.7177 41.693 69.6076 30.4417C57.5927 20.259 42.7511 13.4932 27.2091 11.0719Z" fill="#022C38"/>
<path d="M12.5149 43.1782C26.8504 44.9058 40.7385 50.2144 52.2855 58.765C60.1653 49.5528 65.7856 38.4034 68.0865 27.0158C55.2182 17.2352 39.5754 11.1933 23.4956 9.79305L12.5149 43.1782Z" fill="#009E3A"/>
<path d="M23.1934 25.9974L34.9633 44.9991L57.41 41.8475L45.6907 20.4511L23.1934 25.9974Z" fill="#FEC530"/>
<path d="M47.5626 30.8662C46.8492 27.7528 44.0367 25.2557 40.8768 24.9289C37.7169 24.6021 34.445 26.4754 33.1088 29.3734C31.7716 32.2763 32.4657 35.9847 34.757 38.195C37.0493 40.4005 40.7694 40.9374 43.5908 39.4685C46.4161 38.0054 48.4123 34.5843 47.5626 30.8662Z" fill="#2E3D7E"/>
<path d="M45.9905 37.4988C46.6244 36.7235 47.1198 35.823 47.4256 34.8321C43.505 31.6155 38.9067 29.2499 34.0144 27.9417C33.6648 28.385 33.3495 28.8546 33.1087 29.3729C32.8176 30.0005 32.6415 30.6696 32.5415 31.3531C37.4587 32.1664 42.1536 34.3078 45.9905 37.4988Z" fill="white"/>
<path d="M37.4512 33.785C37.547 33.6943 37.5505 33.5466 37.4605 33.4504C37.3705 33.3541 37.2235 33.351 37.1276 33.4417C37.0318 33.5324 37.0283 33.6801 37.1183 33.7763C37.2083 33.8725 37.3553 33.8757 37.4512 33.785Z" fill="white"/>
<path d="M36.0539 35.8136C36.1198 35.7517 36.1255 35.6437 36.0593 35.5766C35.9932 35.5095 35.8905 35.505 35.8236 35.5716C35.7576 35.6335 35.752 35.7415 35.8181 35.8086C35.8796 35.8748 35.9879 35.8755 36.0539 35.8136Z" fill="white"/>
<path d="M35.7004 36.5089C35.7663 36.4471 35.772 36.339 35.7058 36.2719C35.6444 36.2057 35.537 36.2003 35.4701 36.2669C35.4041 36.3288 35.3985 36.4368 35.4646 36.5039C35.5308 36.571 35.6344 36.5708 35.7004 36.5089Z" fill="white"/>
<path d="M36.6662 37.2785C36.7321 37.2166 36.7378 37.1086 36.6716 37.0415C36.6102 36.9753 36.5028 36.9698 36.4359 37.0365C36.37 37.0983 36.3643 37.2064 36.4304 37.2735C36.4919 37.3397 36.6002 37.3404 36.6662 37.2785Z" fill="white"/>
<path d="M33.6418 35.3293C33.7077 35.2674 33.7134 35.1593 33.6472 35.0923C33.5858 35.0261 33.4784 35.0206 33.4115 35.0872C33.3455 35.1491 33.3399 35.2572 33.406 35.3242C33.4674 35.3904 33.5758 35.3911 33.6418 35.3293Z" fill="white"/>
<path d="M39.0099 35.5207C39.0759 35.4588 39.0816 35.3508 39.0154 35.2837C38.954 35.2175 38.8465 35.212 38.7797 35.2787C38.7137 35.3405 38.708 35.4486 38.7742 35.5157C38.8356 35.5818 38.943 35.5873 39.0099 35.5207Z" fill="white"/>
<path d="M40.5841 35.8097C40.6501 35.7478 40.6558 35.6398 40.5896 35.5727C40.5282 35.5065 40.4208 35.501 40.3539 35.5677C40.2879 35.6296 40.2822 35.7376 40.3484 35.8047C40.4146 35.8718 40.5182 35.8716 40.5841 35.8097Z" fill="white"/>
<path d="M40.714 39.0168C40.7809 38.9501 40.7857 38.8468 40.7195 38.7798C40.6581 38.7136 40.5506 38.7081 40.4838 38.7747C40.4169 38.8414 40.4121 38.9447 40.4783 39.0117C40.5397 39.0779 40.6471 39.0834 40.714 39.0168Z" fill="white"/>
<path d="M42.1925 39.0597C42.2585 38.9978 42.2642 38.8898 42.198 38.8227C42.1366 38.7565 42.0292 38.751 41.9623 38.8177C41.8963 38.8796 41.8906 38.9876 41.9568 39.0547C42.0182 39.1209 42.1266 39.1216 42.1925 39.0597Z" fill="white"/>
<path d="M43.6242 38.2824C43.6911 38.2157 43.6958 38.1125 43.6297 38.0454C43.5682 37.9792 43.4608 37.9737 43.3939 38.0404C43.3271 38.107 43.3223 38.2103 43.3885 38.2774C43.4499 38.3436 43.5525 38.3481 43.6242 38.2824Z" fill="white"/>
<path d="M44.2091 37.7902C44.2751 37.7283 44.2808 37.6203 44.2146 37.5532C44.1532 37.487 44.0458 37.4815 43.9789 37.5482C43.9129 37.6101 43.9072 37.7181 43.9734 37.7852C44.0387 37.8571 44.1423 37.8569 44.2091 37.7902Z" fill="white"/>
<path d="M44.9416 37.2584C44.9782 37.2209 44.9795 37.1619 44.947 37.1261C44.9098 37.0894 44.8511 37.0881 44.8154 37.1209C44.7789 37.1584 44.7775 37.2174 44.81 37.2532C44.8416 37.2938 44.9003 37.295 44.9416 37.2584Z" fill="white"/>
<path d="M34.7295 34.8475C34.8254 34.7568 34.8288 34.6091 34.7388 34.5129C34.6488 34.4166 34.5018 34.4135 34.406 34.5042C34.3101 34.5949 34.3067 34.7426 34.3966 34.8388C34.4866 34.935 34.6383 34.9391 34.7295 34.8475Z" fill="white"/>
<path d="M39.4358 36.7796C39.3085 36.7505 39.1841 36.8358 39.1549 36.9638C39.1257 37.0918 39.2103 37.2167 39.3376 37.2458C39.4649 37.2748 39.5893 37.1896 39.6184 37.0615C39.6429 36.9326 39.564 36.8039 39.4358 36.7796Z" fill="white"/>
<path d="M39.7971 34.6663C39.6698 34.6372 39.5454 34.7225 39.5163 34.8505C39.4871 34.9786 39.5716 35.1034 39.6989 35.1325C39.8262 35.1616 39.9506 35.0763 39.9798 34.9483C40.009 34.8202 39.9253 34.6906 39.7971 34.6663Z" fill="white"/>
<path d="M43.8039 30.6975C43.6766 30.6685 43.5523 30.7537 43.5231 30.8818C43.4939 31.0098 43.5784 31.1347 43.7057 31.1637C43.833 31.1928 43.9574 31.1075 43.9866 30.9795C44.011 30.8506 43.9312 30.7266 43.8039 30.6975Z" fill="white"/>
<path d="M43.9416 36.6507C43.8143 36.6216 43.69 36.7068 43.6608 36.8349C43.6316 36.9629 43.7161 37.0878 43.8434 37.1169C43.9707 37.1459 44.0951 37.0607 44.1243 36.9326C44.1535 36.8046 44.0698 36.675 43.9416 36.6507Z" fill="white"/>
<path d="M34.9385 32.8123C35.0344 32.7217 35.0378 32.5739 34.9478 32.4777C34.8578 32.3815 34.7108 32.3784 34.6149 32.469C34.5191 32.5597 34.5157 32.7075 34.6056 32.8037C34.6909 32.899 34.8426 32.903 34.9385 32.8123Z" fill="white"/>
<path opacity="0.12" d="M27.4925 10.2467C26.1645 10.0643 24.8321 9.90576 23.4962 9.79109L12.5155 43.1762C13.8764 43.3401 15.2292 43.5471 16.5832 43.774C21.0163 31.7516 25.9768 15.337 27.4925 10.2467Z" fill="#022C38"/>
<path d="M27.3129 4.18442C26.823 3.16151 25.6747 2.49862 24.5493 2.597C23.4239 2.69538 22.4002 3.5551 22.1086 4.65252C21.8122 5.74904 22.272 7.00865 23.2087 7.64627C24.1406 8.283 25.4799 8.24989 26.3772 7.5641C27.2802 6.87443 27.9379 5.48031 27.3129 4.18442Z" fill="#022C38"/>
<path d="M1.77663 74.7163C1.17318 74.4486 0.875933 73.759 1.1044 73.1246C9.09087 51.3074 16.48 28.9564 23.0651 6.69554C23.261 6.02523 23.9629 5.64376 24.6236 5.84318C25.2899 6.03873 25.6679 6.74361 25.4681 7.40824C18.8683 29.7208 11.4597 52.1224 3.45382 73.9903C3.21699 74.643 2.49383 74.9809 1.84039 74.7432C1.82231 74.7349 1.79947 74.7256 1.77663 74.7163Z" fill="#022C38"/>
</g>
<defs>
<clipPath id="clip0_61_30016">
<rect width="60.202" height="75.2525" fill="white" transform="translate(14.0137 0.5) rotate(10.732)"/>
</clipPath>
</defs>
</svg>
