<svg width="63" height="63" viewBox="0 0 63 63" fill="none" xmlns="http://www.w3.org/2000/svg">
<circle cx="31.1877" cy="31.1877" r="31.1877" fill="#00A6E3"/>
<g clip-path="url(#clip0_42_29241)">
<path d="M12.636 17.5145C18.0235 20.0906 15.5128 25.6633 15.5128 25.6633C15.5128 25.6633 18.2741 20.2104 23.6616 22.7864C18.2741 20.2104 20.7847 14.6376 20.7847 14.6376C20.7847 14.6376 18.0235 20.0906 12.636 17.5145Z" fill="#FDFDFF"/>
<path fill-rule="evenodd" clip-rule="evenodd" d="M48.8285 24.8496C45.8516 21.1482 43.7396 18.5221 40.6188 14.7055C39.7414 13.6145 38.2194 13.2858 36.9685 13.9325C31.8527 16.5069 28.9743 20.0923 26.1646 23.6994C23.52 27.0968 20.9349 30.5362 16.2904 33.0267C15.5185 33.455 14.9675 34.2061 14.7949 35.0764C14.6222 35.9468 14.8447 36.8457 15.4025 37.5393C18.3731 41.2329 20.4726 43.8434 23.5935 47.6601C24.4709 48.751 25.9928 49.0797 27.25 48.4409C32.3658 45.8664 35.2427 42.295 38.0601 38.6817C40.711 35.2921 43.3024 31.8605 47.9469 29.37C48.7251 28.9495 49.276 28.1984 49.4487 27.3281C49.6213 26.4577 49.3988 25.5587 48.841 24.8652L48.8285 24.8496ZM47.27 26.103C47.458 26.3368 47.5322 26.6365 47.472 26.9287C47.4197 27.2146 47.236 27.465 46.9787 27.6078C42.0473 30.252 39.2736 33.8559 36.4655 37.4489C33.8146 40.8385 31.1497 44.2266 26.327 46.655C25.92 46.8669 25.4199 46.7558 25.1379 46.4051C22.0171 42.5885 19.9176 39.978 16.9532 36.2921C16.7652 36.0583 16.691 35.7587 16.7512 35.4665C16.8036 35.1805 16.9872 34.9302 17.2445 34.7874C22.1696 32.1353 24.9434 28.5315 27.7452 24.9307C30.382 21.5396 33.0548 18.1452 37.8696 15.723C38.2767 15.5111 38.7767 15.6223 39.065 15.9807C42.1859 19.7974 44.2979 22.4235 47.2685 26.1171L47.27 26.103ZM44.2054 25.3082C44.5715 24.9496 44.5981 24.3764 44.2785 23.979L40.631 19.4438C40.3803 19.1321 39.9614 18.9941 39.5713 19.1154C38.4321 19.4541 37.1886 19.3121 36.2607 18.6211C35.9055 18.3549 35.4291 18.353 35.0737 18.6132C31.4058 21.2808 29.6664 23.8091 27.9269 26.3373C26.3041 28.7076 24.6876 31.0856 21.2597 33.5729C20.881 33.8519 20.7402 34.363 20.9349 34.7966C21.3355 35.6936 20.7111 36.4011 20.0319 37.0885C19.6658 37.447 19.6392 38.0203 19.9588 38.4177L23.7191 43.0932C23.976 43.4127 24.3887 43.5428 24.7788 43.4216C25.7932 43.1191 27.1964 43.4278 28.0972 43.9096C28.4334 44.0883 28.8488 44.0623 29.1575 43.8397C32.8909 41.1579 34.6709 38.5843 36.4509 36.0106C38.1141 33.595 39.7711 31.1715 43.2645 28.67C43.6043 28.4223 43.75 27.9972 43.6444 27.5945C43.4267 26.7814 43.6057 25.9189 44.2116 25.316L44.2054 25.3082ZM42.2186 24.609C41.6804 25.4397 41.4659 26.4335 41.5793 27.4202C38.1953 29.9621 36.4994 32.4169 34.8034 34.8717C33.2164 37.1746 31.6356 39.4854 28.4605 41.8722C27.3974 41.4439 26.0506 41.2053 24.889 41.3566L22.0438 37.8188C22.7848 36.8893 23.2147 35.8761 23.0088 34.7585C26.2898 32.2481 27.936 29.859 29.5758 27.4622C31.1131 25.2249 32.6377 22.9721 35.7021 20.6231C36.8312 21.2293 38.1623 21.4164 39.4673 21.1881L42.2186 24.609ZM30.2354 28.8567C28.9418 29.897 28.7374 31.781 29.7778 33.0746C30.8181 34.3681 32.7021 34.5725 33.9956 33.5322C35.2892 32.4919 35.4936 30.6079 34.4533 29.3143C33.4129 28.0208 31.5289 27.8164 30.2354 28.8567ZM31.4888 30.4152C31.9174 30.0705 32.5501 30.1392 32.8948 30.5677C33.2395 30.9963 33.1708 31.629 32.7422 31.9737C32.3136 32.3184 31.6809 32.2498 31.3363 31.8212C30.9916 31.3926 31.0602 30.7599 31.4888 30.4152Z" fill="#FDFDFF"/>
<path d="M48.4 49.3076C44.2056 45.0569 48.4575 40.6661 48.4575 40.6661C48.4575 40.6661 44.0105 44.8592 39.816 40.6086C44.0105 44.8592 39.7585 49.2501 39.7585 49.2501C39.7585 49.2501 44.2056 45.0569 48.4 49.3076Z" fill="#FDFDFF"/>
<path d="M14.0544 27.205C16.673 28.4571 15.7564 30.7281 15.7564 30.7281C15.7564 30.7281 16.8797 28.556 19.5672 29.841C16.9486 28.5889 17.8652 26.3179 17.8652 26.3179C17.8652 26.3179 16.7419 28.4901 14.0544 27.205Z" fill="#FDFDFF"/>
<path d="M47.6118 38.0644C45.5731 35.9984 47.2056 34.1729 47.2056 34.1729C47.2056 34.1729 45.4121 35.8353 43.3198 33.7149C45.3585 35.7809 43.726 37.6065 43.726 37.6065C43.726 37.6065 45.5194 35.9441 47.6118 38.0644Z" fill="#FDFDFF"/>
<path d="M24.1355 14.7877C26.8278 16.0751 25.5894 18.8297 25.5894 18.8297C25.5894 18.8297 27.0201 16.167 29.6483 17.4237C26.956 16.1364 28.2254 13.3169 28.2254 13.3169C28.2254 13.3169 26.8278 16.0751 24.1355 14.7877Z" fill="#FDFDFF"/>
<path d="M38.4924 48.7809C36.3963 46.6567 38.4956 44.4854 38.4956 44.4854C38.4956 44.4854 36.2466 46.505 34.2004 44.4314C36.2965 46.5556 34.1461 48.7774 34.1461 48.7774C34.1461 48.7774 36.3963 46.6567 38.4924 48.7809Z" fill="#FDFDFF"/>
</g>
<defs>
<clipPath id="clip0_42_29241">
<rect width="42" height="42" fill="white" transform="translate(10 10)"/>
</clipPath>
</defs>
</svg>
