<svg width="155" height="164" viewBox="0 0 155 164" fill="none" xmlns="http://www.w3.org/2000/svg">
<g clip-path="url(#clip0_1_36737)">
<path d="M124.611 123.654C121.389 122.494 119.359 119.815 115.541 120.148C108.743 120.747 103.919 128.344 97.3754 123.191C89.4538 116.945 91.5335 79.4029 94.9667 70.8922C97.8783 63.6775 103.248 70.7317 110.903 68.3063C119.806 65.492 127.473 72.4722 132.079 79.7239C136.866 87.2718 139.337 96.8811 138.629 105.737C137.977 113.921 136.487 127.937 124.611 123.654Z" fill="#042C89"/>
<path d="M154.988 163.338H138.3L135.314 151.359C135.314 151.359 132.887 133.177 145.427 132.924C145.427 132.924 151.933 137.46 153.709 148.131C153.721 148.131 155.124 156.66 154.988 163.338Z" fill="#0DD180"/>
<path d="M97.0339 163.338L99.2875 154.303C99.2875 154.303 101.715 136.121 89.1743 135.868C89.1743 135.868 81.6562 141.312 82.3142 163.338H97.0339Z" fill="#0DD180"/>
<path d="M124.865 106.639H109.637V128.801H124.865V106.639Z" fill="#FFDE14"/>
<path d="M124.859 115.686V106.645H109.637V119.673C114.659 119.519 120.619 118.611 124.859 115.686Z" fill="#C1A500"/>
<path d="M89.4541 135.868C92.8686 130.616 98.2387 129.19 98.2387 129.19L111.108 124.45H123.388L139.12 129.19C139.12 129.19 144.49 130.616 147.91 135.868H89.4541Z" fill="#FFDE14"/>
<path d="M92.6072 163.338H143.303L142.98 153.87L150.437 142.656C148.779 131.739 139.125 129.184 139.125 129.184L126.734 125.678C126.734 125.678 127.472 129.69 117.248 129.69C117.248 129.69 109.034 129.69 108.053 125.573L98.238 129.19C98.238 129.19 91.0489 131.375 87.1191 138.602L92.601 153.877V163.338H92.6072Z" fill="#0DD180"/>
<path d="M126.522 108.404C126.001 109.601 125.275 110.706 124.263 111.681C121.736 114.1 118.781 116.063 115.534 117.384C111.555 119.007 105.545 119.217 102.379 115.952C99.8148 113.31 98.4056 109.305 97.2943 105.874C95.1276 99.2021 95.1587 91.9071 95.705 84.9825C95.8292 83.4026 95.9906 81.8165 96.2575 80.255C98.7346 65.1406 111.747 65.1715 111.747 65.1715C121.568 64.7456 130.539 69.362 132.048 79.6502C132.625 83.5939 131.862 87.8215 131.663 91.7652C131.514 94.6597 131.16 97.5542 130.229 100.313C129.273 103.14 127.702 105.688 126.522 108.404Z" fill="#FFDE14"/>
<path d="M94.656 93.9003C90.9807 82.6 93.9483 69.3124 98.3375 65.1527C110.766 53.3648 133.724 57.8516 140.739 76.2802C142.906 81.9705 141.888 103.195 140.907 109.725C139.591 118.464 136.356 124.456 129.683 124.456C129.863 117.248 129.304 109.262 129.95 100.455C130.589 91.7094 129.416 91.4996 122.102 87.4324C118.458 85.4081 116.347 83.2974 114.088 80.0141C111.288 75.947 113.392 74.5275 107.855 74.7126C107.842 74.6941 94.9664 74.2621 94.656 93.9003Z" fill="#042C89"/>
<path d="M127.789 96.8814C127.789 96.8814 129.087 91.5058 133.246 93.7276C133.246 93.7276 135.127 94.6719 133.774 98.3687C133.774 98.3687 131.8 103.683 127.783 101.738L127.789 96.8814Z" fill="#FFDE14"/>
<path d="M6.94043 137.164C10.535 131.641 16.1782 130.141 16.1782 130.141L29.7059 125.154H42.6251L56.1528 130.141C56.1528 130.141 61.796 131.641 65.3906 137.164H6.94043Z" fill="#FFDE14"/>
<path d="M53.8126 163.338H74.7156C74.7156 159.79 74.4859 154.729 74.4859 154.729C73.2566 133.48 57.6803 130.141 57.6803 130.141C45.5308 127.216 52.155 145.897 52.155 145.897C51.8321 150.396 52.5026 156.451 53.8126 163.338Z" fill="#0DD180"/>
<path d="M45.0343 112.546H27.3037V129.734H45.0343V112.546Z" fill="#FFDE14"/>
<path d="M45.0343 120.532V112.546H27.3037V116.502C32.3572 120.686 38.4536 121.217 45.0343 120.532Z" fill="#C1A500"/>
<path d="M63.9138 163.338C64.2553 154.069 64.1498 151.526 64.069 148.366C63.8828 141.324 62.368 135.375 57.6994 130.147C57.687 130.141 57.6746 130.141 57.6746 130.141L45.0347 126.043C45.0347 126.043 47.6918 130.666 36.0763 130.666C36.0763 130.666 28.4216 130.369 27.3041 126.043L14.4656 130.141C14.4656 130.141 3.48948 132.826 1.6084 144.311L8.05871 156.105L7.82901 163.345H63.9138V163.338Z" fill="#0DD180"/>
<path d="M57.2765 86.9457C57.2765 82.8601 57.1026 78.7868 57.1958 74.7011C57.2579 72.0905 57.5 72.7632 54.458 72.4793C50.2488 72.0844 48.8395 79.8607 48.5416 83.2242C48.1318 87.8653 49.1437 92.8582 49.9198 97.3759C50.1991 99.0114 50.1246 102.282 51.8443 103.048C53.3157 103.702 54.8491 102.085 55.6251 100.894C57.4006 98.1412 57.084 93.9444 57.202 90.8216C57.2579 89.5255 57.2765 88.2356 57.2765 86.9457Z" fill="#042C89"/>
<path d="M55.4508 110.151C53.6566 117.118 50.5029 119.044 50.5029 119.044L46.2689 119.865C43.8353 119.556 39.6323 118.575 39.6323 118.575C29.9599 115.304 27.1601 114.421 25.6639 110.768C25.6018 110.614 18.0402 84.5259 18.0402 84.5259C16.8048 71.1025 30.9408 68.3067 33.0765 67.9549C35.1873 67.4674 48.6466 63.752 52.6261 76.6385C52.6199 76.6446 58.499 91.5801 55.4508 110.151Z" fill="#FFDE14"/>
<path d="M16.5879 72.207C11.8883 74.4597 11.7269 78.6256 11.9504 83.3654C12.1242 87.0437 13.2665 90.1789 14.5827 93.74C16.8362 99.8191 16.8362 99.8191 18.8353 103.318C18.8353 103.318 21.9518 108.132 25.9623 111.428C24.8013 106.855 24.4723 103.436 23.4169 99.924C22.1442 95.7026 22.5167 90.0555 24.404 85.7292C24.404 85.7292 25.4718 82.847 29.8672 82.0262L16.5879 72.207Z" fill="url(#paint0_linear_1_36737)"/>
<path d="M24.3113 99.0175C24.3113 99.0175 21.9211 93.8395 18.1652 96.9068C18.1652 96.9068 16.4579 98.2337 18.5625 101.696C18.5625 101.696 21.6231 106.677 25.286 103.918L24.3113 99.0175Z" fill="#FFDE14"/>
<path d="M23.9323 86.9453C23.9323 86.9453 23.9509 96.2152 25.6582 101.128L23.8392 101.486C23.8392 101.486 22.8831 95.1289 19.5928 95.0549L23.9323 86.9453Z" fill="url(#paint1_linear_1_36737)"/>
<path d="M59.5985 67.0911C74.7092 82.3906 28.9797 82.2363 28.9797 82.2363C28.9797 82.2363 24.1807 84.4396 16.5881 72.2012C16.5881 72.2012 14.5394 62.6289 36.1626 59.6172C36.1626 59.6172 50.46 57.8768 59.5985 67.0911Z" fill="#042C89"/>
<path d="M19.5372 163.338C19.5372 163.338 0.0124164 163.338 0 163.338C0.00620819 163.338 0.0682901 158.728 0.0807065 158.401C0.229703 153.864 0.51528 149.297 1.33476 144.829C2.50811 138.441 5.63083 132.776 12.4971 131.153C15.6384 130.412 18.4321 132.301 20.1394 134.874C20.1394 134.874 23.2497 138.688 19.5372 163.338Z" fill="#0DD180"/>
<path d="M118.924 24.7035C118.179 20.0871 116.329 15.662 113.256 11.8294C103.559 -0.285568 82.6933 -3.76639 70.2272 5.98485C56.861 16.4397 47.3811 40.7437 63.1871 51.9823C64.9627 53.2475 66.9865 54.3399 69.178 55.2533C68.6069 57.901 67.3094 62.326 64.7826 63.9986C64.7826 63.9986 74.2625 64.7206 77.826 57.7837C91.8938 60.382 108.588 56.8888 115.069 45.3539C118.645 38.9971 120.042 31.6467 118.924 24.7035Z" fill="#00A6E3"/>
<path d="M89.1622 48.8413C82.9478 48.0575 76.9817 45.5024 73.3003 40.275C69.5443 34.9427 68.0854 28.1662 68.5075 21.723C68.9049 15.6068 70.6556 9.37344 75.2869 5.07795C77.019 3.47332 78.9559 2.15875 81.0108 1.04785C77.0873 1.89337 73.3872 3.51035 70.2272 5.98519C56.861 16.44 47.3811 40.744 63.1871 51.9827C64.9627 53.2479 66.9865 54.3402 69.178 55.2536C68.6069 57.9013 67.3094 62.3264 64.7826 63.9989C64.7826 63.9989 74.2625 64.721 77.826 57.784C91.8938 60.3823 108.588 56.8891 115.069 45.3543C115.708 44.2125 116.28 43.0337 116.782 41.8364C109.258 47.9402 98.6545 50.0386 89.1622 48.8413Z" fill="white" fill-opacity="0.13"/>
<path d="M76.8761 34.9111C78.9024 34.9111 80.5451 33.2781 80.5451 31.2637C80.5451 29.2492 78.9024 27.6162 76.8761 27.6162C74.8497 27.6162 73.207 29.2492 73.207 31.2637C73.207 33.2781 74.8497 34.9111 76.8761 34.9111Z" fill="white"/>
<path d="M92.1418 30.7578C92.1418 32.7698 90.4966 34.4053 88.4727 34.4053C86.4489 34.4053 84.8037 32.7698 84.8037 30.7578C84.8037 28.7458 86.4427 27.1104 88.4727 27.1104C90.4966 27.1104 92.1418 28.7397 92.1418 30.7578Z" fill="white"/>
<path d="M100.064 33.8994C102.09 33.8994 103.733 32.2664 103.733 30.2519C103.733 28.2375 102.09 26.6045 100.064 26.6045C98.0372 26.6045 96.3945 28.2375 96.3945 30.2519C96.3945 32.2664 98.0372 33.8994 100.064 33.8994Z" fill="white"/>
</g>
<defs>
<linearGradient id="paint0_linear_1_36737" x1="14.644" y1="111.428" x2="30.4305" y2="111.383" gradientUnits="userSpaceOnUse">
<stop stop-color="#003288"/>
<stop offset="1" stop-color="#005498"/>
</linearGradient>
<linearGradient id="paint1_linear_1_36737" x1="20.431" y1="101.486" x2="25.2351" y2="101.474" gradientUnits="userSpaceOnUse">
<stop stop-color="#003288"/>
<stop offset="1" stop-color="#005498"/>
</linearGradient>
<clipPath id="clip0_1_36737">
<rect width="155" height="163" fill="white" transform="translate(0 0.337891)"/>
</clipPath>
</defs>
</svg>
