<svg width="98" height="112" viewBox="0 0 98 112" fill="none" xmlns="http://www.w3.org/2000/svg">
<path fill-rule="evenodd" clip-rule="evenodd" d="M92.379 19.643C95.4183 21.0832 97.4375 24.0678 97.6561 27.4282C101.341 84.6171 64.776 105.458 52.7752 110.717C50.4021 111.761 47.6959 111.761 45.3228 110.717C33.3324 105.458 -3.24265 84.6171 0.452318 27.4282C0.670893 24.0574 2.69012 21.0832 5.72936 19.6326L45.073 0.900098C47.5918 -0.300033 50.5166 -0.300033 53.0354 0.900098L92.379 19.643ZM86.8212 27.6789C87.5914 28.0442 88.1014 28.806 88.1431 29.6618C89.2256 50.9928 84.3128 68.7965 73.5193 82.5928C65.2863 93.1122 55.669 98.7476 50.0276 101.377C49.4031 101.67 48.6954 101.67 48.0709 101.377C42.4295 98.7476 32.8018 93.1122 24.5792 82.5928C13.7961 68.7965 8.88336 50.9928 9.96583 29.6618C10.0075 28.806 10.5175 28.0442 11.2877 27.6789L48.0605 10.1675C48.6954 9.86482 49.424 9.86482 50.0485 10.1675L86.8212 27.6789Z" fill="#0DD180"/>
<path d="M37.1523 9.17485C36.7985 9.17485 36.4654 8.97657 36.2989 8.63218C36.0803 8.16256 36.278 7.59902 36.7464 7.36943L46.0411 2.9446C46.5095 2.72545 47.0715 2.92373 47.3005 3.39335C47.5191 3.86297 47.3213 4.4265 46.8529 4.65609L37.5583 9.09136C37.423 9.15398 37.2877 9.17485 37.1523 9.17485Z" fill="#FDFDFF"/>
<path d="M3.4604 40.0453C2.95039 40.0453 2.53406 39.6383 2.51324 39.127C2.38834 35.3909 2.45079 31.5087 2.711 27.564C2.87753 25.028 4.40756 22.7739 6.69741 21.6781L33.1659 9.08195C33.6343 8.85236 34.1963 9.06108 34.4253 9.53069C34.6439 10.0003 34.4461 10.5638 33.9777 10.7934L7.50926 23.4C5.83351 24.2036 4.70941 25.842 4.59492 27.6996C4.34511 31.5818 4.28266 35.4118 4.40756 39.0748C4.42838 39.5966 4.01205 40.0349 3.49163 40.0558C3.48122 40.0453 3.47081 40.0453 3.4604 40.0453Z" fill="#FDFDFF"/>
<path d="M46.9531 68.7163C45.836 68.7163 44.8193 68.2012 44.2574 67.3643L35.5413 54.321C34.7854 53.188 35.1935 51.5463 36.4644 50.6192C37.7621 49.6728 39.4946 49.8145 40.3107 50.9669L46.719 60.0186L56.2913 42.6812C57.2211 41.0009 59.5021 39.9387 61.4286 40.3443C63.4019 40.7627 64.2046 42.546 63.1812 44.3036L49.8763 67.1325C49.3278 68.0789 48.2441 68.6841 47.0668 68.7227C47.0267 68.7163 46.9866 68.7163 46.9531 68.7163Z" fill="#FFDE14"/>
</svg>
