<svg width="63" height="63" viewBox="0 0 63 63" fill="none" xmlns="http://www.w3.org/2000/svg">
<circle cx="31.1877" cy="31.1877" r="31.1877" fill="#0DD180"/>
<path d="M20.8369 34.37C24.2508 34.37 27.0278 31.5924 27.0278 28.1792C27.0278 24.7659 24.2502 21.9883 20.8369 21.9883C17.4231 21.9883 14.6455 24.7659 14.6455 28.1792C14.6455 31.5924 17.4226 34.37 20.8369 34.37ZM20.8369 23.6758C23.3204 23.6758 25.3403 25.6963 25.3403 28.1792C25.3403 30.662 23.3198 32.6825 20.8369 32.6825C18.3535 32.6825 16.333 30.662 16.333 28.1792C16.333 25.6963 18.3535 23.6758 20.8369 23.6758Z" fill="#FDFDFF"/>
<path d="M34.6924 28.1792C34.6924 31.5924 37.47 34.37 40.8833 34.37C44.2971 34.37 47.0747 31.5924 47.0747 28.1792C47.0747 24.7659 44.2971 21.9883 40.8833 21.9883C37.47 21.9883 34.6924 24.7653 34.6924 28.1792ZM45.3872 28.1792C45.3872 30.662 43.3667 32.6825 40.8833 32.6825C38.3998 32.6825 36.3799 30.662 36.3799 28.1792C36.3799 25.6963 38.4004 23.6758 40.8833 23.6758C43.3667 23.6758 45.3872 25.6963 45.3872 28.1792Z" fill="#FDFDFF"/>
<path d="M35.0029 38.097C34.5911 37.8169 34.1974 37.5064 33.8312 37.1745C32.9396 36.3674 32.1881 35.419 31.5975 34.3542C31.449 34.0859 31.1661 33.9199 30.8595 33.9199C30.553 33.9199 30.2711 34.0864 30.1221 34.3542C29.5314 35.4195 28.7799 36.3679 27.8878 37.1751C27.5228 37.5064 27.129 37.8169 26.7173 38.0976C26.4084 38.308 26.2751 38.6955 26.3888 39.0516L27.3473 42.0464C27.4896 42.4902 27.9654 42.7365 28.4081 42.5931C28.8519 42.4508 29.0966 41.976 28.9549 41.5322L28.1831 39.1214C28.474 38.9003 28.7546 38.668 29.0213 38.4261C29.7092 37.804 30.3246 37.1087 30.8606 36.3494C31.3961 37.1087 32.0115 37.8034 32.6989 38.4255C32.9666 38.668 33.2473 38.9009 33.5381 39.1214L32.7658 41.5322C32.6241 41.976 32.8688 42.4508 33.3126 42.5931C33.3981 42.6207 33.4847 42.633 33.5702 42.633C33.9274 42.633 34.2587 42.4047 34.3734 42.0464L35.332 39.0516C35.445 38.6955 35.3117 38.3074 35.0029 38.097Z" fill="#FDFDFF"/>
<path d="M53.2199 29.1168C53.2199 25.4554 52.3446 22.2132 52.2383 21.8324C51.9655 20.5274 51.1234 19.75 49.9804 19.75C48.6535 19.75 47.7366 20.6573 47.6995 22.009C47.6894 22.3876 47.7653 22.8691 47.8705 23.5362C48.073 24.8176 48.3784 26.7548 48.1816 29.0447C47.9228 32.0569 45.2768 35.2587 40.8837 35.2587C36.7651 35.2587 33.9509 31.5557 33.5802 28.9964C33.3676 27.5288 33.1926 25.1455 33.1729 24.8727C33.1544 23.6324 32.1244 22.6289 30.8605 22.6289C29.5966 22.6289 28.5661 23.6324 28.5481 24.8727C28.5284 25.1455 28.3534 27.5288 28.1408 28.9964C27.7701 31.5557 24.9559 35.2587 20.8373 35.2587C16.4447 35.2587 13.7988 32.0575 13.5394 29.0447C13.3437 26.7706 13.6547 24.7968 13.8606 23.4912C13.972 22.7864 14.0457 22.3212 14.0192 21.9702C13.9253 20.7046 12.946 19.7506 11.74 19.7506C10.6071 19.7506 9.78363 20.5139 9.48325 21.8301C9.44331 21.9921 8.5 25.8458 8.5 29.1173C8.5 32.5705 10.1943 36.2824 12.8166 38.5746C13.0349 38.7653 13.2604 38.9487 13.4905 39.1231L12.7188 41.5339C12.577 41.9778 12.8217 42.4525 13.2655 42.5948C13.7093 42.7388 14.1841 42.4919 14.3264 42.0481L15.2849 39.0533C15.3991 38.6973 15.2646 38.3086 14.9553 38.0982C14.6014 37.858 14.2555 37.5914 13.9276 37.3045C11.6556 35.3189 10.1881 32.1053 10.1881 29.1173C10.1881 26.0539 11.1122 22.2723 11.1252 22.2199C11.3035 21.4375 11.6095 21.4375 11.74 21.4375C12.1163 21.4375 12.3126 21.7778 12.3363 22.0945C12.3481 22.2503 12.2659 22.7695 12.1939 23.2279C11.9751 24.6151 11.6444 26.7104 11.8581 29.1899C12.1821 32.9502 15.4396 36.9462 20.8373 36.9462C25.9639 36.9462 29.3429 32.4698 29.8109 29.2382C30.0449 27.6256 30.226 25.0735 30.2333 24.9655C30.2344 24.9458 30.2356 24.9261 30.2356 24.9064C30.2356 24.592 30.5281 24.3164 30.8611 24.3164C31.1941 24.3164 31.4866 24.592 31.4866 24.9064C31.4866 24.9261 31.4871 24.9458 31.4888 24.9655C31.4961 25.0729 31.6772 27.6256 31.9112 29.2382C32.3792 32.4698 35.7576 36.9462 40.8848 36.9462C46.2837 36.9462 49.5406 32.9502 49.864 29.1899C50.0789 26.6941 49.7537 24.6353 49.5383 23.2729C49.4539 22.7391 49.3814 22.2779 49.387 22.0551C49.3988 21.622 49.5766 21.4375 49.981 21.4375C50.1295 21.4375 50.4389 21.4375 50.5913 22.198C50.5958 22.2199 50.6014 22.2424 50.6076 22.2644C50.6172 22.297 51.5335 25.5359 51.5335 29.1173C51.5335 32.3809 50.2752 35.1355 47.794 37.3045C47.4666 37.5903 47.1213 37.8574 46.7663 38.0982C46.4569 38.3086 46.3225 38.6973 46.4367 39.0533L47.3952 42.0481C47.5099 42.4064 47.8413 42.6348 48.1984 42.6348C48.2834 42.6348 48.3706 42.6224 48.4561 42.5948C48.8999 42.4525 49.1446 41.9778 49.0028 41.5339L48.2316 39.1236C48.4622 38.9487 48.6873 38.7653 48.9055 38.5746C51.7276 36.1064 53.2199 32.8354 53.2199 29.1168Z" fill="#FDFDFF"/>
</svg>
