<svg width="428" height="287" viewBox="0 0 428 287" fill="none" xmlns="http://www.w3.org/2000/svg">
<mask id="mask0_1_37718" style="mask-type:luminance" maskUnits="userSpaceOnUse" x="-21" y="-23" width="455" height="310">
<path d="M21.5054 -23C-1.97015 -23 -21 -16.6632 -21 -8.84981L-21 272.85C-21 280.663 -1.97015 287 21.5054 287H391.495C414.97 287 434 280.663 434 272.85V-8.84981C434 -16.6632 414.97 -23 391.495 -23L21.5054 -23Z" fill="white"/>
</mask>
<g mask="url(#mask0_1_37718)">
<path d="M206.508 -36.4121C227.143 -36.4121 236.615 -20.4531 236.615 -4.50649C236.615 11.4402 255.015 19.6842 263.375 19.6842V47.7385C255.015 47.7385 236.615 39.4945 236.615 23.5478C236.615 7.60115 227.131 -8.35781 206.508 -8.35781V-36.4121Z" fill="#0DD180"/>
</g>
<mask id="mask1_1_37718" style="mask-type:luminance" maskUnits="userSpaceOnUse" x="-21" y="-23" width="455" height="310">
<path d="M21.5054 -23C-1.97015 -23 -21 -16.6632 -21 -8.84981L-21 272.85C-21 280.663 -1.97015 287 21.5054 287H391.495C414.97 287 434 280.663 434 272.85V-8.84981C434 -16.6632 414.97 -23 391.495 -23L21.5054 -23Z" fill="white"/>
</mask>
<g mask="url(#mask1_1_37718)">
<path d="M-21 -36.4121C-0.364773 -36.4121 9.10693 -20.4531 9.10693 -4.50649C9.10693 11.4402 27.507 19.6842 35.8673 19.6842L35.8673 47.7385C27.507 47.7385 9.10693 39.4945 9.10693 23.5478C9.10693 7.60115 -0.364773 -8.35781 -21 -8.35781V-36.4121Z" fill="#0DD180"/>
</g>
<mask id="mask2_1_37718" style="mask-type:luminance" maskUnits="userSpaceOnUse" x="-21" y="-23" width="455" height="310">
<path d="M21.5054 -23C-1.97015 -23 -21 -16.6632 -21 -8.84981L-21 272.85C-21 280.663 -1.97015 287 21.5054 287H391.495C414.97 287 434 280.663 434 272.85V-8.84981C434 -16.6632 414.97 -23 391.495 -23L21.5054 -23Z" fill="white"/>
</mask>
<g mask="url(#mask2_1_37718)">
<path d="M320.254 -36.4121C340.889 -36.4121 350.361 -20.4531 350.361 -4.50649C350.361 11.4402 368.761 19.6842 377.121 19.6842V47.7385C368.761 47.7385 350.361 39.4945 350.361 23.5478C350.361 7.60115 340.877 -8.35781 320.254 -8.35781V-36.4121Z" fill="#0DD180"/>
</g>
<mask id="mask3_1_37718" style="mask-type:luminance" maskUnits="userSpaceOnUse" x="-21" y="-23" width="455" height="310">
<path d="M21.5054 -23C-1.97015 -23 -21 -16.6632 -21 -8.84981L-21 272.85C-21 280.663 -1.97015 287 21.5054 287H391.495C414.97 287 434 280.663 434 272.85V-8.84981C434 -16.6632 414.97 -23 391.495 -23L21.5054 -23Z" fill="white"/>
</mask>
<g mask="url(#mask3_1_37718)">
<path d="M92.7461 -36.4121C113.381 -36.4121 122.853 -20.4531 122.853 -4.50649C122.853 11.4402 141.253 19.6842 149.613 19.6842V47.7385C141.253 47.7385 122.853 39.4945 122.853 23.5478C122.853 7.60115 113.381 -8.35781 92.7461 -8.35781V-36.4121Z" fill="#0DD180"/>
</g>
<mask id="mask4_1_37718" style="mask-type:luminance" maskUnits="userSpaceOnUse" x="-21" y="-23" width="455" height="310">
<path d="M21.5054 -23C-1.97015 -23 -21 -16.6632 -21 -8.84981L-21 272.85C-21 280.663 -1.97015 287 21.5054 287H391.495C414.97 287 434 280.663 434 272.85V-8.84981C434 -16.6632 414.97 -23 391.495 -23L21.5054 -23Z" fill="white"/>
</mask>
<g mask="url(#mask4_1_37718)">
<path d="M320.254 -36.4121C299.619 -36.4121 290.147 -20.4531 290.147 -4.50649C290.147 11.4402 271.747 19.6842 263.387 19.6842V47.7385C271.747 47.7385 290.147 39.4945 290.147 23.5478C290.147 7.60115 299.631 -8.35781 320.254 -8.35781V-36.4121Z" fill="#0DD180"/>
</g>
<mask id="mask5_1_37718" style="mask-type:luminance" maskUnits="userSpaceOnUse" x="-21" y="-23" width="455" height="310">
<path d="M21.5054 -23C-1.97015 -23 -21 -16.6632 -21 -8.84981L-21 272.85C-21 280.663 -1.97015 287 21.5054 287H391.495C414.97 287 434 280.663 434 272.85V-8.84981C434 -16.6632 414.97 -23 391.495 -23L21.5054 -23Z" fill="white"/>
</mask>
<g mask="url(#mask5_1_37718)">
<path d="M92.7462 -36.4121C72.1233 -36.4121 62.6393 -20.4531 62.6393 -4.50649C62.6393 11.4402 44.2392 19.6842 35.8789 19.6842L35.8789 47.7385C44.2392 47.7385 62.6393 39.4945 62.6393 23.5478C62.6393 7.60115 72.1233 -8.35781 92.7462 -8.35781V-36.4121Z" fill="#0DD180"/>
</g>
<mask id="mask6_1_37718" style="mask-type:luminance" maskUnits="userSpaceOnUse" x="-21" y="-23" width="455" height="310">
<path d="M21.5054 -23C-1.97015 -23 -21 -16.6632 -21 -8.84981L-21 272.85C-21 280.663 -1.97015 287 21.5054 287H391.495C414.97 287 434 280.663 434 272.85V-8.84981C434 -16.6632 414.97 -23 391.495 -23L21.5054 -23Z" fill="white"/>
</mask>
<g mask="url(#mask6_1_37718)">
<path d="M434 -36.4121C413.365 -36.4121 403.893 -20.4531 403.893 -4.50649C403.893 11.4402 385.493 19.6842 377.133 19.6842V47.7385C385.493 47.7385 403.893 39.4945 403.893 23.5478C403.893 7.60115 413.377 -8.35781 434 -8.35781V-36.4121Z" fill="#0DD180"/>
</g>
<mask id="mask7_1_37718" style="mask-type:luminance" maskUnits="userSpaceOnUse" x="-21" y="-23" width="455" height="310">
<path d="M21.5054 -23C-1.97015 -23 -21 -16.6632 -21 -8.84981L-21 272.85C-21 280.663 -1.97015 287 21.5054 287H391.495C414.97 287 434 280.663 434 272.85V-8.84981C434 -16.6632 414.97 -23 391.495 -23L21.5054 -23Z" fill="white"/>
</mask>
<g mask="url(#mask7_1_37718)">
<path d="M206.508 -36.4121C185.873 -36.4121 176.401 -20.4531 176.401 -4.50649C176.401 11.4402 158.001 19.6842 149.641 19.6842V47.7385C158.001 47.7385 176.401 39.4945 176.401 23.5478C176.401 7.60115 185.885 -8.35781 206.508 -8.35781V-36.4121Z" fill="#0DD180"/>
</g>
<mask id="mask8_1_37718" style="mask-type:luminance" maskUnits="userSpaceOnUse" x="-21" y="-23" width="455" height="310">
<path d="M21.5054 -23C-1.97015 -23 -21 -16.6632 -21 -8.84981L-21 272.85C-21 280.663 -1.97015 287 21.5054 287H391.495C414.97 287 434 280.663 434 272.85V-8.84981C434 -16.6632 414.97 -23 391.495 -23L21.5054 -23Z" fill="white"/>
</mask>
<g mask="url(#mask8_1_37718)">
<path d="M206.508 23.1426C227.143 23.1426 236.615 39.1015 236.615 55.0482C236.615 70.9949 255.015 79.2512 263.375 79.2512V107.305C255.015 107.305 236.615 99.0615 236.615 83.1148C236.615 67.1681 227.131 51.2092 206.508 51.2092V23.1426Z" fill="#0DD180"/>
</g>
<mask id="mask9_1_37718" style="mask-type:luminance" maskUnits="userSpaceOnUse" x="-21" y="-23" width="455" height="310">
<path d="M21.5054 -23C-1.97015 -23 -21 -16.6632 -21 -8.84981L-21 272.85C-21 280.663 -1.97015 287 21.5054 287H391.495C414.97 287 434 280.663 434 272.85V-8.84981C434 -16.6632 414.97 -23 391.495 -23L21.5054 -23Z" fill="white"/>
</mask>
<g mask="url(#mask9_1_37718)">
<path d="M-21 23.1436C-0.364773 23.1436 9.10693 39.1025 9.10693 55.0492C9.10693 70.9958 27.507 79.2522 35.8796 79.2522L35.8796 107.306C27.5193 107.306 9.11928 99.0624 9.11928 83.1158C9.11928 67.1691 -0.364773 51.1979 -21 51.1979V23.1436Z" fill="#0DD180"/>
</g>
<mask id="mask10_1_37718" style="mask-type:luminance" maskUnits="userSpaceOnUse" x="-21" y="-23" width="455" height="310">
<path d="M21.5054 -23C-1.97015 -23 -21 -16.6632 -21 -8.84981L-21 272.85C-21 280.663 -1.97015 287 21.5054 287H391.495C414.97 287 434 280.663 434 272.85V-8.84981C434 -16.6632 414.97 -23 391.495 -23L21.5054 -23Z" fill="white"/>
</mask>
<g mask="url(#mask10_1_37718)">
<path d="M320.254 23.1426C340.889 23.1426 350.361 39.1015 350.361 55.0482C350.361 70.9949 368.761 79.2512 377.134 79.2512V107.305C368.773 107.305 350.373 99.0615 350.373 83.1148C350.373 67.1681 340.889 51.2092 320.266 51.2092V23.1426H320.254Z" fill="#0DD180"/>
</g>
<mask id="mask11_1_37718" style="mask-type:luminance" maskUnits="userSpaceOnUse" x="-21" y="-23" width="455" height="310">
<path d="M21.5054 -23C-1.97015 -23 -21 -16.6632 -21 -8.84981L-21 272.85C-21 280.663 -1.97015 287 21.5054 287H391.495C414.97 287 434 280.663 434 272.85V-8.84981C434 -16.6632 414.97 -23 391.495 -23L21.5054 -23Z" fill="white"/>
</mask>
<g mask="url(#mask11_1_37718)">
<path d="M92.7461 23.1436C113.381 23.1436 122.853 39.1025 122.853 55.0492C122.853 70.9958 141.265 79.2522 149.626 79.2522V107.306C141.265 107.306 122.865 99.0624 122.865 83.1158C122.865 67.1691 113.381 51.1979 92.7461 51.1979V23.1436Z" fill="#0DD180"/>
</g>
<mask id="mask12_1_37718" style="mask-type:luminance" maskUnits="userSpaceOnUse" x="-21" y="-23" width="455" height="310">
<path d="M21.5054 -23C-1.97015 -23 -21 -16.6632 -21 -8.84981L-21 272.85C-21 280.663 -1.97015 287 21.5054 287H391.495C414.97 287 434 280.663 434 272.85V-8.84981C434 -16.6632 414.97 -23 391.495 -23L21.5054 -23Z" fill="white"/>
</mask>
<g mask="url(#mask12_1_37718)">
<path d="M320.255 23.1426C299.619 23.1426 290.148 39.1015 290.148 55.0482C290.148 70.9949 271.748 79.2512 263.375 79.2512V107.305C271.735 107.305 290.135 99.0615 290.135 83.1148C290.135 67.1681 299.619 51.2092 320.242 51.2092V23.1426H320.255Z" fill="#0DD180"/>
</g>
<mask id="mask13_1_37718" style="mask-type:luminance" maskUnits="userSpaceOnUse" x="-21" y="-23" width="455" height="310">
<path d="M21.5054 -23C-1.97015 -23 -21 -16.6632 -21 -8.84981L-21 272.85C-21 280.663 -1.97015 287 21.5054 287H391.495C414.97 287 434 280.663 434 272.85V-8.84981C434 -16.6632 414.97 -23 391.495 -23L21.5054 -23Z" fill="white"/>
</mask>
<g mask="url(#mask13_1_37718)">
<path d="M92.7462 23.1426C72.111 23.1426 62.6393 39.1015 62.6393 55.0482C62.6393 70.9949 44.2392 79.2512 35.8789 79.2512L35.8789 107.305C44.2392 107.305 62.6393 99.0615 62.6393 83.1148C62.6393 67.1681 72.1233 51.1969 92.7462 51.1969V23.1426Z" fill="#0DD180"/>
</g>
<mask id="mask14_1_37718" style="mask-type:luminance" maskUnits="userSpaceOnUse" x="-21" y="-23" width="455" height="310">
<path d="M21.5054 -23C-1.97015 -23 -21 -16.6632 -21 -8.84981L-21 272.85C-21 280.663 -1.97015 287 21.5054 287H391.495C414.97 287 434 280.663 434 272.85V-8.84981C434 -16.6632 414.97 -23 391.495 -23L21.5054 -23Z" fill="white"/>
</mask>
<g mask="url(#mask14_1_37718)">
<path d="M434 23.1426C413.365 23.1426 403.893 39.1015 403.893 55.0482C403.893 70.9949 385.493 79.2512 377.133 79.2512V107.305C385.493 107.305 403.893 99.0615 403.893 83.1148C403.893 67.1681 413.377 51.2092 434 51.2092V23.1426Z" fill="#0DD180"/>
</g>
<mask id="mask15_1_37718" style="mask-type:luminance" maskUnits="userSpaceOnUse" x="-21" y="-23" width="455" height="310">
<path d="M21.5054 -23C-1.97015 -23 -21 -16.6632 -21 -8.84981L-21 272.85C-21 280.663 -1.97015 287 21.5054 287H391.495C414.97 287 434 280.663 434 272.85V-8.84981C434 -16.6632 414.97 -23 391.495 -23L21.5054 -23Z" fill="white"/>
</mask>
<g mask="url(#mask15_1_37718)">
<path d="M206.505 23.1426C185.869 23.1426 176.398 39.1015 176.398 55.0482C176.398 70.9949 157.985 79.2512 149.625 79.2512V107.305C157.985 107.305 176.385 99.0615 176.385 83.1148C176.385 67.1681 185.869 51.2092 206.492 51.2092V23.1426H206.505Z" fill="#0DD180"/>
</g>
<mask id="mask16_1_37718" style="mask-type:luminance" maskUnits="userSpaceOnUse" x="-21" y="-23" width="455" height="310">
<path d="M21.5054 -23C-1.97015 -23 -21 -16.6632 -21 -8.84981L-21 272.85C-21 280.663 -1.97015 287 21.5054 287H391.495C414.97 287 434 280.663 434 272.85V-8.84981C434 -16.6632 414.97 -23 391.495 -23L21.5054 -23Z" fill="white"/>
</mask>
<g mask="url(#mask16_1_37718)">
<path d="M206.508 82.6963C227.143 82.6963 236.615 98.6552 236.615 114.602C236.615 130.549 255.015 138.793 263.375 138.793V166.847C255.015 166.847 236.615 158.603 236.615 142.656C236.615 126.71 227.131 110.751 206.508 110.751V82.6963Z" fill="#0DD180"/>
</g>
<mask id="mask17_1_37718" style="mask-type:luminance" maskUnits="userSpaceOnUse" x="-21" y="-23" width="455" height="310">
<path d="M21.5054 -23C-1.97015 -23 -21 -16.6632 -21 -8.84981L-21 272.85C-21 280.663 -1.97015 287 21.5054 287H391.495C414.97 287 434 280.663 434 272.85V-8.84981C434 -16.6632 414.97 -23 391.495 -23L21.5054 -23Z" fill="white"/>
</mask>
<g mask="url(#mask17_1_37718)">
<path d="M-21 82.6963C-0.364773 82.6963 9.10693 98.6552 9.10693 114.602C9.10693 130.549 27.507 138.793 35.8673 138.793L35.8673 166.847C27.507 166.847 9.10693 158.603 9.10693 142.656C9.10693 126.71 -0.364773 110.751 -21 110.751V82.6963Z" fill="#0DD180"/>
</g>
<mask id="mask18_1_37718" style="mask-type:luminance" maskUnits="userSpaceOnUse" x="-21" y="-23" width="455" height="310">
<path d="M21.5054 -23C-1.97015 -23 -21 -16.6632 -21 -8.84981L-21 272.85C-21 280.663 -1.97015 287 21.5054 287H391.495C414.97 287 434 280.663 434 272.85V-8.84981C434 -16.6632 414.97 -23 391.495 -23L21.5054 -23Z" fill="white"/>
</mask>
<g mask="url(#mask18_1_37718)">
<path d="M320.254 82.6963C340.889 82.6963 350.361 98.6552 350.361 114.602C350.361 130.549 368.761 138.793 377.121 138.793V166.847C368.761 166.847 350.361 158.603 350.361 142.656C350.361 126.71 340.877 110.751 320.254 110.751V82.6963Z" fill="#0DD180"/>
</g>
<mask id="mask19_1_37718" style="mask-type:luminance" maskUnits="userSpaceOnUse" x="-21" y="-23" width="455" height="310">
<path d="M21.5054 -23C-1.97015 -23 -21 -16.6632 -21 -8.84981L-21 272.85C-21 280.663 -1.97015 287 21.5054 287H391.495C414.97 287 434 280.663 434 272.85V-8.84981C434 -16.6632 414.97 -23 391.495 -23L21.5054 -23Z" fill="white"/>
</mask>
<g mask="url(#mask19_1_37718)">
<path d="M92.7461 82.6963C113.381 82.6963 122.853 98.6552 122.853 114.602C122.853 130.549 141.253 138.793 149.613 138.793V166.847C141.253 166.847 122.853 158.603 122.853 142.656C122.853 126.71 113.369 110.751 92.7461 110.751V82.6963Z" fill="#0DD180"/>
</g>
<mask id="mask20_1_37718" style="mask-type:luminance" maskUnits="userSpaceOnUse" x="-21" y="-23" width="455" height="310">
<path d="M21.5054 -23C-1.97015 -23 -21 -16.6632 -21 -8.84981L-21 272.85C-21 280.663 -1.97015 287 21.5054 287H391.495C414.97 287 434 280.663 434 272.85V-8.84981C434 -16.6632 414.97 -23 391.495 -23L21.5054 -23Z" fill="white"/>
</mask>
<g mask="url(#mask20_1_37718)">
<path d="M320.254 82.6963C299.619 82.6963 290.147 98.6552 290.147 114.602C290.147 130.549 271.747 138.793 263.387 138.793V166.847C271.747 166.847 290.147 158.603 290.147 142.656C290.147 126.71 299.631 110.751 320.254 110.751V82.6963Z" fill="#0DD180"/>
</g>
<mask id="mask21_1_37718" style="mask-type:luminance" maskUnits="userSpaceOnUse" x="-21" y="-23" width="455" height="310">
<path d="M21.5054 -23C-1.97015 -23 -21 -16.6632 -21 -8.84981L-21 272.85C-21 280.663 -1.97015 287 21.5054 287H391.495C414.97 287 434 280.663 434 272.85V-8.84981C434 -16.6632 414.97 -23 391.495 -23L21.5054 -23Z" fill="white"/>
</mask>
<g mask="url(#mask21_1_37718)">
<path d="M92.7462 82.6963C72.111 82.6963 62.6393 98.6552 62.6393 114.602C62.6393 130.549 44.2392 138.793 35.8789 138.793L35.8789 166.847C44.2392 166.847 62.6393 158.603 62.6393 142.656C62.6393 126.71 72.1233 110.751 92.7462 110.751V82.6963Z" fill="#0DD180"/>
</g>
<mask id="mask22_1_37718" style="mask-type:luminance" maskUnits="userSpaceOnUse" x="-21" y="-23" width="455" height="310">
<path d="M21.5054 -23C-1.97015 -23 -21 -16.6632 -21 -8.84981L-21 272.85C-21 280.663 -1.97015 287 21.5054 287H391.495C414.97 287 434 280.663 434 272.85V-8.84981C434 -16.6632 414.97 -23 391.495 -23L21.5054 -23Z" fill="white"/>
</mask>
<g mask="url(#mask22_1_37718)">
<path d="M434 82.6963C413.365 82.6963 403.893 98.6552 403.893 114.602C403.893 130.549 385.493 138.793 377.133 138.793V166.847C385.493 166.847 403.893 158.603 403.893 142.656C403.893 126.71 413.377 110.751 434 110.751V82.6963Z" fill="#0DD180"/>
</g>
<mask id="mask23_1_37718" style="mask-type:luminance" maskUnits="userSpaceOnUse" x="-21" y="-23" width="455" height="310">
<path d="M21.5054 -23C-1.97015 -23 -21 -16.6632 -21 -8.84981L-21 272.85C-21 280.663 -1.97015 287 21.5054 287H391.495C414.97 287 434 280.663 434 272.85V-8.84981C434 -16.6632 414.97 -23 391.495 -23L21.5054 -23Z" fill="white"/>
</mask>
<g mask="url(#mask23_1_37718)">
<path d="M206.508 82.6963C185.873 82.6963 176.401 98.6552 176.401 114.602C176.401 130.549 158.001 138.793 149.641 138.793V166.847C158.001 166.847 176.401 158.603 176.401 142.656C176.401 126.71 185.885 110.751 206.508 110.751V82.6963Z" fill="#0DD180"/>
</g>
<mask id="mask24_1_37718" style="mask-type:luminance" maskUnits="userSpaceOnUse" x="-21" y="-23" width="455" height="310">
<path d="M21.5054 -23C-1.97015 -23 -21 -16.6632 -21 -8.84981L-21 272.85C-21 280.663 -1.97015 287 21.5054 287H391.495C414.97 287 434 280.663 434 272.85V-8.84981C434 -16.6632 414.97 -23 391.495 -23L21.5054 -23Z" fill="white"/>
</mask>
<g mask="url(#mask24_1_37718)">
<path d="M206.508 142.262C227.143 142.262 236.615 158.221 236.615 174.167C236.615 190.114 255.015 198.358 263.375 198.358V226.412C255.015 226.412 236.615 218.168 236.615 202.222C236.615 186.275 227.131 170.304 206.508 170.304V142.262Z" fill="#0DD180"/>
</g>
<mask id="mask25_1_37718" style="mask-type:luminance" maskUnits="userSpaceOnUse" x="-21" y="-23" width="455" height="310">
<path d="M21.5054 -23C-1.97015 -23 -21 -16.6632 -21 -8.84981L-21 272.85C-21 280.663 -1.97015 287 21.5054 287H391.495C414.97 287 434 280.663 434 272.85V-8.84981C434 -16.6632 414.97 -23 391.495 -23L21.5054 -23Z" fill="white"/>
</mask>
<g mask="url(#mask25_1_37718)">
<path d="M-21 142.261C-0.364773 142.261 9.10693 158.22 9.10693 174.166C9.10693 190.113 27.507 198.357 35.8673 198.357L35.8673 226.411C27.507 226.411 9.10693 218.167 9.10693 202.221C9.10693 186.274 -0.364773 170.303 -21 170.303V142.261Z" fill="#0DD180"/>
</g>
<mask id="mask26_1_37718" style="mask-type:luminance" maskUnits="userSpaceOnUse" x="-21" y="-23" width="455" height="310">
<path d="M21.5054 -23C-1.97015 -23 -21 -16.6632 -21 -8.84981L-21 272.85C-21 280.663 -1.97015 287 21.5054 287H391.495C414.97 287 434 280.663 434 272.85V-8.84981C434 -16.6632 414.97 -23 391.495 -23L21.5054 -23Z" fill="white"/>
</mask>
<g mask="url(#mask26_1_37718)">
<path d="M320.254 142.262C340.889 142.262 350.361 158.221 350.361 174.167C350.361 190.114 368.761 198.358 377.121 198.358V226.412C368.761 226.412 350.361 218.168 350.361 202.222C350.361 186.275 340.889 170.304 320.254 170.304V142.262Z" fill="#0DD180"/>
</g>
<mask id="mask27_1_37718" style="mask-type:luminance" maskUnits="userSpaceOnUse" x="-21" y="-23" width="455" height="310">
<path d="M21.5054 -23C-1.97015 -23 -21 -16.6632 -21 -8.84981L-21 272.85C-21 280.663 -1.97015 287 21.5054 287H391.495C414.97 287 434 280.663 434 272.85V-8.84981C434 -16.6632 414.97 -23 391.495 -23L21.5054 -23Z" fill="white"/>
</mask>
<g mask="url(#mask27_1_37718)">
<path d="M92.7461 142.261C113.381 142.261 122.853 158.22 122.853 174.166C122.853 190.113 141.253 198.357 149.613 198.357V226.411C141.253 226.411 122.853 218.167 122.853 202.221C122.853 186.274 113.381 170.303 92.7461 170.303V142.261Z" fill="#0DD180"/>
</g>
<mask id="mask28_1_37718" style="mask-type:luminance" maskUnits="userSpaceOnUse" x="-21" y="-23" width="455" height="310">
<path d="M21.5054 -23C-1.97015 -23 -21 -16.6632 -21 -8.84981L-21 272.85C-21 280.663 -1.97015 287 21.5054 287H391.495C414.97 287 434 280.663 434 272.85V-8.84981C434 -16.6632 414.97 -23 391.495 -23L21.5054 -23Z" fill="white"/>
</mask>
<g mask="url(#mask28_1_37718)">
<path d="M320.254 142.262C299.619 142.262 290.147 158.221 290.147 174.167C290.147 190.114 271.747 198.358 263.387 198.358V226.412C271.747 226.412 290.147 218.168 290.147 202.222C290.147 186.275 299.619 170.304 320.254 170.304V142.262Z" fill="#0DD180"/>
</g>
<mask id="mask29_1_37718" style="mask-type:luminance" maskUnits="userSpaceOnUse" x="-21" y="-23" width="455" height="310">
<path d="M21.5054 -23C-1.97015 -23 -21 -16.6632 -21 -8.84981L-21 272.85C-21 280.663 -1.97015 287 21.5054 287H391.495C414.97 287 434 280.663 434 272.85V-8.84981C434 -16.6632 414.97 -23 391.495 -23L21.5054 -23Z" fill="white"/>
</mask>
<g mask="url(#mask29_1_37718)">
<path d="M92.7462 142.262C72.111 142.262 62.6393 158.221 62.6393 174.167C62.6393 190.114 44.2392 198.358 35.8789 198.358L35.8789 226.412C44.2392 226.412 62.6393 218.168 62.6393 202.222C62.6393 186.275 72.1233 170.304 92.7462 170.304V142.262Z" fill="#0DD180"/>
</g>
<mask id="mask30_1_37718" style="mask-type:luminance" maskUnits="userSpaceOnUse" x="-21" y="-23" width="455" height="310">
<path d="M21.5054 -23C-1.97015 -23 -21 -16.6632 -21 -8.84981L-21 272.85C-21 280.663 -1.97015 287 21.5054 287H391.495C414.97 287 434 280.663 434 272.85V-8.84981C434 -16.6632 414.97 -23 391.495 -23L21.5054 -23Z" fill="white"/>
</mask>
<g mask="url(#mask30_1_37718)">
<path d="M434 142.262C413.365 142.262 403.893 158.221 403.893 174.167C403.893 190.114 385.493 198.358 377.133 198.358V226.412C385.493 226.412 403.893 218.168 403.893 202.222C403.893 186.275 413.377 170.304 434 170.304V142.262Z" fill="#0DD180"/>
</g>
<mask id="mask31_1_37718" style="mask-type:luminance" maskUnits="userSpaceOnUse" x="-21" y="-23" width="455" height="310">
<path d="M21.5054 -23C-1.97015 -23 -21 -16.6632 -21 -8.84981L-21 272.85C-21 280.663 -1.97015 287 21.5054 287H391.495C414.97 287 434 280.663 434 272.85V-8.84981C434 -16.6632 414.97 -23 391.495 -23L21.5054 -23Z" fill="white"/>
</mask>
<g mask="url(#mask31_1_37718)">
<path d="M206.508 142.262C185.873 142.262 176.401 158.221 176.401 174.167C176.401 190.114 158.001 198.358 149.641 198.358V226.412C158.001 226.412 176.401 218.168 176.401 202.222C176.401 186.275 185.873 170.304 206.508 170.304V142.262Z" fill="#0DD180"/>
</g>
<mask id="mask32_1_37718" style="mask-type:luminance" maskUnits="userSpaceOnUse" x="-21" y="-23" width="455" height="310">
<path d="M21.5054 -23C-1.97015 -23 -21 -16.6632 -21 -8.84981L-21 272.85C-21 280.663 -1.97015 287 21.5054 287H391.495C414.97 287 434 280.663 434 272.85V-8.84981C434 -16.6632 414.97 -23 391.495 -23L21.5054 -23Z" fill="white"/>
</mask>
<g mask="url(#mask32_1_37718)">
<path d="M206.508 201.816C227.143 201.816 236.615 217.775 236.615 233.722C236.615 249.669 255.015 257.913 263.375 257.913V285.967C255.015 285.967 236.615 277.723 236.615 261.776C236.615 245.83 227.131 229.871 206.508 229.871V201.816Z" fill="#0DD180"/>
</g>
<mask id="mask33_1_37718" style="mask-type:luminance" maskUnits="userSpaceOnUse" x="-21" y="-23" width="455" height="310">
<path d="M21.5054 -23C-1.97015 -23 -21 -16.6632 -21 -8.84981L-21 272.85C-21 280.663 -1.97015 287 21.5054 287H391.495C414.97 287 434 280.663 434 272.85V-8.84981C434 -16.6632 414.97 -23 391.495 -23L21.5054 -23Z" fill="white"/>
</mask>
<g mask="url(#mask33_1_37718)">
<path d="M-21 201.816C-0.364773 201.816 9.10693 217.775 9.10693 233.722C9.10693 249.669 27.507 257.913 35.8673 257.913L35.8673 285.967C27.507 285.967 9.10693 277.723 9.10693 261.776C9.10693 245.83 -0.364773 229.871 -21 229.871V201.816Z" fill="#0DD180"/>
</g>
<mask id="mask34_1_37718" style="mask-type:luminance" maskUnits="userSpaceOnUse" x="-21" y="-23" width="455" height="310">
<path d="M21.5054 -23C-1.97015 -23 -21 -16.6632 -21 -8.84981L-21 272.85C-21 280.663 -1.97015 287 21.5054 287H391.495C414.97 287 434 280.663 434 272.85V-8.84981C434 -16.6632 414.97 -23 391.495 -23L21.5054 -23Z" fill="white"/>
</mask>
<g mask="url(#mask34_1_37718)">
<path d="M320.254 201.816C340.889 201.816 350.361 217.775 350.361 233.722C350.361 249.669 368.761 257.913 377.121 257.913V285.967C368.761 285.967 350.361 277.723 350.361 261.776C350.361 245.83 340.877 229.871 320.254 229.871V201.816Z" fill="#0DD180"/>
</g>
<mask id="mask35_1_37718" style="mask-type:luminance" maskUnits="userSpaceOnUse" x="-21" y="-23" width="455" height="310">
<path d="M21.5054 -23C-1.97015 -23 -21 -16.6632 -21 -8.84981L-21 272.85C-21 280.663 -1.97015 287 21.5054 287H391.495C414.97 287 434 280.663 434 272.85V-8.84981C434 -16.6632 414.97 -23 391.495 -23L21.5054 -23Z" fill="white"/>
</mask>
<g mask="url(#mask35_1_37718)">
<path d="M92.7461 201.816C113.381 201.816 122.853 217.775 122.853 233.722C122.853 249.669 141.253 257.913 149.613 257.913V285.967C141.253 285.967 122.853 277.723 122.853 261.776C122.853 245.83 113.369 229.871 92.7461 229.871V201.816Z" fill="#0DD180"/>
</g>
<mask id="mask36_1_37718" style="mask-type:luminance" maskUnits="userSpaceOnUse" x="-21" y="-23" width="455" height="310">
<path d="M21.5054 -23C-1.97015 -23 -21 -16.6632 -21 -8.84981L-21 272.85C-21 280.663 -1.97015 287 21.5054 287H391.495C414.97 287 434 280.663 434 272.85V-8.84981C434 -16.6632 414.97 -23 391.495 -23L21.5054 -23Z" fill="white"/>
</mask>
<g mask="url(#mask36_1_37718)">
<path d="M320.254 201.816C299.619 201.816 290.147 217.775 290.147 233.722C290.147 249.669 271.747 257.913 263.387 257.913V285.967C271.747 285.967 290.147 277.723 290.147 261.776C290.147 245.83 299.631 229.871 320.254 229.871V201.816Z" fill="#0DD180"/>
</g>
<mask id="mask37_1_37718" style="mask-type:luminance" maskUnits="userSpaceOnUse" x="-21" y="-23" width="455" height="310">
<path d="M21.5054 -23C-1.97015 -23 -21 -16.6632 -21 -8.84981L-21 272.85C-21 280.663 -1.97015 287 21.5054 287H391.495C414.97 287 434 280.663 434 272.85V-8.84981C434 -16.6632 414.97 -23 391.495 -23L21.5054 -23Z" fill="white"/>
</mask>
<g mask="url(#mask37_1_37718)">
<path d="M92.7462 201.816C72.111 201.816 62.6393 217.775 62.6393 233.722C62.6393 249.669 44.2392 257.913 35.8789 257.913L35.8789 285.967C44.2392 285.967 62.6393 277.723 62.6393 261.776C62.6393 245.83 72.1233 229.871 92.7462 229.871V201.816Z" fill="#0DD180"/>
</g>
<mask id="mask38_1_37718" style="mask-type:luminance" maskUnits="userSpaceOnUse" x="-21" y="-23" width="455" height="310">
<path d="M21.5054 -23C-1.97015 -23 -21 -16.6632 -21 -8.84981L-21 272.85C-21 280.663 -1.97015 287 21.5054 287H391.495C414.97 287 434 280.663 434 272.85V-8.84981C434 -16.6632 414.97 -23 391.495 -23L21.5054 -23Z" fill="white"/>
</mask>
<g mask="url(#mask38_1_37718)">
<path d="M434 201.816C413.365 201.816 403.893 217.775 403.893 233.722C403.893 249.669 385.493 257.913 377.133 257.913V285.967C385.493 285.967 403.893 277.723 403.893 261.776C403.893 245.83 413.377 229.871 434 229.871V201.816Z" fill="#0DD180"/>
</g>
<mask id="mask39_1_37718" style="mask-type:luminance" maskUnits="userSpaceOnUse" x="-21" y="-23" width="455" height="310">
<path d="M21.5054 -23C-1.97015 -23 -21 -16.6632 -21 -8.84981L-21 272.85C-21 280.663 -1.97015 287 21.5054 287H391.495C414.97 287 434 280.663 434 272.85V-8.84981C434 -16.6632 414.97 -23 391.495 -23L21.5054 -23Z" fill="white"/>
</mask>
<g mask="url(#mask39_1_37718)">
<path d="M206.508 201.816C185.873 201.816 176.401 217.775 176.401 233.722C176.401 249.669 158.001 257.913 149.641 257.913V285.967C158.001 285.967 176.401 277.723 176.401 261.776C176.401 245.83 185.885 229.871 206.508 229.871V201.816Z" fill="#0DD180"/>
</g>
</svg>
